G04*
G04 #@! TF.GenerationSoftware,Altium Limited,Altium Designer,24.5.2 (23)*
G04*
G04 Layer_Physical_Order=1*
G04 Layer_Color=255*
%FSLAX25Y25*%
%MOIN*%
G70*
G04*
G04 #@! TF.SameCoordinates,BE672D6A-22B5-4311-9D4D-3F017F5E6AAD*
G04*
G04*
G04 #@! TF.FilePolarity,Positive*
G04*
G01*
G75*
%ADD11C,0.00787*%
%ADD16R,0.01575X0.01575*%
%ADD17R,0.01378X0.01575*%
%ADD18R,0.04331X0.03937*%
%ADD19R,0.08661X0.04134*%
%ADD20R,0.04134X0.03071*%
%ADD21R,0.03543X0.03661*%
%ADD22R,0.02756X0.13110*%
%ADD23R,0.03386X0.11024*%
%ADD24R,0.04488X0.07205*%
%ADD25R,0.02756X0.04331*%
%ADD26R,0.04724X0.05118*%
%ADD27C,0.03937*%
%ADD28R,0.05906X0.05906*%
G04:AMPARAMS|DCode=29|XSize=98.43mil|YSize=31.5mil|CornerRadius=15.75mil|HoleSize=0mil|Usage=FLASHONLY|Rotation=90.000|XOffset=0mil|YOffset=0mil|HoleType=Round|Shape=RoundedRectangle|*
%AMROUNDEDRECTD29*
21,1,0.09843,0.00000,0,0,90.0*
21,1,0.06693,0.03150,0,0,90.0*
1,1,0.03150,0.00000,0.03347*
1,1,0.03150,0.00000,-0.03347*
1,1,0.03150,0.00000,-0.03347*
1,1,0.03150,0.00000,0.03347*
%
%ADD29ROUNDEDRECTD29*%
%ADD30R,0.04331X0.04331*%
G04:AMPARAMS|DCode=31|XSize=98.43mil|YSize=31.5mil|CornerRadius=15.75mil|HoleSize=0mil|Usage=FLASHONLY|Rotation=180.000|XOffset=0mil|YOffset=0mil|HoleType=Round|Shape=RoundedRectangle|*
%AMROUNDEDRECTD31*
21,1,0.09843,0.00000,0,0,180.0*
21,1,0.06693,0.03150,0,0,180.0*
1,1,0.03150,-0.03347,0.00000*
1,1,0.03150,0.03347,0.00000*
1,1,0.03150,0.03347,0.00000*
1,1,0.03150,-0.03347,0.00000*
%
%ADD31ROUNDEDRECTD31*%
%ADD32R,0.11811X0.07874*%
%ADD33R,0.04016X0.03701*%
%ADD34R,0.03937X0.03543*%
%ADD35R,0.05118X0.04724*%
%ADD36R,0.10236X0.14173*%
%ADD37R,0.03701X0.04016*%
%ADD38R,0.05512X0.08268*%
%ADD39R,0.05906X0.03543*%
%ADD40R,0.03543X0.05906*%
%ADD41R,0.03543X0.03543*%
%ADD42R,0.01968X0.03150*%
%ADD43R,0.05512X0.03937*%
%ADD44R,0.07677X0.04134*%
%ADD45R,0.04213X0.08504*%
%ADD46R,0.04100X0.15900*%
%ADD47R,0.08661X0.13780*%
%ADD48R,0.08661X0.04724*%
%ADD49R,0.09843X0.12992*%
%ADD50R,0.11417X0.21260*%
%ADD51R,0.05906X0.08661*%
%ADD52R,0.08661X0.05906*%
%ADD53R,0.08268X0.08268*%
%ADD54R,0.04724X0.01181*%
%ADD55R,0.01181X0.04724*%
%ADD56R,0.08661X0.16929*%
%ADD57R,0.08976X0.04724*%
%ADD58R,0.25197X0.22835*%
%ADD59R,0.08268X0.05906*%
G04:AMPARAMS|DCode=60|XSize=59.06mil|YSize=17.72mil|CornerRadius=1.97mil|HoleSize=0mil|Usage=FLASHONLY|Rotation=270.000|XOffset=0mil|YOffset=0mil|HoleType=Round|Shape=RoundedRectangle|*
%AMROUNDEDRECTD60*
21,1,0.05906,0.01378,0,0,270.0*
21,1,0.05512,0.01772,0,0,270.0*
1,1,0.00394,-0.00689,-0.02756*
1,1,0.00394,-0.00689,0.02756*
1,1,0.00394,0.00689,0.02756*
1,1,0.00394,0.00689,-0.02756*
%
%ADD60ROUNDEDRECTD60*%
%ADD61R,0.42300X0.32700*%
%ADD62R,0.21260X0.11417*%
%ADD63R,0.16929X0.08661*%
%ADD64R,0.02284X0.08268*%
%ADD65R,0.02559X0.04449*%
%ADD66R,0.02953X0.04449*%
%ADD134C,0.01968*%
%ADD135C,0.01320*%
%ADD136C,0.01000*%
%ADD137C,0.03150*%
%AMCUSTOMSHAPE138*
4,1,8,-0.21260,-0.15098,-0.21260,-0.09311,-0.17126,-0.09311,-0.17126,0.15098,0.17126,0.15098,0.17126,-0.09311,0.21260,-0.09311,0.21260,-0.15098,-0.21260,-0.15098,0.0*%
%ADD138CUSTOMSHAPE138*%

%ADD139C,0.01575*%
%ADD140C,0.03937*%
%ADD141C,0.02756*%
%ADD142C,0.02362*%
%ADD143C,0.01181*%
%ADD144C,0.03543*%
%ADD145C,0.06496*%
%ADD146R,0.06496X0.06496*%
%ADD147C,0.05906*%
%ADD148R,0.06496X0.06496*%
%ADD149R,0.05906X0.05906*%
%ADD150C,0.05118*%
%ADD151C,0.13780*%
%ADD152R,0.11811X0.11811*%
%ADD153C,0.11811*%
%ADD154R,0.19685X0.07874*%
%ADD155R,0.07874X0.19685*%
%ADD156C,0.07874*%
%ADD157R,0.07874X0.07874*%
%ADD158C,0.02756*%
%ADD159C,0.02000*%
G36*
X177165Y298764D02*
X174981D01*
Y295205D01*
Y291646D01*
X177165D01*
Y288992D01*
X174909D01*
Y285433D01*
Y281874D01*
X177165D01*
Y277567D01*
X162807D01*
Y276598D01*
X160689D01*
Y271346D01*
X160189D01*
Y270846D01*
X157083D01*
Y266094D01*
X156434Y265970D01*
X152165D01*
Y267323D01*
X151197D01*
Y269972D01*
X144079D01*
Y267323D01*
X143110D01*
Y263779D01*
X137795D01*
X137795Y277144D01*
X138474Y278160D01*
X139067Y279593D01*
X139370Y281114D01*
Y282665D01*
X139067Y284187D01*
X138474Y285619D01*
X137795Y286635D01*
Y300197D01*
X126766D01*
X126578Y300897D01*
X127047Y301167D01*
X127966Y302087D01*
X128616Y303212D01*
X128953Y304468D01*
Y304618D01*
X124016D01*
X119079D01*
Y304468D01*
X119415Y303212D01*
X120065Y302087D01*
X120984Y301167D01*
X121453Y300897D01*
X121266Y300197D01*
X114955D01*
X114767Y300897D01*
X115236Y301167D01*
X116155Y302087D01*
X116805Y303212D01*
X117142Y304468D01*
Y304618D01*
X112205D01*
X107268D01*
Y304468D01*
X107604Y303212D01*
X108254Y302087D01*
X109173Y301167D01*
X109642Y300897D01*
X109455Y300197D01*
X104331D01*
Y310039D01*
X109455D01*
X109642Y309339D01*
X109173Y309069D01*
X108254Y308150D01*
X107604Y307024D01*
X107268Y305768D01*
Y305618D01*
X112205D01*
X117142D01*
Y305768D01*
X116805Y307024D01*
X116155Y308150D01*
X115236Y309069D01*
X114767Y309339D01*
X114955Y310039D01*
X116142D01*
Y309842D01*
X120925D01*
X121112Y309142D01*
X120984Y309069D01*
X120065Y308150D01*
X119415Y307024D01*
X119079Y305768D01*
Y305618D01*
X124016D01*
X128953D01*
Y305768D01*
X128616Y307024D01*
X127966Y308150D01*
X127047Y309069D01*
X126919Y309142D01*
X127107Y309842D01*
X131890D01*
Y310039D01*
X137795Y315945D01*
Y318898D01*
X177165D01*
Y298764D01*
D02*
G37*
G36*
X104331Y296226D02*
X108014D01*
X108150Y295898D01*
X108240Y295526D01*
X107604Y294425D01*
X107268Y293170D01*
Y293020D01*
X112205D01*
Y292520D01*
D01*
Y293020D01*
X117142D01*
Y293170D01*
X116805Y294425D01*
X116170Y295526D01*
X116260Y295898D01*
X116395Y296226D01*
X119825D01*
X119961Y295898D01*
X120051Y295526D01*
X119415Y294425D01*
X119079Y293170D01*
Y293020D01*
X124016D01*
X128953D01*
Y293170D01*
X128616Y294425D01*
X127981Y295526D01*
X128070Y295898D01*
X128206Y296226D01*
X133824D01*
Y290169D01*
X133124Y289594D01*
X132272Y289764D01*
X130720D01*
X129199Y289461D01*
X128621Y289222D01*
X128133Y289777D01*
X128616Y290614D01*
X128953Y291870D01*
Y292020D01*
X124516D01*
Y287583D01*
X124666D01*
X125209Y287728D01*
X125571Y287101D01*
X125380Y286909D01*
X124518Y285619D01*
X123925Y284187D01*
X123622Y282665D01*
Y281114D01*
X123925Y279593D01*
X124518Y278160D01*
X125380Y276870D01*
X126477Y275774D01*
X127766Y274912D01*
X129199Y274318D01*
X130720Y274016D01*
X132272D01*
X133124Y274185D01*
X133824Y273611D01*
X133824Y263779D01*
X133960Y262752D01*
X134356Y261794D01*
X134987Y260972D01*
X135810Y260341D01*
X136767Y259944D01*
X137795Y259809D01*
X143110D01*
Y258661D01*
X143701D01*
Y246063D01*
X67760D01*
X67522Y246721D01*
X73819Y251969D01*
X93504Y271654D01*
Y296260D01*
X104073D01*
X104331Y296226D01*
D02*
G37*
G36*
X88583Y273622D02*
X78740Y263779D01*
X57926Y242965D01*
X50376Y235415D01*
X50376Y235415D01*
X49213Y234252D01*
Y232607D01*
Y222063D01*
Y197228D01*
Y189961D01*
Y188976D01*
Y135420D01*
X34902D01*
X33874Y135285D01*
X32916Y134888D01*
X32094Y134257D01*
X31463Y133435D01*
X31066Y132477D01*
X30971Y131759D01*
X28524D01*
Y126428D01*
Y121098D01*
X30931D01*
Y119948D01*
X28524D01*
Y114618D01*
X28024D01*
Y114118D01*
X24071D01*
Y109287D01*
X23385Y109252D01*
X18740D01*
Y109291D01*
X10787D01*
Y109252D01*
X2208D01*
Y160784D01*
X5906D01*
X5906Y160784D01*
Y160784D01*
X5990Y160801D01*
X7543Y160923D01*
X9139Y161307D01*
X10657Y161935D01*
X12057Y162793D01*
X13306Y163860D01*
X14372Y165109D01*
X15230Y166509D01*
X15859Y168026D01*
X16242Y169623D01*
X16371Y171260D01*
X16242Y172897D01*
X15859Y174494D01*
X15230Y176011D01*
X14372Y177411D01*
X13306Y178660D01*
X12057Y179727D01*
X10657Y180585D01*
X9139Y181213D01*
X7543Y181596D01*
X5990Y181719D01*
X5906Y181735D01*
X2196D01*
Y269571D01*
X3240Y269623D01*
X6942Y270172D01*
X10572Y271081D01*
X14095Y272342D01*
X17478Y273942D01*
X20688Y275866D01*
X23694Y278095D01*
X26467Y280608D01*
X28980Y283381D01*
X30502Y285433D01*
X44488D01*
Y284252D01*
X60024D01*
Y280496D01*
X70366D01*
Y285433D01*
Y290370D01*
X60236D01*
Y299213D01*
X88583D01*
Y273622D01*
D02*
G37*
G36*
X39370Y340312D02*
X234039D01*
Y332764D01*
X240157D01*
X246276D01*
Y340312D01*
X444867D01*
Y338341D01*
X455529D01*
Y340312D01*
X499300D01*
X499315Y340312D01*
X500000Y340312D01*
X500657Y340207D01*
X500672Y340204D01*
X501241Y339824D01*
X501622Y339254D01*
X501625Y339239D01*
X501729Y338583D01*
X501741Y338523D01*
X501741Y337883D01*
X501743Y308057D01*
X501756Y307988D01*
X501736Y307571D01*
X501920Y303834D01*
X502469Y300132D01*
X503378Y296502D01*
X504638Y292979D01*
X506238Y289597D01*
X508162Y286387D01*
X510391Y283381D01*
X512904Y280609D01*
X515677Y278096D01*
X518682Y275867D01*
X521892Y273943D01*
X525275Y272343D01*
X528798Y271082D01*
X532428Y270173D01*
X536129Y269624D01*
X537162Y269573D01*
Y181735D01*
X533465D01*
X533465Y181735D01*
Y181735D01*
X533380Y181719D01*
X531827Y181596D01*
X530231Y181213D01*
X528713Y180585D01*
X527313Y179727D01*
X526064Y178660D01*
X524998Y177411D01*
X524140Y176011D01*
X523511Y174494D01*
X523128Y172897D01*
X522999Y171260D01*
X523128Y169623D01*
X523511Y168026D01*
X524140Y166509D01*
X524998Y165109D01*
X526064Y163860D01*
X527313Y162793D01*
X528713Y161935D01*
X530231Y161307D01*
X531827Y160923D01*
X533380Y160801D01*
X533465Y160784D01*
X537162D01*
Y72948D01*
X536130Y72897D01*
X532429Y72348D01*
X528798Y71439D01*
X525275Y70178D01*
X521892Y68578D01*
X518682Y66654D01*
X515676Y64425D01*
X512903Y61912D01*
X510390Y59139D01*
X508161Y56133D01*
X506237Y52923D01*
X504637Y49540D01*
X503376Y46016D01*
X502467Y42386D01*
X501918Y38685D01*
X501734Y34947D01*
X501755Y34530D01*
X501741Y34461D01*
Y21689D01*
X365158D01*
X364767Y21611D01*
X364437Y21390D01*
X364215Y21059D01*
X364138Y20669D01*
Y2208D01*
X331961D01*
Y13236D01*
X333950D01*
X334767Y13343D01*
X335528Y13658D01*
X336034Y14047D01*
X337464D01*
Y14474D01*
X337985D01*
X338379Y14526D01*
X338773Y14474D01*
X340151D01*
X340801Y14560D01*
X341484Y14277D01*
X341590Y14263D01*
Y14047D01*
X345017D01*
X345088Y13954D01*
X345742Y13452D01*
X346503Y13137D01*
X347320Y13029D01*
X348775D01*
Y9757D01*
X353605D01*
Y12823D01*
X354105D01*
Y13323D01*
X359436D01*
Y15641D01*
X360051D01*
X360441Y15719D01*
X360772Y15939D01*
X360993Y16270D01*
X361071Y16660D01*
Y20597D01*
X360993Y20988D01*
X360772Y21318D01*
X360441Y21540D01*
X360051Y21617D01*
X359436D01*
Y23938D01*
X348775D01*
Y23280D01*
X347320D01*
X346503Y23172D01*
X345742Y22857D01*
X345365Y22568D01*
X343476D01*
Y22058D01*
X342301D01*
X341650Y21972D01*
X340968Y22255D01*
X340151Y22362D01*
X338773D01*
X338379Y22310D01*
X337985Y22362D01*
X336486D01*
X336182Y22758D01*
X335528Y23260D01*
X334767Y23575D01*
X334042Y23671D01*
Y26005D01*
X329204D01*
X324365D01*
Y23438D01*
X324365Y23438D01*
X324365D01*
X324126Y22823D01*
X324041Y22758D01*
X323970Y22666D01*
X323397D01*
Y21761D01*
X323224Y21343D01*
X323116Y20526D01*
Y16392D01*
X323224Y15575D01*
X323348Y15275D01*
X323397Y14595D01*
D01*
X323415Y14480D01*
X322820Y13780D01*
X318181D01*
Y10284D01*
X317534Y10016D01*
X317498Y10053D01*
X316597Y10573D01*
X315591Y10842D01*
X315571D01*
Y6890D01*
X314571D01*
Y10842D01*
X314550D01*
X313545Y10573D01*
X312644Y10053D01*
X312172Y9580D01*
X311365Y9697D01*
X311176Y10153D01*
X310422Y11282D01*
X309463Y12241D01*
X308334Y12995D01*
X307081Y13515D01*
X305749Y13780D01*
X304392D01*
X303061Y13515D01*
X301807Y12995D01*
X300679Y12241D01*
X300071Y11633D01*
X299463Y12241D01*
X298334Y12995D01*
X297080Y13515D01*
X295749Y13780D01*
X295550D01*
X292348Y16982D01*
Y52952D01*
X292348Y52952D01*
X292247Y53723D01*
X291999Y54322D01*
X292283Y55023D01*
X321173D01*
X321416Y54882D01*
X322267Y54654D01*
X323148D01*
X323397Y54464D01*
Y46091D01*
Y38217D01*
Y30343D01*
X335011D01*
Y38217D01*
Y39898D01*
X335711Y40352D01*
X336487Y40250D01*
X358141D01*
X359169Y40385D01*
X360126Y40782D01*
X360949Y41413D01*
X361580Y42236D01*
X361977Y43193D01*
X362112Y44221D01*
Y53116D01*
X402559D01*
X403587Y53251D01*
X404544Y53648D01*
X405367Y54279D01*
X405998Y55101D01*
X406395Y56059D01*
X406530Y57087D01*
Y63701D01*
X412028D01*
Y71344D01*
X413091D01*
X414118Y71479D01*
X415076Y71876D01*
X415899Y72507D01*
X416530Y73330D01*
X416926Y74287D01*
X417062Y75315D01*
Y103582D01*
X417588Y104043D01*
X417756Y104021D01*
X419962D01*
X420989Y104156D01*
X421766Y104478D01*
X422445Y104630D01*
Y104630D01*
X422445Y104630D01*
X424323D01*
Y112185D01*
Y119740D01*
X422445D01*
X422445Y119740D01*
X421948Y119947D01*
X421947Y119948D01*
X420989Y120344D01*
X419962Y120480D01*
X419468D01*
Y120709D01*
X413973D01*
X413026Y121101D01*
X411998Y121236D01*
X409823D01*
X408795Y121101D01*
X407837Y120704D01*
X407015Y120073D01*
X406384Y119251D01*
X405987Y118293D01*
X405852Y117265D01*
Y115079D01*
X405987Y114051D01*
X406384Y113093D01*
X407015Y112271D01*
X407837Y111640D01*
X408795Y111243D01*
X409823Y111108D01*
X411998D01*
X413026Y111243D01*
X413203Y111316D01*
X413785Y110927D01*
Y109725D01*
X413259Y109264D01*
X413091Y109286D01*
X394384D01*
Y113262D01*
X394902Y113701D01*
X395083Y113701D01*
X402972D01*
Y120709D01*
X396129D01*
X395665Y121409D01*
X395752Y121615D01*
X395764Y121618D01*
X396527Y122058D01*
X397150Y122681D01*
X397591Y123444D01*
X397819Y124296D01*
Y124961D01*
X404511D01*
Y125591D01*
X404968D01*
X405819Y125819D01*
X406582Y126259D01*
X407205Y126882D01*
X407646Y127645D01*
X407874Y128496D01*
Y129378D01*
X407646Y130229D01*
X407205Y130992D01*
X406746Y131451D01*
X406645Y131890D01*
X406746Y132328D01*
X407205Y132788D01*
X407646Y133551D01*
X407874Y134402D01*
Y135283D01*
X407646Y136134D01*
X407205Y136897D01*
X406582Y137520D01*
X405819Y137961D01*
X404968Y138189D01*
X404511D01*
Y138745D01*
X397819D01*
Y139606D01*
X397591Y140457D01*
X397150Y141220D01*
X396527Y141843D01*
X395764Y142284D01*
X394913Y142512D01*
X394032D01*
X393181Y142284D01*
X392418Y141843D01*
X391795Y141220D01*
X391354Y140457D01*
X391126Y139606D01*
Y138745D01*
X390653D01*
Y137151D01*
X389669Y136743D01*
X389121Y136322D01*
X389121Y136322D01*
X388592Y135916D01*
X388589Y135914D01*
X388591Y135911D01*
X387538Y134627D01*
X386831Y133306D01*
X386516Y133187D01*
X386465Y133180D01*
X386036Y133205D01*
X384922Y134510D01*
X384911Y134499D01*
X384149Y135261D01*
X384158Y135270D01*
X383039Y136189D01*
X382756Y136340D01*
Y138745D01*
X382283D01*
Y139606D01*
X382055Y140457D01*
X381615Y141220D01*
X380992Y141843D01*
X380229Y142284D01*
X379378Y142512D01*
X378496D01*
X377645Y142284D01*
X376882Y141843D01*
X376259Y141220D01*
X375819Y140457D01*
X375591Y139606D01*
Y138745D01*
X368898D01*
Y138192D01*
X368875Y138189D01*
X368654D01*
X368440Y138132D01*
X368221Y138103D01*
X368017Y138018D01*
X367803Y137961D01*
X367611Y137850D01*
X367407Y137766D01*
X367231Y137631D01*
X367040Y137520D01*
X366883Y137364D01*
X366708Y137229D01*
X366573Y137054D01*
X366417Y136897D01*
X366306Y136706D01*
X366171Y136530D01*
X366087Y136326D01*
X365976Y136134D01*
X365919Y135921D01*
X365834Y135716D01*
X365805Y135497D01*
X365748Y135283D01*
Y135062D01*
X365719Y134843D01*
X365748Y134623D01*
Y134402D01*
X365805Y134188D01*
X365834Y133969D01*
X365919Y133765D01*
X365976Y133551D01*
X366087Y133359D01*
X366171Y133155D01*
X366306Y132979D01*
X366417Y132788D01*
X366573Y132631D01*
X366708Y132456D01*
X366781Y132382D01*
X366862Y132320D01*
X366948Y131978D01*
X366937Y131631D01*
X366932Y131605D01*
X366863Y131438D01*
X366417Y130992D01*
X365976Y130229D01*
X365748Y129378D01*
Y128496D01*
X365976Y127645D01*
X366417Y126882D01*
X367040Y126259D01*
X367803Y125819D01*
X368654Y125591D01*
X368898D01*
Y124961D01*
X375591D01*
Y124296D01*
X375819Y123444D01*
X376259Y122681D01*
X376882Y122058D01*
X377645Y121618D01*
X378496Y121390D01*
X378525D01*
X378903Y120929D01*
X379583Y119657D01*
X380002Y118277D01*
X380140Y116877D01*
X380135Y116842D01*
Y109286D01*
X376177D01*
Y111685D01*
X373799D01*
X371421D01*
Y109154D01*
X371393Y109151D01*
X370436Y108754D01*
X369613Y108123D01*
X368982Y107300D01*
X368586Y106343D01*
X368450Y105315D01*
Y89601D01*
X360842D01*
Y89854D01*
X357284D01*
X353724D01*
Y89601D01*
X352969D01*
Y89854D01*
X349409D01*
X345850D01*
Y89601D01*
X337598D01*
X336571Y89466D01*
X335613Y89069D01*
X334790Y88438D01*
X334159Y87615D01*
X333763Y86658D01*
X333627Y85630D01*
Y77784D01*
X323397D01*
Y69713D01*
Y62005D01*
X323148Y61347D01*
X322267D01*
X321416Y61119D01*
X321173Y60979D01*
X292445D01*
X283363Y70061D01*
Y84025D01*
X283503Y84268D01*
X283731Y85119D01*
Y86000D01*
X283503Y86851D01*
X283063Y87615D01*
X282440Y88238D01*
X281677Y88678D01*
X280825Y88906D01*
X279944D01*
X279093Y88678D01*
X278416Y88287D01*
X277740Y88678D01*
X276888Y88906D01*
X276007D01*
X275156Y88678D01*
X274393Y88238D01*
X273770Y87615D01*
X273329Y86851D01*
X273101Y86000D01*
Y85119D01*
X273329Y84268D01*
X273770Y83505D01*
X274393Y82882D01*
X275156Y82441D01*
X276007Y82213D01*
X276888D01*
X277407Y81816D01*
Y69998D01*
X276743Y69910D01*
Y69910D01*
X265129D01*
Y61839D01*
Y53965D01*
Y46091D01*
Y38217D01*
Y30343D01*
Y22469D01*
X276743D01*
Y30354D01*
X276834Y30399D01*
X277534Y29964D01*
Y16333D01*
X276270Y15070D01*
X275775Y15564D01*
Y18131D01*
X271436D01*
Y15564D01*
X275774D01*
X276268Y15068D01*
X274980Y13780D01*
X274392D01*
X273061Y13515D01*
X271807Y12995D01*
X270679Y12241D01*
X269719Y11282D01*
X268965Y10153D01*
X268446Y8899D01*
X268181Y7568D01*
Y6211D01*
X268446Y4880D01*
X268965Y3626D01*
X269445Y2908D01*
X269071Y2208D01*
X266768D01*
Y15564D01*
X270436D01*
Y18631D01*
Y21698D01*
X266097D01*
Y21698D01*
X266021Y21635D01*
X265748Y21689D01*
X261614D01*
Y24606D01*
X252165D01*
Y21689D01*
X243898D01*
Y24606D01*
X234449D01*
Y24606D01*
X234055D01*
Y24606D01*
X224606D01*
Y21689D01*
X216339D01*
Y24606D01*
X206890D01*
Y21689D01*
X37629D01*
Y34461D01*
X37615Y34530D01*
X37636Y34947D01*
X37452Y38685D01*
X36903Y42386D01*
X35994Y46016D01*
X34733Y49540D01*
X33133Y52923D01*
X31209Y56133D01*
X28980Y59139D01*
X26467Y61912D01*
X23694Y64425D01*
X20688Y66654D01*
X17478Y68578D01*
X14095Y70178D01*
X10572Y71439D01*
X6942Y72348D01*
X3240Y72897D01*
X2208Y72948D01*
Y105281D01*
X10787D01*
X11056Y105316D01*
X11260Y105317D01*
X11756Y104824D01*
Y103071D01*
X10787D01*
Y95433D01*
X24646D01*
Y96274D01*
X26332D01*
X27119Y96063D01*
X28000D01*
X28851Y96291D01*
X29094Y96431D01*
X29891D01*
X30063Y96259D01*
X30961Y95741D01*
X31962Y95473D01*
X32999D01*
X34000Y95741D01*
X34898Y96259D01*
X35631Y96992D01*
X36149Y97890D01*
X36417Y98891D01*
Y99928D01*
X36149Y100929D01*
X35631Y101827D01*
X34898Y102560D01*
X34000Y103078D01*
X32999Y103347D01*
X31962D01*
X30961Y103078D01*
X30063Y102560D01*
X29891Y102388D01*
X29094D01*
X28851Y102528D01*
X28000Y102756D01*
X27119D01*
X26267Y102528D01*
X25752Y102230D01*
X24646D01*
Y105389D01*
X24684Y105396D01*
X25099Y105451D01*
X25192Y105490D01*
X25292Y105508D01*
X25670Y105688D01*
X26056Y105848D01*
X26137Y105910D01*
X26228Y105953D01*
X26547Y106224D01*
X26879Y106479D01*
X26941Y106559D01*
X27018Y106625D01*
X27255Y106969D01*
X27510Y107301D01*
X27549Y107395D01*
X27606Y107478D01*
X27746Y107872D01*
X27907Y108259D01*
X27914Y108318D01*
X31182D01*
X31463Y107641D01*
X32094Y106818D01*
X32916Y106187D01*
X33874Y105790D01*
X34902Y105655D01*
X72368D01*
Y79998D01*
X70557D01*
Y80549D01*
X61896D01*
Y79580D01*
X59246D01*
Y76021D01*
Y72462D01*
X61896D01*
Y71494D01*
X70557D01*
Y72045D01*
X72472D01*
X72503Y71807D01*
X72900Y70849D01*
X73531Y70027D01*
X74353Y69396D01*
X75311Y68999D01*
X76339Y68864D01*
X111409D01*
X112437Y68999D01*
X113394Y69396D01*
X114217Y70027D01*
X114848Y70849D01*
X115245Y71807D01*
X115380Y72835D01*
Y117500D01*
X115245Y118528D01*
X114848Y119485D01*
X114217Y120308D01*
X113394Y120939D01*
X112437Y121336D01*
X111409Y121471D01*
X101865D01*
Y131476D01*
X101729Y132504D01*
X101333Y133462D01*
X100702Y134284D01*
X99879Y134915D01*
X98922Y135312D01*
X97894Y135447D01*
X92277D01*
X92080Y135923D01*
X91449Y136745D01*
X90627Y137376D01*
X90610Y137383D01*
Y138443D01*
X91628D01*
X92170Y138027D01*
X93032Y137670D01*
X93957Y137548D01*
X110028D01*
Y137045D01*
X110997D01*
Y134395D01*
X114556D01*
Y133895D01*
X115056D01*
Y130533D01*
X120946D01*
Y133895D01*
X121946D01*
Y130533D01*
X124434D01*
Y72835D01*
X124570Y71807D01*
X124967Y70849D01*
X125598Y70027D01*
X126420Y69396D01*
X127378Y68999D01*
X128405Y68864D01*
X149606D01*
X150634Y68999D01*
X151592Y69396D01*
X152414Y70027D01*
X153045Y70849D01*
X153442Y71807D01*
X153577Y72835D01*
Y143701D01*
X153442Y144729D01*
X153045Y145686D01*
X152414Y146509D01*
Y146798D01*
X153045Y147621D01*
X153442Y148579D01*
X153577Y149606D01*
Y209646D01*
Y213552D01*
X155478D01*
Y167323D01*
X155613Y166295D01*
X156010Y165337D01*
X156641Y164515D01*
X157463Y163884D01*
X158421Y163487D01*
X159449Y163352D01*
X202756D01*
X203784Y163487D01*
X204741Y163884D01*
X205564Y164515D01*
X206195Y165337D01*
X206592Y166295D01*
X206727Y167323D01*
Y186024D01*
X206592Y187051D01*
X206195Y188009D01*
X205564Y188831D01*
X204741Y189463D01*
X203784Y189859D01*
X202756Y189995D01*
X190979D01*
Y210600D01*
X191973Y210731D01*
X192930Y211128D01*
X193753Y211759D01*
X194384Y212581D01*
X194781Y213539D01*
X194782Y213552D01*
X194835D01*
X195603Y213705D01*
X196254Y214140D01*
X196689Y214791D01*
X196842Y215559D01*
Y221346D01*
X196689Y222114D01*
X196254Y222766D01*
X195603Y223201D01*
X194916Y223337D01*
Y239173D01*
X194781Y240201D01*
X194384Y241159D01*
X193753Y241981D01*
X192930Y242612D01*
X192708Y242704D01*
Y245756D01*
X192555Y246524D01*
X192120Y247175D01*
X191469Y247610D01*
X190701Y247763D01*
X177149D01*
Y257757D01*
X177849Y257995D01*
X178162Y257587D01*
X180807Y254941D01*
X180807Y254941D01*
X181424Y254468D01*
X182143Y254170D01*
X182913Y254069D01*
X194843D01*
Y247008D01*
X195245D01*
Y246063D01*
X195367Y245138D01*
X195724Y244276D01*
X196292Y243536D01*
X197032Y242968D01*
X197894Y242611D01*
X198819Y242489D01*
X199744Y242611D01*
X200606Y242968D01*
X201346Y243536D01*
X201914Y244276D01*
X202271Y245138D01*
X202393Y246063D01*
Y247008D01*
X202795D01*
Y253228D01*
Y260787D01*
Y268425D01*
X201827D01*
Y270327D01*
X198819D01*
X195811D01*
Y268425D01*
X194843D01*
Y260026D01*
X184147D01*
X183246Y260927D01*
Y265126D01*
X184343D01*
Y266094D01*
X186461D01*
Y271346D01*
Y276598D01*
X184343D01*
Y277567D01*
X181136D01*
Y281874D01*
X181390D01*
Y285433D01*
Y288992D01*
X181136D01*
Y291646D01*
X181462D01*
Y295205D01*
Y298764D01*
X181136D01*
Y318898D01*
X181001Y319925D01*
X180604Y320883D01*
X179973Y321706D01*
X179151Y322337D01*
X178193Y322733D01*
X177165Y322869D01*
X137795D01*
X136767Y322733D01*
X135810Y322337D01*
X134987Y321706D01*
X134356Y320883D01*
X133960Y319925D01*
X133824Y318898D01*
Y317590D01*
X132536Y316302D01*
X131890Y316570D01*
Y325590D01*
X116142D01*
Y325366D01*
X115442Y324899D01*
X114502Y325288D01*
X112980Y325590D01*
X111429D01*
X109908Y325288D01*
X109329Y325048D01*
X108842Y325604D01*
X109325Y326441D01*
X109661Y327696D01*
Y327846D01*
X105225D01*
Y323409D01*
X105374D01*
X105918Y323555D01*
X106280Y322927D01*
X106089Y322736D01*
X105227Y321446D01*
X104633Y320013D01*
X104331Y318492D01*
Y316941D01*
X104633Y315420D01*
X104976Y314592D01*
X104587Y314010D01*
X104331D01*
X103303Y313875D01*
X102345Y313478D01*
X101523Y312847D01*
X100892Y312025D01*
X100495Y311067D01*
X100360Y310039D01*
Y300231D01*
X93504D01*
X93072Y300174D01*
X92418Y300240D01*
X92022Y301198D01*
X91391Y302021D01*
X90568Y302652D01*
X89610Y303048D01*
X88583Y303184D01*
X60236D01*
Y304906D01*
X70366D01*
Y309842D01*
Y314779D01*
X60024D01*
Y311811D01*
X44488D01*
Y289404D01*
X33816D01*
X33373Y290104D01*
X34733Y292980D01*
X35994Y296503D01*
X36903Y300133D01*
X37452Y303835D01*
X37636Y307573D01*
X37615Y307990D01*
X37629Y308059D01*
Y338523D01*
X37641Y338583D01*
X37641D01*
X37745Y339239D01*
X37748Y339254D01*
X38129Y339824D01*
X38698Y340205D01*
X39304Y340325D01*
X39370Y340312D01*
D02*
G37*
G36*
X107283Y209646D02*
Y201808D01*
X106618Y201592D01*
X106368Y201935D01*
X105163Y203140D01*
X103785Y204142D01*
X102266Y204915D01*
X100645Y205442D01*
X98962Y205709D01*
X97258D01*
X95575Y205442D01*
X93954Y204915D01*
X92436Y204142D01*
X91057Y203140D01*
X89852Y201935D01*
X88850Y200556D01*
X88077Y199038D01*
X87550Y197417D01*
X87283Y195734D01*
Y194030D01*
X87550Y192347D01*
X88077Y190726D01*
X88611Y189676D01*
X88182Y188976D01*
X53184D01*
Y189961D01*
Y197228D01*
X65917D01*
Y209646D01*
Y222063D01*
X53184D01*
Y232607D01*
X60734Y240158D01*
X107283D01*
Y209646D01*
D02*
G37*
G36*
X106412Y197659D02*
X106825Y197626D01*
X106928Y197645D01*
X106933Y197644D01*
X107233Y197375D01*
X107489Y197032D01*
X107283Y195734D01*
Y194030D01*
X107550Y192347D01*
X108077Y190726D01*
X108850Y189207D01*
X109852Y187829D01*
X111057Y186624D01*
X112436Y185622D01*
X113954Y184848D01*
X115575Y184322D01*
X117258Y184055D01*
X118962D01*
X120645Y184322D01*
X122266Y184848D01*
X123785Y185622D01*
X124342Y186027D01*
X124966Y185709D01*
Y163408D01*
X121945D01*
Y160046D01*
X120945D01*
Y163408D01*
X115056D01*
Y160046D01*
X114556D01*
Y159546D01*
X110997D01*
Y156896D01*
X110028D01*
Y156521D01*
X94063D01*
X93957Y156535D01*
X93032Y156413D01*
X92170Y156056D01*
X91500Y155542D01*
X87446D01*
X87156Y156242D01*
X87323Y156410D01*
X87764Y157173D01*
X87992Y158024D01*
Y158905D01*
X87764Y159756D01*
X87323Y160519D01*
X86700Y161142D01*
X85937Y161583D01*
X85086Y161811D01*
X84205D01*
X83968Y161747D01*
X83268Y162285D01*
Y162992D01*
X82299D01*
Y165642D01*
X78740D01*
Y166142D01*
X78240D01*
Y169504D01*
X75181D01*
Y168929D01*
X74858Y168362D01*
X72350D01*
Y165512D01*
X71850D01*
Y165012D01*
X68843D01*
Y163110D01*
X67874D01*
Y155472D01*
X69269D01*
Y153543D01*
X69357Y152875D01*
X69615Y152253D01*
X70025Y151718D01*
X71789Y149954D01*
Y145256D01*
X71811Y145088D01*
Y143583D01*
X70306D01*
X70138Y143605D01*
X63771D01*
X63298Y143968D01*
X62676Y144226D01*
X62008Y144313D01*
X61304D01*
X61014Y145013D01*
X61221Y145220D01*
X61740Y146118D01*
X62008Y147119D01*
Y148156D01*
X61740Y149157D01*
X61221Y150055D01*
X60488Y150788D01*
X59591Y151306D01*
X58589Y151575D01*
X57552D01*
X56551Y151306D01*
X55654Y150788D01*
X54921Y150055D01*
X54402Y149157D01*
X54134Y148156D01*
Y147119D01*
X54402Y146118D01*
X54921Y145220D01*
X55490Y144651D01*
Y143884D01*
X55393Y143787D01*
X54953Y143024D01*
X54724Y142173D01*
Y141292D01*
X54953Y140441D01*
X55393Y139678D01*
X56016Y139054D01*
X56779Y138614D01*
X57630Y138386D01*
X58511D01*
X59363Y138614D01*
X60126Y139054D01*
X60222Y139151D01*
X60953D01*
X61426Y138788D01*
X62049Y138530D01*
X62717Y138443D01*
X65807D01*
Y137383D01*
X65790Y137376D01*
X64968Y136745D01*
X64337Y135923D01*
X64129Y135420D01*
X53184D01*
Y185005D01*
X88182D01*
X88645Y185066D01*
X89109Y185115D01*
X89158Y185134D01*
X89210Y185141D01*
X89641Y185319D01*
X90077Y185487D01*
X90120Y185517D01*
X90168Y185537D01*
X90538Y185822D01*
X90916Y186096D01*
X90949Y186137D01*
X90990Y186169D01*
X91275Y186539D01*
X91568Y186902D01*
X91997Y187602D01*
X92187Y188028D01*
X92388Y188449D01*
X92389Y188455D01*
X92544Y188558D01*
X92727Y188629D01*
X93152Y188706D01*
X94373Y187890D01*
X95809Y187295D01*
X97333Y186992D01*
X97610D01*
Y194882D01*
X98110D01*
Y195382D01*
X106000D01*
Y195659D01*
X105731Y197013D01*
X105736Y197034D01*
X105807Y197207D01*
X105957Y197406D01*
X106256Y197663D01*
X106412Y197659D01*
D02*
G37*
G36*
X190945Y214567D02*
X187008D01*
Y186024D01*
X202756D01*
Y167323D01*
X159449D01*
Y239173D01*
X190945D01*
Y214567D01*
D02*
G37*
G36*
X149606Y209646D02*
Y149606D01*
X128937D01*
Y209646D01*
X112205D01*
Y240158D01*
X149606D01*
Y209646D01*
D02*
G37*
G36*
X88641Y131476D02*
X97894D01*
Y120453D01*
X81457D01*
Y131476D01*
X83917D01*
Y133937D01*
X88641D01*
Y131476D01*
D02*
G37*
G36*
X72500Y131449D02*
X74939D01*
Y109626D01*
X34902D01*
Y131449D01*
X67776D01*
Y133937D01*
X72500D01*
Y131449D01*
D02*
G37*
G36*
X368450Y75315D02*
X368586Y74287D01*
X368982Y73330D01*
X369613Y72507D01*
X370436Y71876D01*
X370453Y71869D01*
Y62323D01*
X377776D01*
Y63701D01*
X394705D01*
Y64669D01*
X395189D01*
Y67835D01*
X396189D01*
Y64669D01*
X396673D01*
Y63701D01*
X402559D01*
Y57087D01*
X358141D01*
Y44221D01*
X336487D01*
Y61938D01*
X337598D01*
Y85630D01*
X345850D01*
Y83374D01*
X349409D01*
X352969D01*
Y85630D01*
X353724D01*
Y83374D01*
X357284D01*
X360842D01*
Y85630D01*
X368450D01*
Y75315D01*
D02*
G37*
G36*
X149606Y72835D02*
X128405D01*
Y143701D01*
X149606D01*
Y72835D01*
D02*
G37*
G36*
X80079Y117500D02*
X111409D01*
Y72835D01*
X76339D01*
Y131476D01*
X80079D01*
Y117500D01*
D02*
G37*
%LPC*%
G36*
X158501Y313492D02*
X158480D01*
Y310039D01*
X161933D01*
Y310060D01*
X161664Y311065D01*
X161143Y311966D01*
X160407Y312702D01*
X159506Y313223D01*
X158501Y313492D01*
D02*
G37*
G36*
X157480D02*
X157460D01*
X156455Y313223D01*
X155553Y312702D01*
X154817Y311966D01*
X154297Y311065D01*
X154028Y310060D01*
Y310039D01*
X157480D01*
Y313492D01*
D02*
G37*
G36*
X161933Y309039D02*
X158480D01*
Y305587D01*
X158501D01*
X159506Y305856D01*
X160407Y306376D01*
X161143Y307112D01*
X161664Y308014D01*
X161933Y309019D01*
Y309039D01*
D02*
G37*
G36*
X157480D02*
X154028D01*
Y309019D01*
X154297Y308014D01*
X154817Y307112D01*
X155553Y306376D01*
X156455Y305856D01*
X157460Y305587D01*
X157480D01*
Y309039D01*
D02*
G37*
G36*
X173981Y298764D02*
X171119D01*
Y295705D01*
X173981D01*
Y298764D01*
D02*
G37*
G36*
Y294705D02*
X171119D01*
Y291646D01*
X173981D01*
Y294705D01*
D02*
G37*
G36*
X142626Y291325D02*
Y288886D01*
X145065D01*
X144892Y289532D01*
X144501Y290209D01*
X143949Y290761D01*
X143272Y291152D01*
X142626Y291325D01*
D02*
G37*
G36*
X141626Y291325D02*
X140980Y291152D01*
X140303Y290761D01*
X139751Y290209D01*
X139360Y289532D01*
X139187Y288886D01*
X141626D01*
Y291325D01*
D02*
G37*
G36*
X173909Y288992D02*
X171047D01*
Y285933D01*
X173909D01*
Y288992D01*
D02*
G37*
G36*
X141626Y287886D02*
X139187D01*
X139360Y287240D01*
X139751Y286563D01*
X140303Y286010D01*
X140980Y285620D01*
X141626Y285447D01*
Y287886D01*
D02*
G37*
G36*
X145065D02*
X142626D01*
Y285447D01*
X143272Y285620D01*
X143949Y286010D01*
X144501Y286563D01*
X144892Y287240D01*
X145065Y287886D01*
D02*
G37*
G36*
X173909Y284933D02*
X171047D01*
Y281874D01*
X173909D01*
Y284933D01*
D02*
G37*
G36*
X159689Y276598D02*
X157083D01*
Y271846D01*
X159689D01*
Y276598D01*
D02*
G37*
G36*
X151197Y273835D02*
X148138D01*
Y270972D01*
X151197D01*
Y273835D01*
D02*
G37*
G36*
X147138D02*
X144079D01*
Y270972D01*
X147138D01*
Y273835D01*
D02*
G37*
G36*
X123516Y292020D02*
X119079D01*
Y291870D01*
X119415Y290614D01*
X120065Y289488D01*
X120984Y288569D01*
X122110Y287919D01*
X123366Y287583D01*
X123516D01*
Y292020D01*
D02*
G37*
G36*
X117142Y292020D02*
X112705D01*
Y287583D01*
X112855D01*
X114110Y287919D01*
X115236Y288569D01*
X116155Y289488D01*
X116805Y290614D01*
X117142Y291870D01*
Y292020D01*
D02*
G37*
G36*
X111705D02*
X107268D01*
Y291870D01*
X107604Y290614D01*
X108254Y289488D01*
X109173Y288569D01*
X110299Y287919D01*
X111555Y287583D01*
X111705D01*
Y292020D01*
D02*
G37*
G36*
X134465Y259268D02*
X125500D01*
Y254437D01*
X134465D01*
Y259268D01*
D02*
G37*
G36*
X124500D02*
X115535D01*
Y254437D01*
X124500D01*
Y259268D01*
D02*
G37*
G36*
X103953D02*
X94988D01*
Y254437D01*
X103953D01*
Y259268D01*
D02*
G37*
G36*
X93988D02*
X85024D01*
Y254437D01*
X93988D01*
Y259268D01*
D02*
G37*
G36*
X134465Y253437D02*
X125500D01*
Y248606D01*
X134465D01*
Y253437D01*
D02*
G37*
G36*
X124500D02*
X115535D01*
Y248606D01*
X124500D01*
Y253437D01*
D02*
G37*
G36*
X103953D02*
X94988D01*
Y248606D01*
X103953D01*
Y253437D01*
D02*
G37*
G36*
X93988D02*
X85024D01*
Y248606D01*
X93988D01*
Y253437D01*
D02*
G37*
G36*
X81709Y290370D02*
X71366D01*
Y285933D01*
X81709D01*
Y290370D01*
D02*
G37*
G36*
Y284933D02*
X71366D01*
Y280496D01*
X81709D01*
Y284933D01*
D02*
G37*
G36*
X69398Y270656D02*
Y268217D01*
X71837D01*
X71664Y268862D01*
X71273Y269539D01*
X70720Y270092D01*
X70043Y270483D01*
X69398Y270656D01*
D02*
G37*
G36*
X68398Y270656D02*
X67752Y270483D01*
X67075Y270092D01*
X66522Y269539D01*
X66131Y268862D01*
X65958Y268217D01*
X68398D01*
Y270656D01*
D02*
G37*
G36*
Y267217D02*
X65958D01*
X66131Y266571D01*
X66522Y265894D01*
X67075Y265341D01*
X67752Y264950D01*
X68398Y264777D01*
Y267217D01*
D02*
G37*
G36*
X71837D02*
X69398D01*
Y264777D01*
X70043Y264950D01*
X70720Y265341D01*
X71273Y265894D01*
X71664Y266571D01*
X71837Y267217D01*
D02*
G37*
G36*
X36938Y256906D02*
X36917D01*
Y253453D01*
X40370D01*
Y253473D01*
X40101Y254479D01*
X39580Y255380D01*
X38844Y256116D01*
X37943Y256636D01*
X36938Y256906D01*
D02*
G37*
G36*
X35917D02*
X35897D01*
X34892Y256636D01*
X33990Y256116D01*
X33254Y255380D01*
X32734Y254479D01*
X32465Y253473D01*
Y253453D01*
X35917D01*
Y256906D01*
D02*
G37*
G36*
X40370Y252453D02*
X36917D01*
Y249000D01*
X36938D01*
X37943Y249269D01*
X38844Y249790D01*
X39580Y250526D01*
X40101Y251427D01*
X40370Y252432D01*
Y252453D01*
D02*
G37*
G36*
X35917D02*
X32465D01*
Y252432D01*
X32734Y251427D01*
X33254Y250526D01*
X33990Y249790D01*
X34892Y249269D01*
X35897Y249000D01*
X35917D01*
Y252453D01*
D02*
G37*
G36*
X17411Y259842D02*
X16054D01*
X14723Y259578D01*
X13469Y259058D01*
X12340Y258304D01*
X11381Y257345D01*
X10627Y256216D01*
X10107Y254962D01*
X9843Y253631D01*
Y252274D01*
X10107Y250943D01*
X10627Y249689D01*
X11381Y248561D01*
X12340Y247601D01*
X13469Y246847D01*
X14723Y246328D01*
X16054Y246063D01*
X17411D01*
X18742Y246328D01*
X19996Y246847D01*
X21124Y247601D01*
X22084Y248561D01*
X22838Y249689D01*
X23357Y250943D01*
X23622Y252274D01*
Y253631D01*
X23357Y254962D01*
X22838Y256216D01*
X22084Y257345D01*
X21124Y258304D01*
X19996Y259058D01*
X18742Y259578D01*
X17411Y259842D01*
D02*
G37*
G36*
X12329Y224409D02*
X11293D01*
X10291Y224141D01*
X9394Y223623D01*
X8661Y222890D01*
X8142Y221992D01*
X7874Y220991D01*
Y219954D01*
X8142Y218953D01*
X8661Y218055D01*
X9394Y217322D01*
X10291Y216804D01*
X11293Y216535D01*
X12329D01*
X13331Y216804D01*
X14228Y217322D01*
X14961Y218055D01*
X15480Y218953D01*
X15748Y219954D01*
Y220991D01*
X15480Y221992D01*
X14961Y222890D01*
X14228Y223623D01*
X13331Y224141D01*
X12329Y224409D01*
D02*
G37*
G36*
X47874Y223031D02*
X34961D01*
Y214370D01*
X37843D01*
Y213661D01*
X37965Y212736D01*
X38322Y211875D01*
X38890Y211134D01*
X39630Y210566D01*
X40492Y210209D01*
X41417Y210088D01*
X42342Y210209D01*
X43204Y210566D01*
X43944Y211134D01*
X44512Y211875D01*
X44869Y212736D01*
X44991Y213661D01*
Y214370D01*
X47874D01*
Y223031D01*
D02*
G37*
G36*
X46905Y203953D02*
X41917D01*
Y201091D01*
X46905D01*
Y203953D01*
D02*
G37*
G36*
X40917D02*
X35929D01*
Y201091D01*
X40917D01*
Y203953D01*
D02*
G37*
G36*
X46905Y200091D02*
X41917D01*
Y197228D01*
X46905D01*
Y200091D01*
D02*
G37*
G36*
X40917D02*
X35929D01*
Y197228D01*
X40917D01*
Y200091D01*
D02*
G37*
G36*
X27524Y131759D02*
X24071D01*
Y126928D01*
X27524D01*
Y131759D01*
D02*
G37*
G36*
Y125928D02*
X24071D01*
Y121098D01*
X27524D01*
Y125928D01*
D02*
G37*
G36*
X27524Y119948D02*
X24071D01*
Y115118D01*
X27524D01*
Y119948D01*
D02*
G37*
G36*
X455529Y337341D02*
X444867D01*
Y337159D01*
X441537D01*
X440720Y337052D01*
X439958Y336736D01*
X439304Y336235D01*
X439071Y335930D01*
X438309Y336031D01*
X436734D01*
X436028Y335938D01*
X435322Y336031D01*
X433944D01*
X433215Y335935D01*
X432874Y335979D01*
X431496D01*
X430821Y335891D01*
X430817D01*
X430738Y335923D01*
X429921Y336031D01*
X428346D01*
X427529Y335923D01*
X427326Y335839D01*
X426651Y335786D01*
X426408Y335734D01*
X426162Y335708D01*
X424381Y335280D01*
X424150Y335192D01*
X423910Y335127D01*
X422218Y334427D01*
X422003Y334303D01*
X421777Y334202D01*
X420215Y333245D01*
X420023Y333089D01*
X419815Y332954D01*
X418422Y331765D01*
X418352Y331686D01*
X418227Y331590D01*
X418173Y331520D01*
X418106Y331463D01*
X416127Y329248D01*
X416027Y329102D01*
X415907Y328972D01*
X414182Y326542D01*
X414099Y326385D01*
X413994Y326242D01*
X412553Y323634D01*
X412488Y323469D01*
X412399Y323315D01*
X411259Y320562D01*
X411213Y320391D01*
X411142Y320228D01*
X410317Y317365D01*
X410290Y317189D01*
X410238Y317020D01*
X409904Y315051D01*
X409877Y315028D01*
X409762Y314856D01*
X409626Y314700D01*
X409278Y314179D01*
X408940Y314319D01*
X408768Y314342D01*
Y312847D01*
X408684Y312427D01*
X408664Y312118D01*
X408624Y311811D01*
Y308465D01*
Y305118D01*
X408664Y304811D01*
X408684Y304502D01*
X408768Y304082D01*
Y302587D01*
X408940Y302610D01*
X409278Y302750D01*
X409626Y302229D01*
X409762Y302073D01*
X409877Y301901D01*
X410033Y301765D01*
X410169Y301609D01*
X410341Y301495D01*
X410497Y301358D01*
X411018Y301010D01*
X411203Y300919D01*
X411375Y300804D01*
X411571Y300737D01*
X411757Y300646D01*
X411960Y300605D01*
X412156Y300539D01*
X412770Y300416D01*
X412977Y300403D01*
X413179Y300363D01*
X413386Y300376D01*
X413592Y300363D01*
X413795Y300403D01*
X414002Y300416D01*
X414616Y300539D01*
X414812Y300605D01*
X415015Y300646D01*
X415201Y300737D01*
X415396Y300804D01*
X415568Y300919D01*
X415754Y301010D01*
X416275Y301358D01*
X416431Y301495D01*
X416603Y301609D01*
X416739Y301765D01*
X416894Y301901D01*
X417009Y302073D01*
X417146Y302229D01*
X417494Y302750D01*
X417832Y302610D01*
X418004Y302587D01*
Y304082D01*
X418087Y304502D01*
X418108Y304811D01*
X418148Y305118D01*
Y308465D01*
Y311811D01*
X418108Y312118D01*
X418087Y312427D01*
X418004Y312847D01*
Y314666D01*
X417685Y314982D01*
X417770Y315482D01*
X418454Y317857D01*
X419400Y320140D01*
X420596Y322303D01*
X422026Y324318D01*
X423672Y326161D01*
X424756Y327050D01*
X425991Y327710D01*
X426647Y327909D01*
X427347Y327543D01*
Y327543D01*
X430921D01*
Y327636D01*
X431448Y328098D01*
X431496Y328091D01*
X432874D01*
X433603Y328187D01*
X433944Y328143D01*
X435322D01*
X435838Y327689D01*
Y327492D01*
X439413D01*
X439413Y327492D01*
X440034Y327301D01*
X440720Y327016D01*
X441537Y326909D01*
X444867D01*
Y326727D01*
X455529D01*
Y329046D01*
X456100D01*
X456101Y329046D01*
X456169D01*
X456559Y329124D01*
X456890Y329345D01*
X457111Y329675D01*
X457188Y330066D01*
Y334003D01*
X457111Y334393D01*
X456890Y334723D01*
X456559Y334945D01*
X456169Y335022D01*
X455529D01*
Y337341D01*
D02*
G37*
G36*
X158501Y333177D02*
X158480D01*
Y329724D01*
X161933D01*
Y329745D01*
X161664Y330750D01*
X161143Y331651D01*
X160407Y332387D01*
X159506Y332908D01*
X158501Y333177D01*
D02*
G37*
G36*
X157480D02*
X157460D01*
X156455Y332908D01*
X155553Y332387D01*
X154817Y331651D01*
X154297Y330750D01*
X154028Y329745D01*
Y329724D01*
X157480D01*
Y333177D01*
D02*
G37*
G36*
X105374Y333283D02*
X105225D01*
Y328846D01*
X109661D01*
Y328996D01*
X109325Y330252D01*
X108675Y331378D01*
X107756Y332297D01*
X106630Y332947D01*
X105374Y333283D01*
D02*
G37*
G36*
X104225D02*
X104074D01*
X102819Y332947D01*
X101693Y332297D01*
X100774Y331378D01*
X100124Y330252D01*
X99787Y328996D01*
Y328846D01*
X104225D01*
Y333283D01*
D02*
G37*
G36*
X161933Y328724D02*
X158480D01*
Y325272D01*
X158501D01*
X159506Y325541D01*
X160407Y326061D01*
X161143Y326797D01*
X161664Y327699D01*
X161933Y328704D01*
Y328724D01*
D02*
G37*
G36*
X157480D02*
X154028D01*
Y328704D01*
X154297Y327699D01*
X154817Y326797D01*
X155553Y326061D01*
X156455Y325541D01*
X157460Y325272D01*
X157480D01*
Y328724D01*
D02*
G37*
G36*
X246276Y331764D02*
X240657D01*
Y324177D01*
X246276D01*
Y331764D01*
D02*
G37*
G36*
X239657D02*
X234039D01*
Y324177D01*
X239657D01*
Y331764D01*
D02*
G37*
G36*
X104225Y327846D02*
X99787D01*
Y327696D01*
X100124Y326441D01*
X100774Y325315D01*
X101693Y324396D01*
X102819Y323746D01*
X104074Y323409D01*
X104225D01*
Y327846D01*
D02*
G37*
G36*
X455529Y325727D02*
X450698D01*
Y323160D01*
X455529D01*
Y325727D01*
D02*
G37*
G36*
X449698D02*
X444867D01*
Y323160D01*
X449698D01*
Y325727D01*
D02*
G37*
G36*
X321363Y336444D02*
X299713D01*
Y319595D01*
X321363D01*
Y336444D01*
D02*
G37*
G36*
X298713D02*
X277063D01*
Y319595D01*
X298713D01*
Y336444D01*
D02*
G37*
G36*
X335685Y318953D02*
X333177D01*
Y316602D01*
X335685D01*
Y318953D01*
D02*
G37*
G36*
X332177D02*
X329669D01*
Y316602D01*
X332177D01*
Y318953D01*
D02*
G37*
G36*
X487008Y315385D02*
X486083Y315263D01*
X485221Y314906D01*
X484996Y314733D01*
X484417Y314338D01*
X483677Y314906D01*
X482815Y315263D01*
X481890Y315385D01*
X480965Y315263D01*
X480103Y314906D01*
X479363Y314338D01*
X478784Y314733D01*
X478559Y314906D01*
X477697Y315263D01*
X476772Y315385D01*
X475847Y315263D01*
X474985Y314906D01*
X474760Y314733D01*
X474181Y314338D01*
X473441Y314906D01*
X472578Y315263D01*
X471654Y315385D01*
X470729Y315263D01*
X469867Y314906D01*
X469127Y314338D01*
X468547Y314733D01*
X468322Y314906D01*
X467460Y315263D01*
X466536Y315385D01*
X465611Y315263D01*
X464748Y314906D01*
X464524Y314733D01*
X463944Y314338D01*
X463204Y314906D01*
X462342Y315263D01*
X461417Y315385D01*
X460492Y315263D01*
X459630Y314906D01*
X458890Y314338D01*
X458311Y314733D01*
X458086Y314906D01*
X457224Y315263D01*
X456299Y315385D01*
X455374Y315263D01*
X454512Y314906D01*
X454287Y314733D01*
X453708Y314338D01*
X452968Y314906D01*
X452106Y315263D01*
X451181Y315385D01*
X450256Y315263D01*
X449394Y314906D01*
X448654Y314338D01*
X448075Y314733D01*
X447850Y314906D01*
X446988Y315263D01*
X446063Y315385D01*
X445138Y315263D01*
X444276Y314906D01*
X443536Y314338D01*
X443334Y314075D01*
X443280Y314033D01*
X442392Y313946D01*
X442243Y314060D01*
X441617Y314319D01*
X441445Y314342D01*
Y308465D01*
Y302587D01*
X441617Y302610D01*
X442243Y302869D01*
X442392Y302983D01*
X443280Y302896D01*
X443334Y302854D01*
X443536Y302591D01*
X444276Y302023D01*
X445138Y301666D01*
X446063Y301544D01*
X446988Y301666D01*
X447850Y302023D01*
X448075Y302196D01*
X448654Y302591D01*
X449394Y302023D01*
X450256Y301666D01*
X451181Y301544D01*
X452106Y301666D01*
X452968Y302023D01*
X453708Y302591D01*
X454287Y302196D01*
X454512Y302023D01*
X455374Y301666D01*
X456299Y301544D01*
X457224Y301666D01*
X458086Y302023D01*
X458311Y302196D01*
X458890Y302591D01*
X459630Y302023D01*
X460492Y301666D01*
X461417Y301544D01*
X462342Y301666D01*
X463204Y302023D01*
X463944Y302591D01*
X464524Y302196D01*
X464748Y302023D01*
X465611Y301666D01*
X466536Y301544D01*
X467460Y301666D01*
X468322Y302023D01*
X468547Y302196D01*
X469127Y302591D01*
X469867Y302023D01*
X470729Y301666D01*
X471654Y301544D01*
X472578Y301666D01*
X473441Y302023D01*
X474181Y302591D01*
X474760Y302196D01*
X474985Y302023D01*
X475847Y301666D01*
X476772Y301544D01*
X477697Y301666D01*
X478559Y302023D01*
X478784Y302196D01*
X479363Y302591D01*
X480103Y302023D01*
X480965Y301666D01*
X481890Y301544D01*
X482815Y301666D01*
X483677Y302023D01*
X484417Y302591D01*
X484996Y302196D01*
X485221Y302023D01*
X486083Y301666D01*
X487008Y301544D01*
X487933Y301666D01*
X488795Y302023D01*
X489535Y302591D01*
X490103Y303331D01*
X490460Y304193D01*
X490582Y305118D01*
Y311811D01*
X490460Y312736D01*
X490103Y313598D01*
X489535Y314338D01*
X488795Y314906D01*
X487933Y315263D01*
X487008Y315385D01*
D02*
G37*
G36*
X435827D02*
X434902Y315263D01*
X434040Y314906D01*
X433815Y314733D01*
X433236Y314338D01*
X432496Y314906D01*
X431634Y315263D01*
X430709Y315385D01*
X429784Y315263D01*
X428922Y314906D01*
X428182Y314338D01*
X427602Y314733D01*
X427378Y314906D01*
X426516Y315263D01*
X425591Y315385D01*
X424666Y315263D01*
X423804Y314906D01*
X423064Y314338D01*
X422496Y313598D01*
X422139Y312736D01*
X422017Y311811D01*
Y305118D01*
X422139Y304193D01*
X422496Y303331D01*
X423064Y302591D01*
X423804Y302023D01*
X424666Y301666D01*
X425591Y301544D01*
X426516Y301666D01*
X427378Y302023D01*
X427602Y302196D01*
X428182Y302591D01*
X428922Y302023D01*
X429784Y301666D01*
X430709Y301544D01*
X431634Y301666D01*
X432496Y302023D01*
X433236Y302591D01*
X433815Y302196D01*
X434040Y302023D01*
X434902Y301666D01*
X435827Y301544D01*
X436752Y301666D01*
X437614Y302023D01*
X438354Y302591D01*
X438556Y302854D01*
X438610Y302896D01*
X439498Y302983D01*
X439646Y302869D01*
X440273Y302610D01*
X440445Y302587D01*
Y308465D01*
Y314342D01*
X440273Y314319D01*
X439646Y314060D01*
X439498Y313946D01*
X438610Y314033D01*
X438556Y314075D01*
X438354Y314338D01*
X437614Y314906D01*
X436752Y315263D01*
X435827Y315385D01*
D02*
G37*
G36*
X397532Y314342D02*
X397359Y314319D01*
X396733Y314060D01*
X396195Y313647D01*
X395872Y313226D01*
X395472Y313160D01*
X395073Y313226D01*
X394750Y313647D01*
X394212Y314060D01*
X393586Y314319D01*
X393413Y314342D01*
Y308465D01*
Y302587D01*
X393586Y302610D01*
X394212Y302869D01*
X394750Y303282D01*
X395073Y303703D01*
X395473Y303769D01*
X395872Y303703D01*
X396195Y303282D01*
X396733Y302869D01*
X397359Y302610D01*
X397532Y302587D01*
Y308465D01*
Y314342D01*
D02*
G37*
G36*
X402650Y314342D02*
X402478Y314319D01*
X401851Y314060D01*
X401313Y313647D01*
X400990Y313226D01*
X400591Y313160D01*
X400191Y313226D01*
X399868Y313647D01*
X399330Y314060D01*
X398704Y314319D01*
X398532Y314342D01*
Y308465D01*
Y302587D01*
X398704Y302610D01*
X399330Y302869D01*
X399868Y303282D01*
X400191Y303703D01*
X400591Y303769D01*
X400990Y303703D01*
X401313Y303282D01*
X401851Y302869D01*
X402478Y302610D01*
X402650Y302587D01*
Y308465D01*
Y314342D01*
D02*
G37*
G36*
X392413Y314342D02*
X392241Y314319D01*
X391615Y314060D01*
X391077Y313647D01*
X390754Y313226D01*
X390354Y313160D01*
X389955Y313226D01*
X389632Y313647D01*
X389094Y314060D01*
X388468Y314319D01*
X388295Y314342D01*
Y308465D01*
Y302587D01*
X388468Y302610D01*
X389094Y302869D01*
X389632Y303282D01*
X389955Y303703D01*
X390354Y303769D01*
X390754Y303703D01*
X391077Y303282D01*
X391615Y302869D01*
X392241Y302610D01*
X392413Y302587D01*
Y308465D01*
Y314342D01*
D02*
G37*
G36*
X240548Y319091D02*
X239767D01*
X239012Y318888D01*
X238335Y318497D01*
X237782Y317945D01*
X237391Y317268D01*
X237189Y316513D01*
Y315731D01*
X237391Y314976D01*
X237782Y314299D01*
X238335Y313747D01*
X239012Y313356D01*
X239767Y313154D01*
X240548D01*
X241303Y313356D01*
X241980Y313747D01*
X242533Y314299D01*
X242924Y314976D01*
X243126Y315731D01*
Y316513D01*
X242924Y317268D01*
X242533Y317945D01*
X241980Y318497D01*
X241303Y318888D01*
X240548Y319091D01*
D02*
G37*
G36*
X81709Y314779D02*
X71366D01*
Y310343D01*
X81709D01*
Y314779D01*
D02*
G37*
G36*
X341232Y312614D02*
X338370D01*
Y309555D01*
X341232D01*
Y312614D01*
D02*
G37*
G36*
X368323Y312614D02*
X365461D01*
Y309555D01*
X368323D01*
Y312614D01*
D02*
G37*
G36*
X419004Y314342D02*
Y308964D01*
X421101D01*
Y311811D01*
X421012Y312483D01*
X420753Y313109D01*
X420340Y313647D01*
X419803Y314060D01*
X419176Y314319D01*
X419004Y314342D01*
D02*
G37*
G36*
X387295Y314342D02*
X387123Y314319D01*
X386497Y314060D01*
X385959Y313647D01*
X385546Y313109D01*
X385287Y312483D01*
X385198Y311811D01*
Y308964D01*
X387295D01*
Y314342D01*
D02*
G37*
G36*
X341232Y308555D02*
X338370D01*
Y305496D01*
X341232D01*
Y308555D01*
D02*
G37*
G36*
X368323Y308555D02*
X365461D01*
Y305496D01*
X368323D01*
Y308555D01*
D02*
G37*
G36*
X81709Y309343D02*
X71366D01*
Y304906D01*
X81709D01*
Y309343D01*
D02*
G37*
G36*
X421101Y307964D02*
X419004D01*
Y302587D01*
X419176Y302610D01*
X419803Y302869D01*
X420340Y303282D01*
X420753Y303820D01*
X421012Y304446D01*
X421101Y305118D01*
Y307964D01*
D02*
G37*
G36*
X403650Y314342D02*
Y308465D01*
Y302587D01*
X403822Y302610D01*
X404448Y302869D01*
X404986Y303282D01*
X405309Y303703D01*
X405709Y303769D01*
X406108Y303703D01*
X406431Y303282D01*
X406969Y302869D01*
X407596Y302610D01*
X407768Y302587D01*
Y308465D01*
Y314342D01*
X407596Y314319D01*
X406969Y314060D01*
X406431Y313647D01*
X406108Y313226D01*
X405709Y313160D01*
X405309Y313226D01*
X404986Y313647D01*
X404448Y314060D01*
X403822Y314319D01*
X403650Y314342D01*
D02*
G37*
G36*
X387295Y307964D02*
X385198D01*
Y305118D01*
X385287Y304446D01*
X385546Y303820D01*
X385959Y303282D01*
X386497Y302869D01*
X387123Y302610D01*
X387295Y302587D01*
Y307964D01*
D02*
G37*
G36*
X321363Y318595D02*
X299713D01*
Y301745D01*
X321363D01*
Y318595D01*
D02*
G37*
G36*
X298713D02*
X277063D01*
Y301745D01*
X298713D01*
Y318595D01*
D02*
G37*
G36*
X341232Y304740D02*
X338370D01*
Y301681D01*
X341232D01*
Y304740D01*
D02*
G37*
G36*
X368323Y304740D02*
X365461D01*
Y301681D01*
X368323D01*
Y304740D01*
D02*
G37*
G36*
X341232Y300681D02*
X338370D01*
Y297622D01*
X341232D01*
Y300681D01*
D02*
G37*
G36*
X368323Y300681D02*
X365461D01*
Y297622D01*
X368323D01*
Y300681D01*
D02*
G37*
G36*
X496850Y298463D02*
X494004D01*
Y296366D01*
X499382D01*
X499359Y296538D01*
X499099Y297165D01*
X498687Y297703D01*
X498149Y298115D01*
X497523Y298375D01*
X496850Y298463D01*
D02*
G37*
G36*
X493004D02*
X490158D01*
X489485Y298375D01*
X488859Y298115D01*
X488321Y297703D01*
X487908Y297165D01*
X487649Y296538D01*
X487626Y296366D01*
X493004D01*
Y298463D01*
D02*
G37*
G36*
X185324Y298764D02*
X182462D01*
Y295705D01*
X185324D01*
Y298764D01*
D02*
G37*
G36*
X341232Y296866D02*
X338370D01*
Y293807D01*
X341232D01*
Y296866D01*
D02*
G37*
G36*
X368323Y296866D02*
X365461D01*
Y293807D01*
X368323D01*
Y296866D01*
D02*
G37*
G36*
X185324Y294705D02*
X182462D01*
Y291646D01*
X185324D01*
Y294705D01*
D02*
G37*
G36*
X360236Y316494D02*
X346457D01*
X345429Y316359D01*
X344471Y315962D01*
X343649Y315331D01*
X343018Y314509D01*
X342621Y313551D01*
X342498Y312614D01*
X342232D01*
Y309055D01*
Y305496D01*
X342486D01*
Y304740D01*
X342232D01*
Y301181D01*
Y297622D01*
X342486D01*
Y296866D01*
X342232D01*
Y293307D01*
X341732D01*
Y292807D01*
X338370D01*
Y290388D01*
X336653D01*
Y293425D01*
Y299646D01*
Y306063D01*
Y313701D01*
X335685D01*
Y315602D01*
X332677D01*
X329669D01*
Y313701D01*
X328701D01*
Y307038D01*
X326611D01*
X325687Y306917D01*
X324825Y306560D01*
X324084Y305992D01*
X323516Y305252D01*
X323159Y304390D01*
X323038Y303465D01*
X323159Y302540D01*
X323516Y301678D01*
X324084Y300937D01*
X324825Y300370D01*
X325687Y300012D01*
X326611Y299891D01*
X328701D01*
Y293425D01*
Y290388D01*
X318898D01*
X317870Y290253D01*
X316912Y289856D01*
X316833Y289796D01*
X316086Y290105D01*
X316051Y290376D01*
X315693Y291238D01*
X315125Y291979D01*
X314385Y292547D01*
X313523Y292904D01*
X312598Y293025D01*
X311673Y292904D01*
X310811Y292547D01*
X310071Y291979D01*
X309503Y291238D01*
X309146Y290376D01*
X309025Y289452D01*
Y288268D01*
X301887D01*
Y287300D01*
X299713D01*
Y278350D01*
X298713D01*
Y287300D01*
X296538D01*
Y288268D01*
X281808D01*
Y282117D01*
X276575D01*
X275650Y281995D01*
X274788Y281638D01*
X274048Y281070D01*
X271705Y278727D01*
X271136Y277987D01*
X270779Y277125D01*
X270658Y276200D01*
Y274646D01*
X270255D01*
Y270703D01*
X261811D01*
X260783Y270568D01*
X259825Y270171D01*
X259003Y269540D01*
X258372Y268718D01*
X257975Y267760D01*
X257840Y266732D01*
Y258027D01*
X257258Y257638D01*
X256933Y257773D01*
X255906Y257908D01*
X224410D01*
X223382Y257773D01*
X222424Y257376D01*
X221602Y256745D01*
X220971Y255923D01*
X220574Y254965D01*
X220439Y253937D01*
Y216535D01*
Y208800D01*
X220447Y208735D01*
X220441Y208670D01*
X220515Y208222D01*
X220574Y207772D01*
X220599Y207712D01*
X220609Y207647D01*
X220797Y207234D01*
X220971Y206814D01*
X221010Y206762D01*
X221037Y206703D01*
X221325Y206352D01*
X221602Y205992D01*
X221653Y205952D01*
X221695Y205901D01*
X222064Y205637D01*
X222189Y205541D01*
X221722Y204411D01*
X221457Y203080D01*
Y201723D01*
X221722Y200392D01*
X222241Y199138D01*
X222995Y198010D01*
X223603Y197402D01*
X222995Y196793D01*
X222241Y195665D01*
X221722Y194411D01*
X221457Y193080D01*
Y191723D01*
X221722Y190392D01*
X222241Y189138D01*
X222995Y188010D01*
X223603Y187402D01*
X222995Y186793D01*
X222241Y185665D01*
X221722Y184411D01*
X221457Y183080D01*
Y181723D01*
X221722Y180392D01*
X222241Y179138D01*
X222995Y178010D01*
X223603Y177402D01*
X222995Y176794D01*
X222241Y175665D01*
X221722Y174411D01*
X221457Y173080D01*
Y171723D01*
X221722Y170392D01*
X222241Y169138D01*
X222995Y168010D01*
X223955Y167050D01*
X225083Y166296D01*
X225539Y166107D01*
X225656Y165301D01*
X225184Y164829D01*
X224663Y163927D01*
X224394Y162922D01*
Y162901D01*
X228346D01*
X232299D01*
Y162922D01*
X232030Y163927D01*
X231509Y164829D01*
X231037Y165301D01*
X231154Y166107D01*
X231610Y166296D01*
X232186Y166681D01*
X232338Y166483D01*
X232441Y166404D01*
X232527Y166306D01*
X232851Y166089D01*
X233160Y165852D01*
X233281Y165802D01*
X233389Y165730D01*
X233758Y165605D01*
X234118Y165456D01*
X234247Y165439D01*
X234371Y165397D01*
X234760Y165371D01*
X235146Y165320D01*
X245767D01*
X246074Y164862D01*
X246129Y164620D01*
X246038Y163926D01*
Y115157D01*
Y79974D01*
X239528Y73464D01*
X239528Y73464D01*
X234007Y67943D01*
X233307Y68172D01*
Y74843D01*
X232706D01*
Y78934D01*
X233393Y79037D01*
X233730Y78223D01*
X233970Y77910D01*
X234037Y77794D01*
X234132Y77700D01*
X234267Y77524D01*
X234329Y77462D01*
X234504Y77328D01*
X234660Y77171D01*
X234852Y77061D01*
X235028Y76926D01*
X235232Y76841D01*
X235423Y76731D01*
X235637Y76673D01*
X235842Y76589D01*
X236061Y76560D01*
X236275Y76503D01*
X236496D01*
X236715Y76474D01*
X236934Y76503D01*
X237156D01*
X237369Y76560D01*
X237589Y76589D01*
X237793Y76673D01*
X238007Y76731D01*
X238198Y76841D01*
X238403Y76926D01*
X238578Y77061D01*
X238770Y77171D01*
X238926Y77328D01*
X239102Y77462D01*
X239237Y77638D01*
X239393Y77794D01*
X239504Y77986D01*
X239638Y78161D01*
X239723Y78366D01*
X239834Y78557D01*
X239891Y78771D01*
X239976Y78975D01*
X240004Y79195D01*
X240062Y79409D01*
Y79630D01*
X240090Y79849D01*
X240062Y80068D01*
Y80290D01*
X240029Y80412D01*
Y81457D01*
X240630D01*
Y87677D01*
Y95315D01*
X240468D01*
X239931Y96015D01*
X240000Y96272D01*
Y97153D01*
X239772Y98004D01*
X239632Y98247D01*
Y101929D01*
X239632Y101929D01*
X239530Y102700D01*
X239233Y103418D01*
X238759Y104035D01*
X238759Y104035D01*
X237620Y105174D01*
Y107677D01*
X237595Y107870D01*
Y111220D01*
X236626D01*
Y111901D01*
X234642D01*
Y112901D01*
X236626D01*
Y114976D01*
X236244D01*
X235976Y115623D01*
X236791Y116437D01*
X236791Y116437D01*
X237264Y117054D01*
X237562Y117772D01*
X237663Y118543D01*
Y119841D01*
X237756Y120001D01*
X237984Y120852D01*
Y121733D01*
X237756Y122584D01*
X237663Y122745D01*
Y123622D01*
X239212D01*
Y132283D01*
X238244D01*
Y134933D01*
X234685D01*
Y135433D01*
X234185D01*
Y138795D01*
X231126D01*
Y138795D01*
X230921D01*
Y138795D01*
X227862D01*
Y135433D01*
X226862D01*
Y138795D01*
X223803D01*
Y138220D01*
X223480Y137654D01*
X220972D01*
Y134803D01*
X220473D01*
Y134303D01*
X217465D01*
Y132402D01*
X216496D01*
Y124764D01*
X217494D01*
Y119095D01*
X217596Y118324D01*
X217893Y117605D01*
X218367Y116989D01*
X221034Y114321D01*
Y112401D01*
X221059Y112207D01*
Y108858D01*
Y104133D01*
X221059D01*
X221326Y103490D01*
X220335Y102500D01*
X219862Y101883D01*
X219564Y101164D01*
X219463Y100394D01*
Y95315D01*
X218465D01*
Y87677D01*
Y81457D01*
X225955D01*
Y79724D01*
Y75016D01*
X222941D01*
Y71653D01*
X222441D01*
Y71153D01*
X218882D01*
Y68504D01*
X217913D01*
Y67151D01*
X215748D01*
X214977Y67050D01*
X214259Y66752D01*
X213642Y66279D01*
X209508Y62145D01*
X209035Y61528D01*
X208737Y60810D01*
X208688Y60433D01*
X206890D01*
Y48228D01*
X216339D01*
Y60433D01*
X216339Y60433D01*
X216339D01*
X216735Y60948D01*
X216982Y61195D01*
X217913D01*
Y59842D01*
X225031D01*
X225575Y59465D01*
X225575Y59143D01*
Y54831D01*
X228831D01*
Y59465D01*
X227512D01*
X226969Y59842D01*
X226969Y60165D01*
Y60984D01*
X233307D01*
Y61825D01*
X235079D01*
X235203Y61841D01*
X235396Y61725D01*
X235827Y61217D01*
Y60583D01*
X235712Y60433D01*
X234449D01*
Y48228D01*
X243898D01*
Y60433D01*
X242635D01*
X242520Y60583D01*
Y61464D01*
X242292Y62315D01*
X241851Y63078D01*
X241228Y63701D01*
X240465Y64142D01*
X239798Y64321D01*
X239494Y65007D01*
X243740Y69252D01*
X243740Y69252D01*
X251122Y76634D01*
X251595Y77251D01*
X251892Y77969D01*
X251994Y78740D01*
X251994Y78740D01*
Y115157D01*
Y134882D01*
X252694Y135172D01*
X252867Y134999D01*
X253630Y134559D01*
X254481Y134331D01*
X254921D01*
Y128937D01*
X254921D01*
Y126417D01*
X254921D01*
Y118937D01*
Y113937D01*
Y108937D01*
X264764D01*
Y109331D01*
X265555D01*
X266406Y109559D01*
X267169Y109999D01*
X267792Y110622D01*
X268233Y111386D01*
X268461Y112237D01*
Y113118D01*
X268233Y113969D01*
X267792Y114732D01*
X267347Y115177D01*
X267792Y115622D01*
X268233Y116385D01*
X268461Y117237D01*
Y118118D01*
X268233Y118969D01*
X267792Y119732D01*
X267383Y120141D01*
X267792Y120551D01*
X268233Y121314D01*
X268461Y122165D01*
Y123046D01*
X268233Y123897D01*
X267792Y124660D01*
X267311Y125141D01*
X267792Y125622D01*
X268233Y126385D01*
X268461Y127237D01*
Y128118D01*
X268233Y128969D01*
X267921Y129508D01*
X268024Y129756D01*
X268787Y130196D01*
X269410Y130819D01*
X269851Y131582D01*
X270079Y132433D01*
Y133315D01*
X269851Y134166D01*
X269410Y134929D01*
X268787Y135552D01*
X268024Y135992D01*
X267173Y136221D01*
X266292D01*
X265441Y135992D01*
X264764Y136410D01*
Y138937D01*
Y143937D01*
Y148937D01*
Y153937D01*
Y158937D01*
Y163937D01*
X264764D01*
Y171417D01*
X264764D01*
Y176417D01*
X263795D01*
Y177177D01*
X259842D01*
Y178177D01*
X263795D01*
Y180449D01*
X260333D01*
X260070Y180700D01*
X259797Y181149D01*
X259852Y181650D01*
X259848Y181869D01*
X259876Y182087D01*
Y206019D01*
X260992D01*
Y209578D01*
X261492D01*
Y210078D01*
X264855D01*
Y212948D01*
X264976D01*
Y216007D01*
X261614D01*
Y216507D01*
X261114D01*
Y220066D01*
X259876D01*
Y233242D01*
X263779D01*
Y231890D01*
X276378D01*
Y233842D01*
X279028D01*
Y237205D01*
X279528D01*
Y237705D01*
X283087D01*
Y239139D01*
X294617D01*
X295558Y239263D01*
X295825Y239188D01*
X296258Y238899D01*
Y238082D01*
X297227D01*
Y236721D01*
X300077D01*
Y236221D01*
X300577D01*
Y233213D01*
X302479D01*
Y232244D01*
X302208Y231689D01*
X302130Y231299D01*
Y199268D01*
X302208Y198878D01*
X302429Y198547D01*
X302759Y198327D01*
X303150Y198249D01*
X312498D01*
X312766Y197602D01*
X312345Y197182D01*
X311904Y196606D01*
X311626Y195936D01*
X311531Y195216D01*
Y191505D01*
X311192Y190918D01*
X310964Y190067D01*
Y189186D01*
X311192Y188335D01*
X311633Y187572D01*
X312256Y186948D01*
X313019Y186508D01*
X313870Y186280D01*
X314751D01*
X315602Y186508D01*
X316366Y186948D01*
X316989Y187572D01*
X317429Y188335D01*
X317657Y189186D01*
Y190067D01*
X317429Y190918D01*
X317206Y191304D01*
X317314Y191728D01*
X317418Y191824D01*
X318058Y192071D01*
X318590Y191763D01*
X319441Y191535D01*
X320322D01*
X321174Y191763D01*
X321937Y192204D01*
X321938Y192205D01*
X322638Y191915D01*
Y189370D01*
X323308D01*
X323735Y188815D01*
X323676Y188597D01*
Y187716D01*
X323904Y186864D01*
X324345Y186101D01*
X324968Y185478D01*
X325731Y185038D01*
X326582Y184810D01*
X327463D01*
X328314Y185038D01*
X329078Y185478D01*
X329700Y186101D01*
X330141Y186864D01*
X330369Y187716D01*
Y188597D01*
X330311Y188815D01*
X330737Y189370D01*
X331299D01*
Y190339D01*
X333949D01*
Y193898D01*
Y197457D01*
X331299D01*
Y198249D01*
X331693D01*
X332083Y198327D01*
X332414Y198547D01*
X332635Y198878D01*
X332713Y199268D01*
Y213756D01*
X348425D01*
X349145Y213850D01*
X349815Y214128D01*
X350391Y214570D01*
X362372Y226551D01*
X374495D01*
X374796Y225851D01*
X374501Y225138D01*
X374379Y224213D01*
X374501Y223288D01*
X374858Y222426D01*
X375030Y222201D01*
X375426Y221622D01*
X374858Y220881D01*
X374501Y220020D01*
X374379Y219094D01*
X374501Y218169D01*
X374858Y217307D01*
X375426Y216567D01*
Y216504D01*
X374858Y215763D01*
X374501Y214901D01*
X374379Y213976D01*
X374501Y213051D01*
X374858Y212189D01*
X375426Y211449D01*
X375689Y211247D01*
X375730Y211193D01*
X375817Y210305D01*
X375704Y210157D01*
X375444Y209530D01*
X375422Y209358D01*
X381299D01*
X387177D01*
X387154Y209530D01*
X386895Y210157D01*
X386781Y210305D01*
X386868Y211193D01*
X386910Y211247D01*
X387173Y211449D01*
X387741Y212189D01*
X388098Y213051D01*
X388220Y213976D01*
X388098Y214901D01*
X387741Y215763D01*
X387173Y216504D01*
Y216567D01*
X387741Y217307D01*
X388098Y218169D01*
X388220Y219094D01*
X388098Y220020D01*
X387741Y220881D01*
X387173Y221622D01*
X387568Y222201D01*
X387741Y222426D01*
X388098Y223288D01*
X388220Y224213D01*
X388098Y225138D01*
X387741Y225999D01*
X387568Y226225D01*
X387173Y226804D01*
X387741Y227544D01*
X388098Y228406D01*
X388220Y229331D01*
X388098Y230256D01*
X387741Y231118D01*
X387173Y231858D01*
X387568Y232437D01*
X387741Y232662D01*
X388098Y233524D01*
X388220Y234449D01*
X388098Y235374D01*
X387741Y236236D01*
X387568Y236461D01*
X387173Y237040D01*
X387741Y237780D01*
X388098Y238642D01*
X388220Y239567D01*
X388098Y240492D01*
X387741Y241354D01*
X387173Y242094D01*
X387568Y242673D01*
X387741Y242898D01*
X388098Y243760D01*
X388220Y244685D01*
X388098Y245610D01*
X387741Y246472D01*
X387568Y246697D01*
X387173Y247276D01*
X387741Y248016D01*
X388098Y248878D01*
X388220Y249803D01*
X388098Y250728D01*
X387741Y251590D01*
X387173Y252330D01*
X387568Y252909D01*
X387741Y253134D01*
X388098Y253996D01*
X388220Y254921D01*
X388098Y255846D01*
X387741Y256708D01*
X387568Y256933D01*
X387173Y257512D01*
X387741Y258252D01*
X388098Y259114D01*
X388220Y260039D01*
X388098Y260964D01*
X387741Y261826D01*
X387173Y262566D01*
X387568Y263145D01*
X387741Y263370D01*
X388098Y264232D01*
X388196Y264979D01*
X388403Y265065D01*
X389225Y265696D01*
X389856Y266518D01*
X390253Y267476D01*
X390388Y268504D01*
Y277298D01*
X390292Y278031D01*
X390388Y278765D01*
Y287205D01*
X390253Y288232D01*
X389856Y289190D01*
X389225Y290013D01*
X388403Y290644D01*
X387445Y291040D01*
X387200Y291073D01*
X387154Y291420D01*
X386895Y292046D01*
X386781Y292195D01*
X386868Y293083D01*
X386910Y293137D01*
X387173Y293339D01*
X387741Y294079D01*
X388098Y294941D01*
X388220Y295866D01*
X388098Y296791D01*
X387741Y297653D01*
X387173Y298393D01*
X386433Y298961D01*
X385571Y299318D01*
X384646Y299440D01*
X377953D01*
X377028Y299318D01*
X376166Y298961D01*
X375426Y298393D01*
X374858Y297653D01*
X374501Y296791D01*
X374379Y295866D01*
X374501Y294941D01*
X374858Y294079D01*
X375426Y293339D01*
X375689Y293137D01*
X375730Y293083D01*
X375817Y292195D01*
X375704Y292046D01*
X375444Y291420D01*
X375412Y291176D01*
X368323D01*
Y292807D01*
X364961D01*
Y293307D01*
X364461D01*
Y296866D01*
X364207D01*
Y297622D01*
X364461D01*
Y301181D01*
Y304740D01*
X364207D01*
Y305496D01*
X364461D01*
Y309055D01*
Y312614D01*
X364195D01*
X364072Y313551D01*
X363675Y314509D01*
X363044Y315331D01*
X362222Y315962D01*
X361264Y316359D01*
X360236Y316494D01*
D02*
G37*
G36*
X185252Y288992D02*
X182390D01*
Y285933D01*
X185252D01*
Y288992D01*
D02*
G37*
G36*
X240626Y290193D02*
X239689D01*
X238784Y289950D01*
X237972Y289482D01*
X237310Y288819D01*
X236841Y288008D01*
X236598Y287102D01*
Y286165D01*
X236841Y285260D01*
X237310Y284449D01*
X237972Y283786D01*
X238784Y283317D01*
X239689Y283075D01*
X240626D01*
X241531Y283317D01*
X242343Y283786D01*
X243005Y284449D01*
X243474Y285260D01*
X243717Y286165D01*
Y287102D01*
X243474Y288008D01*
X243005Y288819D01*
X242343Y289482D01*
X241531Y289950D01*
X240626Y290193D01*
D02*
G37*
G36*
X185252Y284933D02*
X182390D01*
Y281874D01*
X185252D01*
Y284933D01*
D02*
G37*
G36*
X482102Y283677D02*
X475697D01*
Y279240D01*
X482102D01*
Y283677D01*
D02*
G37*
G36*
X425410D02*
X419004D01*
Y279240D01*
X425410D01*
Y283677D01*
D02*
G37*
G36*
X444307D02*
X437902D01*
Y279240D01*
X444307D01*
Y283677D01*
D02*
G37*
G36*
X463205D02*
X456799D01*
Y279240D01*
X463205D01*
Y283677D01*
D02*
G37*
G36*
X406512D02*
X400106D01*
Y279240D01*
X406512D01*
Y283677D01*
D02*
G37*
G36*
X399106D02*
X392701D01*
Y279240D01*
X399106D01*
Y283677D01*
D02*
G37*
G36*
X455799D02*
X449394D01*
Y279240D01*
X455799D01*
Y283677D01*
D02*
G37*
G36*
X436902D02*
X430496D01*
Y279240D01*
X436902D01*
Y283677D01*
D02*
G37*
G36*
X418004D02*
X411598D01*
Y279240D01*
X418004D01*
Y283677D01*
D02*
G37*
G36*
X474697D02*
X468291D01*
Y279240D01*
X474697D01*
Y283677D01*
D02*
G37*
G36*
X482102Y278240D02*
X475697D01*
Y273803D01*
X482102D01*
Y278240D01*
D02*
G37*
G36*
X474697D02*
X468291D01*
Y273803D01*
X474697D01*
Y278240D01*
D02*
G37*
G36*
X463205D02*
X456799D01*
Y273803D01*
X463205D01*
Y278240D01*
D02*
G37*
G36*
X455799D02*
X449394D01*
Y273803D01*
X455799D01*
Y278240D01*
D02*
G37*
G36*
X444307D02*
X437902D01*
Y273803D01*
X444307D01*
Y278240D01*
D02*
G37*
G36*
X436902D02*
X430496D01*
Y273803D01*
X436902D01*
Y278240D01*
D02*
G37*
G36*
X425410D02*
X419004D01*
Y273803D01*
X425410D01*
Y278240D01*
D02*
G37*
G36*
X418004D02*
X411598D01*
Y273803D01*
X418004D01*
Y278240D01*
D02*
G37*
G36*
X406512D02*
X400106D01*
Y273803D01*
X406512D01*
Y278240D01*
D02*
G37*
G36*
X399106D02*
X392701D01*
Y273803D01*
X399106D01*
Y278240D01*
D02*
G37*
G36*
X190067Y276598D02*
X187461D01*
Y271846D01*
X190067D01*
Y276598D01*
D02*
G37*
G36*
X201827Y273677D02*
X199319D01*
Y271327D01*
X201827D01*
Y273677D01*
D02*
G37*
G36*
X198319D02*
X195811D01*
Y271327D01*
X198319D01*
Y273677D01*
D02*
G37*
G36*
X482102Y271079D02*
X475697D01*
Y266642D01*
X482102D01*
Y271079D01*
D02*
G37*
G36*
X425410D02*
X419004D01*
Y266642D01*
X425410D01*
Y271079D01*
D02*
G37*
G36*
X444307D02*
X437902D01*
Y266642D01*
X444307D01*
Y271079D01*
D02*
G37*
G36*
X463205D02*
X456799D01*
Y266642D01*
X463205D01*
Y271079D01*
D02*
G37*
G36*
X406512D02*
X400106D01*
Y266642D01*
X406512D01*
Y271079D01*
D02*
G37*
G36*
X399106D02*
X392701D01*
Y266642D01*
X399106D01*
Y271079D01*
D02*
G37*
G36*
X455799D02*
X449394D01*
Y266642D01*
X455799D01*
Y271079D01*
D02*
G37*
G36*
X436902D02*
X430496D01*
Y266642D01*
X436902D01*
Y271079D01*
D02*
G37*
G36*
X418004D02*
X411598D01*
Y266642D01*
X418004D01*
Y271079D01*
D02*
G37*
G36*
X474697D02*
X468291D01*
Y266642D01*
X474697D01*
Y271079D01*
D02*
G37*
G36*
X190067Y270846D02*
X187461D01*
Y266094D01*
X190067D01*
Y270846D01*
D02*
G37*
G36*
X482102Y265642D02*
X475697D01*
Y261205D01*
X482102D01*
Y265642D01*
D02*
G37*
G36*
X474697D02*
X468291D01*
Y261205D01*
X474697D01*
Y265642D01*
D02*
G37*
G36*
X463205D02*
X456799D01*
Y261205D01*
X463205D01*
Y265642D01*
D02*
G37*
G36*
X455799D02*
X449394D01*
Y261205D01*
X455799D01*
Y265642D01*
D02*
G37*
G36*
X444307D02*
X437902D01*
Y261205D01*
X444307D01*
Y265642D01*
D02*
G37*
G36*
X436902D02*
X430496D01*
Y261205D01*
X436902D01*
Y265642D01*
D02*
G37*
G36*
X425410D02*
X419004D01*
Y261205D01*
X425410D01*
Y265642D01*
D02*
G37*
G36*
X418004D02*
X411598D01*
Y261205D01*
X418004D01*
Y265642D01*
D02*
G37*
G36*
X406512D02*
X400106D01*
Y261205D01*
X406512D01*
Y265642D01*
D02*
G37*
G36*
X399106D02*
X392701D01*
Y261205D01*
X399106D01*
Y265642D01*
D02*
G37*
G36*
X247244Y279153D02*
X233071D01*
Y274069D01*
X230852D01*
X229824Y273934D01*
X228867Y273537D01*
X228044Y272906D01*
X227842Y272704D01*
X227211Y271881D01*
X226814Y270924D01*
X226679Y269896D01*
X226814Y268868D01*
X227211Y267910D01*
X227842Y267088D01*
X228664Y266457D01*
X229622Y266060D01*
X230650Y265925D01*
X231677Y266060D01*
X231840Y266127D01*
X233071D01*
Y261043D01*
X247244D01*
Y279153D01*
D02*
G37*
G36*
X528077Y263779D02*
X527041D01*
X526039Y263511D01*
X525142Y262993D01*
X524409Y262260D01*
X523890Y261362D01*
X523622Y260361D01*
Y259324D01*
X523890Y258323D01*
X524409Y257425D01*
X525142Y256692D01*
X526039Y256174D01*
X527041Y255906D01*
X528077D01*
X529079Y256174D01*
X529976Y256692D01*
X530709Y257425D01*
X531228Y258323D01*
X531496Y259324D01*
Y260361D01*
X531228Y261362D01*
X530709Y262260D01*
X529976Y262993D01*
X529079Y263511D01*
X528077Y263779D01*
D02*
G37*
G36*
X482102Y257693D02*
X475697D01*
Y253256D01*
X482102D01*
Y257693D01*
D02*
G37*
G36*
X425410D02*
X419004D01*
Y253256D01*
X425410D01*
Y257693D01*
D02*
G37*
G36*
X463205D02*
X456799D01*
Y253256D01*
X463205D01*
Y257693D01*
D02*
G37*
G36*
X406512D02*
X400106D01*
Y253256D01*
X406512D01*
Y257693D01*
D02*
G37*
G36*
X399106D02*
X392701D01*
Y253256D01*
X399106D01*
Y257693D01*
D02*
G37*
G36*
X455799D02*
X449394D01*
Y253256D01*
X455799D01*
Y257693D01*
D02*
G37*
G36*
X418004D02*
X411598D01*
Y253256D01*
X418004D01*
Y257693D01*
D02*
G37*
G36*
X474697D02*
X468291D01*
Y253256D01*
X474697D01*
Y257693D01*
D02*
G37*
G36*
X482102Y252256D02*
X475697D01*
Y247819D01*
X482102D01*
Y252256D01*
D02*
G37*
G36*
X474697D02*
X468291D01*
Y247819D01*
X474697D01*
Y252256D01*
D02*
G37*
G36*
X463205D02*
X456799D01*
Y247819D01*
X463205D01*
Y252256D01*
D02*
G37*
G36*
X455799D02*
X449394D01*
Y247819D01*
X455799D01*
Y252256D01*
D02*
G37*
G36*
X425410D02*
X419004D01*
Y247819D01*
X425410D01*
Y252256D01*
D02*
G37*
G36*
X418004D02*
X411598D01*
Y247819D01*
X418004D01*
Y252256D01*
D02*
G37*
G36*
X406512D02*
X400106D01*
Y247819D01*
X406512D01*
Y252256D01*
D02*
G37*
G36*
X399106D02*
X392701D01*
Y247819D01*
X399106D01*
Y252256D01*
D02*
G37*
G36*
X482102Y245094D02*
X475697D01*
Y240657D01*
X482102D01*
Y245094D01*
D02*
G37*
G36*
X463205D02*
X456799D01*
Y240657D01*
X463205D01*
Y245094D01*
D02*
G37*
G36*
X406512D02*
X400106D01*
Y240657D01*
X406512D01*
Y245094D01*
D02*
G37*
G36*
X399106D02*
X392701D01*
Y240657D01*
X399106D01*
Y245094D01*
D02*
G37*
G36*
X455799D02*
X449394D01*
Y240657D01*
X455799D01*
Y245094D01*
D02*
G37*
G36*
X474697D02*
X468291D01*
Y240657D01*
X474697D01*
Y245094D01*
D02*
G37*
G36*
X425410Y244504D02*
X419004D01*
Y240067D01*
X425410D01*
Y244504D01*
D02*
G37*
G36*
X418004D02*
X411598D01*
Y240067D01*
X418004D01*
Y244504D01*
D02*
G37*
G36*
X482102Y239657D02*
X475697D01*
Y235221D01*
X482102D01*
Y239657D01*
D02*
G37*
G36*
X474697D02*
X468291D01*
Y235221D01*
X474697D01*
Y239657D01*
D02*
G37*
G36*
X463205D02*
X456799D01*
Y235221D01*
X463205D01*
Y239657D01*
D02*
G37*
G36*
X455799D02*
X449394D01*
Y235221D01*
X455799D01*
Y239657D01*
D02*
G37*
G36*
X406512D02*
X400106D01*
Y235221D01*
X406512D01*
Y239657D01*
D02*
G37*
G36*
X399106D02*
X392701D01*
Y235221D01*
X399106D01*
Y239657D01*
D02*
G37*
G36*
X425410Y239067D02*
X419004D01*
Y234630D01*
X425410D01*
Y239067D01*
D02*
G37*
G36*
X418004D02*
X411598D01*
Y234630D01*
X418004D01*
Y239067D01*
D02*
G37*
G36*
X283087Y236705D02*
X280028D01*
Y233842D01*
X283087D01*
Y236705D01*
D02*
G37*
G36*
X299577Y235721D02*
X297227D01*
Y233213D01*
X299577D01*
Y235721D01*
D02*
G37*
G36*
X447835Y260039D02*
X426968D01*
Y251772D01*
X427937D01*
Y250106D01*
X431102D01*
Y249106D01*
X427937D01*
Y247441D01*
X426968D01*
Y239173D01*
Y232874D01*
X447835D01*
Y239173D01*
Y245472D01*
Y251772D01*
Y260039D01*
D02*
G37*
G36*
X524819Y233624D02*
X521563D01*
Y231156D01*
X524819D01*
Y233624D01*
D02*
G37*
G36*
X275409Y230528D02*
X270579D01*
Y227665D01*
X275409D01*
Y230528D01*
D02*
G37*
G36*
X269579D02*
X264748D01*
Y227665D01*
X269579D01*
Y230528D01*
D02*
G37*
G36*
X482102Y231709D02*
X475697D01*
Y227272D01*
X482102D01*
Y231709D01*
D02*
G37*
G36*
X425410D02*
X419004D01*
Y227272D01*
X425410D01*
Y231709D01*
D02*
G37*
G36*
X444307D02*
X437902D01*
Y227272D01*
X444307D01*
Y231709D01*
D02*
G37*
G36*
X463205D02*
X456799D01*
Y227272D01*
X463205D01*
Y231709D01*
D02*
G37*
G36*
X406512D02*
X400106D01*
Y227272D01*
X406512D01*
Y231709D01*
D02*
G37*
G36*
X399106D02*
X392701D01*
Y227272D01*
X399106D01*
Y231709D01*
D02*
G37*
G36*
X455799D02*
X449394D01*
Y227272D01*
X455799D01*
Y231709D01*
D02*
G37*
G36*
X436902D02*
X430496D01*
Y227272D01*
X436902D01*
Y231709D01*
D02*
G37*
G36*
X418004D02*
X411598D01*
Y227272D01*
X418004D01*
Y231709D01*
D02*
G37*
G36*
X474697D02*
X468291D01*
Y227272D01*
X474697D01*
Y231709D01*
D02*
G37*
G36*
X499382Y295366D02*
X493504D01*
X487626D01*
X487649Y295194D01*
X487908Y294568D01*
X488022Y294419D01*
X487935Y293531D01*
X487893Y293477D01*
X487630Y293275D01*
X487062Y292535D01*
X486705Y291673D01*
X486584Y290748D01*
X486705Y289823D01*
X487062Y288961D01*
X487630Y288221D01*
X487235Y287642D01*
X487062Y287417D01*
X486705Y286555D01*
X486584Y285630D01*
X486705Y284705D01*
X487062Y283843D01*
X487235Y283618D01*
X487630Y283039D01*
X487062Y282299D01*
X486705Y281437D01*
X486584Y280512D01*
X486705Y279587D01*
X487062Y278725D01*
X487630Y277985D01*
X487235Y277406D01*
X487062Y277181D01*
X486705Y276319D01*
X486584Y275394D01*
X486705Y274469D01*
X487062Y273607D01*
X487235Y273382D01*
X487630Y272803D01*
X487062Y272062D01*
X486705Y271201D01*
X486584Y270276D01*
X486705Y269351D01*
X487062Y268489D01*
X487630Y267748D01*
X487235Y267169D01*
X487062Y266944D01*
X486705Y266083D01*
X486584Y265158D01*
X486705Y264232D01*
X487062Y263370D01*
X487235Y263145D01*
X487630Y262566D01*
X487062Y261826D01*
X486705Y260964D01*
X486584Y260039D01*
X486705Y259114D01*
X487062Y258252D01*
X487630Y257512D01*
X487235Y256933D01*
X487062Y256708D01*
X486705Y255846D01*
X486584Y254921D01*
X486705Y253996D01*
X487062Y253134D01*
X487235Y252909D01*
X487630Y252330D01*
X487062Y251590D01*
X486705Y250728D01*
X486584Y249803D01*
X486705Y248878D01*
X487062Y248016D01*
X487630Y247276D01*
X487235Y246697D01*
X487062Y246472D01*
X486705Y245610D01*
X486584Y244685D01*
X486705Y243760D01*
X487062Y242898D01*
X487235Y242673D01*
X487630Y242094D01*
X487062Y241354D01*
X486705Y240492D01*
X486584Y239567D01*
X486705Y238642D01*
X487062Y237780D01*
X487630Y237040D01*
X487235Y236461D01*
X487062Y236236D01*
X486705Y235374D01*
X486584Y234449D01*
X486705Y233524D01*
X487062Y232662D01*
X487235Y232437D01*
X487630Y231858D01*
X487062Y231118D01*
X486705Y230256D01*
X486584Y229331D01*
X486705Y228406D01*
X487062Y227544D01*
X487630Y226804D01*
X487893Y226602D01*
X487935Y226548D01*
X488022Y225659D01*
X487908Y225511D01*
X487649Y224885D01*
X487626Y224713D01*
X493504D01*
X499382D01*
X499359Y224885D01*
X499099Y225511D01*
X498986Y225659D01*
X499073Y226548D01*
X499114Y226602D01*
X499377Y226804D01*
X499945Y227544D01*
X500303Y228406D01*
X500424Y229331D01*
X500303Y230256D01*
X499945Y231118D01*
X499377Y231858D01*
X499773Y232437D01*
X499945Y232662D01*
X500303Y233524D01*
X500424Y234449D01*
X500303Y235374D01*
X499945Y236236D01*
X499773Y236461D01*
X499377Y237040D01*
X499945Y237780D01*
X500303Y238642D01*
X500424Y239567D01*
X500303Y240492D01*
X499945Y241354D01*
X499377Y242094D01*
X499773Y242673D01*
X499945Y242898D01*
X500303Y243760D01*
X500424Y244685D01*
X500303Y245610D01*
X499945Y246472D01*
X499773Y246697D01*
X499377Y247276D01*
X499945Y248016D01*
X500303Y248878D01*
X500424Y249803D01*
X500303Y250728D01*
X499945Y251590D01*
X499377Y252330D01*
X499773Y252909D01*
X499945Y253134D01*
X500303Y253996D01*
X500424Y254921D01*
X500303Y255846D01*
X499945Y256708D01*
X499773Y256933D01*
X499377Y257512D01*
X499945Y258252D01*
X500303Y259114D01*
X500424Y260039D01*
X500303Y260964D01*
X499945Y261826D01*
X499377Y262566D01*
X499773Y263145D01*
X499945Y263370D01*
X500303Y264232D01*
X500424Y265158D01*
X500303Y266083D01*
X499945Y266944D01*
X499773Y267169D01*
X499377Y267748D01*
X499945Y268489D01*
X500303Y269351D01*
X500424Y270276D01*
X500303Y271201D01*
X499945Y272062D01*
X499377Y272803D01*
X499773Y273382D01*
X499945Y273607D01*
X500303Y274469D01*
X500424Y275394D01*
X500303Y276319D01*
X499945Y277181D01*
X499773Y277406D01*
X499377Y277985D01*
X499945Y278725D01*
X500303Y279587D01*
X500424Y280512D01*
X500303Y281437D01*
X499945Y282299D01*
X499377Y283039D01*
X499773Y283618D01*
X499945Y283843D01*
X500303Y284705D01*
X500424Y285630D01*
X500303Y286555D01*
X499945Y287417D01*
X499773Y287642D01*
X499377Y288221D01*
X499945Y288961D01*
X500303Y289823D01*
X500424Y290748D01*
X500303Y291673D01*
X499945Y292535D01*
X499377Y293275D01*
X499114Y293477D01*
X499073Y293531D01*
X498986Y294419D01*
X499099Y294568D01*
X499359Y295194D01*
X499382Y295366D01*
D02*
G37*
G36*
X275409Y226665D02*
X270579D01*
Y223803D01*
X275409D01*
Y226665D01*
D02*
G37*
G36*
X269579D02*
X264748D01*
Y223803D01*
X269579D01*
Y226665D01*
D02*
G37*
G36*
X520563Y233624D02*
X517307D01*
Y231478D01*
X517126Y230853D01*
X516607Y230853D01*
X507677D01*
Y229620D01*
X507374Y229495D01*
X506757Y229022D01*
X499973Y222237D01*
X499458Y222296D01*
X499267Y222625D01*
X499123Y222971D01*
X499359Y223540D01*
X499382Y223713D01*
X493504D01*
X487626D01*
X487649Y223540D01*
X487908Y222914D01*
X488022Y222766D01*
X487935Y221877D01*
X487893Y221824D01*
X487630Y221622D01*
X487062Y220881D01*
X486705Y220020D01*
X486584Y219094D01*
X486705Y218169D01*
X487062Y217307D01*
X487630Y216567D01*
X487235Y215988D01*
X487062Y215763D01*
X486705Y214901D01*
X486584Y213976D01*
X486705Y213051D01*
X487062Y212189D01*
X487630Y211449D01*
X487893Y211247D01*
X487935Y211193D01*
X488022Y210305D01*
X487908Y210157D01*
X487649Y209530D01*
X487626Y209358D01*
X493504D01*
Y208358D01*
X487626D01*
X487649Y208186D01*
X487908Y207560D01*
X488022Y207411D01*
X487935Y206523D01*
X487893Y206469D01*
X487630Y206267D01*
X487062Y205527D01*
X486705Y204665D01*
X486584Y203740D01*
X486705Y202815D01*
X487062Y201953D01*
X487630Y201213D01*
X487235Y200634D01*
X487062Y200409D01*
X486705Y199547D01*
X486584Y198622D01*
X486705Y197697D01*
X487062Y196835D01*
X487630Y196095D01*
X488371Y195527D01*
X489232Y195170D01*
X490158Y195048D01*
X496850D01*
X497775Y195170D01*
X498637Y195527D01*
X499377Y196095D01*
X499945Y196835D01*
X500303Y197697D01*
X500424Y198622D01*
X500303Y199547D01*
X499945Y200409D01*
X499773Y200634D01*
X499377Y201213D01*
X499945Y201953D01*
X500303Y202815D01*
X500424Y203740D01*
X500303Y204665D01*
X499945Y205527D01*
X499377Y206267D01*
X499114Y206469D01*
X499073Y206523D01*
X498986Y207411D01*
X499099Y207560D01*
X499359Y208186D01*
X499395Y208463D01*
X500134Y208713D01*
X507213Y201634D01*
X507213Y201634D01*
X507677Y201278D01*
Y199803D01*
X516339D01*
Y196524D01*
X511089D01*
Y195894D01*
X510386D01*
X509535Y195666D01*
X508772Y195225D01*
X508149Y194602D01*
X507708Y193839D01*
X507480Y192988D01*
Y192107D01*
X507708Y191256D01*
X508149Y190492D01*
X508772Y189869D01*
X509535Y189429D01*
X510386Y189201D01*
X511089D01*
Y188571D01*
X524947D01*
Y196063D01*
X525787D01*
Y203937D01*
X525121D01*
X524819Y204512D01*
X524819Y204637D01*
Y206980D01*
X521063D01*
Y207480D01*
X520563D01*
Y210449D01*
X517307D01*
Y208302D01*
X517126Y207677D01*
X516607Y207677D01*
X509594D01*
X501766Y215506D01*
X501785Y215790D01*
X501976Y216285D01*
X502531Y216515D01*
X503148Y216988D01*
X509138Y222979D01*
X516339D01*
Y219575D01*
X511089D01*
Y218945D01*
X510386D01*
X509535Y218717D01*
X508772Y218276D01*
X508149Y217653D01*
X507708Y216890D01*
X507480Y216039D01*
Y215158D01*
X507708Y214307D01*
X508149Y213544D01*
X508772Y212921D01*
X509535Y212480D01*
X510386Y212252D01*
X511089D01*
Y211622D01*
X524947D01*
Y219238D01*
X525787D01*
Y227112D01*
X525121D01*
X524819Y227687D01*
X524819Y227812D01*
Y230156D01*
X521063D01*
Y230656D01*
X520563D01*
Y233624D01*
D02*
G37*
G36*
X482102Y226272D02*
X475697D01*
Y221835D01*
X482102D01*
Y226272D01*
D02*
G37*
G36*
X474697D02*
X468291D01*
Y221835D01*
X474697D01*
Y226272D01*
D02*
G37*
G36*
X463205D02*
X456799D01*
Y221835D01*
X463205D01*
Y226272D01*
D02*
G37*
G36*
X455799D02*
X449394D01*
Y221835D01*
X455799D01*
Y226272D01*
D02*
G37*
G36*
X444307D02*
X437902D01*
Y221835D01*
X444307D01*
Y226272D01*
D02*
G37*
G36*
X436902D02*
X430496D01*
Y221835D01*
X436902D01*
Y226272D01*
D02*
G37*
G36*
X425410D02*
X419004D01*
Y221835D01*
X425410D01*
Y226272D01*
D02*
G37*
G36*
X418004D02*
X411598D01*
Y221835D01*
X418004D01*
Y226272D01*
D02*
G37*
G36*
X406512D02*
X400106D01*
Y221835D01*
X406512D01*
Y226272D01*
D02*
G37*
G36*
X399106D02*
X392701D01*
Y221835D01*
X399106D01*
Y226272D01*
D02*
G37*
G36*
X264976Y220066D02*
X262114D01*
Y217007D01*
X264976D01*
Y220066D01*
D02*
G37*
G36*
X482102Y219110D02*
X475697D01*
Y214673D01*
X482102D01*
Y219110D01*
D02*
G37*
G36*
X425410D02*
X419004D01*
Y214673D01*
X425410D01*
Y219110D01*
D02*
G37*
G36*
X444307D02*
X437902D01*
Y214673D01*
X444307D01*
Y219110D01*
D02*
G37*
G36*
X463205D02*
X456799D01*
Y214673D01*
X463205D01*
Y219110D01*
D02*
G37*
G36*
X406512D02*
X400106D01*
Y214673D01*
X406512D01*
Y219110D01*
D02*
G37*
G36*
X399106D02*
X392701D01*
Y214673D01*
X399106D01*
Y219110D01*
D02*
G37*
G36*
X455799D02*
X449394D01*
Y214673D01*
X455799D01*
Y219110D01*
D02*
G37*
G36*
X436902D02*
X430496D01*
Y214673D01*
X436902D01*
Y219110D01*
D02*
G37*
G36*
X418004D02*
X411598D01*
Y214673D01*
X418004D01*
Y219110D01*
D02*
G37*
G36*
X474697D02*
X468291D01*
Y214673D01*
X474697D01*
Y219110D01*
D02*
G37*
G36*
X482102Y213673D02*
X475697D01*
Y209236D01*
X482102D01*
Y213673D01*
D02*
G37*
G36*
X474697D02*
X468291D01*
Y209236D01*
X474697D01*
Y213673D01*
D02*
G37*
G36*
X463205D02*
X456799D01*
Y209236D01*
X463205D01*
Y213673D01*
D02*
G37*
G36*
X455799D02*
X449394D01*
Y209236D01*
X455799D01*
Y213673D01*
D02*
G37*
G36*
X444307D02*
X437902D01*
Y209236D01*
X444307D01*
Y213673D01*
D02*
G37*
G36*
X436902D02*
X430496D01*
Y209236D01*
X436902D01*
Y213673D01*
D02*
G37*
G36*
X425410D02*
X419004D01*
Y209236D01*
X425410D01*
Y213673D01*
D02*
G37*
G36*
X418004D02*
X411598D01*
Y209236D01*
X418004D01*
Y213673D01*
D02*
G37*
G36*
X406512D02*
X400106D01*
Y209236D01*
X406512D01*
Y213673D01*
D02*
G37*
G36*
X399106D02*
X392701D01*
Y209236D01*
X399106D01*
Y213673D01*
D02*
G37*
G36*
X524819Y210449D02*
X521563D01*
Y207980D01*
X524819D01*
Y210449D01*
D02*
G37*
G36*
X264855Y209078D02*
X261992D01*
Y206019D01*
X264855D01*
Y209078D01*
D02*
G37*
G36*
X205331Y207299D02*
X199909D01*
Y200303D01*
X205331D01*
Y207299D01*
D02*
G37*
G36*
X198909D02*
X193488D01*
Y200303D01*
X198909D01*
Y207299D01*
D02*
G37*
G36*
X387177Y208358D02*
X381299D01*
X375422D01*
X375444Y208186D01*
X375704Y207560D01*
X375817Y207411D01*
X375730Y206523D01*
X375689Y206469D01*
X375426Y206267D01*
X374858Y205527D01*
X374501Y204665D01*
X374379Y203740D01*
X374501Y202815D01*
X374858Y201953D01*
X375426Y201213D01*
X375030Y200634D01*
X374858Y200409D01*
X374501Y199547D01*
X374379Y198622D01*
X374501Y197697D01*
X374858Y196835D01*
X375426Y196095D01*
X376166Y195527D01*
X377028Y195170D01*
X377953Y195048D01*
X384646D01*
X385571Y195170D01*
X386433Y195527D01*
X387173Y196095D01*
X387741Y196835D01*
X388098Y197697D01*
X388220Y198622D01*
X388098Y199547D01*
X387741Y200409D01*
X387568Y200634D01*
X387173Y201213D01*
X387741Y201953D01*
X388098Y202815D01*
X388220Y203740D01*
X388098Y204665D01*
X387741Y205527D01*
X387173Y206267D01*
X386910Y206469D01*
X386868Y206523D01*
X386781Y207411D01*
X386895Y207560D01*
X387154Y208186D01*
X387177Y208358D01*
D02*
G37*
G36*
X337811Y197457D02*
X334949D01*
Y194398D01*
X337811D01*
Y197457D01*
D02*
G37*
G36*
X205331Y199303D02*
X199909D01*
Y192307D01*
X205331D01*
Y199303D01*
D02*
G37*
G36*
X198909D02*
X193488D01*
Y192307D01*
X198909D01*
Y199303D01*
D02*
G37*
G36*
X484842Y207283D02*
X389961D01*
Y199016D01*
Y191458D01*
X389922Y191401D01*
X389320Y190999D01*
X388720Y191247D01*
X387795Y191369D01*
X386870Y191247D01*
X386008Y190890D01*
X385268Y190322D01*
X384700Y189582D01*
X384343Y188720D01*
X384221Y187795D01*
Y181102D01*
X384343Y180177D01*
X384700Y179315D01*
X385268Y178575D01*
X386008Y178007D01*
X386870Y177650D01*
X387795Y177529D01*
X388720Y177650D01*
X389582Y178007D01*
X389807Y178180D01*
X390386Y178575D01*
X391126Y178007D01*
X391988Y177650D01*
X392913Y177529D01*
X393838Y177650D01*
X394700Y178007D01*
X395441Y178575D01*
X396020Y178180D01*
X396245Y178007D01*
X397107Y177650D01*
X398031Y177529D01*
X398956Y177650D01*
X399818Y178007D01*
X400043Y178180D01*
X400623Y178575D01*
X401363Y178007D01*
X402225Y177650D01*
X403150Y177529D01*
X404075Y177650D01*
X404590Y177864D01*
X405290Y177446D01*
Y171457D01*
X405391Y170686D01*
X405688Y169968D01*
X406162Y169351D01*
X407242Y168270D01*
X407315Y168000D01*
X407755Y167237D01*
X408378Y166613D01*
X409141Y166173D01*
X409993Y165945D01*
X410874D01*
X411725Y166173D01*
X412488Y166613D01*
X413111Y167237D01*
X413552Y168000D01*
X413779Y168851D01*
Y169732D01*
X413663Y170166D01*
X413796Y170734D01*
X414147Y170952D01*
X414677Y171094D01*
X415441Y171535D01*
X416064Y172158D01*
X416078Y172183D01*
X416913Y172333D01*
X417126Y172155D01*
Y167879D01*
X416874D01*
Y158824D01*
X417631D01*
Y158250D01*
X417753Y157325D01*
X417894Y156983D01*
X418086Y156266D01*
X418226Y156023D01*
Y154990D01*
X418054Y154818D01*
X417536Y153920D01*
X417268Y152919D01*
Y151882D01*
X417536Y150881D01*
X418054Y149983D01*
X418787Y149250D01*
X419685Y148732D01*
X420686Y148463D01*
X421723D01*
X422724Y148732D01*
X423622Y149250D01*
X424355Y149983D01*
X424873Y150881D01*
X425142Y151882D01*
Y152919D01*
X424873Y153920D01*
X424355Y154818D01*
X424183Y154990D01*
Y156023D01*
X424323Y156266D01*
X424515Y156983D01*
X424657Y157325D01*
X424779Y158250D01*
Y158824D01*
X425535D01*
Y159792D01*
X428186D01*
Y163351D01*
X428686D01*
Y163851D01*
X432049D01*
Y166717D01*
X432299D01*
Y169776D01*
X428937D01*
Y170276D01*
X428437D01*
Y173835D01*
X425787D01*
Y174803D01*
X424836D01*
X424749Y175015D01*
X424181Y175756D01*
X422078Y177858D01*
Y178710D01*
X422778Y178947D01*
X423064Y178575D01*
X423804Y178007D01*
X424666Y177650D01*
X425591Y177529D01*
X426516Y177650D01*
X427378Y178007D01*
X427602Y178180D01*
X428182Y178575D01*
X428922Y178007D01*
X429784Y177650D01*
X430709Y177529D01*
X431634Y177650D01*
X432496Y178007D01*
X433236Y178575D01*
X433438Y178838D01*
X433492Y178880D01*
X434380Y178967D01*
X434528Y178853D01*
X435155Y178594D01*
X435327Y178571D01*
Y184449D01*
X436327D01*
Y178571D01*
X436499Y178594D01*
X437125Y178853D01*
X437663Y179266D01*
X437986Y179687D01*
X438386Y179753D01*
X438785Y179687D01*
X439109Y179266D01*
X439646Y178853D01*
X440273Y178594D01*
X440445Y178571D01*
Y184449D01*
X441445D01*
Y178571D01*
X441617Y178594D01*
X442243Y178853D01*
X442781Y179266D01*
X443105Y179687D01*
X443504Y179753D01*
X443903Y179687D01*
X444227Y179266D01*
X444765Y178853D01*
X445391Y178594D01*
X445563Y178571D01*
Y184449D01*
X446563D01*
Y178571D01*
X446735Y178594D01*
X447362Y178853D01*
X447510Y178967D01*
X448398Y178880D01*
X448452Y178838D01*
X448654Y178575D01*
X449394Y178007D01*
X450256Y177650D01*
X451181Y177529D01*
X452106Y177650D01*
X452968Y178007D01*
X453708Y178575D01*
X454287Y178180D01*
X454512Y178007D01*
X455374Y177650D01*
X456299Y177529D01*
X457143Y177640D01*
X457396Y177576D01*
X457843Y177277D01*
Y175496D01*
X450229Y167881D01*
X449661Y167141D01*
X449304Y166279D01*
X449182Y165354D01*
X449304Y164429D01*
X449661Y163567D01*
X450229Y162827D01*
X450969Y162259D01*
X451831Y161902D01*
X452756Y161781D01*
X453014Y161814D01*
X453341Y161152D01*
X450421Y158231D01*
X450413Y158239D01*
X449029Y156618D01*
X447915Y154801D01*
X447099Y152831D01*
X446601Y150758D01*
X446434Y148633D01*
X446446D01*
Y145676D01*
X445746Y145488D01*
X445591Y145756D01*
X444968Y146379D01*
X444205Y146819D01*
X443354Y147047D01*
X442473D01*
X441622Y146819D01*
X440859Y146379D01*
X440236Y145756D01*
X439795Y144992D01*
X439567Y144141D01*
Y143260D01*
X439714Y142711D01*
X439354Y142011D01*
X439354D01*
Y134531D01*
X439697D01*
X440322Y134350D01*
Y132078D01*
X443291D01*
Y131578D01*
X443790D01*
Y128806D01*
X446043D01*
Y127995D01*
X447368D01*
Y118352D01*
X447350D01*
Y113219D01*
Y108085D01*
X448992D01*
Y111488D01*
X449651Y111723D01*
X449771Y111578D01*
X449778Y111586D01*
X450684Y110843D01*
X451717Y110291D01*
X452837Y109951D01*
X454003Y109836D01*
X454003Y109836D01*
Y109830D01*
X455393Y109967D01*
X456730Y110373D01*
X457962Y111031D01*
X459042Y111918D01*
X459928Y112998D01*
X460587Y114230D01*
X460782Y114872D01*
X462609D01*
X462823Y114172D01*
X462433Y113496D01*
X462205Y112645D01*
Y111764D01*
X462433Y110913D01*
X462873Y110150D01*
X463496Y109527D01*
X464259Y109086D01*
X465111Y108858D01*
X465992D01*
X466843Y109086D01*
X467086Y109227D01*
X469488D01*
X470259Y109328D01*
X470977Y109625D01*
X471594Y110099D01*
X472979Y111484D01*
X473626Y111216D01*
Y104727D01*
X473704Y104336D01*
X473925Y104006D01*
X474256Y103785D01*
X474646Y103707D01*
X480158D01*
X480548Y103785D01*
X480878Y104006D01*
X481099Y104336D01*
X481177Y104727D01*
Y111237D01*
X481851Y111427D01*
X482086Y111043D01*
X482874Y110120D01*
Y109796D01*
X483102Y108944D01*
X483543Y108181D01*
X484166Y107558D01*
X484929Y107118D01*
X485780Y106890D01*
X486661D01*
X487512Y107118D01*
X488275Y107558D01*
X488898Y108181D01*
X489339Y108944D01*
X489567Y109796D01*
Y110677D01*
X489339Y111528D01*
X488898Y112291D01*
X488275Y112914D01*
X487512Y113355D01*
X486661Y113583D01*
X486475D01*
X485954Y114217D01*
X485453Y115155D01*
Y120673D01*
X486108Y120957D01*
X486138Y120950D01*
X488559D01*
X488559Y120950D01*
X488559Y120950D01*
Y120950D01*
X488689Y120976D01*
X490220Y121097D01*
X491840Y121486D01*
X493380Y122124D01*
X494800Y122994D01*
X496067Y124076D01*
X497150Y125344D01*
X498020Y126764D01*
X498530Y127995D01*
X500650D01*
Y134216D01*
Y141854D01*
X500247D01*
Y157462D01*
X500259Y157556D01*
X500138Y158481D01*
X499781Y159343D01*
X499213Y160083D01*
X498472Y160651D01*
X497611Y161008D01*
X496686Y161129D01*
X495761Y161008D01*
X494899Y160651D01*
X494159Y160083D01*
X494146Y160070D01*
X493578Y159330D01*
X493221Y158468D01*
X493099Y157543D01*
Y141854D01*
X492697D01*
Y141042D01*
X490322D01*
Y138271D01*
X489322D01*
Y141042D01*
X487267D01*
Y141853D01*
X486159D01*
Y158366D01*
X486173D01*
X486026Y160242D01*
X485587Y162071D01*
X485089Y163271D01*
X485068Y163299D01*
X484679Y164240D01*
X484542Y165278D01*
X484546Y165309D01*
Y177734D01*
X485174Y178043D01*
X485221Y178007D01*
X486083Y177650D01*
X487008Y177529D01*
X487933Y177650D01*
X488795Y178007D01*
X489535Y178575D01*
X490103Y179315D01*
X490460Y180177D01*
X490582Y181102D01*
Y187795D01*
X490460Y188720D01*
X490103Y189582D01*
X489535Y190322D01*
X488795Y190890D01*
X487933Y191247D01*
X487008Y191369D01*
X486083Y191247D01*
X485483Y190999D01*
X484881Y191401D01*
X484842Y191458D01*
Y199016D01*
Y207283D01*
D02*
G37*
G36*
X337811Y193398D02*
X334949D01*
Y190339D01*
X337811D01*
Y193398D01*
D02*
G37*
G36*
X279968Y189370D02*
X279087D01*
X278236Y189142D01*
X277473Y188701D01*
X277150Y188379D01*
X277140Y188389D01*
X276377Y188829D01*
X275526Y189057D01*
X274645D01*
X273794Y188829D01*
X273031Y188389D01*
X272408Y187766D01*
X271967Y187002D01*
X271739Y186151D01*
Y185270D01*
X271967Y184419D01*
X272107Y184176D01*
Y176686D01*
X272209Y175915D01*
X272506Y175197D01*
X272980Y174580D01*
X281359Y166201D01*
X281359Y166201D01*
X281976Y165728D01*
X282694Y165430D01*
X283465Y165329D01*
X291089D01*
X300847Y155571D01*
X300847Y155571D01*
X301464Y155098D01*
X302182Y154800D01*
X302953Y154699D01*
X302953Y154699D01*
X323819D01*
Y148937D01*
Y143937D01*
Y138937D01*
Y133937D01*
Y131417D01*
X323819D01*
Y131024D01*
X323378D01*
X322527Y130796D01*
X321764Y130355D01*
X321141Y129732D01*
X320701Y128969D01*
X320472Y128118D01*
Y127237D01*
X320701Y126385D01*
X321141Y125622D01*
X321764Y124999D01*
X322527Y124559D01*
X323378Y124331D01*
X323819D01*
Y123937D01*
X323819D01*
Y118937D01*
Y116024D01*
X323378D01*
X322527Y115796D01*
X321764Y115355D01*
X321141Y114732D01*
X320701Y113969D01*
X320472Y113118D01*
Y112677D01*
X313071D01*
Y112677D01*
X305551D01*
Y112677D01*
X298071D01*
Y112677D01*
X295551D01*
Y112677D01*
X288071D01*
Y112677D01*
X280551D01*
Y112677D01*
X273071D01*
Y111709D01*
X272311D01*
Y107756D01*
Y103803D01*
X273071D01*
Y102835D01*
X273638D01*
Y102311D01*
X273866Y101460D01*
X274306Y100697D01*
X274929Y100074D01*
X275693Y99634D01*
X276544Y99405D01*
X277425D01*
X278276Y99634D01*
X279039Y100074D01*
X279662Y100697D01*
X280103Y101460D01*
X280331Y102311D01*
Y102835D01*
X290551D01*
Y102835D01*
X293071D01*
Y102835D01*
X300551D01*
Y102835D01*
X303071D01*
Y102835D01*
X308263D01*
X308553Y102135D01*
X305138Y98720D01*
X304665Y98103D01*
X304367Y97385D01*
X304333Y97122D01*
X303841Y96918D01*
X302664Y96132D01*
X302244Y95712D01*
X301824Y96132D01*
X300647Y96918D01*
X299340Y97460D01*
X297952Y97736D01*
X296536D01*
X295148Y97460D01*
X293841Y96918D01*
X292664Y96132D01*
X291663Y95131D01*
X290877Y93955D01*
X290335Y92647D01*
X290059Y91259D01*
Y89843D01*
X290205Y89109D01*
X289581Y88661D01*
X289551Y88678D01*
X288700Y88906D01*
X287818D01*
X286967Y88678D01*
X286204Y88238D01*
X285581Y87615D01*
X285140Y86851D01*
X284912Y86000D01*
Y85119D01*
X285140Y84268D01*
X285581Y83505D01*
X286204Y82882D01*
X286967Y82441D01*
X287818Y82213D01*
X288700D01*
X289551Y82441D01*
X290314Y82882D01*
X290937Y83505D01*
X291377Y84268D01*
X291588Y85056D01*
X291804Y85179D01*
X292305Y85329D01*
X292664Y84970D01*
X293841Y84184D01*
X295148Y83642D01*
X296536Y83366D01*
X297952D01*
X299340Y83642D01*
X300647Y84184D01*
X301824Y84970D01*
X302244Y85390D01*
X302664Y84970D01*
X303841Y84184D01*
X305148Y83642D01*
X306536Y83366D01*
X307952D01*
X309340Y83642D01*
X309529Y83720D01*
X310059Y83366D01*
Y83366D01*
X324429D01*
Y97736D01*
X313493D01*
X313225Y98383D01*
X313917Y99075D01*
X313917Y99075D01*
X314336Y99622D01*
X314435Y99704D01*
X315102Y99893D01*
X315223Y99873D01*
X315637Y99634D01*
X316489Y99405D01*
X317370D01*
X318221Y99634D01*
X318984Y100074D01*
X319607Y100697D01*
X320047Y101460D01*
X320276Y102311D01*
Y102835D01*
X320551D01*
Y110260D01*
X320798Y110411D01*
X321251Y110512D01*
X321764Y109999D01*
X322527Y109559D01*
X323378Y109331D01*
X323819D01*
Y108937D01*
X333661D01*
Y113659D01*
X333811Y114331D01*
X334693D01*
X335544Y114559D01*
X336307Y114999D01*
X336930Y115622D01*
X337370Y116385D01*
X337598Y117237D01*
Y118118D01*
X337370Y118969D01*
X336930Y119732D01*
X336485Y120177D01*
X336930Y120622D01*
X337370Y121386D01*
X337598Y122237D01*
Y123118D01*
X337370Y123969D01*
X336930Y124732D01*
X336307Y125355D01*
X335544Y125796D01*
X334693Y126024D01*
X333811D01*
X333661Y126696D01*
Y128659D01*
X333811Y129331D01*
X334693D01*
X335544Y129559D01*
X336307Y129999D01*
X336930Y130622D01*
X337370Y131386D01*
X337598Y132237D01*
Y133118D01*
X337370Y133969D01*
X336930Y134732D01*
X336485Y135177D01*
X336930Y135622D01*
X337370Y136386D01*
X337598Y137237D01*
Y138118D01*
X337370Y138969D01*
X336930Y139732D01*
X336502Y140160D01*
X336930Y140587D01*
X337370Y141350D01*
X337598Y142201D01*
Y143083D01*
X337370Y143934D01*
X336930Y144697D01*
X336307Y145320D01*
X335544Y145760D01*
X334693Y145989D01*
X333811D01*
X333661Y146104D01*
Y148541D01*
X333811Y149213D01*
X334693D01*
X335544Y149441D01*
X336307Y149881D01*
X336817Y150392D01*
X336897Y150453D01*
X337371Y151070D01*
X337650Y151746D01*
X340407Y154502D01*
X393451D01*
X429108Y118845D01*
Y98637D01*
X428408Y98292D01*
X428211Y98444D01*
X427253Y98840D01*
X426226Y98976D01*
X423445D01*
X422417Y98840D01*
X421459Y98444D01*
X420637Y97813D01*
X420006Y96990D01*
X419609Y96032D01*
X419474Y95005D01*
Y85551D01*
X419609Y84523D01*
X420006Y83566D01*
X420637Y82743D01*
X421459Y82112D01*
X422417Y81716D01*
X423445Y81580D01*
X426226D01*
X427253Y81716D01*
X428211Y82112D01*
X428408Y82263D01*
X429108Y81918D01*
Y64961D01*
X429210Y64190D01*
X429507Y63472D01*
X429981Y62855D01*
X437499Y55337D01*
X437102Y54743D01*
X436151Y55137D01*
X434763Y55413D01*
X433348D01*
X431959Y55137D01*
X430652Y54596D01*
X429475Y53809D01*
X428474Y52809D01*
X427688Y51632D01*
X427146Y50324D01*
X426870Y48936D01*
Y47521D01*
X427146Y46132D01*
X427688Y44825D01*
X428474Y43648D01*
X429475Y42647D01*
X430652Y41861D01*
X431959Y41319D01*
X433348Y41043D01*
X434763D01*
X436151Y41319D01*
X437459Y41861D01*
X438635Y42647D01*
X439055Y43067D01*
X439475Y42647D01*
X440652Y41861D01*
X441959Y41319D01*
X443348Y41043D01*
X444763D01*
X446151Y41319D01*
X447459Y41861D01*
X448635Y42647D01*
X449055Y43067D01*
X449475Y42647D01*
X450652Y41861D01*
X451959Y41319D01*
X453347Y41043D01*
X454763D01*
X456151Y41319D01*
X457458Y41861D01*
X458635Y42647D01*
X459055Y43067D01*
X459475Y42647D01*
X460652Y41861D01*
X461959Y41319D01*
X463347Y41043D01*
X464763D01*
X466151Y41319D01*
X467458Y41861D01*
X468635Y42647D01*
X469055Y43067D01*
X469475Y42647D01*
X470652Y41861D01*
X471959Y41319D01*
X473348Y41043D01*
X474763D01*
X476151Y41319D01*
X477458Y41861D01*
X478635Y42647D01*
X479636Y43648D01*
X480422Y44825D01*
X480483Y44970D01*
X481169Y45107D01*
X481447Y44829D01*
X482415Y44270D01*
X483496Y43980D01*
X483555D01*
Y48228D01*
Y52476D01*
X483496D01*
X482415Y52187D01*
X481447Y51628D01*
X481169Y51350D01*
X480483Y51486D01*
X480422Y51632D01*
X479636Y52809D01*
X478635Y53809D01*
X477458Y54596D01*
X476151Y55137D01*
X474763Y55413D01*
X473348D01*
X471959Y55137D01*
X471534Y54961D01*
X465334Y61161D01*
X464717Y61634D01*
X463999Y61932D01*
X463228Y62033D01*
X448992D01*
Y65474D01*
X446850D01*
X444709D01*
Y62367D01*
X444009Y62172D01*
X439002Y67178D01*
Y121063D01*
X439002Y121063D01*
X438900Y121834D01*
X438603Y122552D01*
X438130Y123169D01*
X438130Y123169D01*
X397775Y163523D01*
X397158Y163997D01*
X396440Y164294D01*
X395669Y164396D01*
X341745D01*
X337650Y168491D01*
X337371Y169166D01*
X336897Y169783D01*
X336821Y170513D01*
X336930Y170622D01*
X337370Y171386D01*
X337598Y172237D01*
Y173118D01*
X337370Y173969D01*
X336930Y174732D01*
X336307Y175355D01*
X335544Y175796D01*
X334693Y176024D01*
X333811D01*
X333661Y176139D01*
Y176417D01*
X332693D01*
Y177177D01*
X324787D01*
Y176417D01*
X323819D01*
Y171417D01*
X323819D01*
Y165655D01*
X306076D01*
X296397Y175334D01*
X295780Y175808D01*
X295062Y176105D01*
X294291Y176207D01*
X287651D01*
X282506Y181352D01*
Y184489D01*
X282646Y184732D01*
X282874Y185583D01*
Y186464D01*
X282646Y187315D01*
X282205Y188078D01*
X281582Y188701D01*
X280819Y189142D01*
X279968Y189370D01*
D02*
G37*
G36*
X332693Y180449D02*
X329240D01*
Y178177D01*
X332693D01*
Y180449D01*
D02*
G37*
G36*
X328240D02*
X324787D01*
Y178177D01*
X328240D01*
Y180449D01*
D02*
G37*
G36*
X432299Y173835D02*
X429437D01*
Y170776D01*
X432299D01*
Y173835D01*
D02*
G37*
G36*
X432049Y162851D02*
X429186D01*
Y159792D01*
X432049D01*
Y162851D01*
D02*
G37*
G36*
X296669Y157063D02*
X294398D01*
Y154791D01*
X296669D01*
Y157063D01*
D02*
G37*
G36*
X282374D02*
X280102D01*
Y154791D01*
X282374D01*
Y157063D01*
D02*
G37*
G36*
X293398D02*
X288886D01*
Y154291D01*
X287886D01*
Y157063D01*
X283374D01*
Y154291D01*
X282874D01*
Y153791D01*
X280102D01*
Y151551D01*
X280102D01*
Y149279D01*
X282874D01*
Y148280D01*
X280102D01*
Y146008D01*
Y143768D01*
X282874D01*
Y143268D01*
X283374D01*
Y140496D01*
X287886D01*
Y143268D01*
X288886D01*
Y140496D01*
X293398D01*
Y143268D01*
X293898D01*
Y143768D01*
X296669D01*
Y146008D01*
Y148280D01*
X293898D01*
Y149279D01*
X296669D01*
Y151520D01*
Y153791D01*
X293898D01*
Y154291D01*
X293398D01*
Y157063D01*
D02*
G37*
G36*
X240598Y162795D02*
X239717D01*
X238866Y162567D01*
X238103Y162127D01*
X237480Y161504D01*
X237039Y160740D01*
X236811Y159889D01*
Y159008D01*
X236424Y158504D01*
X236181D01*
Y152590D01*
X235481Y152148D01*
X235356Y152208D01*
X235236Y152363D01*
Y159291D01*
X231741D01*
X231473Y159938D01*
X231509Y159975D01*
X232030Y160876D01*
X232299Y161881D01*
Y161901D01*
X228346D01*
X224394D01*
Y161881D01*
X224663Y160876D01*
X225184Y159975D01*
X225220Y159938D01*
X224952Y159291D01*
X221457D01*
Y146679D01*
X219488D01*
X218717Y146578D01*
X217999Y146280D01*
X217382Y145807D01*
X217382Y145807D01*
X215514Y143939D01*
X215244Y143866D01*
X214481Y143426D01*
X213858Y142803D01*
X213417Y142040D01*
X213189Y141189D01*
Y140307D01*
X213417Y139456D01*
X213858Y138693D01*
X214481Y138070D01*
X215244Y137630D01*
X216095Y137402D01*
X216976D01*
X217465Y137027D01*
Y135303D01*
X219972D01*
Y137654D01*
X219163D01*
X218874Y138354D01*
X219213Y138693D01*
X219654Y139456D01*
X219726Y139727D01*
X220722Y140723D01*
X229331D01*
X230101Y140824D01*
X230820Y141122D01*
X231437Y141595D01*
X235273Y145431D01*
X235481Y145487D01*
X235683Y145459D01*
X236181Y145172D01*
Y144646D01*
X236811D01*
Y144245D01*
X237039Y143393D01*
X237480Y142630D01*
X238103Y142007D01*
X238866Y141567D01*
X239717Y141339D01*
X240598D01*
X241449Y141567D01*
X242212Y142007D01*
X242835Y142630D01*
X243276Y143393D01*
X243504Y144245D01*
Y144646D01*
X244134D01*
Y150866D01*
Y158504D01*
X243891D01*
X243504Y159008D01*
Y159889D01*
X243276Y160740D01*
X242835Y161504D01*
X242212Y162127D01*
X241449Y162567D01*
X240598Y162795D01*
D02*
G37*
G36*
X526614Y150441D02*
X512756D01*
Y149991D01*
X512169Y149615D01*
X512056Y149600D01*
X511267Y149811D01*
X510386D01*
X509535Y149583D01*
X508772Y149142D01*
X508149Y148519D01*
X507708Y147756D01*
X507480Y146905D01*
Y146024D01*
X507708Y145173D01*
X508149Y144410D01*
X508772Y143787D01*
X509535Y143346D01*
X510386Y143118D01*
X511267D01*
X511829Y143269D01*
X512506Y142860D01*
X512525Y142750D01*
X512369Y142528D01*
X511835Y142214D01*
X511267Y142366D01*
X510386D01*
X509535Y142138D01*
X508772Y141698D01*
X508149Y141075D01*
X507708Y140311D01*
X507480Y139460D01*
Y138579D01*
X507708Y137728D01*
X508149Y136965D01*
X508772Y136342D01*
X509440Y135957D01*
X509497Y135604D01*
X509445Y135201D01*
X509123Y135067D01*
X508382Y134500D01*
X508300Y134417D01*
X507732Y133677D01*
X507375Y132815D01*
X507253Y131890D01*
X507375Y130965D01*
X507732Y130103D01*
X508300Y129363D01*
X509040Y128795D01*
X509683Y128528D01*
X509635Y127791D01*
X509535Y127764D01*
X508772Y127323D01*
X508149Y126700D01*
X507708Y125937D01*
X507480Y125086D01*
Y124205D01*
X507708Y123354D01*
X508149Y122591D01*
X508772Y121968D01*
X509535Y121527D01*
X509864Y121439D01*
Y120714D01*
X509535Y120626D01*
X508772Y120186D01*
X508149Y119563D01*
X507708Y118799D01*
X507480Y117948D01*
Y117067D01*
X507708Y116216D01*
X508149Y115453D01*
X508729Y114873D01*
X508712Y114680D01*
X508510Y114173D01*
X507874D01*
Y113016D01*
X507330Y112598D01*
X506449D01*
X505598Y112370D01*
X504835Y111930D01*
X504212Y111307D01*
X503771Y110544D01*
X503543Y109693D01*
Y108811D01*
X503771Y107960D01*
X504212Y107197D01*
X504835Y106574D01*
X505598Y106134D01*
X506449Y105905D01*
X507330D01*
X507562Y105728D01*
Y105328D01*
X506936Y104724D01*
X506449D01*
X505598Y104496D01*
X504835Y104056D01*
X504212Y103433D01*
X503771Y102670D01*
X503543Y101819D01*
Y100937D01*
X503771Y100086D01*
X504212Y99323D01*
X504835Y98700D01*
X505598Y98260D01*
X506449Y98032D01*
X507330D01*
X507562Y97854D01*
Y97454D01*
X506936Y96850D01*
X506449D01*
X505598Y96622D01*
X504835Y96182D01*
X504212Y95559D01*
X503771Y94796D01*
X503543Y93945D01*
Y93063D01*
X503771Y92212D01*
X504212Y91449D01*
X504835Y90826D01*
X505598Y90386D01*
X506449Y90158D01*
X507330D01*
X507562Y89979D01*
Y89580D01*
X506936Y88976D01*
X506449D01*
X505598Y88748D01*
X504835Y88308D01*
X504212Y87685D01*
X503771Y86922D01*
X503543Y86071D01*
Y85189D01*
X503771Y84338D01*
X504212Y83575D01*
X504835Y82952D01*
X505598Y82512D01*
X506449Y82284D01*
X507330D01*
X507562Y82105D01*
Y81706D01*
X506936Y81102D01*
X506449D01*
X505598Y80874D01*
X504835Y80434D01*
X504212Y79811D01*
X503771Y79048D01*
X503543Y78197D01*
Y77315D01*
X503771Y76464D01*
X504212Y75701D01*
X504835Y75078D01*
X505598Y74638D01*
X506449Y74410D01*
X507330D01*
X507874Y73992D01*
Y72835D01*
X517717D01*
Y80709D01*
Y88583D01*
Y96457D01*
X517717D01*
Y104331D01*
Y113531D01*
X521654D01*
Y104331D01*
Y96457D01*
X522622D01*
Y94004D01*
X526575D01*
X530527D01*
Y96457D01*
X531496D01*
Y104331D01*
Y105281D01*
X532496D01*
X533524Y105416D01*
X534481Y105813D01*
X535304Y106444D01*
X535935Y107266D01*
X536332Y108224D01*
X536467Y109252D01*
X536332Y110280D01*
X535935Y111237D01*
X535304Y112060D01*
X534481Y112691D01*
X533524Y113088D01*
X532496Y113223D01*
X531496D01*
X531496Y113223D01*
Y114173D01*
X530861D01*
X530658Y114680D01*
X530641Y114873D01*
X531221Y115453D01*
X531662Y116216D01*
X531890Y117067D01*
Y117948D01*
X531662Y118799D01*
X531221Y119563D01*
X530598Y120186D01*
X529835Y120626D01*
X529506Y120714D01*
Y121439D01*
X529835Y121527D01*
X530598Y121968D01*
X531221Y122591D01*
X531662Y123354D01*
X531890Y124205D01*
Y125086D01*
X531662Y125937D01*
X531221Y126700D01*
X530598Y127323D01*
X529835Y127764D01*
X529119Y127956D01*
Y128662D01*
X529835Y128854D01*
X530598Y129295D01*
X531221Y129918D01*
X531662Y130681D01*
X531890Y131532D01*
Y132413D01*
X531662Y133264D01*
X531221Y134027D01*
X530598Y134650D01*
X529835Y135091D01*
X529675Y135134D01*
Y135858D01*
X529835Y135901D01*
X530598Y136342D01*
X531221Y136965D01*
X531662Y137728D01*
X531890Y138579D01*
Y139460D01*
X531662Y140311D01*
X531221Y141075D01*
X530598Y141698D01*
X529835Y142138D01*
X528984Y142366D01*
X528103D01*
X527535Y142214D01*
X527003Y142527D01*
X526845Y142750D01*
X526864Y142859D01*
X527542Y143269D01*
X528103Y143118D01*
X528984D01*
X529835Y143346D01*
X530598Y143787D01*
X531221Y144410D01*
X531662Y145173D01*
X531890Y146024D01*
Y146905D01*
X531662Y147756D01*
X531221Y148519D01*
X530598Y149142D01*
X529835Y149583D01*
X528984Y149811D01*
X528103D01*
X527314Y149600D01*
X527201Y149615D01*
X526614Y149991D01*
Y150441D01*
D02*
G37*
G36*
X296669Y142768D02*
X294398D01*
Y140496D01*
X296669D01*
Y142768D01*
D02*
G37*
G36*
X282374D02*
X280102D01*
Y140496D01*
X282374D01*
Y142768D01*
D02*
G37*
G36*
X238244Y138795D02*
X235185D01*
Y135933D01*
X238244D01*
Y138795D01*
D02*
G37*
G36*
X114056Y133395D02*
X110997D01*
Y130533D01*
X114056D01*
Y133395D01*
D02*
G37*
G36*
X442791Y131078D02*
X440322D01*
Y128806D01*
X442791D01*
Y131078D01*
D02*
G37*
G36*
X446350Y118352D02*
X444709D01*
Y113719D01*
X446350D01*
Y118352D01*
D02*
G37*
G36*
X500173D02*
X498531D01*
Y113718D01*
X500173D01*
Y118352D01*
D02*
G37*
G36*
X497532D02*
X495890D01*
Y113718D01*
X497532D01*
Y118352D01*
D02*
G37*
G36*
X427201Y119740D02*
X425323D01*
Y112685D01*
X427201D01*
Y119740D01*
D02*
G37*
G36*
X376177D02*
X374299D01*
Y112685D01*
X376177D01*
Y119740D01*
D02*
G37*
G36*
X373299D02*
X371421D01*
Y112685D01*
X373299D01*
Y119740D01*
D02*
G37*
G36*
X194418Y114189D02*
X194398D01*
Y110736D01*
X197850D01*
Y110757D01*
X197581Y111762D01*
X197061Y112663D01*
X196325Y113399D01*
X195423Y113920D01*
X194418Y114189D01*
D02*
G37*
G36*
X193398D02*
X193377D01*
X192372Y113920D01*
X191471Y113399D01*
X190735Y112663D01*
X190214Y111762D01*
X189945Y110757D01*
Y110736D01*
X193398D01*
Y114189D01*
D02*
G37*
G36*
X271311Y111709D02*
X269039D01*
Y108256D01*
X271311D01*
Y111709D01*
D02*
G37*
G36*
X500173Y112718D02*
X498531D01*
Y108085D01*
X500173D01*
Y112718D01*
D02*
G37*
G36*
X497532D02*
X495890D01*
Y108085D01*
X497532D01*
Y112718D01*
D02*
G37*
G36*
X446350Y112719D02*
X444709D01*
Y108085D01*
X446350D01*
Y112719D01*
D02*
G37*
G36*
X197850Y109736D02*
X194398D01*
Y106283D01*
X194418D01*
X195423Y106553D01*
X196325Y107073D01*
X197061Y107809D01*
X197581Y108711D01*
X197850Y109716D01*
Y109736D01*
D02*
G37*
G36*
X193398D02*
X189945D01*
Y109716D01*
X190214Y108711D01*
X190735Y107809D01*
X191471Y107073D01*
X192372Y106553D01*
X193377Y106283D01*
X193398D01*
Y109736D01*
D02*
G37*
G36*
X427201Y111685D02*
X425323D01*
Y104630D01*
X427201D01*
Y111685D01*
D02*
G37*
G36*
X271311Y107256D02*
X269039D01*
Y103803D01*
X271311D01*
Y107256D01*
D02*
G37*
G36*
X66354Y103953D02*
X61524D01*
Y94988D01*
X66354D01*
Y103953D01*
D02*
G37*
G36*
X60524D02*
X55693D01*
Y94988D01*
X60524D01*
Y103953D01*
D02*
G37*
G36*
X360842Y93717D02*
X357784D01*
Y90854D01*
X360842D01*
Y93717D01*
D02*
G37*
G36*
X352969D02*
X349909D01*
Y90854D01*
X352969D01*
Y93717D01*
D02*
G37*
G36*
X348909D02*
X345850D01*
Y90854D01*
X348909D01*
Y93717D01*
D02*
G37*
G36*
X356784D02*
X353724D01*
Y90854D01*
X356784D01*
Y93717D01*
D02*
G37*
G36*
X14780Y93598D02*
X10146D01*
Y90146D01*
X14780D01*
Y93598D01*
D02*
G37*
G36*
X9146D02*
X4512D01*
Y90146D01*
X9146D01*
Y93598D01*
D02*
G37*
G36*
X480157Y100234D02*
X474646D01*
X474255Y100156D01*
X473925Y99936D01*
X473704Y99605D01*
X473626Y99215D01*
Y87600D01*
X473704Y87210D01*
X473925Y86879D01*
X474255Y86658D01*
X474646Y86581D01*
X480157D01*
X480548Y86658D01*
X480878Y86879D01*
X481099Y87210D01*
X481177Y87600D01*
Y99215D01*
X481099Y99605D01*
X480878Y99936D01*
X480548Y100156D01*
X480157Y100234D01*
D02*
G37*
G36*
X470157D02*
X464646D01*
X464255Y100156D01*
X463925Y99936D01*
X463704Y99605D01*
X463626Y99215D01*
Y87600D01*
X463704Y87210D01*
X463925Y86879D01*
X464255Y86658D01*
X464646Y86581D01*
X470157D01*
X470547Y86658D01*
X470878Y86879D01*
X471099Y87210D01*
X471177Y87600D01*
Y99215D01*
X471099Y99605D01*
X470878Y99936D01*
X470547Y100156D01*
X470157Y100234D01*
D02*
G37*
G36*
X460157D02*
X454646D01*
X454255Y100156D01*
X453925Y99936D01*
X453704Y99605D01*
X453626Y99215D01*
Y87600D01*
X453704Y87210D01*
X453925Y86879D01*
X454255Y86658D01*
X454646Y86581D01*
X460157D01*
X460547Y86658D01*
X460878Y86879D01*
X461099Y87210D01*
X461177Y87600D01*
Y99215D01*
X461099Y99605D01*
X460878Y99936D01*
X460547Y100156D01*
X460157Y100234D01*
D02*
G37*
G36*
X530527Y93004D02*
X526575D01*
X522622D01*
Y89551D01*
Y86130D01*
X526575D01*
X530527D01*
Y89551D01*
Y93004D01*
D02*
G37*
G36*
X14780Y89146D02*
X10146D01*
Y85693D01*
X14780D01*
Y89146D01*
D02*
G37*
G36*
X9146D02*
X4512D01*
Y85693D01*
X9146D01*
Y89146D01*
D02*
G37*
G36*
X66354Y93988D02*
X61524D01*
Y85024D01*
X66354D01*
Y93988D01*
D02*
G37*
G36*
X60524D02*
X55693D01*
Y85024D01*
X60524D01*
Y93988D01*
D02*
G37*
G36*
X530527Y85130D02*
X526575D01*
X522622D01*
Y81677D01*
Y78256D01*
X526575D01*
X530527D01*
Y81677D01*
Y85130D01*
D02*
G37*
G36*
X58246Y79580D02*
X55384D01*
Y76521D01*
X58246D01*
Y79580D01*
D02*
G37*
G36*
X15748Y84567D02*
X3543D01*
Y74724D01*
X15748D01*
Y76006D01*
X16448Y76351D01*
X16637Y76207D01*
X17594Y75810D01*
X18622Y75675D01*
X19650Y75810D01*
X20607Y76207D01*
X21430Y76838D01*
X21509Y76916D01*
X22140Y77739D01*
X22536Y78697D01*
X22672Y79724D01*
X22536Y80752D01*
X22140Y81710D01*
X21509Y82532D01*
X20686Y83163D01*
X19729Y83560D01*
X18701Y83695D01*
X17673Y83560D01*
X16715Y83163D01*
X16448Y82958D01*
X15748Y83303D01*
Y84567D01*
D02*
G37*
G36*
X275775Y76816D02*
X271436D01*
Y74249D01*
X275775D01*
Y76816D01*
D02*
G37*
G36*
X270436D02*
X266097D01*
Y74249D01*
X270436D01*
Y76816D01*
D02*
G37*
G36*
X530527Y77256D02*
X527075D01*
Y73803D01*
X530527D01*
Y77256D01*
D02*
G37*
G36*
X526075D02*
X522622D01*
Y73803D01*
X526075D01*
Y77256D01*
D02*
G37*
G36*
X221941Y75016D02*
X218882D01*
Y72154D01*
X221941D01*
Y75016D01*
D02*
G37*
G36*
X275775Y73249D02*
X271436D01*
Y70682D01*
X275775D01*
Y73249D01*
D02*
G37*
G36*
X270436D02*
X266097D01*
Y70682D01*
X270436D01*
Y73249D01*
D02*
G37*
G36*
X202756Y154561D02*
X159449D01*
X158421Y154426D01*
X157463Y154030D01*
X156641Y153399D01*
X156010Y152576D01*
X155613Y151618D01*
X155478Y150591D01*
Y72835D01*
X155613Y71807D01*
X156010Y70849D01*
X156641Y70027D01*
X157463Y69396D01*
X158421Y68999D01*
X159449Y68864D01*
X159827D01*
Y68610D01*
X166945D01*
Y68864D01*
X169669D01*
Y68610D01*
X176787D01*
Y68864D01*
X179512D01*
Y68610D01*
X186630D01*
Y68864D01*
X188370D01*
Y68807D01*
X195488D01*
Y68864D01*
X195866D01*
X196894Y68999D01*
X197852Y69396D01*
X198674Y70027D01*
X199305Y70849D01*
X199702Y71807D01*
X199837Y72835D01*
Y92520D01*
X199702Y93547D01*
X199305Y94505D01*
X198674Y95328D01*
X197852Y95959D01*
X196894Y96355D01*
X195866Y96491D01*
X188026D01*
Y117092D01*
X202756D01*
X203784Y117227D01*
X204741Y117624D01*
X205564Y118255D01*
X206195Y119078D01*
X206592Y120035D01*
X206727Y121063D01*
Y150591D01*
X206592Y151618D01*
X206195Y152576D01*
X205564Y153399D01*
X204741Y154030D01*
X203784Y154426D01*
X202756Y154561D01*
D02*
G37*
G36*
X427201Y72496D02*
X424457D01*
Y68394D01*
X427201D01*
Y72496D01*
D02*
G37*
G36*
X423457D02*
X420713D01*
Y68394D01*
X423457D01*
Y72496D01*
D02*
G37*
G36*
X448992Y71108D02*
X447350D01*
Y66474D01*
X448992D01*
Y71108D01*
D02*
G37*
G36*
X446350D02*
X444709D01*
Y66474D01*
X446350D01*
Y71108D01*
D02*
G37*
G36*
X500173D02*
X498531D01*
Y66474D01*
X500173D01*
Y71108D01*
D02*
G37*
G36*
X497532D02*
X495890D01*
Y66474D01*
X497532D01*
Y71108D01*
D02*
G37*
G36*
X195488Y67807D02*
X192429D01*
Y64945D01*
X195488D01*
Y67807D01*
D02*
G37*
G36*
X191429D02*
X188370D01*
Y64945D01*
X191429D01*
Y67807D01*
D02*
G37*
G36*
X186630Y67610D02*
X183571D01*
Y64748D01*
X186630D01*
Y67610D01*
D02*
G37*
G36*
X182571D02*
X179512D01*
Y64748D01*
X182571D01*
Y67610D01*
D02*
G37*
G36*
X176787D02*
X173728D01*
Y64748D01*
X176787D01*
Y67610D01*
D02*
G37*
G36*
X172728D02*
X169669D01*
Y64748D01*
X172728D01*
Y67610D01*
D02*
G37*
G36*
X166945D02*
X163886D01*
Y64748D01*
X166945D01*
Y67610D01*
D02*
G37*
G36*
X162886D02*
X159827D01*
Y64748D01*
X162886D01*
Y67610D01*
D02*
G37*
G36*
X480945Y76415D02*
X473858D01*
X473468Y76338D01*
X473137Y76117D01*
X472916Y75786D01*
X472839Y75396D01*
Y64372D01*
X472916Y63982D01*
X473137Y63651D01*
X473468Y63430D01*
X473858Y63353D01*
X480945D01*
X481335Y63430D01*
X481666Y63651D01*
X481887Y63982D01*
X481964Y64372D01*
Y75396D01*
X481887Y75786D01*
X481666Y76117D01*
X481335Y76338D01*
X480945Y76415D01*
D02*
G37*
G36*
X470945D02*
X463858D01*
X463468Y76338D01*
X463137Y76117D01*
X462916Y75786D01*
X462839Y75396D01*
Y64372D01*
X462916Y63982D01*
X463137Y63651D01*
X463468Y63430D01*
X463858Y63353D01*
X470945D01*
X471335Y63430D01*
X471666Y63651D01*
X471887Y63982D01*
X471965Y64372D01*
Y75396D01*
X471887Y75786D01*
X471666Y76117D01*
X471335Y76338D01*
X470945Y76415D01*
D02*
G37*
G36*
X460945D02*
X453858D01*
X453468Y76338D01*
X453137Y76117D01*
X452916Y75786D01*
X452839Y75396D01*
Y64372D01*
X452916Y63982D01*
X453137Y63651D01*
X453468Y63430D01*
X453858Y63353D01*
X460945D01*
X461335Y63430D01*
X461666Y63651D01*
X461887Y63982D01*
X461965Y64372D01*
Y75396D01*
X461887Y75786D01*
X461666Y76117D01*
X461335Y76338D01*
X460945Y76415D01*
D02*
G37*
G36*
X427201Y67394D02*
X424457D01*
Y63291D01*
X427201D01*
Y67394D01*
D02*
G37*
G36*
X423457D02*
X420713D01*
Y63291D01*
X423457D01*
Y67394D01*
D02*
G37*
G36*
X500173Y65474D02*
X498531D01*
Y60841D01*
X500173D01*
Y65474D01*
D02*
G37*
G36*
X497532D02*
X495890D01*
Y60841D01*
X497532D01*
Y65474D01*
D02*
G37*
G36*
X45578Y98688D02*
X44550Y98553D01*
X43592Y98156D01*
X42770Y97525D01*
X42139Y96703D01*
X41742Y95745D01*
X41607Y94717D01*
Y94567D01*
X39370D01*
Y85267D01*
X39370Y84724D01*
X39370Y84024D01*
Y74724D01*
X42327D01*
Y72239D01*
X41486D01*
Y64286D01*
X41486D01*
Y60595D01*
X41486D01*
Y52642D01*
X41499D01*
X42037Y51942D01*
X41958Y51651D01*
Y50770D01*
X42186Y49919D01*
X42627Y49156D01*
X43250Y48533D01*
X44013Y48092D01*
X44864Y47864D01*
X45746D01*
X46597Y48092D01*
X47360Y48533D01*
X47983Y49156D01*
X48423Y49919D01*
X48651Y50770D01*
Y51651D01*
X48573Y51942D01*
X49110Y52642D01*
X49124D01*
Y53611D01*
X51025D01*
Y56619D01*
X51525D01*
Y57119D01*
X54376D01*
Y58464D01*
X55344D01*
Y58817D01*
X55370Y58868D01*
X56044Y59324D01*
X56504Y59201D01*
X57385D01*
X58237Y59429D01*
X59000Y59869D01*
X59623Y60492D01*
X60063Y61255D01*
X60291Y62107D01*
Y62988D01*
X60063Y63839D01*
X59623Y64602D01*
X59000Y65225D01*
X58237Y65666D01*
X57385Y65894D01*
X56504D01*
X56044Y65770D01*
X55344Y66244D01*
Y66417D01*
X55344D01*
Y71702D01*
X55344Y71764D01*
X55345Y71786D01*
X55372Y72249D01*
X55946Y72460D01*
X56004Y72462D01*
X56059Y72462D01*
X58246D01*
Y75521D01*
X55384D01*
Y72999D01*
X55384Y72937D01*
X55384Y72915D01*
X55357Y72452D01*
X54783Y72241D01*
X54725Y72239D01*
X54670Y72239D01*
X48283D01*
Y74724D01*
X51575D01*
Y84024D01*
X51575Y84567D01*
X51575Y85267D01*
Y94567D01*
X49549D01*
Y94717D01*
X49413Y95745D01*
X49017Y96703D01*
X48386Y97525D01*
X47563Y98156D01*
X46606Y98553D01*
X45578Y98688D01*
D02*
G37*
G36*
X233087Y59465D02*
X229831D01*
Y54831D01*
X233087D01*
Y59465D01*
D02*
G37*
G36*
X260646D02*
X257390D01*
Y54831D01*
X260646D01*
Y59465D01*
D02*
G37*
G36*
X256390D02*
X253134D01*
Y54831D01*
X256390D01*
Y59465D01*
D02*
G37*
G36*
X54376Y56119D02*
X52025D01*
Y53611D01*
X54376D01*
Y56119D01*
D02*
G37*
G36*
X501240Y55413D02*
X486870D01*
Y52317D01*
X486170Y51912D01*
X485695Y52187D01*
X484614Y52476D01*
X484555D01*
Y48228D01*
Y43980D01*
X484614D01*
X485695Y44270D01*
X486170Y44544D01*
X486870Y44140D01*
Y41043D01*
X501240D01*
Y55413D01*
D02*
G37*
G36*
X260646Y53831D02*
X257390D01*
Y49197D01*
X260646D01*
Y53831D01*
D02*
G37*
G36*
X256390D02*
X253134D01*
Y49197D01*
X256390D01*
Y53831D01*
D02*
G37*
G36*
X233087Y53831D02*
X229831D01*
Y49197D01*
X233087D01*
Y53831D01*
D02*
G37*
G36*
X228831D02*
X225575D01*
Y49197D01*
X228831D01*
Y53831D01*
D02*
G37*
G36*
X182126Y60079D02*
X168268D01*
Y52126D01*
X169108D01*
Y45899D01*
X169019Y45882D01*
X167228Y45140D01*
X165615Y44063D01*
X164245Y42692D01*
X163167Y41080D01*
X162425Y39288D01*
X162247Y38389D01*
X161533D01*
X161354Y39288D01*
X160612Y41080D01*
X159535Y42692D01*
X158164Y44063D01*
X156552Y45140D01*
X154791Y45869D01*
Y48792D01*
X154844Y48831D01*
X155491Y49034D01*
X155959Y48566D01*
X156722Y48126D01*
X157573Y47898D01*
X158454D01*
X159305Y48126D01*
X160068Y48566D01*
X160691Y49189D01*
X161132Y49953D01*
X161360Y50804D01*
Y51685D01*
X161698Y52126D01*
X161850D01*
Y60079D01*
X147994D01*
Y52126D01*
X148835D01*
Y45805D01*
X147228Y45140D01*
X145615Y44063D01*
X144245Y42692D01*
X143167Y41080D01*
X142426Y39288D01*
X142047Y37387D01*
Y35448D01*
X142426Y33546D01*
X143167Y31755D01*
X144245Y30143D01*
X145615Y28772D01*
X147228Y27695D01*
X149019Y26953D01*
X150920Y26575D01*
X152859D01*
X154761Y26953D01*
X156552Y27695D01*
X158164Y28772D01*
X159535Y30143D01*
X160612Y31755D01*
X161354Y33546D01*
X161533Y34446D01*
X162247D01*
X162425Y33546D01*
X163167Y31755D01*
X164245Y30143D01*
X165615Y28772D01*
X167228Y27695D01*
X169019Y26953D01*
X170920Y26575D01*
X172859D01*
X174761Y26953D01*
X176552Y27695D01*
X178164Y28772D01*
X179535Y30143D01*
X180612Y31755D01*
X181354Y33546D01*
X182047Y33443D01*
Y26575D01*
X201732D01*
Y46260D01*
X182047D01*
Y39391D01*
X181354Y39288D01*
X180612Y41080D01*
X179535Y42692D01*
X178164Y44063D01*
X176552Y45140D01*
X175065Y45756D01*
Y49159D01*
X175406Y49347D01*
X175765Y49410D01*
X176301Y48874D01*
X177064Y48433D01*
X177915Y48205D01*
X178796D01*
X179648Y48433D01*
X180411Y48874D01*
X181034Y49497D01*
X181474Y50260D01*
X181702Y51111D01*
Y51992D01*
X181805Y52126D01*
X182126D01*
Y60079D01*
D02*
G37*
G36*
X93711Y60079D02*
X79855D01*
Y52126D01*
X80683D01*
Y45837D01*
X78999Y45140D01*
X77387Y44063D01*
X76016Y42692D01*
X74939Y41080D01*
X74197Y39288D01*
X73819Y37387D01*
Y35448D01*
X74197Y33546D01*
X74939Y31755D01*
X76016Y30143D01*
X77387Y28772D01*
X78999Y27695D01*
X80791Y26953D01*
X82692Y26575D01*
X84631D01*
X86532Y26953D01*
X88324Y27695D01*
X89936Y28772D01*
X91307Y30143D01*
X92384Y31755D01*
X93126Y33546D01*
X93819Y33443D01*
Y26575D01*
X113504D01*
Y46260D01*
X93819D01*
Y39391D01*
X93126Y39288D01*
X92384Y41080D01*
X91307Y42692D01*
X89936Y44063D01*
X88324Y45140D01*
X86640Y45837D01*
Y48093D01*
X86819Y48210D01*
X87340Y48342D01*
X87837Y47844D01*
X88600Y47403D01*
X89451Y47175D01*
X90333D01*
X91184Y47403D01*
X91947Y47844D01*
X92570Y48467D01*
X93010Y49230D01*
X93239Y50081D01*
Y50963D01*
X93114Y51426D01*
X93586Y52126D01*
X93711D01*
Y60079D01*
D02*
G37*
G36*
X64341Y43323D02*
X64161D01*
Y36917D01*
X70567D01*
Y37097D01*
X70302Y38432D01*
X69781Y39688D01*
X69025Y40819D01*
X68063Y41781D01*
X66932Y42537D01*
X65676Y43058D01*
X64341Y43323D01*
D02*
G37*
G36*
X132570D02*
X132390D01*
Y36917D01*
X138795D01*
Y37097D01*
X138530Y38432D01*
X138009Y39688D01*
X137254Y40819D01*
X136292Y41781D01*
X135161Y42537D01*
X133904Y43058D01*
X132570Y43323D01*
D02*
G37*
G36*
X131390D02*
X131210D01*
X129876Y43058D01*
X128619Y42537D01*
X127488Y41781D01*
X126526Y40819D01*
X125770Y39688D01*
X125250Y38432D01*
X124984Y37097D01*
Y36917D01*
X131390D01*
Y43323D01*
D02*
G37*
G36*
X63161D02*
X62981D01*
X61647Y43058D01*
X60390Y42537D01*
X59259Y41781D01*
X58298Y40819D01*
X57542Y39688D01*
X57021Y38432D01*
X56756Y37097D01*
Y36917D01*
X63161D01*
Y43323D01*
D02*
G37*
G36*
X138795Y35917D02*
X132390D01*
Y29512D01*
X132570D01*
X133904Y29777D01*
X135161Y30298D01*
X136292Y31054D01*
X137254Y32015D01*
X138009Y33146D01*
X138530Y34403D01*
X138795Y35737D01*
Y35917D01*
D02*
G37*
G36*
X131390D02*
X124984D01*
Y35737D01*
X125250Y34403D01*
X125770Y33146D01*
X126526Y32015D01*
X127488Y31054D01*
X128619Y30298D01*
X129876Y29777D01*
X131210Y29512D01*
X131390D01*
Y35917D01*
D02*
G37*
G36*
X70567D02*
X64161D01*
Y29512D01*
X64341D01*
X65676Y29777D01*
X66932Y30298D01*
X68063Y31054D01*
X69025Y32015D01*
X69781Y33146D01*
X70302Y34403D01*
X70567Y35737D01*
Y35917D01*
D02*
G37*
G36*
X63161D02*
X56756D01*
Y35737D01*
X57021Y34403D01*
X57542Y33146D01*
X58298Y32015D01*
X59259Y31054D01*
X60390Y30298D01*
X61647Y29777D01*
X62981Y29512D01*
X63161D01*
Y35917D01*
D02*
G37*
G36*
X334042Y29572D02*
X329704D01*
Y27005D01*
X334042D01*
Y29572D01*
D02*
G37*
G36*
X328704D02*
X324365D01*
Y27005D01*
X328704D01*
Y29572D01*
D02*
G37*
G36*
X359436Y27505D02*
X354605D01*
Y24938D01*
X359436D01*
Y27505D01*
D02*
G37*
G36*
X353605D02*
X348775D01*
Y24938D01*
X353605D01*
Y27505D01*
D02*
G37*
G36*
X275775Y21698D02*
X271436D01*
Y19131D01*
X275775D01*
Y21698D01*
D02*
G37*
G36*
X359436Y12324D02*
X354605D01*
Y9757D01*
X359436D01*
Y12324D01*
D02*
G37*
%LPD*%
G36*
X360236Y287205D02*
X386417D01*
Y278765D01*
X360236D01*
Y277298D01*
X386417D01*
Y268504D01*
X360236D01*
Y245079D01*
X346457D01*
Y268504D01*
Y269685D01*
X332677D01*
Y250928D01*
X303851D01*
Y266732D01*
X303853D01*
Y282031D01*
X307933D01*
Y266732D01*
X318898D01*
Y286417D01*
X346457D01*
Y312523D01*
X360236D01*
Y287205D01*
D02*
G37*
G36*
X294617Y255114D02*
Y243110D01*
X261811D01*
Y266732D01*
X290536D01*
Y282279D01*
X294617D01*
Y255114D01*
D02*
G37*
G36*
X338370Y264870D02*
X341732D01*
Y264370D01*
X342232D01*
Y260811D01*
X342486D01*
Y260055D01*
X342232D01*
Y256496D01*
Y252937D01*
X342486D01*
Y252181D01*
X342232D01*
Y248622D01*
Y245063D01*
X342488D01*
X342621Y244051D01*
X343018Y243093D01*
X343649Y242271D01*
X344471Y241640D01*
X345429Y241243D01*
X346457Y241108D01*
X360236D01*
X361264Y241243D01*
X362222Y241640D01*
X363044Y242271D01*
X363675Y243093D01*
X364072Y244051D01*
X364205Y245063D01*
X364461D01*
Y248622D01*
Y252181D01*
X364207D01*
Y252937D01*
X364461D01*
Y256496D01*
Y260055D01*
X364207D01*
Y260811D01*
X364461D01*
Y264370D01*
X365461D01*
Y260811D01*
X368323D01*
Y264533D01*
X374461D01*
X374501Y264232D01*
X374858Y263370D01*
X375030Y263145D01*
X375426Y262566D01*
X374858Y261826D01*
X374501Y260964D01*
X374379Y260039D01*
X374501Y259114D01*
X374858Y258252D01*
X375426Y257512D01*
X375030Y256933D01*
X374858Y256708D01*
X374501Y255846D01*
X374379Y254921D01*
X374501Y253996D01*
X374858Y253134D01*
X375030Y252909D01*
X375426Y252330D01*
X374858Y251590D01*
X374501Y250728D01*
X374379Y249803D01*
X374501Y248878D01*
X374858Y248016D01*
X375426Y247276D01*
X375030Y246697D01*
X374858Y246472D01*
X374501Y245610D01*
X374379Y244685D01*
X374501Y243760D01*
X374858Y242898D01*
X375030Y242673D01*
X375426Y242094D01*
X374858Y241354D01*
X374501Y240492D01*
X374379Y239567D01*
X374501Y238642D01*
X374796Y237929D01*
X374495Y237228D01*
X360433D01*
X359714Y237134D01*
X359043Y236856D01*
X358468Y236414D01*
X345305Y223252D01*
X332713D01*
Y231299D01*
X332635Y231689D01*
X332453Y231961D01*
X332521Y232248D01*
X332714Y232662D01*
X333829D01*
Y236221D01*
Y239780D01*
X331179D01*
Y240748D01*
X330820D01*
Y243155D01*
X330684Y244182D01*
X330288Y245140D01*
X329657Y245963D01*
X329273Y246257D01*
X329510Y246957D01*
X332677D01*
X333705Y247093D01*
X334663Y247489D01*
X335485Y248120D01*
X336116Y248943D01*
X336513Y249900D01*
X336648Y250928D01*
Y265714D01*
X338370D01*
Y264870D01*
D02*
G37*
G36*
X255906Y220066D02*
X254634D01*
Y216507D01*
X254134D01*
Y216007D01*
X250772D01*
Y213137D01*
X250650D01*
Y210078D01*
X254012D01*
Y209578D01*
X254512D01*
Y206019D01*
X255906D01*
Y182087D01*
X255906D01*
X255831Y181417D01*
X254921D01*
Y173937D01*
X255890D01*
Y173177D01*
X259842D01*
Y172177D01*
X255890D01*
Y171417D01*
X254921D01*
Y170655D01*
X252767D01*
X252767Y170655D01*
X251996Y170554D01*
X251278Y170256D01*
X250661Y169783D01*
X250661Y169783D01*
X250170Y169291D01*
X235146D01*
X234757Y169873D01*
X234971Y170392D01*
X235236Y171723D01*
Y173080D01*
X234971Y174411D01*
X234452Y175665D01*
X233698Y176794D01*
X233090Y177402D01*
X233698Y178010D01*
X234452Y179138D01*
X234971Y180392D01*
X235236Y181723D01*
Y183080D01*
X234971Y184411D01*
X234452Y185665D01*
X233698Y186793D01*
X233090Y187402D01*
X233698Y188010D01*
X234452Y189138D01*
X234971Y190392D01*
X235236Y191723D01*
Y193080D01*
X234971Y194411D01*
X234452Y195665D01*
X233698Y196793D01*
X233090Y197402D01*
X233698Y198010D01*
X234452Y199138D01*
X234971Y200392D01*
X235236Y201723D01*
Y203080D01*
X234971Y204411D01*
X234452Y205665D01*
X233698Y206793D01*
X232738Y207753D01*
X231610Y208507D01*
X230356Y209027D01*
X229025Y209291D01*
X227668D01*
X226337Y209027D01*
X225083Y208507D01*
X225027Y208470D01*
X224410Y208800D01*
Y216535D01*
Y253937D01*
X255906D01*
Y220066D01*
D02*
G37*
%LPC*%
G36*
X341232Y263870D02*
X338370D01*
Y260811D01*
X341232D01*
Y263870D01*
D02*
G37*
G36*
Y260055D02*
X338370D01*
Y256996D01*
X341232D01*
Y260055D01*
D02*
G37*
G36*
X368323Y260055D02*
X365461D01*
Y256996D01*
X368323D01*
Y260055D01*
D02*
G37*
G36*
X341232Y255996D02*
X338370D01*
Y252937D01*
X341232D01*
Y255996D01*
D02*
G37*
G36*
X368323Y255996D02*
X365461D01*
Y252937D01*
X368323D01*
Y255996D01*
D02*
G37*
G36*
X341232Y252181D02*
X338370D01*
Y249122D01*
X341232D01*
Y252181D01*
D02*
G37*
G36*
X368323Y252181D02*
X365461D01*
Y249122D01*
X368323D01*
Y252181D01*
D02*
G37*
G36*
Y248122D02*
X365461D01*
Y245063D01*
X368323D01*
Y248122D01*
D02*
G37*
G36*
X341232Y248122D02*
X338370D01*
Y245063D01*
X341232D01*
Y248122D01*
D02*
G37*
G36*
X337691Y239780D02*
X334829D01*
Y236720D01*
X337691D01*
Y239780D01*
D02*
G37*
G36*
Y235720D02*
X334829D01*
Y232662D01*
X337691D01*
Y235720D01*
D02*
G37*
G36*
X251000Y244110D02*
X250000D01*
Y236720D01*
X251000D01*
Y244110D01*
D02*
G37*
G36*
Y235720D02*
X250000D01*
Y228331D01*
X251000D01*
Y235720D01*
D02*
G37*
G36*
X253634Y220066D02*
X250772D01*
Y217007D01*
X253634D01*
Y220066D01*
D02*
G37*
G36*
X238689Y216522D02*
Y214083D01*
X241128D01*
X240955Y214728D01*
X240564Y215405D01*
X240012Y215958D01*
X239335Y216349D01*
X238689Y216522D01*
D02*
G37*
G36*
X237689Y216522D02*
X237043Y216349D01*
X236366Y215958D01*
X235814Y215405D01*
X235423Y214728D01*
X235250Y214083D01*
X237689D01*
Y216522D01*
D02*
G37*
G36*
Y213083D02*
X235250D01*
X235423Y212437D01*
X235814Y211760D01*
X236366Y211207D01*
X237043Y210817D01*
X237689Y210643D01*
Y213083D01*
D02*
G37*
G36*
X241128D02*
X238689D01*
Y210643D01*
X239335Y210817D01*
X240012Y211207D01*
X240564Y211760D01*
X240955Y212437D01*
X241128Y213083D01*
D02*
G37*
G36*
X253512Y209078D02*
X250650D01*
Y206019D01*
X253512D01*
Y209078D01*
D02*
G37*
%LPD*%
G36*
X469661Y159884D02*
X469328Y158828D01*
X468413Y154700D01*
X467861Y150507D01*
X467676Y146282D01*
X467700D01*
X467700Y146282D01*
Y141853D01*
X466375D01*
Y141042D01*
X464009D01*
Y138271D01*
X463008D01*
Y141042D01*
X460907D01*
Y141853D01*
X460444D01*
X459853Y142554D01*
X460293Y145146D01*
X461196Y148281D01*
X462445Y151295D01*
X464023Y154150D01*
X465911Y156810D01*
X468019Y159170D01*
X468097Y159230D01*
X468526Y159659D01*
X468540Y159645D01*
X469051Y160228D01*
X469661Y159884D01*
D02*
G37*
G36*
X479244Y168454D02*
Y166009D01*
X479221Y165309D01*
X479221Y165308D01*
X479288Y164627D01*
X479402Y163466D01*
X479940Y161694D01*
X480036Y161514D01*
X480324Y160908D01*
X480324D01*
X480553Y160262D01*
X480733Y159669D01*
X480860Y158387D01*
X480857Y158366D01*
Y141853D01*
X479314D01*
Y141042D01*
X477380D01*
Y138271D01*
X476380D01*
Y141042D01*
X474327D01*
Y141853D01*
X473002D01*
Y146282D01*
X472992Y146361D01*
X473153Y150044D01*
X473644Y153777D01*
X474459Y157453D01*
X475591Y161044D01*
X477032Y164523D01*
X477741Y165885D01*
X477961Y166398D01*
X478221Y167253D01*
X478275Y167382D01*
X478284Y167450D01*
X478298Y167561D01*
X478544Y168541D01*
X479244Y168454D01*
D02*
G37*
G36*
X202756Y121063D02*
X184055D01*
Y92520D01*
X195866D01*
Y72835D01*
X159449D01*
Y150591D01*
X202756D01*
Y121063D01*
D02*
G37*
%LPC*%
G36*
X103953Y231709D02*
X94988D01*
Y226878D01*
X103953D01*
Y231709D01*
D02*
G37*
G36*
X93988D02*
X85024D01*
Y226878D01*
X93988D01*
Y231709D01*
D02*
G37*
G36*
X103953Y225878D02*
X94988D01*
Y221047D01*
X103953D01*
Y225878D01*
D02*
G37*
G36*
X93988D02*
X85024D01*
Y221047D01*
X93988D01*
Y225878D01*
D02*
G37*
G36*
X80016Y222063D02*
X66917D01*
Y210146D01*
X80016D01*
Y222063D01*
D02*
G37*
G36*
Y209146D02*
X66917D01*
Y197228D01*
X80016D01*
Y209146D01*
D02*
G37*
G36*
X106000Y194382D02*
X98610D01*
Y186992D01*
X98887D01*
X100412Y187295D01*
X101848Y187890D01*
X103140Y188753D01*
X104239Y189852D01*
X105102Y191145D01*
X105697Y192580D01*
X106000Y194105D01*
Y194382D01*
D02*
G37*
G36*
X82299Y169504D02*
X79240D01*
Y166642D01*
X82299D01*
Y169504D01*
D02*
G37*
G36*
X71350Y168362D02*
X68843D01*
Y166012D01*
X71350D01*
Y168362D01*
D02*
G37*
G36*
X114056Y163408D02*
X110997D01*
Y160546D01*
X114056D01*
Y163408D01*
D02*
G37*
G36*
X134465Y231709D02*
X125500D01*
Y226878D01*
X134465D01*
Y231709D01*
D02*
G37*
G36*
X124500D02*
X115535D01*
Y226878D01*
X124500D01*
Y231709D01*
D02*
G37*
G36*
X134465Y225878D02*
X125500D01*
Y221047D01*
X134465D01*
Y225878D01*
D02*
G37*
G36*
X124500D02*
X115535D01*
Y221047D01*
X124500D01*
Y225878D01*
D02*
G37*
G36*
X360842Y82374D02*
X357784D01*
Y79512D01*
X360842D01*
Y82374D01*
D02*
G37*
G36*
X356784D02*
X353724D01*
Y79512D01*
X356784D01*
Y82374D01*
D02*
G37*
G36*
X352969D02*
X349909D01*
Y79512D01*
X352969D01*
Y82374D01*
D02*
G37*
G36*
X348909D02*
X345850D01*
Y79512D01*
X348909D01*
Y82374D01*
D02*
G37*
%LPD*%
D11*
X387028Y67835D02*
X387177Y68195D01*
X374114Y69803D02*
X374283Y70210D01*
X437626Y326304D02*
Y329279D01*
X429134Y329331D02*
X429258Y329207D01*
X429134Y325787D02*
Y329331D01*
X76043Y139350D02*
X76929Y140236D01*
X41339Y213583D02*
X41417Y213661D01*
X335677Y13883D02*
Y15834D01*
X343377Y12789D02*
X343401Y12766D01*
X343377Y12789D02*
Y15834D01*
D16*
X437626Y329279D02*
D03*
Y332035D02*
D03*
X429134Y329331D02*
D03*
Y332087D02*
D03*
X335677Y18590D02*
D03*
Y15834D02*
D03*
X343377Y15834D02*
D03*
Y18590D02*
D03*
D17*
X432185Y332035D02*
D03*
X434744D02*
D03*
X340720Y18590D02*
D03*
X338160D02*
D03*
D18*
X443702Y332034D02*
D03*
X347609Y18631D02*
D03*
D19*
X450198Y326227D02*
D03*
Y337841D02*
D03*
X354105Y24438D02*
D03*
Y12823D02*
D03*
D20*
X398937Y117205D02*
D03*
D21*
X415728Y116909D02*
D03*
D22*
X373799Y112185D02*
D03*
X424823D02*
D03*
D23*
X374114Y69803D02*
D03*
D24*
X423957Y67894D02*
D03*
D25*
X378366Y67835D02*
D03*
X382697D02*
D03*
X387028D02*
D03*
X391358D02*
D03*
X395689D02*
D03*
X400020D02*
D03*
X404350D02*
D03*
X408681D02*
D03*
D26*
X421205Y163351D02*
D03*
X254134Y216507D02*
D03*
X261614D02*
D03*
X254012Y209578D02*
D03*
X261492D02*
D03*
X326969Y193898D02*
D03*
X334449D02*
D03*
X66227Y76021D02*
D03*
X58746D02*
D03*
X428937Y170276D02*
D03*
X421457D02*
D03*
X334329Y236221D02*
D03*
X326849D02*
D03*
X341732Y264370D02*
D03*
X349213D02*
D03*
X341732Y256496D02*
D03*
X349213D02*
D03*
X341732Y248622D02*
D03*
X349213D02*
D03*
X364961Y248622D02*
D03*
X357480D02*
D03*
X364961Y256496D02*
D03*
X357480D02*
D03*
X364961Y264370D02*
D03*
X357480D02*
D03*
X349213Y293307D02*
D03*
X341732D02*
D03*
X349213Y301181D02*
D03*
X341732D02*
D03*
X349213Y309055D02*
D03*
X341732D02*
D03*
X357480Y309055D02*
D03*
X364961D02*
D03*
X357480Y301181D02*
D03*
X364961D02*
D03*
X357480Y293307D02*
D03*
X364961D02*
D03*
X181962Y295205D02*
D03*
X174481D02*
D03*
X181890Y285433D02*
D03*
X174409D02*
D03*
X428686Y163351D02*
D03*
D27*
X421205Y152400D02*
D03*
X68898Y267717D02*
D03*
X238189Y213583D02*
D03*
X32480Y99410D02*
D03*
X316929Y255906D02*
D03*
X58071Y147638D02*
D03*
X142126Y288386D02*
D03*
X47244Y11811D02*
D03*
X527559Y259842D02*
D03*
X11811Y220472D02*
D03*
X240158Y316122D02*
D03*
D28*
X526575Y109252D02*
D03*
Y101378D02*
D03*
X512795Y109252D02*
D03*
Y101378D02*
D03*
X526575Y93504D02*
D03*
X512795D02*
D03*
X526575Y85630D02*
D03*
X512795D02*
D03*
Y77756D02*
D03*
X526575D02*
D03*
X325071Y6890D02*
D03*
D29*
X425591Y308465D02*
D03*
X430709D02*
D03*
Y184449D02*
D03*
X425591D02*
D03*
X387795Y308465D02*
D03*
X392913D02*
D03*
X398031D02*
D03*
X403150D02*
D03*
X408268D02*
D03*
X413386D02*
D03*
X418504D02*
D03*
X435827D02*
D03*
X440945D02*
D03*
X446063D02*
D03*
X451181D02*
D03*
X456299D02*
D03*
X461417D02*
D03*
X466536D02*
D03*
X471654D02*
D03*
X476772D02*
D03*
X481890D02*
D03*
X487008D02*
D03*
Y184449D02*
D03*
X481890D02*
D03*
X476772D02*
D03*
X471654D02*
D03*
X466536D02*
D03*
X461417D02*
D03*
X456299D02*
D03*
X451181D02*
D03*
X446063D02*
D03*
X440945D02*
D03*
X435827D02*
D03*
X418504D02*
D03*
X413386D02*
D03*
X408268D02*
D03*
X403150D02*
D03*
X398031D02*
D03*
X392913D02*
D03*
X387795D02*
D03*
D30*
X480709Y195276D02*
D03*
X472835D02*
D03*
X464961D02*
D03*
X457087D02*
D03*
X449213D02*
D03*
X440945D02*
D03*
X433465D02*
D03*
X425591D02*
D03*
X417717D02*
D03*
X409842D02*
D03*
X401968D02*
D03*
X394094D02*
D03*
X480709Y203150D02*
D03*
X472835D02*
D03*
X464961D02*
D03*
X457087D02*
D03*
X449213D02*
D03*
X441339D02*
D03*
X433465D02*
D03*
X425591D02*
D03*
X417717D02*
D03*
X409842D02*
D03*
X401968D02*
D03*
X394094D02*
D03*
X443701Y237008D02*
D03*
X437402D02*
D03*
X431102D02*
D03*
X443701Y243307D02*
D03*
X437402D02*
D03*
X431102D02*
D03*
X443701Y249606D02*
D03*
X437402D02*
D03*
X431102D02*
D03*
X443701Y255906D02*
D03*
X437402D02*
D03*
X431102D02*
D03*
D31*
X493504Y198622D02*
D03*
Y203740D02*
D03*
X381299Y198622D02*
D03*
Y203740D02*
D03*
Y208858D02*
D03*
Y213976D02*
D03*
Y219094D02*
D03*
Y224213D02*
D03*
Y229331D02*
D03*
Y234449D02*
D03*
Y239567D02*
D03*
Y244685D02*
D03*
Y249803D02*
D03*
Y254921D02*
D03*
Y260039D02*
D03*
Y265158D02*
D03*
Y270276D02*
D03*
Y275394D02*
D03*
Y280512D02*
D03*
Y285630D02*
D03*
Y290748D02*
D03*
Y295866D02*
D03*
X493504D02*
D03*
Y290748D02*
D03*
Y285630D02*
D03*
Y280512D02*
D03*
Y275394D02*
D03*
Y270276D02*
D03*
Y265158D02*
D03*
Y260039D02*
D03*
Y254921D02*
D03*
Y249803D02*
D03*
Y244685D02*
D03*
Y239567D02*
D03*
Y234449D02*
D03*
Y229331D02*
D03*
Y224213D02*
D03*
Y219094D02*
D03*
Y213976D02*
D03*
Y208858D02*
D03*
D32*
X475197Y214173D02*
D03*
X456299D02*
D03*
X437402D02*
D03*
X418504D02*
D03*
X399606D02*
D03*
X475197Y226772D02*
D03*
X456299D02*
D03*
X437402D02*
D03*
X418504D02*
D03*
X399606D02*
D03*
X475197Y240158D02*
D03*
X456299D02*
D03*
X418504Y239567D02*
D03*
X399606Y240158D02*
D03*
X475197Y252756D02*
D03*
X456299D02*
D03*
X418504D02*
D03*
X399606D02*
D03*
X475197Y266142D02*
D03*
X456299D02*
D03*
X437402D02*
D03*
X418504D02*
D03*
X399606D02*
D03*
X475197Y278740D02*
D03*
X456299D02*
D03*
X437402D02*
D03*
X418504D02*
D03*
X399606D02*
D03*
D33*
X240158Y148465D02*
D03*
Y154685D02*
D03*
X14764Y99252D02*
D03*
Y105473D02*
D03*
X20669D02*
D03*
Y99252D02*
D03*
X229331Y71024D02*
D03*
Y64803D02*
D03*
X222441Y85276D02*
D03*
Y91496D02*
D03*
X229331Y85276D02*
D03*
Y91496D02*
D03*
X236653Y85276D02*
D03*
Y91496D02*
D03*
X220472Y128583D02*
D03*
Y134803D02*
D03*
X71850Y165512D02*
D03*
Y159291D02*
D03*
X274232Y270827D02*
D03*
Y264606D02*
D03*
X332677Y316102D02*
D03*
Y309882D02*
D03*
Y303465D02*
D03*
Y297244D02*
D03*
Y290354D02*
D03*
Y284134D02*
D03*
X198819Y264606D02*
D03*
Y270827D02*
D03*
Y250827D02*
D03*
Y257047D02*
D03*
X496673Y138035D02*
D03*
Y131814D02*
D03*
X483290Y138035D02*
D03*
Y131814D02*
D03*
X470351Y138035D02*
D03*
Y131814D02*
D03*
X450019Y138035D02*
D03*
Y131814D02*
D03*
X456931Y138035D02*
D03*
Y131814D02*
D03*
D34*
X463509Y138271D02*
D03*
Y131578D02*
D03*
X443291Y131578D02*
D03*
Y138271D02*
D03*
X476880Y138271D02*
D03*
Y131578D02*
D03*
X489822Y138271D02*
D03*
Y131578D02*
D03*
D35*
X114556Y141375D02*
D03*
Y133895D02*
D03*
X78740Y158661D02*
D03*
Y166142D02*
D03*
X114556Y152565D02*
D03*
Y160046D02*
D03*
X121446Y141375D02*
D03*
Y133895D02*
D03*
X121446Y152565D02*
D03*
Y160046D02*
D03*
X279528Y244685D02*
D03*
Y237205D02*
D03*
X349409Y90354D02*
D03*
Y82874D02*
D03*
X357283Y90354D02*
D03*
Y82874D02*
D03*
X222441Y71653D02*
D03*
Y64173D02*
D03*
X227362Y135433D02*
D03*
Y127953D02*
D03*
X234685Y135433D02*
D03*
Y127953D02*
D03*
X191929Y75787D02*
D03*
Y68307D02*
D03*
X183071Y75590D02*
D03*
Y68110D02*
D03*
X147638Y262992D02*
D03*
Y270472D02*
D03*
X173228Y68110D02*
D03*
Y75590D02*
D03*
X163386D02*
D03*
Y68110D02*
D03*
D36*
X240158Y270098D02*
D03*
Y332264D02*
D03*
D37*
X522795Y117508D02*
D03*
X516575D02*
D03*
X372716Y134769D02*
D03*
X378937D02*
D03*
X400693Y134769D02*
D03*
X394472D02*
D03*
X372716Y128937D02*
D03*
X378937D02*
D03*
X400693Y128937D02*
D03*
X394472D02*
D03*
X522795Y146465D02*
D03*
X516575D02*
D03*
X522795Y139020D02*
D03*
X516575D02*
D03*
Y124646D02*
D03*
X522795D02*
D03*
Y131972D02*
D03*
X516575D02*
D03*
X83673Y56102D02*
D03*
X89892D02*
D03*
X151813Y56102D02*
D03*
X158031D02*
D03*
X172087D02*
D03*
X178307D02*
D03*
X306298Y242059D02*
D03*
X300077D02*
D03*
X306298Y236221D02*
D03*
X300077D02*
D03*
X521128Y192547D02*
D03*
X514907D02*
D03*
X521128Y215598D02*
D03*
X514907D02*
D03*
X78392Y76021D02*
D03*
X72172D02*
D03*
X45305Y68262D02*
D03*
X51525D02*
D03*
X51525Y62441D02*
D03*
X45305D02*
D03*
X45305Y56619D02*
D03*
X51525D02*
D03*
D38*
X229331Y54331D02*
D03*
X211614D02*
D03*
Y18504D02*
D03*
X229331D02*
D03*
X239173D02*
D03*
X256890D02*
D03*
Y54331D02*
D03*
X239173D02*
D03*
D39*
X259842Y177677D02*
D03*
Y172677D02*
D03*
X259842Y167677D02*
D03*
X259842Y162677D02*
D03*
Y157677D02*
D03*
Y152677D02*
D03*
Y147677D02*
D03*
Y142677D02*
D03*
Y137677D02*
D03*
Y132677D02*
D03*
X259842Y127677D02*
D03*
X259842Y122677D02*
D03*
Y117677D02*
D03*
Y112677D02*
D03*
X328740D02*
D03*
Y117677D02*
D03*
Y122677D02*
D03*
X328740Y127677D02*
D03*
X328740Y132677D02*
D03*
Y137677D02*
D03*
Y142677D02*
D03*
Y147677D02*
D03*
Y152677D02*
D03*
Y157677D02*
D03*
Y162677D02*
D03*
X328740Y167677D02*
D03*
X328740Y172677D02*
D03*
Y177677D02*
D03*
D40*
X271811Y107756D02*
D03*
X276811Y107756D02*
D03*
X281811Y107756D02*
D03*
X286811D02*
D03*
X291811Y107756D02*
D03*
X296811Y107756D02*
D03*
X301811Y107756D02*
D03*
X306811Y107756D02*
D03*
X311811D02*
D03*
X316811Y107756D02*
D03*
D41*
X282874Y154291D02*
D03*
X288386D02*
D03*
X293898D02*
D03*
X282874Y148779D02*
D03*
X288386D02*
D03*
X293898Y148779D02*
D03*
X282874Y143268D02*
D03*
X288386D02*
D03*
X293898D02*
D03*
D42*
X224012Y107677D02*
D03*
X227555D02*
D03*
X231099D02*
D03*
X234642D02*
D03*
Y112401D02*
D03*
X231099D02*
D03*
X227555D02*
D03*
X224012D02*
D03*
D43*
X512402Y203740D02*
D03*
X521063Y207480D02*
D03*
Y200000D02*
D03*
X512402Y226916D02*
D03*
X521063Y230656D02*
D03*
Y223175D02*
D03*
D44*
X270936Y73749D02*
D03*
Y65875D02*
D03*
Y58001D02*
D03*
Y50127D02*
D03*
Y42253D02*
D03*
Y34379D02*
D03*
Y26505D02*
D03*
Y18631D02*
D03*
X329204D02*
D03*
Y26505D02*
D03*
Y34379D02*
D03*
Y42253D02*
D03*
Y50127D02*
D03*
Y58001D02*
D03*
Y65875D02*
D03*
Y73749D02*
D03*
D45*
X186961Y271346D02*
D03*
X180268D02*
D03*
X173575D02*
D03*
X166882D02*
D03*
X160189D02*
D03*
D46*
X292520Y278350D02*
D03*
X285827D02*
D03*
X299213D02*
D03*
X305906D02*
D03*
X312598D02*
D03*
D47*
X245669Y236221D02*
D03*
D48*
X270079Y245276D02*
D03*
Y236221D02*
D03*
Y227165D02*
D03*
D49*
X172638Y199803D02*
D03*
X199409D02*
D03*
D50*
X104264Y94874D02*
D03*
X143241D02*
D03*
D51*
X39835Y126428D02*
D03*
X28024D02*
D03*
X39835Y114618D02*
D03*
X28024D02*
D03*
D52*
X144685Y152559D02*
D03*
Y140748D02*
D03*
X133858Y152559D02*
D03*
Y140748D02*
D03*
D53*
X78209Y137185D02*
D03*
D54*
X70138Y133346D02*
D03*
Y135906D02*
D03*
Y138465D02*
D03*
Y141024D02*
D03*
X86279Y138465D02*
D03*
Y135906D02*
D03*
Y133346D02*
D03*
Y141024D02*
D03*
D55*
X74370Y145256D02*
D03*
X76929D02*
D03*
X79488D02*
D03*
X82047D02*
D03*
Y129114D02*
D03*
X79488D02*
D03*
X76929D02*
D03*
X74370D02*
D03*
D56*
X88583Y94488D02*
D03*
X61024D02*
D03*
D57*
X41417Y200590D02*
D03*
Y218701D02*
D03*
D58*
X66417Y209646D02*
D03*
D59*
X9646Y79646D02*
D03*
Y89646D02*
D03*
X45472D02*
D03*
Y79646D02*
D03*
D60*
X329323Y226522D02*
D03*
X326764D02*
D03*
X324205D02*
D03*
X321646D02*
D03*
X319087D02*
D03*
X316528D02*
D03*
X313969D02*
D03*
X311410D02*
D03*
X308851D02*
D03*
X306292D02*
D03*
Y203688D02*
D03*
X308851D02*
D03*
X311410D02*
D03*
X313969D02*
D03*
X316528D02*
D03*
X319087D02*
D03*
X321646D02*
D03*
X324205D02*
D03*
X326764D02*
D03*
X329323D02*
D03*
D61*
X299213Y319094D02*
D03*
D62*
X184055Y178937D02*
D03*
Y139961D02*
D03*
D63*
X94488Y226378D02*
D03*
Y253937D02*
D03*
X125000Y226378D02*
D03*
Y253937D02*
D03*
D64*
X446850Y113218D02*
D03*
Y65974D02*
D03*
X498032D02*
D03*
Y113218D02*
D03*
D65*
X482205Y119065D02*
D03*
D66*
X458465D02*
D03*
X468465D02*
D03*
X478465D02*
D03*
X453465D02*
D03*
X463465D02*
D03*
X473465D02*
D03*
D134*
X328740Y152677D02*
X329025Y152559D01*
X450019Y138035D02*
X449322Y138501D01*
X448499Y138665D01*
X276448Y50127D02*
X280512Y46063D01*
X275824Y10412D02*
X280512Y15100D01*
Y46063D01*
X289370Y15748D02*
X294442Y10676D01*
X276448Y65875D02*
X289370Y52952D01*
Y15748D02*
Y52952D01*
X259941Y132776D02*
X266634D01*
X266732Y132874D01*
X259842Y132677D02*
X259941Y132776D01*
X254921Y142677D02*
X259842D01*
X254921Y137677D02*
X259842D01*
X329025Y152559D02*
X334791D01*
X334252Y167677D02*
X340512Y161417D01*
X328740Y167677D02*
X334791D01*
X340512Y161417D02*
X395669D01*
X328740Y132677D02*
X334252D01*
X328740Y117677D02*
X334252D01*
Y152559D02*
X339173Y157480D01*
X394685D01*
X275071Y6890D02*
X275824Y7643D01*
Y10412D01*
X294442Y7518D02*
X295071Y6890D01*
X294442Y7518D02*
Y10676D01*
X285150Y6968D02*
Y49299D01*
X276448Y58001D02*
X285150Y49299D01*
X285071Y6890D02*
X285150Y6968D01*
X276448Y50127D02*
X276448Y50127D01*
X259842Y127677D02*
X265114D01*
X276898Y102839D02*
X276984Y102752D01*
X276898Y102839D02*
Y107669D01*
X276811Y107756D02*
X276898Y107669D01*
X234685Y118543D02*
Y127953D01*
X279528Y180118D02*
Y186024D01*
X286417Y173228D02*
X294291D01*
X279528Y180118D02*
X286417Y173228D01*
X294291D02*
X304842Y162677D01*
X328740D01*
X227362Y122047D02*
X227555Y121854D01*
X227362Y122047D02*
Y127567D01*
X227555Y112401D02*
Y121854D01*
X227362Y127567D02*
X227555Y127760D01*
X219488Y143701D02*
X229331D01*
X216535Y140748D02*
X219488Y143701D01*
X229331D02*
X234252Y148622D01*
X249016Y78740D02*
Y115157D01*
X241634Y71358D02*
X249016Y78740D01*
X307244Y90551D02*
Y96614D01*
X311811Y101181D02*
Y107756D01*
X307244Y96614D02*
X311811Y101181D01*
X280385Y68827D02*
X291212Y58001D01*
X280385Y68827D02*
Y85560D01*
X291212Y58001D02*
X322708D01*
X329204D01*
X249016Y115157D02*
Y163926D01*
X283465Y168307D02*
X292323D01*
X302953Y157677D02*
X328740D01*
X292323Y168307D02*
X302953Y157677D01*
X275086Y176686D02*
Y185711D01*
Y176686D02*
X283465Y168307D01*
X421205Y153338D02*
X422143Y152400D01*
X421205Y153338D02*
Y157557D01*
X83661Y36417D02*
Y56090D01*
X83673Y56102D01*
X510827Y138779D02*
X511067Y139020D01*
X506890Y109252D02*
X512795D01*
X522795Y146465D02*
X528543D01*
X512795Y109252D02*
X512795Y109252D01*
X522795Y139020D02*
X528543D01*
X506890Y101378D02*
X512795D01*
X512795Y101378D01*
X464055Y48228D02*
Y49724D01*
X458661Y55118D02*
X464055Y49724D01*
X441929Y55118D02*
X458661D01*
X432087Y64961D02*
Y120079D01*
X394685Y157480D02*
X432087Y120079D01*
Y64961D02*
X441929Y55118D01*
X395669Y161417D02*
X436024Y121063D01*
Y65945D02*
Y121063D01*
Y65945D02*
X442913Y59055D01*
X463228D01*
X474055Y48228D01*
X421260Y152400D02*
Y152523D01*
X400693Y134769D02*
X404454D01*
X400693Y128937D02*
X404528D01*
X369094Y128937D02*
X372716D01*
X369168Y134769D02*
X372716D01*
X270936Y34379D02*
X276448D01*
X270936Y42253D02*
X276448D01*
X270936Y50127D02*
X276448D01*
X270936Y58001D02*
X276448D01*
X276448Y65875D02*
X276448Y65875D01*
X270936Y65875D02*
X276448D01*
X323819Y112677D02*
X328740D01*
X239173Y54331D02*
Y61024D01*
Y54331D02*
X239173Y54331D01*
X323819Y127677D02*
X328740D01*
X316929Y102752D02*
Y107638D01*
X259842Y112677D02*
X265114D01*
Y117677D02*
X265315D01*
X259842D02*
X265114D01*
X265043Y122677D02*
X265114Y122606D01*
X259842Y122677D02*
X265043D01*
X240158Y144685D02*
Y148465D01*
X252767Y167677D02*
X254291D01*
X249016Y163926D02*
X252767Y167677D01*
X235079Y64803D02*
X241634Y71358D01*
X178307Y51600D02*
X178356Y51552D01*
X178307Y51600D02*
Y56102D01*
X158014Y51244D02*
X158031Y51262D01*
Y56102D01*
X229331Y91496D02*
Y97441D01*
X231299Y99410D01*
X231099Y99610D02*
Y107677D01*
Y99610D02*
X231299Y99410D01*
X254921Y157677D02*
X259842D01*
X254921Y152677D02*
X259842D01*
X254921Y147677D02*
X259842D01*
X236653Y96713D02*
Y101929D01*
Y91496D02*
Y96713D01*
X6480Y101952D02*
X8858Y104331D01*
X510827Y117508D02*
X516575D01*
X510827Y124646D02*
X516575D01*
X510827Y146653D02*
X511016Y146465D01*
X516575D01*
X511067Y139020D02*
X516575D01*
X408268Y171457D02*
Y184449D01*
Y171457D02*
X410433Y169291D01*
X413386Y174213D02*
Y184449D01*
X512795Y77756D02*
X512795Y77756D01*
X506890Y77756D02*
X512795D01*
X512795Y85630D02*
X512795Y85630D01*
X506890Y85630D02*
X512795D01*
Y93504D02*
X512795Y93504D01*
X506890Y93504D02*
X512795D01*
X522795Y117508D02*
X528543D01*
X522795Y124646D02*
X528543D01*
X522795Y131972D02*
X528543D01*
X151813Y56102D02*
Y56457D01*
Y36494D02*
Y56102D01*
X222441Y64173D02*
X223071Y64803D01*
X229331D01*
X230662D02*
X235079D01*
X229331D02*
X230662D01*
X211614Y60039D02*
X215748Y64173D01*
X223425D01*
X27559Y99410D02*
X32480D01*
X27402Y99252D02*
X27559Y99410D01*
X20669Y99252D02*
X27402D01*
X8858Y104331D02*
X10000Y105473D01*
X14764D01*
Y99252D02*
X20669D01*
Y111681D02*
X21193Y112205D01*
X20669Y105473D02*
Y111681D01*
X282874Y148779D02*
X288386D01*
X254291Y167677D02*
X259842D01*
X211614Y54331D02*
Y60039D01*
X222441Y91496D02*
Y100394D01*
X227362Y127953D02*
X227555Y127760D01*
X220472Y119095D02*
Y128583D01*
Y119095D02*
X224012Y115555D01*
Y112401D02*
Y115555D01*
X231099Y114957D02*
X234685Y118543D01*
X231099Y112401D02*
Y114957D01*
X222441Y100394D02*
X227555Y105508D01*
Y107677D01*
X234642Y103941D02*
X236653Y101929D01*
X234642Y103941D02*
Y107677D01*
X151813Y36494D02*
X151890Y36417D01*
X171890D02*
X172087Y36614D01*
Y56102D01*
X510827Y215551D02*
X510873Y215598D01*
X510827Y192547D02*
X514907D01*
X510873Y215598D02*
X514907D01*
X499083Y213976D02*
X509319Y203740D01*
X493504Y213976D02*
X499083D01*
X509319Y203740D02*
X512402D01*
X493504Y219094D02*
X501042D01*
X508863Y226916D01*
X512402D01*
X521063Y192610D02*
X521128Y192545D01*
X521063Y192610D02*
Y200000D01*
X521063Y215662D02*
X521128Y215598D01*
X521063Y215662D02*
Y223175D01*
X413386Y184449D02*
X413386Y184449D01*
X56838Y62441D02*
X56945Y62547D01*
X51525Y62441D02*
X56838D01*
X45305Y51210D02*
Y56619D01*
X9646Y79646D02*
X18622D01*
X45578Y90663D02*
X46034Y90207D01*
X45472Y89646D02*
X46034Y90207D01*
X45305Y79478D02*
X45472Y79646D01*
X45305Y68262D02*
Y79478D01*
Y56619D02*
X45305Y56619D01*
Y62441D01*
X51525Y62441D02*
X51525Y62441D01*
X51525Y62441D02*
Y68262D01*
X180268Y259693D02*
X182913Y257047D01*
X195709D01*
X180268Y259693D02*
Y271346D01*
X195709Y257047D02*
X198819D01*
Y264606D01*
X245669Y236221D02*
X270079D01*
X443291Y138665D02*
X448499D01*
X442913Y139042D02*
X443291Y138665D01*
X442913Y139042D02*
Y143701D01*
X465551Y112205D02*
X469488D01*
X473465Y116181D01*
Y119065D01*
X166882Y264323D02*
Y271346D01*
X165551Y262992D02*
X166882Y264323D01*
X147638Y262992D02*
X165551D01*
D135*
X391263Y79701D02*
X391077Y80619D01*
X390794Y81513D01*
X390417Y82372D01*
X389952Y83186D01*
X389403Y83946D01*
X388776Y84643D01*
X391358Y78409D02*
X391263Y79701D01*
X429130Y332079D02*
X428127Y332070D01*
X427128Y331970D01*
X426143Y331778D01*
X425179Y331498D01*
X424245Y331130D01*
X423348Y330679D01*
X422496Y330148D01*
X421697Y329541D01*
X420956Y328864D01*
X420254Y328133D01*
X419582Y327376D01*
X418939Y326593D01*
X418328Y325786D01*
X417749Y324955D01*
X417202Y324102D01*
X416690Y323229D01*
X416212Y322336D01*
X415769Y321425D01*
X415363Y320497D01*
X414993Y319554D01*
X414660Y318598D01*
X414365Y317629D01*
X414108Y316649D01*
X413890Y315660D01*
X413710Y314663D01*
X413570Y313660D01*
X413469Y312652D01*
X413408Y311641D01*
X413386Y310629D01*
X388779Y98256D02*
X388862Y97205D01*
X389108Y96179D01*
X389512Y95205D01*
X390063Y94306D01*
X390748Y93504D01*
X400020Y72003D02*
X400002Y73011D01*
X399951Y74018D01*
X399865Y75022D01*
X399745Y76023D01*
X399590Y77020D01*
X399402Y78010D01*
X399180Y78993D01*
X398925Y79969D01*
X398636Y80935D01*
X398315Y81890D01*
X397961Y82834D01*
X397575Y83766D01*
X397158Y84683D01*
X396710Y85586D01*
X396231Y86473D01*
X395722Y87343D01*
X395183Y88196D01*
X394616Y89029D01*
X394021Y89842D01*
X393398Y90635D01*
X392748Y91406D01*
X392073Y92155D01*
X391372Y92880D01*
X385827Y93709D02*
X385857Y92752D01*
X385946Y91799D01*
X386094Y90854D01*
X386301Y89919D01*
X386565Y88999D01*
X386886Y88097D01*
X387263Y87217D01*
X387694Y86362D01*
X388176Y85536D01*
X388710Y84741D01*
X391732Y103552D02*
X391768Y102566D01*
X391873Y101585D01*
X392048Y100614D01*
X392292Y99658D01*
X392604Y98722D01*
X392981Y97810D01*
X393423Y96928D01*
X393926Y96080D01*
X394489Y95269D01*
X395108Y94501D01*
X395780Y93779D01*
X401463Y85274D02*
X401050Y86218D01*
X400601Y87144D01*
X400116Y88052D01*
X399595Y88940D01*
X399040Y89807D01*
X398452Y90651D01*
X397830Y91472D01*
X397177Y92268D01*
X396494Y93037D01*
X395780Y93779D01*
X404350Y70757D02*
X404337Y71750D01*
X404298Y72743D01*
X404233Y73734D01*
X404143Y74723D01*
X404026Y75709D01*
X403883Y76692D01*
X403715Y77671D01*
X403521Y78645D01*
X403302Y79613D01*
X403058Y80576D01*
X402788Y81532D01*
X402494Y82480D01*
X402175Y83420D01*
X401831Y84352D01*
X401463Y85274D01*
X489822Y131578D02*
X489252Y131814D01*
X382786Y116842D02*
X382738Y117822D01*
X382594Y118793D01*
X382356Y119745D01*
X382025Y120669D01*
X381605Y121556D01*
X381101Y122397D01*
X380516Y123186D01*
X379857Y123913D01*
X394472Y125128D02*
X393773Y124346D01*
X393166Y123490D01*
X392659Y122572D01*
X392257Y121602D01*
X391967Y120594D01*
X391791Y119560D01*
X391732Y118512D01*
X390479Y134024D02*
X389888Y133331D01*
X389412Y132555D01*
X389064Y131714D01*
X388851Y130829D01*
X388779Y129921D01*
X390480Y134025D02*
X390479Y134024D01*
X392278Y134769D02*
X391305Y134576D01*
X390480Y134025D01*
X383898Y131635D02*
X383037Y132624D01*
X385827Y125888D02*
X385771Y126915D01*
X385606Y127929D01*
X385332Y128919D01*
X384953Y129875D01*
X384473Y130784D01*
X383898Y131635D01*
X378958Y134769D02*
X378937Y134769D01*
X382274Y133387D02*
X381563Y133971D01*
X380753Y134406D01*
X379873Y134675D01*
X378958Y134769D01*
X343476Y18631D02*
X343377Y18590D01*
X338160Y18590D02*
X338062Y18631D01*
X450019Y117419D02*
X450127Y116328D01*
X450445Y115279D01*
X450962Y114312D01*
X451657Y113465D01*
X454003Y112493D02*
X455015Y112610D01*
X455974Y112952D01*
X456831Y113503D01*
X457540Y114234D01*
X458065Y115107D01*
X458379Y116076D01*
X458465Y117092D01*
X451657Y113465D02*
X452344Y112938D01*
X453144Y112606D01*
X454003Y112493D01*
X478522Y126969D02*
X479462Y127062D01*
X480365Y127339D01*
X481195Y127788D01*
X481921Y128393D01*
X482514Y129128D01*
X482949Y129966D01*
X483212Y130873D01*
X483290Y131814D01*
X462083Y125984D02*
X463021Y126058D01*
X463936Y126278D01*
X464806Y126638D01*
X465608Y127130D01*
X466324Y127741D01*
X461584Y125984D02*
X460553Y125923D01*
X459536Y125739D01*
X458549Y125435D01*
X457605Y125015D01*
X456717Y124486D01*
X455899Y123856D01*
X455162Y123132D01*
X454516Y122326D01*
X453977Y121632D01*
X453626Y120827D01*
X453484Y119960D01*
X453561Y119086D01*
X464757Y122639D02*
X464148Y121876D01*
X463724Y120997D01*
X463506Y120045D01*
X463504Y119069D01*
X475209Y126969D02*
X474242Y126937D01*
X473280Y126842D01*
X472325Y126684D01*
X471383Y126465D01*
X470458Y126184D01*
X469552Y125843D01*
X468671Y125444D01*
X467818Y124988D01*
X466997Y124477D01*
X466211Y123914D01*
X465463Y123300D01*
X464757Y122639D01*
X481895Y165309D02*
X481995Y164149D01*
X482292Y163023D01*
X482778Y161965D01*
X483508Y158366D02*
X483463Y159280D01*
X483329Y160185D01*
X483107Y161073D01*
X482798Y161934D01*
X482798D02*
X482778Y161965D01*
X466651Y161533D02*
X467358Y162284D01*
X468019Y163077D01*
X468630Y163908D01*
X469191Y164774D01*
X469697Y165673D01*
X470149Y166600D01*
X470544Y167553D01*
X470880Y168529D01*
X471157Y169523D01*
X471374Y170531D01*
X471529Y171551D01*
X471622Y172579D01*
X471654Y173610D01*
X466223Y161105D02*
X465529Y160389D01*
X464859Y159652D01*
X464211Y158894D01*
X463588Y158116D01*
X462990Y157319D01*
X462417Y156504D01*
X461870Y155671D01*
X461349Y154821D01*
X460855Y153955D01*
X460389Y153075D01*
X459950Y152180D01*
X459540Y151271D01*
X459159Y150351D01*
X458807Y149418D01*
X458484Y148476D01*
X458191Y147523D01*
X457928Y146562D01*
X457695Y145593D01*
X457493Y144617D01*
X457322Y143635D01*
X457181Y142648D01*
X457072Y141658D01*
X456994Y140664D01*
X456947Y139669D01*
X456931Y138672D01*
X475356Y167102D02*
X474919Y166222D01*
X474501Y165333D01*
X474102Y164435D01*
X473723Y163529D01*
X473362Y162615D01*
X473022Y161694D01*
X472701Y160765D01*
X472401Y159830D01*
X472120Y158888D01*
X471860Y157941D01*
X471620Y156988D01*
X471401Y156031D01*
X471202Y155069D01*
X471024Y154103D01*
X470866Y153133D01*
X470730Y152160D01*
X470614Y151185D01*
X470519Y150207D01*
X470446Y149227D01*
X470393Y148246D01*
X470362Y147264D01*
X470351Y146282D01*
X475357Y167102D02*
X475714Y168068D01*
Y168068D02*
X475935Y169045D01*
X476131Y170026D01*
X476300Y171013D01*
X476444Y172003D01*
X476562Y172997D01*
X476654Y173994D01*
X476719Y174993D01*
X476759Y175993D01*
X476772Y176994D01*
X328740Y172677D02*
X334252D01*
X328740Y142677D02*
X334217D01*
X328740Y137677D02*
X334252D01*
X328740Y122677D02*
X334252D01*
X334791D01*
X391358Y67835D02*
Y78409D01*
X413386Y308465D02*
X413386Y310629D01*
X429134Y332087D02*
X429159Y332061D01*
X437626Y332035D02*
X443701D01*
X434744Y332035D02*
X437626D01*
X443701Y332035D02*
X443702Y332034D01*
X437626Y332035D02*
X437626Y332035D01*
X432160Y332061D02*
X432185Y332035D01*
X429159Y332061D02*
X432160D01*
X390748Y93504D02*
X391372Y92880D01*
X388779Y98256D02*
Y129921D01*
X404350Y67835D02*
Y70757D01*
X400020Y67835D02*
Y72003D01*
X483290Y131814D02*
X489252D01*
X476054D02*
X476672Y132432D01*
X470351Y131814D02*
X475625D01*
X462086Y131971D02*
X462086Y131971D01*
X461930Y131814D02*
X462086Y131971D01*
X456931Y131814D02*
X461930D01*
X378937Y134769D02*
Y139165D01*
Y124833D02*
X379857Y123913D01*
X378937Y124833D02*
Y128937D01*
Y124736D02*
Y124833D01*
X394472Y124736D02*
Y125128D01*
Y128937D01*
X391732Y103552D02*
Y118512D01*
X392278Y134769D02*
X394472D01*
X394472D02*
Y139165D01*
X385827Y93709D02*
Y125888D01*
X382274Y133387D02*
X383037Y132624D01*
X382786Y67924D02*
Y116842D01*
X343377Y18590D02*
X343377Y18590D01*
X343476Y18631D02*
X347609D01*
X340720Y18590D02*
X343377D01*
X329204Y18631D02*
X338062D01*
X458465Y117092D02*
Y119065D01*
X454003Y112493D02*
Y112493D01*
X450019Y117419D02*
Y131814D01*
X470351Y131768D02*
Y131814D01*
X450019Y131814D02*
X450019Y131814D01*
X456931D01*
X461584Y125984D02*
X462083D01*
X466324Y127741D02*
X470351Y131768D01*
X475209Y126969D02*
X478522D01*
X483508Y138252D02*
Y158366D01*
X481895Y165309D02*
Y184444D01*
X483290Y138035D02*
X483508Y138252D01*
X466223Y161105D02*
X466651Y161533D01*
X471654Y173610D02*
Y184449D01*
X456931Y138035D02*
Y138672D01*
X476772Y176994D02*
Y184449D01*
X470351Y138035D02*
Y146282D01*
D136*
X483091Y122206D02*
X482435Y121223D01*
X482205Y120065D01*
X482205Y118394D02*
X482253Y117414D01*
X482397Y116443D01*
X482635Y115491D01*
X482966Y114567D01*
X483386Y113680D01*
X483890Y112838D01*
X484475Y112050D01*
X485134Y111323D01*
X484050Y122928D02*
X483091Y122206D01*
X486138Y123467D02*
X485060Y123330D01*
X484050Y122928D01*
X488559Y123467D02*
X489555Y123529D01*
X490535Y123712D01*
X491487Y124014D01*
X492393Y124430D01*
X493242Y124955D01*
X494020Y125580D01*
X494716Y126295D01*
X495319Y127090D01*
X495819Y127954D01*
X496210Y128872D01*
X496485Y129831D01*
X496640Y130817D01*
X496673Y131814D01*
X485134Y111323D02*
X486221Y110236D01*
X482205Y118394D02*
Y119065D01*
X483091Y122206D02*
X483091Y122206D01*
X486138Y123467D02*
X488559D01*
X482205Y119065D02*
Y120065D01*
D137*
X452948Y155704D02*
X452289Y154977D01*
X451705Y154189D01*
X451200Y153347D01*
X450781Y152460D01*
X450450Y151536D01*
X450211Y150584D01*
X450068Y149613D01*
X450019Y148633D01*
X463607Y166362D02*
X464265Y167090D01*
X464850Y167878D01*
X465355Y168719D01*
X465774Y169607D01*
X466105Y170531D01*
X466343Y171483D01*
X466487Y172453D01*
X466536Y173433D01*
X421205Y158250D02*
Y163351D01*
X421206Y170025D02*
X421457Y170276D01*
X421206Y163351D02*
Y170025D01*
X114626Y152947D02*
X121516D01*
X93971Y152947D02*
X114626D01*
X496673Y157543D02*
X496686Y157556D01*
X496673Y138035D02*
Y157543D01*
X421654Y170472D02*
Y173228D01*
X418504Y176378D02*
X421654Y173228D01*
X183071Y68110D02*
X191929D01*
X285633Y278543D02*
X285827Y278350D01*
X276575Y278543D02*
X285633D01*
X274232Y276200D02*
X276575Y278543D01*
X274232Y270827D02*
Y276200D01*
X41417Y213661D02*
Y218701D01*
X250551Y172677D02*
X259842D01*
X510827Y131890D02*
X510910Y131972D01*
X516575D01*
X173228Y68110D02*
X183071D01*
X163386D02*
X173228D01*
X191929D02*
Y68307D01*
X300077Y242059D02*
X300197Y242179D01*
Y247047D01*
X306298Y236221D02*
X306298Y236221D01*
X306298Y236221D02*
Y242059D01*
X391142Y290748D02*
X392717Y292323D01*
X381299Y290748D02*
X391142D01*
X418504Y176378D02*
Y184449D01*
X418504D01*
X198819Y246063D02*
Y250420D01*
X452756Y165354D02*
X461417Y174016D01*
X452756Y165354D02*
Y165354D01*
X461417Y174016D02*
Y184449D01*
X450019Y138035D02*
Y148633D01*
X452948Y155704D02*
X463607Y166362D01*
X466536Y173433D02*
Y184449D01*
X326611Y303465D02*
X332677D01*
X312598Y278350D02*
Y289452D01*
X332677Y303465D02*
Y309882D01*
Y290354D02*
Y297244D01*
X173575Y230658D02*
Y271346D01*
X93957Y141122D02*
X114474D01*
X121122D02*
X133327D01*
X114626Y140970D02*
X121516D01*
X133327Y141122D02*
X134311Y142106D01*
X93957Y152961D02*
X93971Y152947D01*
X121516Y152947D02*
X132343D01*
D138*
X173575Y230658D02*
D03*
D139*
X319087Y221267D02*
Y226522D01*
Y221267D02*
X323819Y216535D01*
X348425D01*
X240158Y154685D02*
Y159449D01*
X89892Y50522D02*
Y56102D01*
X404454Y134769D02*
X404528Y134843D01*
X404528Y128937D02*
X404528Y128937D01*
X319882Y194882D02*
X324205Y199205D01*
X314311Y195216D02*
X319067Y199973D01*
X314311Y189626D02*
Y195216D01*
X324205Y199205D02*
Y203688D01*
X319067Y199973D02*
Y203707D01*
X326969Y188210D02*
X327023Y188156D01*
X326969Y188210D02*
Y193898D01*
X326764Y194102D02*
X326969Y193898D01*
X326764Y194102D02*
Y203688D01*
X326772Y220472D02*
X346457D01*
X324205Y223039D02*
X326772Y220472D01*
X324205Y223039D02*
Y226522D01*
X301129Y203688D02*
X306292D01*
Y195071D02*
Y203688D01*
X361221Y229331D02*
X381299D01*
X348425Y216535D02*
X361221Y229331D01*
X306292Y236214D02*
X306298Y236221D01*
X346457Y220472D02*
X360433Y234449D01*
X381299D01*
X381299Y229331D02*
X381299Y229331D01*
X306292Y226522D02*
Y236214D01*
X326764Y236136D02*
X326849Y236221D01*
X326764Y226522D02*
Y236136D01*
D140*
X526575Y101378D02*
Y109252D01*
X531496D02*
X531496Y109252D01*
X532496D01*
X526575Y109252D02*
X531496D01*
X230852Y270098D02*
X240158D01*
X230650Y269896D02*
X230852Y270098D01*
X338456Y50127D02*
Y50127D01*
X329204D02*
X338456D01*
X326849Y236221D02*
Y243155D01*
X18622Y79646D02*
X18701Y79724D01*
X45578Y90663D02*
Y94717D01*
D141*
X369094Y134843D02*
X369168Y134769D01*
X229331Y71024D02*
Y79724D01*
X222441Y85276D02*
X229331D01*
X236653Y79911D02*
X236715Y79849D01*
X236653Y79911D02*
Y85276D01*
X229331Y79724D02*
Y85276D01*
X478465Y119065D02*
Y123334D01*
X478440Y123359D02*
X478465Y123334D01*
D142*
X374114Y69803D02*
Y78651D01*
X387028Y67835D02*
Y74240D01*
D143*
X80374Y139350D02*
X81260Y138465D01*
X78731Y138386D02*
X80374D01*
X84449Y158661D02*
X84646Y158465D01*
X78740Y158661D02*
X84449D01*
X74370Y145256D02*
Y151024D01*
X71850Y153543D02*
Y159291D01*
Y153543D02*
X74370Y151024D01*
X78740Y152008D02*
X79488Y151260D01*
X78740Y152008D02*
Y158661D01*
X58071Y141732D02*
Y147638D01*
Y141732D02*
X62008D01*
X62717Y141024D01*
X70138D01*
X76929Y140236D02*
Y145256D01*
X81260Y138465D02*
X86279D01*
X93858Y141024D02*
X93957Y141122D01*
X86279Y141024D02*
X93858D01*
X82047Y148307D02*
X86701Y152961D01*
X82047Y145256D02*
Y148307D01*
X79488Y145256D02*
Y151260D01*
X78731Y137190D02*
Y138386D01*
X86701Y152961D02*
X93957D01*
D144*
X65903Y76010D02*
X72242D01*
D145*
X297244Y90551D02*
D03*
X307244D02*
D03*
X434055Y48228D02*
D03*
X444055D02*
D03*
X454055D02*
D03*
X464055D02*
D03*
X474055D02*
D03*
X484055D02*
D03*
D146*
X317244Y90551D02*
D03*
D147*
X315071Y6890D02*
D03*
X305071D02*
D03*
X295071D02*
D03*
X285071D02*
D03*
X275071D02*
D03*
X228346Y202402D02*
D03*
Y192402D02*
D03*
Y182402D02*
D03*
Y172402D02*
D03*
Y162402D02*
D03*
X174213Y110236D02*
D03*
X193898D02*
D03*
X157980Y329224D02*
D03*
Y309539D02*
D03*
X16732Y252953D02*
D03*
X36417D02*
D03*
D148*
X494055Y48228D02*
D03*
D149*
X228346Y152402D02*
D03*
D150*
X240158Y286634D02*
D03*
D151*
X98110Y194882D02*
D03*
X118110D02*
D03*
X138110D02*
D03*
D152*
X191890Y36417D02*
D03*
X103661D02*
D03*
D153*
X171890D02*
D03*
X151890D02*
D03*
X131890D02*
D03*
X83661D02*
D03*
X63661D02*
D03*
D154*
X70866Y285433D02*
D03*
Y309842D02*
D03*
D155*
X52362Y298031D02*
D03*
D156*
X104724Y328346D02*
D03*
X131496Y281890D02*
D03*
X112205Y292520D02*
D03*
Y305118D02*
D03*
Y317717D02*
D03*
X124016Y292520D02*
D03*
Y305118D02*
D03*
D157*
Y317717D02*
D03*
D158*
X266732Y132874D02*
D03*
X254921Y137677D02*
D03*
Y142677D02*
D03*
X334252Y167677D02*
D03*
Y117677D02*
D03*
Y122677D02*
D03*
X265114Y127677D02*
D03*
X276984Y102752D02*
D03*
X240158Y159449D02*
D03*
X227362Y122047D02*
D03*
X216535Y140748D02*
D03*
X234252Y148622D02*
D03*
X288259Y85560D02*
D03*
X280385D02*
D03*
X322708Y58001D02*
D03*
X276448Y85560D02*
D03*
X275086Y185711D02*
D03*
X279528Y186024D02*
D03*
X421205Y157557D02*
D03*
X89892Y50522D02*
D03*
X496686Y157556D02*
D03*
X532496Y109252D02*
D03*
X528543Y146465D02*
D03*
X506890Y109252D02*
D03*
X528543Y139020D02*
D03*
X506890Y101378D02*
D03*
X334252Y142642D02*
D03*
X404528Y134843D02*
D03*
Y128937D02*
D03*
X369094D02*
D03*
Y134843D02*
D03*
X394472Y124736D02*
D03*
Y139165D02*
D03*
X378937D02*
D03*
Y124736D02*
D03*
X230650Y269896D02*
D03*
X276448Y34379D02*
D03*
Y42253D02*
D03*
Y50127D02*
D03*
Y58001D02*
D03*
Y65875D02*
D03*
X239173Y61024D02*
D03*
X323819Y112677D02*
D03*
Y127677D02*
D03*
X265114Y117677D02*
D03*
Y112677D02*
D03*
Y122606D02*
D03*
X240158Y144685D02*
D03*
X319882Y194882D02*
D03*
X314311Y189626D02*
D03*
X327023Y188156D02*
D03*
X326849Y243155D02*
D03*
X84646Y158465D02*
D03*
X58071Y141732D02*
D03*
X41339Y213583D02*
D03*
X374114Y78651D02*
D03*
X178356Y51552D02*
D03*
X158014Y51244D02*
D03*
X348425Y230315D02*
D03*
X341535D02*
D03*
X348425Y236221D02*
D03*
X341535D02*
D03*
X231299Y99410D02*
D03*
X316929Y102752D02*
D03*
X254921Y157677D02*
D03*
Y152677D02*
D03*
Y147677D02*
D03*
X334252Y137677D02*
D03*
X510827Y117508D02*
D03*
Y124646D02*
D03*
Y131972D02*
D03*
Y146465D02*
D03*
Y139020D02*
D03*
X410433Y169291D02*
D03*
X413386Y174213D02*
D03*
X506890Y93504D02*
D03*
Y85630D02*
D03*
Y77756D02*
D03*
X528543Y117508D02*
D03*
Y124646D02*
D03*
Y131972D02*
D03*
X334252Y172677D02*
D03*
Y152559D02*
D03*
X27559Y99410D02*
D03*
X8858Y104331D02*
D03*
X236715Y79849D02*
D03*
X229331Y79724D02*
D03*
X387028Y74240D02*
D03*
X334252Y132677D02*
D03*
X236653Y96713D02*
D03*
X234637Y121293D02*
D03*
X339440Y58985D02*
D03*
X343377D02*
D03*
X347314D02*
D03*
X351251D02*
D03*
X355188D02*
D03*
X339440Y55048D02*
D03*
X343377D02*
D03*
X347314D02*
D03*
X351251D02*
D03*
X355188D02*
D03*
X339440Y51111D02*
D03*
X343377D02*
D03*
X347314D02*
D03*
X351251D02*
D03*
X355188D02*
D03*
Y47174D02*
D03*
X351251D02*
D03*
X347314D02*
D03*
X343377D02*
D03*
X339440D02*
D03*
X300197Y247047D02*
D03*
X510827Y192547D02*
D03*
Y215598D02*
D03*
X486221Y110236D02*
D03*
X184055Y79724D02*
D03*
X187992D02*
D03*
X191929D02*
D03*
X184055Y83661D02*
D03*
X187992D02*
D03*
X191929D02*
D03*
X184055Y87598D02*
D03*
X187992D02*
D03*
X191929D02*
D03*
X164370Y79724D02*
D03*
X168307D02*
D03*
X172244D02*
D03*
X176181D02*
D03*
X180118D02*
D03*
X164370Y83661D02*
D03*
X168307D02*
D03*
X172244D02*
D03*
X176181D02*
D03*
X180118D02*
D03*
X168307Y95472D02*
D03*
X180118D02*
D03*
Y91535D02*
D03*
X172244D02*
D03*
X168307Y99410D02*
D03*
X164370Y91535D02*
D03*
X172244Y99410D02*
D03*
Y95472D02*
D03*
X180118Y99410D02*
D03*
X164370Y95472D02*
D03*
X176181Y99410D02*
D03*
Y95472D02*
D03*
Y91535D02*
D03*
X168307D02*
D03*
X164370Y99410D02*
D03*
X56945Y62547D02*
D03*
X45305Y51210D02*
D03*
X18701Y79724D02*
D03*
X45578Y94717D02*
D03*
X198819Y246063D02*
D03*
X247047Y250984D02*
D03*
X243110D02*
D03*
X235236D02*
D03*
X231299D02*
D03*
X239173D02*
D03*
X227362D02*
D03*
X247047Y247047D02*
D03*
X243110D02*
D03*
X235236D02*
D03*
X231299D02*
D03*
X239173D02*
D03*
X227362D02*
D03*
X239173Y243110D02*
D03*
X235236D02*
D03*
X227362D02*
D03*
X231299D02*
D03*
X239173Y239173D02*
D03*
X235236D02*
D03*
X227362D02*
D03*
X231299D02*
D03*
X239173Y235236D02*
D03*
X235236D02*
D03*
X227362D02*
D03*
X231299D02*
D03*
X239173Y231299D02*
D03*
X235236D02*
D03*
X227362D02*
D03*
X231299D02*
D03*
X247047Y227362D02*
D03*
X243110D02*
D03*
X235236D02*
D03*
X231299D02*
D03*
X239173D02*
D03*
X227362D02*
D03*
X247047Y223425D02*
D03*
X243110D02*
D03*
X235236D02*
D03*
X231299D02*
D03*
X239173D02*
D03*
X227362D02*
D03*
Y219488D02*
D03*
X239173D02*
D03*
X231299D02*
D03*
X235236D02*
D03*
X243110D02*
D03*
X247047D02*
D03*
X264764Y264764D02*
D03*
Y260827D02*
D03*
Y256890D02*
D03*
Y252953D02*
D03*
Y249016D02*
D03*
X268701Y264764D02*
D03*
Y260827D02*
D03*
Y256890D02*
D03*
Y252953D02*
D03*
Y249016D02*
D03*
X292323D02*
D03*
X288386D02*
D03*
X284449D02*
D03*
X280512D02*
D03*
X276575D02*
D03*
X272638D02*
D03*
X452756Y165354D02*
D03*
X476318Y147074D02*
D03*
X463522D02*
D03*
X478440Y123359D02*
D03*
X442913Y143701D02*
D03*
X465551Y112205D02*
D03*
X272638Y260827D02*
D03*
Y256890D02*
D03*
Y252953D02*
D03*
X276575Y260827D02*
D03*
Y256890D02*
D03*
Y252953D02*
D03*
X280512Y264764D02*
D03*
Y260827D02*
D03*
Y256890D02*
D03*
Y252953D02*
D03*
X284449Y264764D02*
D03*
Y260827D02*
D03*
Y256890D02*
D03*
Y252953D02*
D03*
X288386Y264764D02*
D03*
Y260827D02*
D03*
Y256890D02*
D03*
Y252953D02*
D03*
X292323D02*
D03*
Y256890D02*
D03*
Y260827D02*
D03*
Y264764D02*
D03*
X326611Y303465D02*
D03*
X312617Y289470D02*
D03*
X164370Y87598D02*
D03*
X168307D02*
D03*
X172244D02*
D03*
X176181D02*
D03*
X180118D02*
D03*
X45728Y124390D02*
D03*
Y128327D02*
D03*
Y120453D02*
D03*
Y116516D02*
D03*
X49665Y124390D02*
D03*
Y128327D02*
D03*
Y120453D02*
D03*
Y116516D02*
D03*
X53602Y124390D02*
D03*
Y128327D02*
D03*
Y120453D02*
D03*
Y116516D02*
D03*
X57539Y124390D02*
D03*
Y128327D02*
D03*
Y120453D02*
D03*
Y116516D02*
D03*
X73287D02*
D03*
Y120453D02*
D03*
Y124390D02*
D03*
X69350Y116516D02*
D03*
X65413D02*
D03*
X61476D02*
D03*
Y120453D02*
D03*
X65413D02*
D03*
X69350D02*
D03*
X61476Y128327D02*
D03*
Y124390D02*
D03*
X69350D02*
D03*
Y128327D02*
D03*
X65413Y124390D02*
D03*
Y128327D02*
D03*
X95268Y128134D02*
D03*
X87394Y124197D02*
D03*
X91331D02*
D03*
X95268Y124198D02*
D03*
X91331Y128134D02*
D03*
X87394D02*
D03*
X80374Y135020D02*
D03*
Y139350D02*
D03*
X76043D02*
D03*
Y135020D02*
D03*
D159*
X409737Y300667D02*
D03*
X412469Y299427D02*
D03*
X415454Y299725D02*
D03*
X417869Y301506D02*
D03*
M02*
