G04*
G04 #@! TF.GenerationSoftware,Altium Limited,Altium Designer,24.5.2 (23)*
G04*
G04 Layer_Physical_Order=4*
G04 Layer_Color=16711680*
%FSLAX25Y25*%
%MOIN*%
G70*
G04*
G04 #@! TF.SameCoordinates,BE672D6A-22B5-4311-9D4D-3F017F5E6AAD*
G04*
G04*
G04 #@! TF.FilePolarity,Positive*
G04*
G01*
G75*
%ADD27C,0.03937*%
%ADD28R,0.05906X0.05906*%
%ADD134C,0.01968*%
%ADD135C,0.01320*%
%ADD137C,0.03150*%
%ADD140C,0.03937*%
%ADD145C,0.06496*%
%ADD146R,0.06496X0.06496*%
%ADD147C,0.05906*%
%ADD148R,0.06496X0.06496*%
%ADD149R,0.05906X0.05906*%
%ADD150C,0.05118*%
%ADD151C,0.13780*%
%ADD152R,0.11811X0.11811*%
%ADD153C,0.11811*%
%ADD154R,0.19685X0.07874*%
%ADD155R,0.07874X0.19685*%
%ADD156C,0.07874*%
%ADD157R,0.07874X0.07874*%
%ADD158C,0.02756*%
%ADD159C,0.02000*%
G36*
X39370Y340312D02*
X404492D01*
Y303150D01*
X404570Y302759D01*
X404791Y302429D01*
X405122Y302208D01*
X405512Y302130D01*
X459646D01*
X460036Y302208D01*
X460367Y302429D01*
X460588Y302759D01*
X460665Y303150D01*
Y340312D01*
X499300D01*
X499315Y340312D01*
X500000Y340312D01*
X500657Y340207D01*
X500672Y340204D01*
X501241Y339824D01*
X501622Y339254D01*
X501625Y339239D01*
X501729Y338583D01*
X501741Y338523D01*
X501741Y337883D01*
X501743Y308057D01*
X501756Y307988D01*
X501736Y307571D01*
X501920Y303834D01*
X502469Y300132D01*
X503378Y296502D01*
X504638Y292979D01*
X506238Y289597D01*
X508162Y286387D01*
X510391Y283381D01*
X512904Y280609D01*
X515677Y278096D01*
X518682Y275867D01*
X521892Y273943D01*
X525275Y272343D01*
X528798Y271082D01*
X532428Y270173D01*
X536129Y269624D01*
X537162Y269573D01*
Y181735D01*
X533465D01*
X533465Y181735D01*
Y181735D01*
X533380Y181719D01*
X531827Y181596D01*
X530231Y181213D01*
X528713Y180585D01*
X527313Y179727D01*
X526064Y178660D01*
X524998Y177411D01*
X524140Y176011D01*
X523511Y174494D01*
X523128Y172897D01*
X522999Y171260D01*
X523128Y169623D01*
X523511Y168026D01*
X524140Y166509D01*
X524998Y165109D01*
X526064Y163860D01*
X527313Y162793D01*
X528713Y161935D01*
X530231Y161307D01*
X531827Y160923D01*
X533380Y160801D01*
X533465Y160784D01*
X537162D01*
Y72948D01*
X536130Y72897D01*
X532429Y72348D01*
X528798Y71439D01*
X525275Y70178D01*
X521892Y68578D01*
X518682Y66654D01*
X515676Y64425D01*
X512903Y61912D01*
X510390Y59139D01*
X508161Y56133D01*
X506237Y52923D01*
X504637Y49540D01*
X503376Y46016D01*
X502467Y42386D01*
X501918Y38685D01*
X501734Y34947D01*
X501755Y34530D01*
X501741Y34461D01*
Y3996D01*
X501729Y3937D01*
X501729D01*
X501625Y3280D01*
X501622Y3265D01*
X501241Y2696D01*
X500672Y2315D01*
X500066Y2195D01*
X500000Y2208D01*
X331961D01*
Y8823D01*
X359252D01*
X359642Y8901D01*
X359973Y9122D01*
X360194Y9452D01*
X360272Y9843D01*
Y38386D01*
X360194Y38776D01*
X359973Y39107D01*
X359642Y39328D01*
X359252Y39405D01*
X321850D01*
X321460Y39328D01*
X321129Y39107D01*
X320908Y38776D01*
X320831Y38386D01*
Y13780D01*
X318181D01*
Y10284D01*
X317534Y10016D01*
X317498Y10053D01*
X316597Y10573D01*
X315591Y10842D01*
X315571D01*
Y6890D01*
X314571D01*
Y10842D01*
X314550D01*
X313545Y10573D01*
X312644Y10053D01*
X312172Y9580D01*
X311365Y9697D01*
X311176Y10153D01*
X310422Y11282D01*
X309463Y12241D01*
X308334Y12995D01*
X307081Y13515D01*
X305749Y13780D01*
X304392D01*
X303061Y13515D01*
X301807Y12995D01*
X300679Y12241D01*
X300071Y11633D01*
X299463Y12241D01*
X298334Y12995D01*
X297080Y13515D01*
X295749Y13780D01*
X294392D01*
X293061Y13515D01*
X291807Y12995D01*
X290679Y12241D01*
X290071Y11633D01*
X289463Y12241D01*
X288334Y12995D01*
X287081Y13515D01*
X285749Y13780D01*
X284392D01*
X283061Y13515D01*
X281807Y12995D01*
X280679Y12241D01*
X280071Y11633D01*
X279463Y12241D01*
X278334Y12995D01*
X277080Y13515D01*
X275749Y13780D01*
X274392D01*
X273061Y13515D01*
X271807Y12995D01*
X270679Y12241D01*
X269719Y11282D01*
X268965Y10153D01*
X268446Y8899D01*
X268181Y7568D01*
Y6211D01*
X268446Y4880D01*
X268965Y3626D01*
X269445Y2908D01*
X269071Y2208D01*
X39370D01*
X39304Y2195D01*
X38698Y2315D01*
X38129Y2696D01*
X37748Y3265D01*
X37745Y3280D01*
X37641Y3937D01*
X37641D01*
X37629Y3996D01*
Y34461D01*
X37615Y34530D01*
X37636Y34947D01*
X37452Y38685D01*
X36903Y42386D01*
X35994Y46016D01*
X34733Y49540D01*
X33133Y52923D01*
X31209Y56133D01*
X28980Y59139D01*
X26467Y61912D01*
X23694Y64425D01*
X20688Y66654D01*
X17478Y68578D01*
X14095Y70178D01*
X10572Y71439D01*
X6942Y72348D01*
X3240Y72897D01*
X2208Y72948D01*
Y160784D01*
X5906D01*
X5906Y160784D01*
Y160784D01*
X5990Y160801D01*
X7543Y160923D01*
X9139Y161307D01*
X10657Y161935D01*
X12057Y162793D01*
X13306Y163860D01*
X14372Y165109D01*
X15230Y166509D01*
X15859Y168026D01*
X16242Y169623D01*
X16371Y171260D01*
X16242Y172897D01*
X15859Y174494D01*
X15230Y176011D01*
X14372Y177411D01*
X13306Y178660D01*
X12057Y179727D01*
X10657Y180585D01*
X9139Y181213D01*
X7543Y181596D01*
X5990Y181719D01*
X5906Y181735D01*
X2196D01*
Y269571D01*
X3240Y269623D01*
X6942Y270172D01*
X10572Y271081D01*
X14095Y272342D01*
X17478Y273942D01*
X20688Y275866D01*
X23694Y278095D01*
X26467Y280608D01*
X28980Y283381D01*
X31209Y286387D01*
X33133Y289597D01*
X34733Y292980D01*
X35994Y296503D01*
X36903Y300133D01*
X37452Y303835D01*
X37636Y307573D01*
X37615Y307990D01*
X37629Y308059D01*
Y338523D01*
X37641Y338583D01*
X37641D01*
X37745Y339239D01*
X37748Y339254D01*
X38129Y339824D01*
X38698Y340205D01*
X39304Y340325D01*
X39370Y340312D01*
D02*
G37*
%LPC*%
G36*
X158501Y333177D02*
X158480D01*
Y329724D01*
X161933D01*
Y329745D01*
X161664Y330750D01*
X161143Y331651D01*
X160407Y332387D01*
X159506Y332908D01*
X158501Y333177D01*
D02*
G37*
G36*
X157480D02*
X157460D01*
X156455Y332908D01*
X155553Y332387D01*
X154817Y331651D01*
X154297Y330750D01*
X154028Y329745D01*
Y329724D01*
X157480D01*
Y333177D01*
D02*
G37*
G36*
X105374Y333283D02*
X105225D01*
Y328846D01*
X109661D01*
Y328996D01*
X109325Y330252D01*
X108675Y331378D01*
X107756Y332297D01*
X106630Y332947D01*
X105374Y333283D01*
D02*
G37*
G36*
X104225D02*
X104074D01*
X102819Y332947D01*
X101693Y332297D01*
X100774Y331378D01*
X100124Y330252D01*
X99787Y328996D01*
Y328846D01*
X104225D01*
Y333283D01*
D02*
G37*
G36*
X161933Y328724D02*
X158480D01*
Y325272D01*
X158501D01*
X159506Y325541D01*
X160407Y326061D01*
X161143Y326797D01*
X161664Y327699D01*
X161933Y328704D01*
Y328724D01*
D02*
G37*
G36*
X157480D02*
X154028D01*
Y328704D01*
X154297Y327699D01*
X154817Y326797D01*
X155553Y326061D01*
X156455Y325541D01*
X157460Y325272D01*
X157480D01*
Y328724D01*
D02*
G37*
G36*
X104225Y327846D02*
X99787D01*
Y327696D01*
X100124Y326441D01*
X100774Y325315D01*
X101693Y324396D01*
X102819Y323746D01*
X104074Y323409D01*
X104225D01*
Y327846D01*
D02*
G37*
G36*
X240548Y319091D02*
X239767D01*
X239012Y318888D01*
X238335Y318497D01*
X237782Y317945D01*
X237391Y317268D01*
X237189Y316513D01*
Y315731D01*
X237391Y314976D01*
X237782Y314299D01*
X238335Y313747D01*
X239012Y313356D01*
X239767Y313154D01*
X240548D01*
X241303Y313356D01*
X241980Y313747D01*
X242533Y314299D01*
X242924Y314976D01*
X243126Y315731D01*
Y316513D01*
X242924Y317268D01*
X242533Y317945D01*
X241980Y318497D01*
X241303Y318888D01*
X240548Y319091D01*
D02*
G37*
G36*
X81709Y314779D02*
X71366D01*
Y310343D01*
X81709D01*
Y314779D01*
D02*
G37*
G36*
Y309343D02*
X71366D01*
Y304906D01*
X81709D01*
Y309343D01*
D02*
G37*
G36*
X326611Y307038D02*
X325687Y306917D01*
X324825Y306560D01*
X324084Y305992D01*
X310090Y291997D01*
X309522Y291257D01*
X309165Y290395D01*
X309043Y289470D01*
X309165Y288545D01*
X309522Y287683D01*
X310090Y286943D01*
X310830Y286375D01*
X311692Y286018D01*
X312617Y285896D01*
X313542Y286018D01*
X314404Y286375D01*
X315144Y286943D01*
X329139Y300937D01*
X329707Y301678D01*
X330064Y302540D01*
X330185Y303465D01*
X330064Y304390D01*
X329707Y305252D01*
X329139Y305992D01*
X328398Y306560D01*
X327537Y306917D01*
X326611Y307038D01*
D02*
G37*
G36*
X240626Y290193D02*
X239689D01*
X238784Y289950D01*
X237972Y289482D01*
X237310Y288819D01*
X236841Y288008D01*
X236598Y287102D01*
Y286165D01*
X236841Y285260D01*
X237310Y284449D01*
X237972Y283786D01*
X238784Y283317D01*
X239689Y283075D01*
X240626D01*
X241531Y283317D01*
X242343Y283786D01*
X243005Y284449D01*
X243474Y285260D01*
X243717Y286165D01*
Y287102D01*
X243474Y288008D01*
X243005Y288819D01*
X242343Y289482D01*
X241531Y289950D01*
X240626Y290193D01*
D02*
G37*
G36*
X132146Y286827D02*
X131996D01*
Y282390D01*
X136433D01*
Y282540D01*
X136097Y283795D01*
X135447Y284921D01*
X134527Y285840D01*
X133402Y286490D01*
X132146Y286827D01*
D02*
G37*
G36*
X109661Y327846D02*
X105225D01*
Y323409D01*
X105374D01*
X105918Y323555D01*
X106280Y322927D01*
X106089Y322736D01*
X105227Y321446D01*
X104633Y320013D01*
X104331Y318492D01*
Y316941D01*
X104633Y315420D01*
X104976Y314592D01*
X104587Y314010D01*
X104331D01*
X103303Y313875D01*
X102345Y313478D01*
X101523Y312847D01*
X100892Y312025D01*
X100495Y311067D01*
X100360Y310039D01*
Y300197D01*
X100495Y299169D01*
X100892Y298211D01*
X101523Y297389D01*
X102345Y296758D01*
X103303Y296361D01*
X104331Y296226D01*
X104587D01*
X104976Y295644D01*
X104633Y294816D01*
X104331Y293295D01*
Y291744D01*
X104633Y290223D01*
X105227Y288790D01*
X106089Y287500D01*
X107185Y286403D01*
X108475Y285542D01*
X109908Y284948D01*
X111429Y284646D01*
X112980D01*
X114502Y284948D01*
X115935Y285542D01*
X117224Y286403D01*
X118110Y287290D01*
X118996Y286403D01*
X120286Y285542D01*
X121719Y284948D01*
X123240Y284646D01*
X124791D01*
X126312Y284948D01*
X126891Y285188D01*
X127379Y284632D01*
X126895Y283795D01*
X126559Y282540D01*
Y282390D01*
X130996D01*
Y286827D01*
X130846D01*
X130303Y286681D01*
X129940Y287309D01*
X130132Y287500D01*
X130994Y288790D01*
X131587Y290223D01*
X131890Y291744D01*
Y293295D01*
X131587Y294816D01*
X131245Y295644D01*
X131633Y296226D01*
X169291D01*
X170319Y296361D01*
X171277Y296758D01*
X172099Y297389D01*
X172730Y298211D01*
X173127Y299169D01*
X173262Y300197D01*
Y316929D01*
X173127Y317957D01*
X172730Y318915D01*
X172099Y319737D01*
X171277Y320368D01*
X170319Y320765D01*
X169291Y320900D01*
X138780D01*
X138779Y320900D01*
X137752Y320765D01*
X136794Y320368D01*
X135972Y319737D01*
X132536Y316302D01*
X131890Y316570D01*
Y325590D01*
X116142D01*
Y325366D01*
X115442Y324899D01*
X114502Y325288D01*
X112980Y325590D01*
X111429D01*
X109908Y325288D01*
X109329Y325048D01*
X108842Y325604D01*
X109325Y326441D01*
X109661Y327696D01*
Y327846D01*
D02*
G37*
G36*
X70366Y314779D02*
X60024D01*
Y311811D01*
X44488D01*
Y284252D01*
X48391D01*
Y246920D01*
X29672Y228202D01*
X29041Y227379D01*
X28645Y226421D01*
X28509Y225394D01*
Y113189D01*
X28645Y112161D01*
X29041Y111204D01*
X29672Y110381D01*
X41607Y98447D01*
Y94717D01*
X41742Y93690D01*
X42139Y92732D01*
X42770Y91910D01*
X43592Y91278D01*
X44550Y90882D01*
X45578Y90746D01*
X46606Y90882D01*
X47563Y91278D01*
X48386Y91910D01*
X49017Y92732D01*
X49413Y93690D01*
X49549Y94717D01*
Y100092D01*
X49413Y101119D01*
X49017Y102077D01*
X48386Y102899D01*
X36451Y114834D01*
Y223749D01*
X55170Y242468D01*
X55801Y243290D01*
X56198Y244248D01*
X56333Y245276D01*
Y284252D01*
X57087D01*
Y277559D01*
X84646D01*
Y293307D01*
X60236D01*
Y304906D01*
X70366D01*
Y309842D01*
Y314779D01*
D02*
G37*
G36*
X136433Y281390D02*
X131996D01*
Y276953D01*
X132146D01*
X133402Y277289D01*
X134527Y277939D01*
X135447Y278858D01*
X136097Y279984D01*
X136433Y281240D01*
Y281390D01*
D02*
G37*
G36*
X130996D02*
X126559D01*
Y281240D01*
X126895Y279984D01*
X127545Y278858D01*
X128465Y277939D01*
X129590Y277289D01*
X130846Y276953D01*
X130996D01*
Y281390D01*
D02*
G37*
G36*
X528077Y263779D02*
X527041D01*
X526039Y263511D01*
X525142Y262993D01*
X524409Y262260D01*
X523890Y261362D01*
X523622Y260361D01*
Y259324D01*
X523890Y258323D01*
X524409Y257425D01*
X525142Y256692D01*
X526039Y256174D01*
X527041Y255906D01*
X528077D01*
X529079Y256174D01*
X529976Y256692D01*
X530709Y257425D01*
X531228Y258323D01*
X531496Y259324D01*
Y260361D01*
X531228Y261362D01*
X530709Y262260D01*
X529976Y262993D01*
X529079Y263511D01*
X528077Y263779D01*
D02*
G37*
G36*
X17253Y256906D02*
X17232D01*
Y253453D01*
X20685D01*
Y253473D01*
X20416Y254479D01*
X19895Y255380D01*
X19159Y256116D01*
X18258Y256636D01*
X17253Y256906D01*
D02*
G37*
G36*
X16232D02*
X16212D01*
X15207Y256636D01*
X14305Y256116D01*
X13569Y255380D01*
X13049Y254479D01*
X12779Y253473D01*
Y253453D01*
X16232D01*
Y256906D01*
D02*
G37*
G36*
X20685Y252453D02*
X17232D01*
Y249000D01*
X17253D01*
X18258Y249269D01*
X19159Y249790D01*
X19895Y250526D01*
X20416Y251427D01*
X20685Y252432D01*
Y252453D01*
D02*
G37*
G36*
X16232D02*
X12779D01*
Y252432D01*
X13049Y251427D01*
X13569Y250526D01*
X14305Y249790D01*
X15207Y249269D01*
X16212Y249000D01*
X16232D01*
Y252453D01*
D02*
G37*
G36*
X37096Y259842D02*
X35739D01*
X34408Y259578D01*
X33154Y259058D01*
X32025Y258304D01*
X31066Y257345D01*
X30312Y256216D01*
X29792Y254962D01*
X29528Y253631D01*
Y252274D01*
X29792Y250943D01*
X30312Y249689D01*
X31066Y248561D01*
X32025Y247601D01*
X33154Y246847D01*
X34408Y246328D01*
X35739Y246063D01*
X37096D01*
X38427Y246328D01*
X39681Y246847D01*
X40809Y247601D01*
X41769Y248561D01*
X42523Y249689D01*
X43042Y250943D01*
X43307Y252274D01*
Y253631D01*
X43042Y254962D01*
X42523Y256216D01*
X41769Y257345D01*
X40809Y258304D01*
X39681Y259058D01*
X38427Y259578D01*
X37096Y259842D01*
D02*
G37*
G36*
X294617Y270703D02*
X262189D01*
X261161Y270568D01*
X260204Y270171D01*
X259381Y269540D01*
X258750Y268718D01*
X258353Y267760D01*
X258218Y266732D01*
Y246441D01*
X258353Y245413D01*
X258750Y244456D01*
X259381Y243633D01*
X260204Y243002D01*
X261161Y242605D01*
X262189Y242470D01*
X294617D01*
X295644Y242605D01*
X296602Y243002D01*
X297425Y243633D01*
X297626Y243896D01*
X298142Y244369D01*
X298905Y243929D01*
X299756Y243701D01*
X300637D01*
X301488Y243929D01*
X302252Y244369D01*
X302875Y244992D01*
X303315Y245756D01*
X303543Y246607D01*
Y247488D01*
X303315Y248339D01*
X302875Y249102D01*
X302252Y249725D01*
X301488Y250166D01*
X300637Y250394D01*
X299756D01*
X299288Y250268D01*
X298588Y250737D01*
Y266732D01*
X298452Y267760D01*
X298056Y268718D01*
X297425Y269540D01*
X296602Y270171D01*
X295644Y270568D01*
X294617Y270703D01*
D02*
G37*
G36*
X327289Y246501D02*
X326408D01*
X325557Y246273D01*
X324794Y245833D01*
X324171Y245210D01*
X323730Y244446D01*
X323502Y243595D01*
Y242714D01*
X323730Y241863D01*
X324171Y241100D01*
X324794Y240477D01*
X325557Y240036D01*
X326408Y239808D01*
X327289D01*
X328140Y240036D01*
X328903Y240477D01*
X329526Y241100D01*
X329967Y241863D01*
X330195Y242714D01*
Y243595D01*
X329967Y244446D01*
X329526Y245210D01*
X328903Y245833D01*
X328140Y246273D01*
X327289Y246501D01*
D02*
G37*
G36*
X12329Y224409D02*
X11293D01*
X10291Y224141D01*
X9394Y223623D01*
X8661Y222890D01*
X8142Y221992D01*
X7874Y220991D01*
Y219954D01*
X8142Y218953D01*
X8661Y218055D01*
X9394Y217322D01*
X10291Y216804D01*
X11293Y216535D01*
X12329D01*
X13331Y216804D01*
X14228Y217322D01*
X14961Y218055D01*
X15480Y218953D01*
X15748Y219954D01*
Y220991D01*
X15480Y221992D01*
X14961Y222890D01*
X14228Y223623D01*
X13331Y224141D01*
X12329Y224409D01*
D02*
G37*
G36*
X230650Y273867D02*
X229622Y273732D01*
X228664Y273335D01*
X227842Y272704D01*
X213727Y258590D01*
X213096Y257767D01*
X212700Y256809D01*
X212564Y255782D01*
Y151575D01*
X212700Y150547D01*
X213096Y149589D01*
X213727Y148767D01*
X217931Y144563D01*
X217569Y143936D01*
X216976Y144095D01*
X216095D01*
X215244Y143866D01*
X214481Y143426D01*
X213858Y142803D01*
X213417Y142040D01*
X213189Y141189D01*
Y140307D01*
X213417Y139456D01*
X213858Y138693D01*
X214481Y138070D01*
X215244Y137630D01*
X216095Y137402D01*
X216976D01*
X217827Y137630D01*
X218590Y138070D01*
X218754Y138234D01*
X219454Y137944D01*
Y132874D01*
X219590Y131846D01*
X219986Y130888D01*
X220617Y130066D01*
X225273Y125411D01*
X225138Y124556D01*
X224684Y124102D01*
X224244Y123339D01*
X224016Y122488D01*
Y121607D01*
X224244Y120756D01*
X224684Y119992D01*
X225307Y119369D01*
X226070Y118929D01*
X226922Y118701D01*
X227437D01*
X227576Y118034D01*
X226857Y117737D01*
X226240Y117263D01*
X207540Y98563D01*
X207066Y97946D01*
X206769Y97228D01*
X206667Y96457D01*
Y70131D01*
X205459Y68923D01*
X124362D01*
X124094Y69570D01*
X140216Y85692D01*
X140690Y86309D01*
X140987Y87027D01*
X141088Y87798D01*
Y184466D01*
X142266Y184848D01*
X143785Y185622D01*
X145163Y186624D01*
X146368Y187829D01*
X147370Y189207D01*
X148144Y190726D01*
X148670Y192347D01*
X148937Y194030D01*
Y195734D01*
X148670Y197417D01*
X148144Y199038D01*
X147370Y200556D01*
X146368Y201935D01*
X145163Y203140D01*
X143785Y204142D01*
X142266Y204915D01*
X140646Y205442D01*
X138962Y205709D01*
X137258D01*
X135575Y205442D01*
X133954Y204915D01*
X132436Y204142D01*
X131057Y203140D01*
X129852Y201935D01*
X128850Y200556D01*
X128460Y199791D01*
X127760D01*
X127370Y200556D01*
X126368Y201935D01*
X125163Y203140D01*
X123785Y204142D01*
X122266Y204915D01*
X120645Y205442D01*
X118962Y205709D01*
X117258D01*
X115575Y205442D01*
X113954Y204915D01*
X112436Y204142D01*
X111057Y203140D01*
X109852Y201935D01*
X108850Y200556D01*
X108077Y199038D01*
X107550Y197417D01*
X107283Y195734D01*
Y194030D01*
X107550Y192347D01*
X108077Y190726D01*
X108850Y189207D01*
X109852Y187829D01*
X111057Y186624D01*
X112436Y185622D01*
X113954Y184848D01*
X115575Y184322D01*
X117258Y184055D01*
X118962D01*
X120645Y184322D01*
X122266Y184848D01*
X123785Y185622D01*
X125163Y186624D01*
X126368Y187829D01*
X127370Y189207D01*
X127760Y189973D01*
X128460D01*
X128850Y189207D01*
X129852Y187829D01*
X131057Y186624D01*
X132436Y185622D01*
X133954Y184848D01*
X135132Y184466D01*
Y89032D01*
X118845Y72745D01*
X64280D01*
X63509Y72643D01*
X62791Y72346D01*
X62174Y71872D01*
X56082Y65780D01*
X55653Y65666D01*
X54890Y65225D01*
X54267Y64602D01*
X53826Y63839D01*
X53598Y62988D01*
Y62107D01*
X53694Y61749D01*
X53170Y61049D01*
X47493D01*
X26712Y81830D01*
X26095Y82304D01*
X25377Y82601D01*
X24606Y82703D01*
X20235D01*
X19993Y82843D01*
X19141Y83071D01*
X18260D01*
X17409Y82843D01*
X16646Y82402D01*
X16023Y81779D01*
X15582Y81016D01*
X15354Y80165D01*
Y79284D01*
X15582Y78433D01*
X16023Y77670D01*
X16646Y77047D01*
X17409Y76606D01*
X18260Y76378D01*
X19141D01*
X19993Y76606D01*
X20235Y76746D01*
X23373D01*
X44154Y55965D01*
X44771Y55492D01*
X45338Y55257D01*
X45198Y54557D01*
X44864D01*
X44013Y54329D01*
X43250Y53888D01*
X42627Y53265D01*
X42186Y52502D01*
X41958Y51651D01*
Y50770D01*
X42186Y49919D01*
X42627Y49156D01*
X43250Y48533D01*
X44013Y48092D01*
X44864Y47864D01*
X45746D01*
X46597Y48092D01*
X46839Y48232D01*
X59084D01*
X59855Y48334D01*
X60574Y48631D01*
X61190Y49104D01*
X71115Y59030D01*
X104100D01*
X104368Y58383D01*
X89992Y44007D01*
X89936Y44063D01*
X88324Y45140D01*
X86532Y45882D01*
X84631Y46260D01*
X82692D01*
X80791Y45882D01*
X78999Y45140D01*
X77387Y44063D01*
X76016Y42692D01*
X74939Y41080D01*
X74197Y39288D01*
X73819Y37387D01*
Y35448D01*
X74197Y33546D01*
X74939Y31755D01*
X76016Y30143D01*
X77387Y28772D01*
X78999Y27695D01*
X80791Y26953D01*
X82692Y26575D01*
X84631D01*
X86532Y26953D01*
X88324Y27695D01*
X89936Y28772D01*
X91307Y30143D01*
X92384Y31755D01*
X93126Y33546D01*
X93819Y33443D01*
Y26575D01*
X113504D01*
Y46260D01*
X101583D01*
X101315Y46907D01*
X109501Y55093D01*
X156741D01*
X156834Y54393D01*
X156722Y54363D01*
X155959Y53922D01*
X155336Y53299D01*
X154895Y52536D01*
X154667Y51685D01*
Y50804D01*
X154895Y49953D01*
X155336Y49189D01*
X155959Y48566D01*
X156722Y48126D01*
X157573Y47898D01*
X158168D01*
X158461Y47201D01*
X156445Y45184D01*
X154761Y45882D01*
X152859Y46260D01*
X150920D01*
X149019Y45882D01*
X147228Y45140D01*
X145615Y44063D01*
X144245Y42692D01*
X143167Y41080D01*
X142426Y39288D01*
X142047Y37387D01*
Y35448D01*
X142426Y33546D01*
X143167Y31755D01*
X144245Y30143D01*
X145615Y28772D01*
X147228Y27695D01*
X149019Y26953D01*
X150920Y26575D01*
X152859D01*
X154761Y26953D01*
X156552Y27695D01*
X158164Y28772D01*
X159535Y30143D01*
X160612Y31755D01*
X161354Y33546D01*
X161533Y34446D01*
X162247D01*
X162425Y33546D01*
X163167Y31755D01*
X164245Y30143D01*
X165615Y28772D01*
X167228Y27695D01*
X169019Y26953D01*
X170920Y26575D01*
X172859D01*
X174761Y26953D01*
X176552Y27695D01*
X178164Y28772D01*
X179535Y30143D01*
X180612Y31755D01*
X181354Y33546D01*
X182047Y33443D01*
Y26575D01*
X201732D01*
Y46260D01*
X189668D01*
X189320Y46960D01*
X189516Y47219D01*
X214567D01*
X215338Y47320D01*
X216056Y47618D01*
X216673Y48091D01*
X227500Y58918D01*
X227500Y58918D01*
X227973Y59535D01*
X228270Y60253D01*
X228372Y61024D01*
Y75980D01*
X228890Y76378D01*
X229771D01*
X230622Y76606D01*
X231385Y77047D01*
X232009Y77670D01*
X232449Y78433D01*
X232677Y79284D01*
Y79388D01*
X233369Y79409D01*
X233597Y78557D01*
X234037Y77794D01*
X234660Y77171D01*
X235423Y76731D01*
X235971Y76584D01*
X236366Y75954D01*
X236391Y75803D01*
X236297Y75574D01*
X236195Y74803D01*
Y62558D01*
X236055Y62315D01*
X235827Y61464D01*
Y60583D01*
X236055Y59732D01*
X236495Y58969D01*
X237119Y58346D01*
X237882Y57905D01*
X238733Y57677D01*
X239614D01*
X240465Y57905D01*
X241228Y58346D01*
X241851Y58969D01*
X242292Y59732D01*
X242520Y60583D01*
Y61464D01*
X242292Y62315D01*
X242151Y62558D01*
Y73570D01*
X273648Y105066D01*
X274208Y104636D01*
X273866Y104044D01*
X273638Y103192D01*
Y102311D01*
X273866Y101460D01*
X274306Y100697D01*
X274929Y100074D01*
X275693Y99634D01*
X276544Y99405D01*
X277425D01*
X278276Y99634D01*
X279039Y100074D01*
X279662Y100697D01*
X280103Y101460D01*
X280331Y102311D01*
Y103192D01*
X280103Y104044D01*
X279662Y104807D01*
X279039Y105430D01*
X278276Y105870D01*
X277425Y106098D01*
X276544D01*
X275693Y105870D01*
X275100Y105528D01*
X274671Y106089D01*
X278281Y109699D01*
X322284D01*
X322527Y109559D01*
X323378Y109331D01*
X324259D01*
X325111Y109559D01*
X325874Y109999D01*
X326497Y110622D01*
X326937Y111386D01*
X327165Y112237D01*
Y113118D01*
X327026Y113638D01*
X327653Y114001D01*
X335277Y106377D01*
X335010Y105730D01*
X318464D01*
X318221Y105870D01*
X317370Y106098D01*
X316489D01*
X315637Y105870D01*
X314874Y105430D01*
X314251Y104807D01*
X313811Y104044D01*
X313583Y103192D01*
Y102311D01*
X313811Y101460D01*
X314251Y100697D01*
X314874Y100074D01*
X315637Y99634D01*
X316489Y99405D01*
X317370D01*
X318221Y99634D01*
X318464Y99774D01*
X492516D01*
X493287Y99875D01*
X494005Y100173D01*
X494622Y100646D01*
X502907Y108931D01*
X503593Y108627D01*
X503771Y107960D01*
X504212Y107197D01*
X504835Y106574D01*
X505598Y106134D01*
X506449Y105905D01*
X507330D01*
X508181Y106134D01*
X508424Y106274D01*
X511379D01*
X512149Y106375D01*
X512264Y106423D01*
X512661Y105829D01*
X511188Y104356D01*
X508424D01*
X508181Y104496D01*
X507330Y104724D01*
X506449D01*
X505598Y104496D01*
X504835Y104056D01*
X504212Y103433D01*
X503771Y102670D01*
X503543Y101819D01*
Y100937D01*
X503771Y100086D01*
X504212Y99323D01*
X504835Y98700D01*
X505598Y98260D01*
X506449Y98032D01*
X507330D01*
X508181Y98260D01*
X508424Y98400D01*
X512194D01*
X512481Y97835D01*
X512494Y97711D01*
X511266Y96482D01*
X508424D01*
X508181Y96622D01*
X507330Y96850D01*
X506449D01*
X505598Y96622D01*
X504835Y96182D01*
X504212Y95559D01*
X503771Y94796D01*
X503543Y93945D01*
Y93063D01*
X503771Y92212D01*
X504212Y91449D01*
X504835Y90826D01*
X505598Y90386D01*
X506449Y90158D01*
X507330D01*
X508181Y90386D01*
X508424Y90526D01*
X512500D01*
X513209Y90619D01*
X513264Y90567D01*
X513416Y89836D01*
X512188Y88608D01*
X508424D01*
X508181Y88748D01*
X507330Y88976D01*
X506449D01*
X505598Y88748D01*
X504835Y88308D01*
X504212Y87685D01*
X503771Y86922D01*
X503543Y86071D01*
Y85189D01*
X503771Y84338D01*
X504212Y83575D01*
X504835Y82952D01*
X505598Y82512D01*
X506449Y82284D01*
X507330D01*
X508181Y82512D01*
X508424Y82652D01*
X512531D01*
X512821Y81952D01*
X511604Y80734D01*
X508424D01*
X508181Y80874D01*
X507330Y81102D01*
X506449D01*
X505598Y80874D01*
X504835Y80434D01*
X504212Y79811D01*
X503771Y79048D01*
X503543Y78197D01*
Y77315D01*
X503771Y76464D01*
X504212Y75701D01*
X504835Y75078D01*
X505598Y74638D01*
X506449Y74410D01*
X507330D01*
X508181Y74638D01*
X508424Y74778D01*
X512837D01*
X513608Y74879D01*
X514326Y75177D01*
X514943Y75650D01*
X530649Y91356D01*
X530649Y91356D01*
X531122Y91973D01*
X531420Y92691D01*
X531522Y93462D01*
Y105496D01*
X532056Y105905D01*
X532937D01*
X533788Y106134D01*
X534551Y106574D01*
X535174Y107197D01*
X535614Y107960D01*
X535843Y108811D01*
Y109693D01*
X535614Y110544D01*
X535174Y111307D01*
X534551Y111930D01*
X533788Y112370D01*
X532937Y112598D01*
X532056D01*
X531522Y113008D01*
Y115973D01*
X531662Y116216D01*
X531890Y117067D01*
Y117948D01*
X531662Y118799D01*
X531221Y119563D01*
X530598Y120186D01*
X529835Y120626D01*
X529749Y120649D01*
X529713Y120783D01*
X529835Y121527D01*
X530598Y121968D01*
X531221Y122591D01*
X531662Y123354D01*
X531890Y124205D01*
Y125086D01*
X531662Y125937D01*
X531221Y126700D01*
X530598Y127323D01*
X529835Y127764D01*
X529674Y128489D01*
X529835Y128854D01*
X530598Y129295D01*
X531221Y129918D01*
X531662Y130681D01*
X531890Y131532D01*
Y132413D01*
X531662Y133264D01*
X531221Y134027D01*
X530598Y134650D01*
X529835Y135091D01*
X529740Y135431D01*
X529835Y135901D01*
X530598Y136342D01*
X531221Y136965D01*
X531662Y137728D01*
X531890Y138579D01*
Y139460D01*
X531662Y140311D01*
X531221Y141075D01*
X530598Y141698D01*
X529835Y142138D01*
X529809Y142145D01*
X529545Y142883D01*
X529835Y143346D01*
X530598Y143787D01*
X531221Y144410D01*
X531662Y145173D01*
X531890Y146024D01*
Y146905D01*
X531662Y147756D01*
X531221Y148519D01*
X530598Y149142D01*
X529835Y149583D01*
X528984Y149811D01*
X528103D01*
X527252Y149583D01*
X526488Y149142D01*
X525866Y148519D01*
X525425Y147756D01*
X525352Y147485D01*
X513194Y135327D01*
X512738Y134733D01*
X512118Y135091D01*
X511958Y135134D01*
Y135858D01*
X512118Y135901D01*
X512882Y136342D01*
X513505Y136965D01*
X513945Y137728D01*
X514173Y138579D01*
Y139460D01*
X513945Y140311D01*
X513505Y141075D01*
X512882Y141698D01*
X512118Y142138D01*
X511829Y142601D01*
X512093Y143339D01*
X512118Y143346D01*
X512882Y143787D01*
X513505Y144410D01*
X513945Y145173D01*
X514173Y146024D01*
Y146905D01*
X513945Y147756D01*
X513805Y147999D01*
Y159449D01*
X513805Y159449D01*
X513703Y160220D01*
X513406Y160938D01*
X512933Y161555D01*
X498169Y176319D01*
X497552Y176792D01*
X496834Y177089D01*
X496063Y177191D01*
X414920D01*
X414677Y177331D01*
X413826Y177559D01*
X412945D01*
X412094Y177331D01*
X411331Y176890D01*
X410708Y176267D01*
X410267Y175504D01*
X410039Y174653D01*
Y173772D01*
X410156Y173338D01*
X410023Y172770D01*
X409672Y172552D01*
X409141Y172410D01*
X408378Y171969D01*
X407755Y171346D01*
X407315Y170583D01*
X407087Y169732D01*
Y168851D01*
X407315Y168000D01*
X407755Y167237D01*
X408378Y166613D01*
X409141Y166173D01*
X409993Y165945D01*
X410874D01*
X411725Y166173D01*
X411968Y166313D01*
X448602D01*
X449216Y165613D01*
X449182Y165354D01*
X449304Y164429D01*
X449661Y163567D01*
X450229Y162827D01*
X450969Y162259D01*
X451831Y161902D01*
X452756Y161781D01*
X469976D01*
X482647Y149110D01*
Y110236D01*
X482681Y109977D01*
X482067Y109277D01*
X468347D01*
X468056Y109977D01*
X468229Y110150D01*
X468670Y110913D01*
X468898Y111764D01*
Y112645D01*
X468670Y113496D01*
X468229Y114260D01*
X467606Y114883D01*
X466843Y115323D01*
X465992Y115551D01*
X465111D01*
X464259Y115323D01*
X463496Y114883D01*
X462873Y114260D01*
X462433Y113496D01*
X462205Y112645D01*
Y111764D01*
X462433Y110913D01*
X462873Y110150D01*
X463046Y109977D01*
X462756Y109277D01*
X340801D01*
X336041Y114037D01*
X336156Y114912D01*
X336307Y114999D01*
X336930Y115622D01*
X337370Y116385D01*
X337598Y117237D01*
Y117746D01*
X338112Y118352D01*
X338244Y118412D01*
X386657D01*
Y118395D01*
X388639Y118551D01*
X390572Y119015D01*
X392408Y119776D01*
X394103Y120815D01*
X394776Y121390D01*
X394913D01*
X395764Y121618D01*
X396527Y122058D01*
X397150Y122681D01*
X397591Y123444D01*
X397819Y124296D01*
Y125177D01*
X397591Y126028D01*
X397150Y126791D01*
X396527Y127414D01*
X395764Y127855D01*
X394913Y128083D01*
X394032D01*
X393181Y127855D01*
X392418Y127414D01*
X391795Y126791D01*
X391354Y126028D01*
X391154Y125282D01*
X390744Y124946D01*
X389472Y124266D01*
X388092Y123847D01*
X386692Y123709D01*
X386657Y123714D01*
X382703D01*
X382277Y124269D01*
X382283Y124296D01*
Y125177D01*
X382055Y126028D01*
X381615Y126791D01*
X380992Y127414D01*
X380229Y127855D01*
X379378Y128083D01*
X378496D01*
X377645Y127855D01*
X376882Y127414D01*
X376856Y127387D01*
X372830D01*
X372331Y128087D01*
X372441Y128496D01*
Y129378D01*
X372213Y130229D01*
X371772Y130992D01*
X371313Y131451D01*
X371212Y131890D01*
X371313Y132328D01*
X371772Y132788D01*
X372213Y133551D01*
X372441Y134402D01*
Y135283D01*
X372273Y135911D01*
X372686Y136580D01*
X373835Y136490D01*
X373835Y136490D01*
X374535Y136514D01*
X376856D01*
X376882Y136487D01*
X377645Y136047D01*
X378496Y135819D01*
X379378D01*
X380229Y136047D01*
X380992Y136487D01*
X381615Y137111D01*
X382055Y137874D01*
X382283Y138725D01*
Y139606D01*
X382084Y140350D01*
X382416Y141050D01*
X385795D01*
X385830Y141054D01*
X387230Y140916D01*
X388610Y140498D01*
X389882Y139818D01*
X390970Y138925D01*
X390991Y138897D01*
X391126Y138762D01*
Y138725D01*
X391354Y137874D01*
X391795Y137111D01*
X392418Y136487D01*
X393181Y136047D01*
X394032Y135819D01*
X394913D01*
X395764Y136047D01*
X396527Y136487D01*
X397150Y137111D01*
X397591Y137874D01*
X397819Y138725D01*
Y139606D01*
X397591Y140457D01*
X397150Y141220D01*
X396527Y141843D01*
X395764Y142284D01*
X395344Y142396D01*
X394752Y142658D01*
X394752D01*
X393241Y143949D01*
X391546Y144988D01*
X389709Y145748D01*
X387776Y146212D01*
X385795Y146368D01*
Y146352D01*
X372252D01*
X372217Y146347D01*
X370817Y146485D01*
X369437Y146904D01*
X368165Y147584D01*
X367575Y148068D01*
X367056Y148504D01*
X366574Y148987D01*
X343937Y171623D01*
X343949Y171634D01*
X342438Y172925D01*
X340743Y173964D01*
X339602Y174436D01*
Y183071D01*
X339525Y183461D01*
X339304Y183792D01*
X338973Y184013D01*
X338583Y184090D01*
X313019D01*
X313018Y184791D01*
X314507Y186280D01*
X314751D01*
X315602Y186508D01*
X316366Y186948D01*
X316989Y187572D01*
X317429Y188335D01*
X317657Y189186D01*
Y190067D01*
X317429Y190918D01*
X317340Y191072D01*
X317745Y191772D01*
X318576D01*
X318590Y191763D01*
X319441Y191535D01*
X320322D01*
X321174Y191763D01*
X321937Y192204D01*
X322560Y192827D01*
X323000Y193590D01*
X323228Y194441D01*
Y195323D01*
X323000Y196174D01*
X322560Y196937D01*
X321937Y197560D01*
X321174Y198000D01*
X320322Y198228D01*
X319441D01*
X318590Y198000D01*
X318119Y197728D01*
X315059D01*
X314791Y198375D01*
X325052Y208636D01*
X464318D01*
X482512Y190441D01*
X483129Y189968D01*
X483847Y189671D01*
X484618Y189569D01*
X509292D01*
X509535Y189429D01*
X510386Y189201D01*
X511267D01*
X512118Y189429D01*
X512882Y189869D01*
X513505Y190492D01*
X513945Y191256D01*
X514173Y192107D01*
Y192988D01*
X513945Y193839D01*
X513505Y194602D01*
X512882Y195225D01*
X512118Y195666D01*
X511267Y195894D01*
X510386D01*
X509535Y195666D01*
X509292Y195526D01*
X485852D01*
X469404Y211974D01*
X469672Y212620D01*
X509292D01*
X509535Y212480D01*
X510386Y212252D01*
X511267D01*
X512118Y212480D01*
X512882Y212921D01*
X513505Y213544D01*
X513945Y214307D01*
X514173Y215158D01*
Y216039D01*
X513945Y216890D01*
X513505Y217653D01*
X512882Y218276D01*
X512118Y218717D01*
X511267Y218945D01*
X510386D01*
X509535Y218717D01*
X509292Y218577D01*
X321898D01*
X321898Y218577D01*
X321127Y218475D01*
X320409Y218178D01*
X319792Y217704D01*
X296406Y194318D01*
X295933Y193702D01*
X295635Y192983D01*
X295534Y192213D01*
Y173599D01*
X267590Y145655D01*
X258318D01*
X257968Y146262D01*
X258040Y146386D01*
X258268Y147237D01*
Y148118D01*
X258040Y148969D01*
X257599Y149732D01*
X257154Y150177D01*
X257599Y150622D01*
X258040Y151385D01*
X258268Y152237D01*
Y153118D01*
X258040Y153969D01*
X257599Y154732D01*
X257154Y155177D01*
X257599Y155622D01*
X258040Y156386D01*
X258268Y157237D01*
Y158118D01*
X258040Y158969D01*
X257599Y159732D01*
X256976Y160355D01*
X256213Y160796D01*
X255362Y161024D01*
X254481D01*
X253630Y160796D01*
X253387Y160655D01*
X251181D01*
X251181Y160655D01*
X250410Y160554D01*
X249692Y160256D01*
X249075Y159783D01*
X249075Y159783D01*
X238298Y149006D01*
X238041Y149027D01*
X237551Y149240D01*
X237370Y149914D01*
X236930Y150677D01*
X236307Y151300D01*
X235544Y151741D01*
X235236Y151823D01*
Y159291D01*
X231741D01*
X231473Y159938D01*
X231509Y159975D01*
X232030Y160876D01*
X232299Y161881D01*
Y161901D01*
X228346D01*
X224394D01*
Y161881D01*
X224663Y160876D01*
X225184Y159975D01*
X225220Y159938D01*
X224952Y159291D01*
X221457D01*
Y153687D01*
X220757Y153338D01*
X220506Y153527D01*
Y214005D01*
X221206Y214243D01*
X221602Y213727D01*
X222424Y213096D01*
X223382Y212700D01*
X224410Y212564D01*
X250000D01*
X251028Y212700D01*
X251986Y213096D01*
X252808Y213727D01*
X253439Y214550D01*
X253836Y215508D01*
X253971Y216535D01*
Y253937D01*
X253836Y254965D01*
X253439Y255923D01*
X252808Y256745D01*
X251986Y257376D01*
X251028Y257773D01*
X250000Y257908D01*
X225268D01*
X224977Y258608D01*
X233457Y267088D01*
X234088Y267910D01*
X234485Y268868D01*
X234621Y269896D01*
X234485Y270924D01*
X234088Y271881D01*
X233457Y272704D01*
X232635Y273335D01*
X231677Y273732D01*
X230650Y273867D01*
D02*
G37*
G36*
X98887Y202772D02*
X98610D01*
Y195382D01*
X106000D01*
Y195659D01*
X105697Y197183D01*
X105102Y198619D01*
X104239Y199911D01*
X103140Y201010D01*
X101848Y201874D01*
X100412Y202468D01*
X98887Y202772D01*
D02*
G37*
G36*
X97610D02*
X97333D01*
X95809Y202468D01*
X94373Y201874D01*
X93081Y201010D01*
X91982Y199911D01*
X91118Y198619D01*
X90524Y197183D01*
X90220Y195659D01*
Y195382D01*
X97610D01*
Y202772D01*
D02*
G37*
G36*
X106000Y194382D02*
X98610D01*
Y186992D01*
X98887D01*
X100412Y187295D01*
X101848Y187890D01*
X103140Y188753D01*
X104239Y189852D01*
X105102Y191145D01*
X105697Y192580D01*
X106000Y194105D01*
Y194382D01*
D02*
G37*
G36*
X97610D02*
X90220D01*
Y194105D01*
X90524Y192580D01*
X91118Y191145D01*
X91982Y189852D01*
X93081Y188753D01*
X94373Y187890D01*
X95809Y187295D01*
X97333Y186992D01*
X97610D01*
Y194382D01*
D02*
G37*
G36*
X327463Y191503D02*
X326582D01*
X325731Y191275D01*
X324968Y190834D01*
X324345Y190211D01*
X323904Y189448D01*
X323676Y188597D01*
Y187716D01*
X323904Y186864D01*
X324345Y186101D01*
X324968Y185478D01*
X325731Y185038D01*
X326582Y184810D01*
X327463D01*
X328314Y185038D01*
X329078Y185478D01*
X329700Y186101D01*
X330141Y186864D01*
X330369Y187716D01*
Y188597D01*
X330141Y189448D01*
X329700Y190211D01*
X329078Y190834D01*
X328314Y191275D01*
X327463Y191503D01*
D02*
G37*
G36*
X229025Y209291D02*
X227668D01*
X226337Y209027D01*
X225083Y208507D01*
X223955Y207753D01*
X222995Y206793D01*
X222241Y205665D01*
X221722Y204411D01*
X221457Y203080D01*
Y201723D01*
X221722Y200392D01*
X222241Y199138D01*
X222995Y198010D01*
X223603Y197402D01*
X222995Y196793D01*
X222241Y195665D01*
X221722Y194411D01*
X221457Y193080D01*
Y191723D01*
X221722Y190392D01*
X222241Y189138D01*
X222995Y188010D01*
X223603Y187402D01*
X222995Y186793D01*
X222241Y185665D01*
X221722Y184411D01*
X221457Y183080D01*
Y181723D01*
X221722Y180392D01*
X222241Y179138D01*
X222995Y178010D01*
X223603Y177402D01*
X222995Y176794D01*
X222241Y175665D01*
X221722Y174411D01*
X221457Y173080D01*
Y171723D01*
X221722Y170392D01*
X222241Y169138D01*
X222995Y168010D01*
X223955Y167050D01*
X225083Y166296D01*
X225539Y166107D01*
X225656Y165301D01*
X225184Y164829D01*
X224663Y163927D01*
X224394Y162922D01*
Y162901D01*
X228346D01*
X232299D01*
Y162922D01*
X232030Y163927D01*
X231509Y164829D01*
X231037Y165301D01*
X231154Y166107D01*
X231610Y166296D01*
X232738Y167050D01*
X233698Y168010D01*
X234452Y169138D01*
X234971Y170392D01*
X235236Y171723D01*
Y173080D01*
X234971Y174411D01*
X234452Y175665D01*
X233698Y176794D01*
X233090Y177402D01*
X233698Y178010D01*
X234452Y179138D01*
X234971Y180392D01*
X235236Y181723D01*
Y183080D01*
X234971Y184411D01*
X234452Y185665D01*
X233698Y186793D01*
X233090Y187402D01*
X233698Y188010D01*
X234452Y189138D01*
X234971Y190392D01*
X235236Y191723D01*
Y191904D01*
X264681D01*
X271895Y184690D01*
X271967Y184419D01*
X272408Y183656D01*
X273031Y183033D01*
X273794Y182592D01*
X274645Y182364D01*
X275526D01*
X276377Y182592D01*
X277140Y183033D01*
X277463Y183356D01*
X277473Y183346D01*
X278236Y182905D01*
X279087Y182677D01*
X279968D01*
X280819Y182905D01*
X281582Y183346D01*
X282205Y183969D01*
X282646Y184732D01*
X282874Y185583D01*
Y186464D01*
X282646Y187315D01*
X282396Y187748D01*
Y188102D01*
X282295Y188873D01*
X281997Y189591D01*
X281524Y190208D01*
X281524Y190208D01*
X269823Y201909D01*
X269206Y202382D01*
X268487Y202680D01*
X267717Y202781D01*
X235236D01*
Y203080D01*
X234971Y204411D01*
X234452Y205665D01*
X233698Y206793D01*
X232738Y207753D01*
X231610Y208507D01*
X230356Y209027D01*
X229025Y209291D01*
D02*
G37*
G36*
X240598Y162795D02*
X239717D01*
X238866Y162567D01*
X238103Y162127D01*
X237480Y161504D01*
X237039Y160740D01*
X236811Y159889D01*
Y159008D01*
X237039Y158157D01*
X237480Y157394D01*
X238103Y156771D01*
X238866Y156330D01*
X239717Y156102D01*
X240598D01*
X241449Y156330D01*
X242212Y156771D01*
X242835Y157394D01*
X243276Y158157D01*
X243504Y159008D01*
Y159889D01*
X243276Y160740D01*
X242835Y161504D01*
X242212Y162127D01*
X241449Y162567D01*
X240598Y162795D01*
D02*
G37*
G36*
X85086Y161811D02*
X84205D01*
X83354Y161583D01*
X82591Y161142D01*
X81968Y160519D01*
X81527Y159756D01*
X81299Y158905D01*
Y158024D01*
X81527Y157173D01*
X81968Y156410D01*
X82591Y155787D01*
X83354Y155346D01*
X84205Y155118D01*
X85086D01*
X85937Y155346D01*
X86700Y155787D01*
X87323Y156410D01*
X87764Y157173D01*
X87992Y158024D01*
Y158905D01*
X87764Y159756D01*
X87323Y160519D01*
X86700Y161142D01*
X85937Y161583D01*
X85086Y161811D01*
D02*
G37*
G36*
X421645Y160904D02*
X420764D01*
X419913Y160676D01*
X419150Y160235D01*
X418527Y159612D01*
X418086Y158849D01*
X417858Y157998D01*
Y157117D01*
X418086Y156266D01*
X418527Y155503D01*
X419150Y154880D01*
X419913Y154439D01*
X420764Y154211D01*
X421645D01*
X422496Y154439D01*
X423259Y154880D01*
X423882Y155503D01*
X424323Y156266D01*
X424551Y157117D01*
Y157998D01*
X424323Y158849D01*
X423882Y159612D01*
X423259Y160235D01*
X422496Y160676D01*
X421645Y160904D01*
D02*
G37*
G36*
X443354Y147047D02*
X442473D01*
X441622Y146819D01*
X440859Y146379D01*
X440236Y145756D01*
X439795Y144992D01*
X439567Y144141D01*
Y143260D01*
X439795Y142409D01*
X440236Y141646D01*
X440859Y141023D01*
X441622Y140582D01*
X442473Y140354D01*
X443354D01*
X444205Y140582D01*
X444968Y141023D01*
X445591Y141646D01*
X446032Y142409D01*
X446260Y143260D01*
Y144141D01*
X446032Y144992D01*
X445591Y145756D01*
X444968Y146379D01*
X444205Y146819D01*
X443354Y147047D01*
D02*
G37*
G36*
X58511Y145079D02*
X57630D01*
X56779Y144851D01*
X56016Y144410D01*
X55393Y143787D01*
X54953Y143024D01*
X54724Y142173D01*
Y141292D01*
X54953Y140441D01*
X55393Y139678D01*
X56016Y139054D01*
X56779Y138614D01*
X57630Y138386D01*
X58511D01*
X59363Y138614D01*
X60126Y139054D01*
X60749Y139678D01*
X61189Y140441D01*
X61417Y141292D01*
Y142173D01*
X61189Y143024D01*
X60749Y143787D01*
X60126Y144410D01*
X59363Y144851D01*
X58511Y145079D01*
D02*
G37*
G36*
X69791Y131673D02*
X68910D01*
X68059Y131445D01*
X67382Y131054D01*
X66705Y131445D01*
X65854Y131673D01*
X64973D01*
X64122Y131445D01*
X63445Y131054D01*
X62768Y131445D01*
X61917Y131673D01*
X61036D01*
X60185Y131445D01*
X59508Y131054D01*
X58831Y131445D01*
X57980Y131673D01*
X57099D01*
X56248Y131445D01*
X55571Y131054D01*
X54894Y131445D01*
X54043Y131673D01*
X53162D01*
X52311Y131445D01*
X51634Y131054D01*
X50957Y131445D01*
X50106Y131673D01*
X49225D01*
X48374Y131445D01*
X47697Y131054D01*
X47020Y131445D01*
X46169Y131673D01*
X45288D01*
X44437Y131445D01*
X43674Y131005D01*
X43051Y130382D01*
X42610Y129619D01*
X42382Y128767D01*
Y127886D01*
X42610Y127035D01*
X43001Y126358D01*
X42610Y125681D01*
X42382Y124830D01*
Y123949D01*
X42610Y123098D01*
X43001Y122421D01*
X42610Y121744D01*
X42382Y120893D01*
Y120012D01*
X42610Y119161D01*
X43001Y118484D01*
X42610Y117807D01*
X42382Y116956D01*
Y116075D01*
X42610Y115224D01*
X43051Y114461D01*
X43674Y113838D01*
X44437Y113397D01*
X45288Y113169D01*
X46169D01*
X47020Y113397D01*
X47697Y113788D01*
X48374Y113397D01*
X49225Y113169D01*
X50106D01*
X50957Y113397D01*
X51634Y113788D01*
X52311Y113397D01*
X53162Y113169D01*
X54043D01*
X54894Y113397D01*
X55571Y113788D01*
X56248Y113397D01*
X57099Y113169D01*
X57980D01*
X58831Y113397D01*
X59508Y113788D01*
X60185Y113397D01*
X61036Y113169D01*
X61917D01*
X62768Y113397D01*
X63445Y113788D01*
X64122Y113397D01*
X64973Y113169D01*
X65854D01*
X66705Y113397D01*
X67382Y113788D01*
X68059Y113397D01*
X68910Y113169D01*
X69791D01*
X70642Y113397D01*
X71319Y113788D01*
X71996Y113397D01*
X72847Y113169D01*
X73728D01*
X74579Y113397D01*
X75342Y113838D01*
X75965Y114461D01*
X76406Y115224D01*
X76634Y116075D01*
Y116956D01*
X76406Y117807D01*
X76015Y118484D01*
X76406Y119161D01*
X76634Y120012D01*
Y120893D01*
X76406Y121744D01*
X76015Y122421D01*
X76406Y123098D01*
X76634Y123949D01*
Y124830D01*
X76406Y125681D01*
X75965Y126444D01*
X75342Y127068D01*
X74579Y127508D01*
X73728Y127736D01*
X73369D01*
X72820Y127859D01*
X72697Y128408D01*
Y128767D01*
X72469Y129619D01*
X72028Y130382D01*
X71405Y131005D01*
X70642Y131445D01*
X69791Y131673D01*
D02*
G37*
G36*
X95708Y131480D02*
X94827D01*
X93976Y131252D01*
X93299Y130861D01*
X92622Y131252D01*
X91771Y131480D01*
X90890D01*
X90039Y131252D01*
X89362Y130861D01*
X88685Y131252D01*
X87834Y131480D01*
X86953D01*
X86102Y131252D01*
X85339Y130812D01*
X84716Y130189D01*
X84275Y129426D01*
X84047Y128574D01*
Y127693D01*
X84275Y126842D01*
X84666Y126165D01*
X84275Y125488D01*
X84047Y124637D01*
Y123756D01*
X84275Y122905D01*
X84716Y122142D01*
X85339Y121519D01*
X86102Y121078D01*
X86953Y120850D01*
X87834D01*
X88685Y121078D01*
X89362Y121469D01*
X90039Y121078D01*
X90890Y120850D01*
X91771D01*
X92622Y121078D01*
X93300Y121470D01*
X93976Y121079D01*
X94827Y120851D01*
X95708D01*
X96559Y121079D01*
X97322Y121520D01*
X97945Y122143D01*
X98386Y122906D01*
X98614Y123757D01*
Y124638D01*
X98386Y125489D01*
X97996Y126166D01*
X98386Y126842D01*
X98614Y127693D01*
Y128574D01*
X98386Y129426D01*
X97945Y130189D01*
X97322Y130812D01*
X96559Y131252D01*
X95708Y131480D01*
D02*
G37*
G36*
X404968Y138189D02*
X404087D01*
X403236Y137961D01*
X402473Y137520D01*
X401850Y136897D01*
X401409Y136134D01*
X401181Y135283D01*
Y134402D01*
X401409Y133551D01*
X401850Y132788D01*
X402309Y132328D01*
X402410Y131890D01*
X402309Y131451D01*
X401850Y130992D01*
X401409Y130229D01*
X401181Y129378D01*
Y128496D01*
X401409Y127645D01*
X401850Y126882D01*
X402473Y126259D01*
X403236Y125819D01*
X404087Y125591D01*
X404968D01*
X405819Y125819D01*
X406582Y126259D01*
X407205Y126882D01*
X407646Y127645D01*
X407874Y128496D01*
Y129378D01*
X407646Y130229D01*
X407205Y130992D01*
X406746Y131451D01*
X406645Y131890D01*
X406746Y132328D01*
X407205Y132788D01*
X407646Y133551D01*
X407874Y134402D01*
Y135283D01*
X407646Y136134D01*
X407205Y136897D01*
X406582Y137520D01*
X405819Y137961D01*
X404968Y138189D01*
D02*
G37*
G36*
X198819Y249637D02*
X197894Y249515D01*
X197032Y249158D01*
X196292Y248590D01*
X195724Y247850D01*
X195367Y246988D01*
X195245Y246063D01*
Y215551D01*
Y136323D01*
X175856Y116934D01*
X174891Y117126D01*
X173534D01*
X172203Y116861D01*
X170949Y116342D01*
X169821Y115588D01*
X168861Y114628D01*
X168107Y113500D01*
X167588Y112246D01*
X167323Y110915D01*
Y109558D01*
X167588Y108227D01*
X168082Y107033D01*
X167913Y106559D01*
X167792Y106333D01*
X161417D01*
X160390Y106198D01*
X159432Y105801D01*
X158609Y105170D01*
X157978Y104348D01*
X157582Y103390D01*
X157446Y102362D01*
Y76772D01*
X157582Y75744D01*
X157978Y74786D01*
X158609Y73964D01*
X159432Y73333D01*
X160390Y72936D01*
X161417Y72801D01*
X194882D01*
X195910Y72936D01*
X196867Y73333D01*
X197690Y73964D01*
X198321Y74786D01*
X198718Y75744D01*
X198853Y76772D01*
Y89567D01*
X198718Y90595D01*
X198321Y91552D01*
X197690Y92375D01*
X196867Y93006D01*
X195910Y93403D01*
X194882Y93538D01*
X186664D01*
Y102362D01*
X186529Y103390D01*
X186132Y104348D01*
X185501Y105170D01*
X184678Y105801D01*
X183721Y106198D01*
X182693Y106333D01*
X180633D01*
X180513Y106559D01*
X180343Y107033D01*
X180838Y108227D01*
X181102Y109558D01*
Y110915D01*
X180910Y111880D01*
X201346Y132315D01*
X201914Y133056D01*
X202271Y133917D01*
X202393Y134843D01*
Y215551D01*
Y246063D01*
X202271Y246988D01*
X201914Y247850D01*
X201346Y248590D01*
X200606Y249158D01*
X199744Y249515D01*
X198819Y249637D01*
D02*
G37*
G36*
X194418Y114189D02*
X194398D01*
Y110736D01*
X197850D01*
Y110757D01*
X197581Y111762D01*
X197061Y112663D01*
X196325Y113399D01*
X195423Y113920D01*
X194418Y114189D01*
D02*
G37*
G36*
X193398D02*
X193377D01*
X192372Y113920D01*
X191471Y113399D01*
X190735Y112663D01*
X190214Y111762D01*
X189945Y110757D01*
Y110736D01*
X193398D01*
Y114189D01*
D02*
G37*
G36*
X197850Y109736D02*
X194398D01*
Y106283D01*
X194418D01*
X195423Y106553D01*
X196325Y107073D01*
X197061Y107809D01*
X197581Y108711D01*
X197850Y109716D01*
Y109736D01*
D02*
G37*
G36*
X193398D02*
X189945D01*
Y109716D01*
X190214Y108711D01*
X190735Y107809D01*
X191471Y107073D01*
X192372Y106553D01*
X193377Y106283D01*
X193398D01*
Y109736D01*
D02*
G37*
G36*
X310059Y97736D02*
X309529Y97382D01*
X309340Y97460D01*
X307952Y97736D01*
X306536D01*
X305148Y97460D01*
X303841Y96918D01*
X302664Y96132D01*
X302244Y95712D01*
X301824Y96132D01*
X300647Y96918D01*
X299340Y97460D01*
X297952Y97736D01*
X296536D01*
X295148Y97460D01*
X293841Y96918D01*
X292664Y96132D01*
X291663Y95131D01*
X290877Y93955D01*
X290335Y92647D01*
X290059Y91259D01*
Y89843D01*
X290205Y89109D01*
X289581Y88661D01*
X289551Y88678D01*
X288700Y88906D01*
X287818D01*
X286967Y88678D01*
X286204Y88238D01*
X285581Y87615D01*
X285140Y86851D01*
X284912Y86000D01*
Y85119D01*
X285140Y84268D01*
X285281Y84025D01*
Y47423D01*
X280431Y42573D01*
X279745Y42878D01*
X279566Y43544D01*
X279126Y44308D01*
X278503Y44930D01*
X277740Y45371D01*
X276888Y45599D01*
X276007D01*
X275156Y45371D01*
X274393Y44930D01*
X273770Y44308D01*
X273329Y43544D01*
X273101Y42693D01*
Y41812D01*
X273329Y40961D01*
X273770Y40198D01*
X274393Y39575D01*
X275156Y39134D01*
X275823Y38956D01*
X276127Y38270D01*
X275427Y37570D01*
X275156Y37497D01*
X274393Y37056D01*
X273770Y36433D01*
X273329Y35670D01*
X273101Y34819D01*
Y33938D01*
X273329Y33087D01*
X273770Y32324D01*
X274393Y31701D01*
X275156Y31260D01*
X276007Y31032D01*
X276888D01*
X277740Y31260D01*
X278503Y31701D01*
X279126Y32324D01*
X279566Y33087D01*
X279639Y33358D01*
X290365Y44084D01*
X290365Y44084D01*
X290838Y44701D01*
X291136Y45419D01*
X291237Y46190D01*
Y84025D01*
X291377Y84268D01*
X291588Y85056D01*
X291804Y85179D01*
X292305Y85329D01*
X292664Y84970D01*
X293841Y84184D01*
X295148Y83642D01*
X296536Y83366D01*
X297952D01*
X299340Y83642D01*
X300647Y84184D01*
X301824Y84970D01*
X302244Y85390D01*
X302664Y84970D01*
X303841Y84184D01*
X305148Y83642D01*
X306536Y83366D01*
X307952D01*
X309340Y83642D01*
X309529Y83720D01*
X310059Y83366D01*
Y83366D01*
X324429D01*
Y97736D01*
X310059D01*
Y97736D01*
D02*
G37*
G36*
X28000Y102756D02*
X27119D01*
X26267Y102528D01*
X25504Y102087D01*
X24881Y101464D01*
X24441Y100701D01*
X24213Y99850D01*
Y98969D01*
X24441Y98118D01*
X24881Y97355D01*
X25504Y96732D01*
X26267Y96291D01*
X27119Y96063D01*
X28000D01*
X28851Y96291D01*
X29614Y96732D01*
X30237Y97355D01*
X30678Y98118D01*
X30906Y98969D01*
Y99850D01*
X30678Y100701D01*
X30237Y101464D01*
X29614Y102087D01*
X28851Y102528D01*
X28000Y102756D01*
D02*
G37*
G36*
X280825Y88906D02*
X279944D01*
X279093Y88678D01*
X278416Y88287D01*
X277740Y88678D01*
X276888Y88906D01*
X276007D01*
X275156Y88678D01*
X274393Y88238D01*
X273770Y87615D01*
X273329Y86851D01*
X273101Y86000D01*
Y85119D01*
X273329Y84268D01*
X273470Y84025D01*
Y74733D01*
X273571Y73962D01*
X273869Y73244D01*
X274342Y72627D01*
X277073Y69897D01*
X276975Y69537D01*
X276758Y69221D01*
X276007D01*
X275156Y68993D01*
X274393Y68553D01*
X273770Y67930D01*
X273329Y67166D01*
X273101Y66315D01*
Y65434D01*
X273329Y64583D01*
X273770Y63820D01*
X274393Y63197D01*
X275156Y62756D01*
X276007Y62528D01*
X276888D01*
X277691Y62743D01*
X277820Y62744D01*
X278391Y62357D01*
Y61519D01*
X277820Y61131D01*
X277691Y61132D01*
X276888Y61347D01*
X276007D01*
X275156Y61119D01*
X274393Y60678D01*
X273770Y60056D01*
X273329Y59292D01*
X273101Y58441D01*
Y57560D01*
X273329Y56709D01*
X273770Y55946D01*
X274393Y55323D01*
X275156Y54882D01*
X275823Y54704D01*
X276127Y54018D01*
X275427Y53318D01*
X275156Y53245D01*
X274393Y52804D01*
X273770Y52182D01*
X273329Y51418D01*
X273101Y50567D01*
Y49686D01*
X273329Y48835D01*
X273770Y48072D01*
X274393Y47449D01*
X275156Y47008D01*
X276007Y46780D01*
X276888D01*
X277740Y47008D01*
X278503Y47449D01*
X279126Y48072D01*
X279566Y48835D01*
X279639Y49106D01*
X283475Y52942D01*
X283948Y53559D01*
X284246Y54277D01*
X284347Y55048D01*
X284347Y55048D01*
Y69812D01*
X284347Y69812D01*
X284246Y70583D01*
X283948Y71301D01*
X283475Y71918D01*
X279426Y75967D01*
Y81816D01*
X279944Y82213D01*
X280825D01*
X281677Y82441D01*
X282440Y82882D01*
X283063Y83505D01*
X283503Y84268D01*
X283731Y85119D01*
Y86000D01*
X283503Y86851D01*
X283063Y87615D01*
X282440Y88238D01*
X281677Y88678D01*
X280825Y88906D01*
D02*
G37*
G36*
X323148Y61347D02*
X322267D01*
X321416Y61119D01*
X320653Y60678D01*
X320030Y60056D01*
X319589Y59292D01*
X319361Y58441D01*
Y57560D01*
X319589Y56709D01*
X320030Y55946D01*
X320653Y55323D01*
X321416Y54882D01*
X322267Y54654D01*
X323148D01*
X323999Y54882D01*
X324763Y55323D01*
X325386Y55946D01*
X325826Y56709D01*
X326054Y57560D01*
Y58441D01*
X325826Y59292D01*
X325386Y60056D01*
X324763Y60678D01*
X323999Y61119D01*
X323148Y61347D01*
D02*
G37*
G36*
X474763Y55413D02*
X473348D01*
X471959Y55137D01*
X470652Y54596D01*
X469475Y53809D01*
X469055Y53390D01*
X468635Y53809D01*
X467458Y54596D01*
X466151Y55137D01*
X464763Y55413D01*
X463347D01*
X461959Y55137D01*
X460652Y54596D01*
X459475Y53809D01*
X459055Y53390D01*
X458635Y53809D01*
X457458Y54596D01*
X456151Y55137D01*
X454763Y55413D01*
X453347D01*
X451959Y55137D01*
X450652Y54596D01*
X449475Y53809D01*
X449055Y53390D01*
X448635Y53809D01*
X447459Y54596D01*
X446151Y55137D01*
X444763Y55413D01*
X443348D01*
X441959Y55137D01*
X440652Y54596D01*
X439475Y53809D01*
X439055Y53390D01*
X438635Y53809D01*
X437459Y54596D01*
X436151Y55137D01*
X434763Y55413D01*
X433348D01*
X431959Y55137D01*
X430652Y54596D01*
X429475Y53809D01*
X428474Y52809D01*
X427688Y51632D01*
X427146Y50324D01*
X426870Y48936D01*
Y47521D01*
X427146Y46132D01*
X427688Y44825D01*
X428474Y43648D01*
X429475Y42647D01*
X430652Y41861D01*
X431959Y41319D01*
X433348Y41043D01*
X434763D01*
X436151Y41319D01*
X437459Y41861D01*
X438635Y42647D01*
X439055Y43067D01*
X439475Y42647D01*
X440652Y41861D01*
X441959Y41319D01*
X443348Y41043D01*
X444763D01*
X446151Y41319D01*
X447459Y41861D01*
X448635Y42647D01*
X449055Y43067D01*
X449475Y42647D01*
X450652Y41861D01*
X451959Y41319D01*
X453347Y41043D01*
X454763D01*
X456151Y41319D01*
X457458Y41861D01*
X458635Y42647D01*
X459055Y43067D01*
X459475Y42647D01*
X460652Y41861D01*
X461959Y41319D01*
X463347Y41043D01*
X464763D01*
X466151Y41319D01*
X467458Y41861D01*
X468635Y42647D01*
X469055Y43067D01*
X469475Y42647D01*
X470652Y41861D01*
X471959Y41319D01*
X473348Y41043D01*
X474763D01*
X476151Y41319D01*
X477458Y41861D01*
X478635Y42647D01*
X479636Y43648D01*
X480422Y44825D01*
X480483Y44970D01*
X481169Y45107D01*
X481447Y44829D01*
X482415Y44270D01*
X483496Y43980D01*
X483555D01*
Y48228D01*
Y52476D01*
X483496D01*
X482415Y52187D01*
X481447Y51628D01*
X481169Y51350D01*
X480483Y51486D01*
X480422Y51632D01*
X479636Y52809D01*
X478635Y53809D01*
X477458Y54596D01*
X476151Y55137D01*
X474763Y55413D01*
D02*
G37*
G36*
X501240D02*
X486870D01*
Y52317D01*
X486170Y51912D01*
X485695Y52187D01*
X484614Y52476D01*
X484555D01*
Y48228D01*
Y43980D01*
X484614D01*
X485695Y44270D01*
X486170Y44544D01*
X486870Y44140D01*
Y41043D01*
X501240D01*
Y55413D01*
D02*
G37*
G36*
X90333Y53868D02*
X89451D01*
X88600Y53640D01*
X87837Y53200D01*
X87214Y52577D01*
X86774Y51814D01*
X86546Y50963D01*
Y50081D01*
X86774Y49230D01*
X87214Y48467D01*
X87837Y47844D01*
X88600Y47403D01*
X89451Y47175D01*
X90333D01*
X91184Y47403D01*
X91947Y47844D01*
X92570Y48467D01*
X93010Y49230D01*
X93239Y50081D01*
Y50963D01*
X93010Y51814D01*
X92570Y52577D01*
X91947Y53200D01*
X91184Y53640D01*
X90333Y53868D01*
D02*
G37*
G36*
X358141Y65909D02*
X336487D01*
X335459Y65773D01*
X334502Y65377D01*
X333679Y64746D01*
X333048Y63923D01*
X332652Y62966D01*
X332516Y61938D01*
Y44221D01*
X332652Y43193D01*
X333048Y42236D01*
X333679Y41413D01*
X334502Y40782D01*
X335459Y40385D01*
X336487Y40250D01*
X358141D01*
X359169Y40385D01*
X360126Y40782D01*
X360949Y41413D01*
X361580Y42236D01*
X361977Y43193D01*
X362112Y44221D01*
Y61938D01*
X361977Y62966D01*
X361580Y63923D01*
X360949Y64746D01*
X360126Y65377D01*
X359169Y65773D01*
X358141Y65909D01*
D02*
G37*
G36*
X64341Y43323D02*
X64161D01*
Y36917D01*
X70567D01*
Y37097D01*
X70302Y38432D01*
X69781Y39688D01*
X69025Y40819D01*
X68063Y41781D01*
X66932Y42537D01*
X65676Y43058D01*
X64341Y43323D01*
D02*
G37*
G36*
X132570D02*
X132390D01*
Y36917D01*
X138795D01*
Y37097D01*
X138530Y38432D01*
X138009Y39688D01*
X137254Y40819D01*
X136292Y41781D01*
X135161Y42537D01*
X133904Y43058D01*
X132570Y43323D01*
D02*
G37*
G36*
X131390D02*
X131210D01*
X129876Y43058D01*
X128619Y42537D01*
X127488Y41781D01*
X126526Y40819D01*
X125770Y39688D01*
X125250Y38432D01*
X124984Y37097D01*
Y36917D01*
X131390D01*
Y43323D01*
D02*
G37*
G36*
X63161D02*
X62981D01*
X61647Y43058D01*
X60390Y42537D01*
X59259Y41781D01*
X58298Y40819D01*
X57542Y39688D01*
X57021Y38432D01*
X56756Y37097D01*
Y36917D01*
X63161D01*
Y43323D01*
D02*
G37*
G36*
X138795Y35917D02*
X132390D01*
Y29512D01*
X132570D01*
X133904Y29777D01*
X135161Y30298D01*
X136292Y31054D01*
X137254Y32015D01*
X138009Y33146D01*
X138530Y34403D01*
X138795Y35737D01*
Y35917D01*
D02*
G37*
G36*
X131390D02*
X124984D01*
Y35737D01*
X125250Y34403D01*
X125770Y33146D01*
X126526Y32015D01*
X127488Y31054D01*
X128619Y30298D01*
X129876Y29777D01*
X131210Y29512D01*
X131390D01*
Y35917D01*
D02*
G37*
G36*
X70567D02*
X64161D01*
Y29512D01*
X64341D01*
X65676Y29777D01*
X66932Y30298D01*
X68063Y31054D01*
X69025Y32015D01*
X69781Y33146D01*
X70302Y34403D01*
X70567Y35737D01*
Y35917D01*
D02*
G37*
G36*
X63161D02*
X56756D01*
Y35737D01*
X57021Y34403D01*
X57542Y33146D01*
X58298Y32015D01*
X59259Y31054D01*
X60390Y30298D01*
X61647Y29777D01*
X62981Y29512D01*
X63161D01*
Y35917D01*
D02*
G37*
G36*
X47762Y15748D02*
X46726D01*
X45724Y15480D01*
X44827Y14961D01*
X44094Y14228D01*
X43575Y13331D01*
X43307Y12329D01*
Y11293D01*
X43575Y10291D01*
X44094Y9394D01*
X44827Y8661D01*
X45724Y8142D01*
X46726Y7874D01*
X47762D01*
X48764Y8142D01*
X49661Y8661D01*
X50394Y9394D01*
X50913Y10291D01*
X51181Y11293D01*
Y12329D01*
X50913Y13331D01*
X50394Y14228D01*
X49661Y14961D01*
X48764Y15480D01*
X47762Y15748D01*
D02*
G37*
%LPD*%
G36*
X169291Y300197D02*
X126766D01*
X126578Y300897D01*
X127047Y301167D01*
X127966Y302087D01*
X128616Y303212D01*
X128953Y304468D01*
Y304618D01*
X124016D01*
X119079D01*
Y304468D01*
X119415Y303212D01*
X120065Y302087D01*
X120984Y301167D01*
X121453Y300897D01*
X121266Y300197D01*
X114955D01*
X114767Y300897D01*
X115236Y301167D01*
X116155Y302087D01*
X116805Y303212D01*
X117142Y304468D01*
Y304618D01*
X112205D01*
X107268D01*
Y304468D01*
X107604Y303212D01*
X108254Y302087D01*
X109173Y301167D01*
X109642Y300897D01*
X109455Y300197D01*
X104331D01*
Y310039D01*
X109455D01*
X109642Y309339D01*
X109173Y309069D01*
X108254Y308150D01*
X107604Y307024D01*
X107268Y305768D01*
Y305618D01*
X112205D01*
X117142D01*
Y305768D01*
X116805Y307024D01*
X116155Y308150D01*
X115236Y309069D01*
X114767Y309339D01*
X114955Y310039D01*
X116142D01*
Y309842D01*
X120925D01*
X121112Y309142D01*
X120984Y309069D01*
X120065Y308150D01*
X119415Y307024D01*
X119079Y305768D01*
Y305618D01*
X124016D01*
X128953D01*
Y305768D01*
X128616Y307024D01*
X127966Y308150D01*
X127047Y309069D01*
X126919Y309142D01*
X127107Y309842D01*
X131890D01*
Y310039D01*
X138779Y316929D01*
X169291D01*
Y300197D01*
D02*
G37*
%LPC*%
G36*
X158501Y313492D02*
X158480D01*
Y310039D01*
X161933D01*
Y310060D01*
X161664Y311065D01*
X161143Y311966D01*
X160407Y312702D01*
X159506Y313223D01*
X158501Y313492D01*
D02*
G37*
G36*
X157480D02*
X157460D01*
X156455Y313223D01*
X155553Y312702D01*
X154817Y311966D01*
X154297Y311065D01*
X154028Y310060D01*
Y310039D01*
X157480D01*
Y313492D01*
D02*
G37*
G36*
X161933Y309039D02*
X158480D01*
Y305587D01*
X158501D01*
X159506Y305856D01*
X160407Y306376D01*
X161143Y307112D01*
X161664Y308014D01*
X161933Y309019D01*
Y309039D01*
D02*
G37*
G36*
X157480D02*
X154028D01*
Y309019D01*
X154297Y308014D01*
X154817Y307112D01*
X155553Y306376D01*
X156455Y305856D01*
X157460Y305587D01*
X157480D01*
Y309039D01*
D02*
G37*
%LPD*%
G36*
X294617Y246441D02*
X262189D01*
Y266732D01*
X294617D01*
Y246441D01*
D02*
G37*
G36*
X250000Y216535D02*
X224410D01*
Y253937D01*
X250000D01*
Y216535D01*
D02*
G37*
G36*
X357629Y150433D02*
X357436Y149715D01*
X357392Y149679D01*
X354641Y150147D01*
X351803Y150306D01*
Y150289D01*
X337614D01*
X337210Y150989D01*
X337370Y151267D01*
X337598Y152119D01*
Y153000D01*
X337988Y153508D01*
X338583D01*
X338973Y153586D01*
X339304Y153807D01*
X339525Y154137D01*
X339602Y154528D01*
Y167509D01*
X339830Y167650D01*
X340302Y167759D01*
X357629Y150433D01*
D02*
G37*
G36*
X236310Y145942D02*
X236933Y145580D01*
X236811Y145126D01*
Y144245D01*
X237039Y143393D01*
X237179Y143151D01*
Y125650D01*
X236532Y125382D01*
X227396Y134519D01*
Y144685D01*
X227357Y144985D01*
X227818Y145512D01*
X232946D01*
X232960Y145504D01*
X233811Y145276D01*
X234693D01*
X235544Y145504D01*
X236305Y145943D01*
X236310Y145942D01*
D02*
G37*
G36*
X251575Y152869D02*
Y152237D01*
X251803Y151385D01*
X251968Y151100D01*
X251977Y151052D01*
X251668Y150249D01*
X251374Y150127D01*
X250757Y149654D01*
X250757Y149654D01*
X244233Y143130D01*
X243360Y143247D01*
X243276Y143393D01*
X243504Y144245D01*
Y145126D01*
X243364Y145648D01*
X250904Y153188D01*
X251575Y152869D01*
D02*
G37*
G36*
X330906Y153000D02*
Y152119D01*
X331134Y151267D01*
X331574Y150504D01*
X331650Y150428D01*
X331480Y149749D01*
X331129Y149643D01*
X329617Y148834D01*
X328293Y147748D01*
X328297Y147744D01*
X328297Y147740D01*
X327438Y146693D01*
X326799Y145498D01*
X326406Y144202D01*
X326273Y142853D01*
X326311Y142466D01*
X326304Y142329D01*
X326323Y142078D01*
X326334Y142024D01*
X326441Y140941D01*
X326849Y139596D01*
X327512Y138356D01*
X328322Y137368D01*
X328404Y137269D01*
X328828Y136899D01*
X328828Y136899D01*
X329491Y136355D01*
X329240Y135655D01*
X320334D01*
X313018Y142972D01*
Y153508D01*
X330516D01*
X330906Y153000D01*
D02*
G37*
G36*
X338903Y139858D02*
X340283Y139439D01*
X341555Y138759D01*
X342642Y137867D01*
X342664Y137838D01*
X354712Y125791D01*
X354701Y125779D01*
X356212Y124488D01*
X356375Y124388D01*
X356185Y123714D01*
X338149D01*
Y123717D01*
X337412Y123814D01*
X337370Y123969D01*
X336930Y124732D01*
X336307Y125355D01*
X335544Y125796D01*
X334693Y126024D01*
X333811D01*
X332960Y125796D01*
X332197Y125355D01*
X331574Y124732D01*
X331532Y124658D01*
X331371Y124627D01*
X330653Y124924D01*
X329882Y125025D01*
X326781D01*
X326556Y125725D01*
X326937Y126385D01*
X327165Y127237D01*
Y128118D01*
X326937Y128969D01*
X326866Y129093D01*
X327216Y129699D01*
X332717D01*
X332960Y129559D01*
X333811Y129331D01*
X334693D01*
X335544Y129559D01*
X336307Y129999D01*
X336930Y130622D01*
X337370Y131386D01*
X337598Y132237D01*
Y133118D01*
X337370Y133969D01*
X336930Y134732D01*
X336485Y135177D01*
X336930Y135622D01*
X337370Y136386D01*
X337598Y137237D01*
Y138118D01*
X337370Y138969D01*
X337185Y139291D01*
X337390Y139799D01*
X337591Y139987D01*
X338903Y139858D01*
D02*
G37*
G36*
X354419Y144831D02*
X356991Y144319D01*
X359163Y143582D01*
X359805Y143313D01*
Y143313D01*
X360400Y143005D01*
X361329Y142508D01*
X362610Y141457D01*
X363084Y140943D01*
X363084Y140943D01*
X364898Y139394D01*
X366832Y138209D01*
X366927Y137894D01*
X366916Y137396D01*
X366417Y136897D01*
X365976Y136134D01*
X365748Y135283D01*
Y134402D01*
X365976Y133551D01*
X366417Y132788D01*
X366876Y132328D01*
X366977Y131890D01*
X366876Y131451D01*
X366417Y130992D01*
X365976Y130229D01*
X365748Y129378D01*
Y128496D01*
X365858Y128087D01*
X365359Y127387D01*
X363658D01*
X363623Y127383D01*
X362223Y127521D01*
X360842Y127939D01*
X359571Y128619D01*
X358483Y129512D01*
X358461Y129540D01*
X346413Y141588D01*
X346425Y141599D01*
X344914Y142890D01*
X343219Y143929D01*
X342355Y144287D01*
X342494Y144987D01*
X351803D01*
X351882Y144997D01*
X354419Y144831D01*
D02*
G37*
G36*
X251632Y141456D02*
X251839Y141323D01*
X252243Y140622D01*
X252689Y140177D01*
X252243Y139732D01*
X251803Y138969D01*
X251575Y138118D01*
Y137237D01*
X251803Y136386D01*
X252243Y135622D01*
X252867Y134999D01*
X253630Y134559D01*
X254481Y134331D01*
X255362D01*
X256213Y134559D01*
X256456Y134699D01*
X263208D01*
X263569Y133999D01*
X263386Y133315D01*
Y132433D01*
X263614Y131582D01*
X263701Y131432D01*
X263643Y131059D01*
X263341Y130655D01*
X254921D01*
X254150Y130554D01*
X253432Y130256D01*
X252815Y129783D01*
X252815Y129783D01*
X248704Y125672D01*
X248057Y125939D01*
Y138530D01*
X251120Y141593D01*
X251632Y141456D01*
D02*
G37*
G36*
X303124Y166108D02*
Y138891D01*
X303226Y138120D01*
X303523Y137401D01*
X303996Y136785D01*
X314550Y126231D01*
X314283Y125584D01*
X268578D01*
X268174Y126284D01*
X268233Y126385D01*
X268461Y127237D01*
Y128118D01*
X268233Y128969D01*
X267921Y129508D01*
X268024Y129756D01*
X268787Y130196D01*
X269410Y130819D01*
X269851Y131582D01*
X270079Y132433D01*
Y133315D01*
X269886Y134035D01*
X270026Y134414D01*
X270296Y134795D01*
X270338Y134800D01*
X271056Y135098D01*
X271673Y135571D01*
X302477Y166376D01*
X303124Y166108D01*
D02*
G37*
G36*
X503911Y156247D02*
Y142957D01*
X504013Y142186D01*
X504311Y141468D01*
X504784Y140851D01*
X507636Y137999D01*
X507708Y137728D01*
X508149Y136965D01*
X508772Y136342D01*
X509535Y135901D01*
X509695Y135858D01*
Y135134D01*
X509535Y135091D01*
X508772Y134650D01*
X508149Y134027D01*
X507708Y133264D01*
X507480Y132413D01*
Y131532D01*
X507708Y130681D01*
X508149Y129918D01*
X508772Y129295D01*
X509535Y128854D01*
X510251Y128662D01*
Y127956D01*
X509535Y127764D01*
X509292Y127624D01*
X508504D01*
X507733Y127522D01*
X507015Y127225D01*
X506398Y126752D01*
X506398Y126752D01*
X495926Y116279D01*
X495926Y116279D01*
X490494Y110848D01*
X489794Y111138D01*
Y150591D01*
X489673Y151515D01*
X489316Y152377D01*
X488748Y153118D01*
X476199Y165666D01*
X476467Y166313D01*
X493845D01*
X503911Y156247D01*
D02*
G37*
G36*
X262054Y123999D02*
X261996Y123897D01*
X261768Y123046D01*
Y122165D01*
X261996Y121314D01*
X262436Y120551D01*
X262846Y120141D01*
X262436Y119732D01*
X261996Y118969D01*
X261768Y118118D01*
Y117237D01*
X261996Y116385D01*
X262436Y115622D01*
X262882Y115177D01*
X262436Y114732D01*
X261996Y113969D01*
X261768Y113118D01*
Y112237D01*
X261996Y111386D01*
X262436Y110622D01*
X263059Y109999D01*
X263823Y109559D01*
X264674Y109331D01*
X265555D01*
X266406Y109559D01*
X267169Y109999D01*
X267792Y110622D01*
X268233Y111386D01*
X268461Y112237D01*
Y113118D01*
X268233Y113969D01*
X267792Y114732D01*
X267347Y115177D01*
X267792Y115622D01*
X268233Y116385D01*
X268461Y117237D01*
Y118118D01*
X268244Y118927D01*
X268233Y119060D01*
X268618Y119627D01*
X314153D01*
X317425Y116355D01*
X317135Y115655D01*
X277047D01*
X276276Y115554D01*
X275558Y115256D01*
X274941Y114783D01*
X274941Y114783D01*
X240715Y80557D01*
X239934Y80766D01*
X239834Y81141D01*
X239393Y81904D01*
X238770Y82527D01*
X238007Y82968D01*
X237156Y83196D01*
X236275D01*
X235423Y82968D01*
X234660Y82527D01*
X234037Y81904D01*
X233597Y81141D01*
X233369Y80290D01*
Y80185D01*
X232677Y80165D01*
X232449Y81016D01*
X232009Y81779D01*
X231385Y82402D01*
X230622Y82843D01*
X229771Y83071D01*
X228890D01*
X228372Y83469D01*
Y85381D01*
X236358Y93366D01*
X237094D01*
X237945Y93594D01*
X238708Y94035D01*
X239331Y94658D01*
X239772Y95421D01*
X240000Y96272D01*
Y97153D01*
X239772Y98004D01*
X239331Y98767D01*
X238708Y99391D01*
X237945Y99831D01*
X237094Y100059D01*
X236213D01*
X235362Y99831D01*
X235346Y99822D01*
X235219Y99827D01*
X234558Y100175D01*
X234418Y100701D01*
X233977Y101464D01*
X233354Y102087D01*
X232814Y102399D01*
X232603Y103179D01*
X233730Y104305D01*
X239173D01*
X239944Y104407D01*
X240662Y104704D01*
X241279Y105177D01*
X251122Y115020D01*
X251122Y115020D01*
X251595Y115637D01*
X251892Y116355D01*
X251994Y117126D01*
X251994Y117126D01*
Y120538D01*
X256155Y124699D01*
X261650D01*
X262054Y123999D01*
D02*
G37*
G36*
X176584Y54393D02*
X176301Y54229D01*
X175678Y53606D01*
X175237Y52843D01*
X175009Y51992D01*
Y51111D01*
X175237Y50260D01*
X175424Y49937D01*
X175020Y49237D01*
X161731D01*
X161510Y49207D01*
X161076Y49856D01*
X161132Y49953D01*
X161360Y50804D01*
Y51685D01*
X161132Y52536D01*
X160691Y53299D01*
X160068Y53922D01*
X159305Y54363D01*
X159194Y54393D01*
X159286Y55093D01*
X176396D01*
X176584Y54393D01*
D02*
G37*
%LPC*%
G36*
X497126Y160902D02*
X496245D01*
X495394Y160674D01*
X494631Y160233D01*
X494008Y159610D01*
X493567Y158847D01*
X493339Y157996D01*
Y157115D01*
X493567Y156264D01*
X494008Y155501D01*
X494631Y154878D01*
X495394Y154437D01*
X496245Y154209D01*
X497126D01*
X497977Y154437D01*
X498740Y154878D01*
X499363Y155501D01*
X499804Y156264D01*
X500032Y157115D01*
Y157996D01*
X499804Y158847D01*
X499363Y159610D01*
X498740Y160233D01*
X497977Y160674D01*
X497126Y160902D01*
D02*
G37*
%LPD*%
G36*
X182693Y89567D02*
X194882D01*
Y76772D01*
X161417D01*
Y102362D01*
X182693D01*
Y89567D01*
D02*
G37*
G36*
X358141Y44221D02*
X336487D01*
Y61938D01*
X358141D01*
Y44221D01*
D02*
G37*
D27*
X47244Y11811D02*
D03*
X527559Y259842D02*
D03*
X11811Y220472D02*
D03*
X240158Y316122D02*
D03*
D28*
X325071Y6890D02*
D03*
D134*
X254921Y137677D02*
X269567D01*
X254921Y142677D02*
X268824D01*
X319882Y118110D02*
X327756D01*
X339567Y106299D02*
X480315D01*
X327756Y118110D02*
X339567Y106299D01*
X322946Y122047D02*
X329882D01*
X334252Y117677D01*
X319100Y132677D02*
X334252D01*
X310039Y141738D02*
X319100Y132677D01*
X254921Y127677D02*
X265114D01*
X249016Y121772D02*
X254921Y127677D01*
X281369Y55048D02*
Y69812D01*
X276448Y50127D02*
X281369Y55048D01*
X306102Y138891D02*
X322946Y122047D01*
X265114Y122606D02*
X315387D01*
X319882Y118110D01*
X495079Y169291D02*
X506890Y157480D01*
Y142957D02*
X510827Y139020D01*
X506890Y142957D02*
Y157480D01*
X496063Y174213D02*
X510827Y159449D01*
X476378Y174213D02*
X496063D01*
X510827Y146465D02*
Y159449D01*
X364173Y211614D02*
X465551D01*
X484618Y192547D02*
X510827D01*
X465551Y211614D02*
X484618Y192547D01*
X298512Y172365D02*
Y192213D01*
X321898Y215598D02*
X366094D01*
X298512Y192213D02*
X321898Y215598D01*
X302165Y170276D02*
Y189961D01*
X323819Y211614D01*
X364173D01*
X306102Y187992D02*
X312860Y194750D01*
X306102Y138891D02*
Y187992D01*
X312860Y194750D02*
X319750D01*
X187992Y50197D02*
X214567D01*
X174213Y36417D02*
X187992Y50197D01*
X171890Y36417D02*
X174213D01*
X186024Y54134D02*
X212598D01*
X178148Y46258D02*
X186024Y54134D01*
X161731Y46258D02*
X178148D01*
X214567Y50197D02*
X225394Y61024D01*
X212598Y54134D02*
X221457Y62992D01*
X249016Y117126D02*
Y121772D01*
X239173Y107283D02*
X249016Y117126D01*
X245079Y119095D02*
Y139764D01*
X237209Y111224D02*
X245079Y119095D01*
Y139764D02*
X252863Y147548D01*
X235236Y115157D02*
X240158Y120079D01*
X228346Y115157D02*
X235236D01*
X240158Y120079D02*
Y144685D01*
X225394Y61024D02*
Y86614D01*
X236503Y96562D02*
X236653Y96713D01*
X235342Y96562D02*
X236503D01*
X225394Y86614D02*
X235342Y96562D01*
X213583Y94488D02*
X230319Y111224D01*
X213583Y66063D02*
Y94488D01*
X230319Y111224D02*
X237209D01*
X209646Y68898D02*
Y96457D01*
X228346Y115157D01*
X206693Y65945D02*
X209646Y68898D01*
X209527Y62008D02*
X213583Y66063D01*
X217520Y92307D02*
X232497Y107283D01*
X211614Y58071D02*
X217520Y63976D01*
Y92307D01*
X254792Y147548D02*
X254921Y147677D01*
X252863Y147548D02*
X254792D01*
X279418Y186133D02*
X279528Y186024D01*
X279418Y186133D02*
Y188102D01*
X232010Y199803D02*
X267717D01*
X279418Y188102D01*
X265914Y194882D02*
X275086Y185711D01*
X229412Y192402D02*
X231892Y194882D01*
X265914D01*
X229412Y202402D02*
X232010Y199803D01*
X228346Y202402D02*
X229412D01*
X228346Y192402D02*
X229412D01*
X492516Y102752D02*
X507272Y117508D01*
X316929Y102752D02*
X492516D01*
X480315Y106299D02*
X490158D01*
X498032Y114173D01*
X288259Y46190D02*
Y85560D01*
X276448Y74733D02*
Y85560D01*
Y74733D02*
X281369Y69812D01*
X310039Y141738D02*
Y186024D01*
X240158Y146653D02*
X251181Y157677D01*
X240158Y144685D02*
Y146653D01*
X108268Y58071D02*
X211614D01*
X86614Y36417D02*
X108268Y58071D01*
X83661Y36417D02*
X86614D01*
X69882Y62008D02*
X209527D01*
X59084Y51210D02*
X69882Y62008D01*
X60039Y58071D02*
X67913Y65945D01*
X206693D01*
X45305Y51210D02*
X59084D01*
X46260Y58071D02*
X60039D01*
X24606Y79724D02*
X46260Y58071D01*
X64280Y69766D02*
X120079D01*
X138110Y87798D01*
Y194882D01*
X57060Y62547D02*
X64280Y69766D01*
X232497Y107283D02*
X239173D01*
X221457Y62992D02*
Y89567D01*
X231299Y99410D01*
X251181Y157677D02*
X254921D01*
X239173Y61024D02*
Y74803D01*
X277047Y112677D01*
X323819D01*
X454409Y169291D02*
X495079D01*
X511379Y109252D02*
X515300Y113173D01*
Y133221D01*
X528543Y146465D01*
X506890Y109252D02*
X511379D01*
X518701Y129177D02*
X528543Y139020D01*
X506890Y101378D02*
X512421D01*
X518701Y107658D02*
Y129177D01*
X512421Y101378D02*
X518701Y107658D01*
X451119Y169307D02*
X454393D01*
X454409Y169291D01*
X410433D02*
X451103D01*
X451119Y169307D01*
X413386Y174213D02*
X476378D01*
X276448Y34379D02*
X288259Y46190D01*
X319750Y194750D02*
X319882Y194882D01*
X310039Y186024D02*
X313976Y189961D01*
X314311Y189626D01*
X151890Y36417D02*
X161731Y46258D01*
X269567Y137677D02*
X302165Y170276D01*
X268824Y142677D02*
X298512Y172365D01*
X366094Y215598D02*
X510827D01*
X508504Y124646D02*
X510827D01*
X498032Y114173D02*
Y114173D01*
X508504Y124646D01*
X507272Y117508D02*
X510827D01*
X521654Y102658D02*
Y125083D01*
X512500Y93504D02*
X521654Y102658D01*
X506890Y93504D02*
X512500D01*
X506890Y85630D02*
X513421D01*
X524606Y96815D01*
Y115855D01*
X528543Y93462D02*
Y117508D01*
X512837Y77756D02*
X528543Y93462D01*
X506890Y77756D02*
X512837D01*
X521654Y125083D02*
X528543Y131972D01*
X524590Y115871D02*
Y119145D01*
X524606Y119161D01*
Y120709D01*
X524590Y115871D02*
X524606Y115855D01*
Y120709D02*
X528543Y124646D01*
X18701Y79724D02*
X24606D01*
D135*
X334252Y122677D02*
X335087Y121992D01*
X336040Y121483D01*
X337074Y121169D01*
X338149Y121063D01*
X330181Y145859D02*
X329608Y145148D01*
X329200Y144330D01*
X328976Y143444D01*
X328947Y142530D01*
X334477Y147638D02*
X333526Y147563D01*
X332599Y147341D01*
X331719Y146976D01*
X330906Y146478D01*
X330181Y145859D01*
X328966Y142279D02*
X329093Y141278D01*
X329439Y140331D01*
X329986Y139484D01*
X330709Y138779D01*
X330709Y138779D02*
X331488Y138181D01*
X332396Y137805D01*
X333370Y137677D01*
X344539Y139713D02*
X343812Y140372D01*
X343023Y140957D01*
X342182Y141461D01*
X341295Y141881D01*
X340371Y142211D01*
X339419Y142450D01*
X338448Y142594D01*
X337468Y142642D01*
X342063Y169748D02*
X341336Y170407D01*
X340547Y170992D01*
X339706Y171496D01*
X338819Y171916D01*
X337895Y172247D01*
X336943Y172485D01*
X335972Y172629D01*
X334992Y172677D01*
X392866Y140772D02*
X392139Y141431D01*
X391351Y142016D01*
X390509Y142520D01*
X389622Y142940D01*
X388698Y143270D01*
X387746Y143509D01*
X386775Y143653D01*
X385795Y143701D01*
X365181Y146630D02*
X365908Y145971D01*
X366697Y145386D01*
X367538Y144882D01*
X368425Y144462D01*
X369350Y144131D01*
X370302Y143893D01*
X371272Y143749D01*
X372252Y143701D01*
X364976Y142835D02*
X365698Y142167D01*
X366471Y141558D01*
X367289Y141012D01*
X368147Y140531D01*
X369041Y140119D01*
X369964Y139778D01*
X370910Y139512D01*
X371875Y139320D01*
X372852Y139204D01*
X373835Y139165D01*
X364976Y142835D02*
X364256Y143549D01*
X363479Y144202D01*
X362652Y144788D01*
X361779Y145305D01*
X360866Y145748D01*
Y145748D02*
X359908Y146140D01*
X358932Y146488D01*
X357941Y146791D01*
X356938Y147049D01*
X355924Y147260D01*
X354901Y147425D01*
X353872Y147543D01*
X352838Y147614D01*
X351803Y147638D01*
X356587Y127665D02*
X357314Y127006D01*
X358102Y126421D01*
X358944Y125917D01*
X359831Y125497D01*
X360755Y125167D01*
X361707Y124928D01*
X362678Y124784D01*
X363658Y124736D01*
X386657Y121063D02*
X387637Y121111D01*
X388608Y121255D01*
X389560Y121494D01*
X390484Y121824D01*
X391371Y122244D01*
X392213Y122748D01*
X393001Y123333D01*
X393728Y123992D01*
X338149Y121063D02*
X386657D01*
X328947Y142530D02*
X328966Y142279D01*
X334477Y147638D02*
X351803D01*
X333370Y137677D02*
X334252D01*
X344539Y139713D02*
X356587Y127665D01*
X334252Y142642D02*
X337468D01*
X342063Y169748D02*
X365181Y146630D01*
X334252Y172677D02*
X334992D01*
X392866Y140772D02*
X394472Y139165D01*
X372252Y143701D02*
X385795D01*
X373835Y139165D02*
X378937D01*
X363658Y124736D02*
X378937D01*
X393728Y123992D02*
X394472Y124736D01*
D137*
X198819Y134843D02*
Y215551D01*
X174213Y110236D02*
X198819Y134843D01*
X471457Y165354D02*
X486221Y150591D01*
Y110236D02*
Y150591D01*
X452756Y165354D02*
X471457D01*
X180118Y87598D02*
X187992D01*
Y87598D02*
X191929D01*
X198819Y215551D02*
Y246063D01*
X312617Y289470D02*
X326611Y303465D01*
D140*
X216535Y151575D02*
X223425Y144685D01*
X234637Y121293D02*
Y121662D01*
X223425Y132874D02*
X234637Y121662D01*
X223425Y132874D02*
Y144685D01*
X216535Y151575D02*
Y255782D01*
X230650Y269896D01*
X32480Y113189D02*
Y225394D01*
X45578Y94717D02*
Y100092D01*
X32480Y113189D02*
X45578Y100092D01*
X52362Y245276D02*
Y298031D01*
X32480Y225394D02*
X52362Y245276D01*
D145*
X297244Y90551D02*
D03*
X307244D02*
D03*
X434055Y48228D02*
D03*
X444055D02*
D03*
X454055D02*
D03*
X464055D02*
D03*
X474055D02*
D03*
X484055D02*
D03*
D146*
X317244Y90551D02*
D03*
D147*
X315071Y6890D02*
D03*
X305071D02*
D03*
X295071D02*
D03*
X285071D02*
D03*
X275071D02*
D03*
X228346Y202402D02*
D03*
Y192402D02*
D03*
Y182402D02*
D03*
Y172402D02*
D03*
Y162402D02*
D03*
X174213Y110236D02*
D03*
X193898D02*
D03*
X157980Y329224D02*
D03*
Y309539D02*
D03*
X16732Y252953D02*
D03*
X36417D02*
D03*
D148*
X494055Y48228D02*
D03*
D149*
X228346Y152402D02*
D03*
D150*
X240158Y286634D02*
D03*
D151*
X98110Y194882D02*
D03*
X118110D02*
D03*
X138110D02*
D03*
D152*
X191890Y36417D02*
D03*
X103661D02*
D03*
D153*
X171890D02*
D03*
X151890D02*
D03*
X131890D02*
D03*
X83661D02*
D03*
X63661D02*
D03*
D154*
X70866Y285433D02*
D03*
Y309842D02*
D03*
D155*
X52362Y298031D02*
D03*
D156*
X104724Y328346D02*
D03*
X131496Y281890D02*
D03*
X112205Y292520D02*
D03*
Y305118D02*
D03*
Y317717D02*
D03*
X124016Y292520D02*
D03*
Y305118D02*
D03*
D157*
Y317717D02*
D03*
D158*
X266732Y132874D02*
D03*
X254921Y137677D02*
D03*
Y142677D02*
D03*
X334252Y167677D02*
D03*
Y117677D02*
D03*
Y122677D02*
D03*
X265114Y127677D02*
D03*
X276984Y102752D02*
D03*
X240158Y159449D02*
D03*
X227362Y122047D02*
D03*
X216535Y140748D02*
D03*
X234252Y148622D02*
D03*
X288259Y85560D02*
D03*
X280385D02*
D03*
X322708Y58001D02*
D03*
X276448Y85560D02*
D03*
X275086Y185711D02*
D03*
X279528Y186024D02*
D03*
X421205Y157557D02*
D03*
X89892Y50522D02*
D03*
X496686Y157556D02*
D03*
X532496Y109252D02*
D03*
X528543Y146465D02*
D03*
X506890Y109252D02*
D03*
X528543Y139020D02*
D03*
X506890Y101378D02*
D03*
X334252Y142642D02*
D03*
X404528Y134843D02*
D03*
Y128937D02*
D03*
X369094D02*
D03*
Y134843D02*
D03*
X394472Y124736D02*
D03*
Y139165D02*
D03*
X378937D02*
D03*
Y124736D02*
D03*
X230650Y269896D02*
D03*
X276448Y34379D02*
D03*
Y42253D02*
D03*
Y50127D02*
D03*
Y58001D02*
D03*
Y65875D02*
D03*
X239173Y61024D02*
D03*
X323819Y112677D02*
D03*
Y127677D02*
D03*
X265114Y117677D02*
D03*
Y112677D02*
D03*
Y122606D02*
D03*
X240158Y144685D02*
D03*
X319882Y194882D02*
D03*
X314311Y189626D02*
D03*
X327023Y188156D02*
D03*
X326849Y243155D02*
D03*
X84646Y158465D02*
D03*
X58071Y141732D02*
D03*
X41339Y213583D02*
D03*
X374114Y78651D02*
D03*
X178356Y51552D02*
D03*
X158014Y51244D02*
D03*
X348425Y230315D02*
D03*
X341535D02*
D03*
X348425Y236221D02*
D03*
X341535D02*
D03*
X231299Y99410D02*
D03*
X316929Y102752D02*
D03*
X254921Y157677D02*
D03*
Y152677D02*
D03*
Y147677D02*
D03*
X334252Y137677D02*
D03*
X510827Y117508D02*
D03*
Y124646D02*
D03*
Y131972D02*
D03*
Y146465D02*
D03*
Y139020D02*
D03*
X410433Y169291D02*
D03*
X413386Y174213D02*
D03*
X506890Y93504D02*
D03*
Y85630D02*
D03*
Y77756D02*
D03*
X528543Y117508D02*
D03*
Y124646D02*
D03*
Y131972D02*
D03*
X334252Y172677D02*
D03*
Y152559D02*
D03*
X27559Y99410D02*
D03*
X8858Y104331D02*
D03*
X236715Y79849D02*
D03*
X229331Y79724D02*
D03*
X387028Y74240D02*
D03*
X334252Y132677D02*
D03*
X236653Y96713D02*
D03*
X234637Y121293D02*
D03*
X339440Y58985D02*
D03*
X343377D02*
D03*
X347314D02*
D03*
X351251D02*
D03*
X355188D02*
D03*
X339440Y55048D02*
D03*
X343377D02*
D03*
X347314D02*
D03*
X351251D02*
D03*
X355188D02*
D03*
X339440Y51111D02*
D03*
X343377D02*
D03*
X347314D02*
D03*
X351251D02*
D03*
X355188D02*
D03*
Y47174D02*
D03*
X351251D02*
D03*
X347314D02*
D03*
X343377D02*
D03*
X339440D02*
D03*
X300197Y247047D02*
D03*
X510827Y192547D02*
D03*
Y215598D02*
D03*
X486221Y110236D02*
D03*
X184055Y79724D02*
D03*
X187992D02*
D03*
X191929D02*
D03*
X184055Y83661D02*
D03*
X187992D02*
D03*
X191929D02*
D03*
X184055Y87598D02*
D03*
X187992D02*
D03*
X191929D02*
D03*
X164370Y79724D02*
D03*
X168307D02*
D03*
X172244D02*
D03*
X176181D02*
D03*
X180118D02*
D03*
X164370Y83661D02*
D03*
X168307D02*
D03*
X172244D02*
D03*
X176181D02*
D03*
X180118D02*
D03*
X168307Y95472D02*
D03*
X180118D02*
D03*
Y91535D02*
D03*
X172244D02*
D03*
X168307Y99410D02*
D03*
X164370Y91535D02*
D03*
X172244Y99410D02*
D03*
Y95472D02*
D03*
X180118Y99410D02*
D03*
X164370Y95472D02*
D03*
X176181Y99410D02*
D03*
Y95472D02*
D03*
Y91535D02*
D03*
X168307D02*
D03*
X164370Y99410D02*
D03*
X56945Y62547D02*
D03*
X45305Y51210D02*
D03*
X18701Y79724D02*
D03*
X45578Y94717D02*
D03*
X198819Y246063D02*
D03*
X247047Y250984D02*
D03*
X243110D02*
D03*
X235236D02*
D03*
X231299D02*
D03*
X239173D02*
D03*
X227362D02*
D03*
X247047Y247047D02*
D03*
X243110D02*
D03*
X235236D02*
D03*
X231299D02*
D03*
X239173D02*
D03*
X227362D02*
D03*
X239173Y243110D02*
D03*
X235236D02*
D03*
X227362D02*
D03*
X231299D02*
D03*
X239173Y239173D02*
D03*
X235236D02*
D03*
X227362D02*
D03*
X231299D02*
D03*
X239173Y235236D02*
D03*
X235236D02*
D03*
X227362D02*
D03*
X231299D02*
D03*
X239173Y231299D02*
D03*
X235236D02*
D03*
X227362D02*
D03*
X231299D02*
D03*
X247047Y227362D02*
D03*
X243110D02*
D03*
X235236D02*
D03*
X231299D02*
D03*
X239173D02*
D03*
X227362D02*
D03*
X247047Y223425D02*
D03*
X243110D02*
D03*
X235236D02*
D03*
X231299D02*
D03*
X239173D02*
D03*
X227362D02*
D03*
Y219488D02*
D03*
X239173D02*
D03*
X231299D02*
D03*
X235236D02*
D03*
X243110D02*
D03*
X247047D02*
D03*
X264764Y264764D02*
D03*
Y260827D02*
D03*
Y256890D02*
D03*
Y252953D02*
D03*
Y249016D02*
D03*
X268701Y264764D02*
D03*
Y260827D02*
D03*
Y256890D02*
D03*
Y252953D02*
D03*
Y249016D02*
D03*
X292323D02*
D03*
X288386D02*
D03*
X284449D02*
D03*
X280512D02*
D03*
X276575D02*
D03*
X272638D02*
D03*
X452756Y165354D02*
D03*
X476318Y147074D02*
D03*
X463522D02*
D03*
X478440Y123359D02*
D03*
X442913Y143701D02*
D03*
X465551Y112205D02*
D03*
X272638Y260827D02*
D03*
Y256890D02*
D03*
Y252953D02*
D03*
X276575Y260827D02*
D03*
Y256890D02*
D03*
Y252953D02*
D03*
X280512Y264764D02*
D03*
Y260827D02*
D03*
Y256890D02*
D03*
Y252953D02*
D03*
X284449Y264764D02*
D03*
Y260827D02*
D03*
Y256890D02*
D03*
Y252953D02*
D03*
X288386Y264764D02*
D03*
Y260827D02*
D03*
Y256890D02*
D03*
Y252953D02*
D03*
X292323D02*
D03*
Y256890D02*
D03*
Y260827D02*
D03*
Y264764D02*
D03*
X326611Y303465D02*
D03*
X312617Y289470D02*
D03*
X164370Y87598D02*
D03*
X168307D02*
D03*
X172244D02*
D03*
X176181D02*
D03*
X180118D02*
D03*
X45728Y124390D02*
D03*
Y128327D02*
D03*
Y120453D02*
D03*
Y116516D02*
D03*
X49665Y124390D02*
D03*
Y128327D02*
D03*
Y120453D02*
D03*
Y116516D02*
D03*
X53602Y124390D02*
D03*
Y128327D02*
D03*
Y120453D02*
D03*
Y116516D02*
D03*
X57539Y124390D02*
D03*
Y128327D02*
D03*
Y120453D02*
D03*
Y116516D02*
D03*
X73287D02*
D03*
Y120453D02*
D03*
Y124390D02*
D03*
X69350Y116516D02*
D03*
X65413D02*
D03*
X61476D02*
D03*
Y120453D02*
D03*
X65413D02*
D03*
X69350D02*
D03*
X61476Y128327D02*
D03*
Y124390D02*
D03*
X69350D02*
D03*
Y128327D02*
D03*
X65413Y124390D02*
D03*
Y128327D02*
D03*
X95268Y128134D02*
D03*
X87394Y124197D02*
D03*
X91331D02*
D03*
X95268Y124198D02*
D03*
X91331Y128134D02*
D03*
X87394D02*
D03*
X80374Y135020D02*
D03*
Y139350D02*
D03*
X76043D02*
D03*
Y135020D02*
D03*
D159*
X409737Y300667D02*
D03*
X412469Y299427D02*
D03*
X415454Y299725D02*
D03*
X417869Y301506D02*
D03*
M02*
