M48
;Layer_Color=9474304
;FILE_FORMAT=2:3
INCH,TZ
;TYPE=PLATED
T01F00S00C0.010
T02F00S00C0.012
T03F00S00C0.031
T04F00S00C0.032
T06F00S00C0.043
T07F00S00C0.051
T08F00S00C0.059
T09F00S00C0.079
;TYPE=NON_PLATED
T10F00S00C0.039
T11F00S00C0.051
%
T01
X4179Y3015
X4155Y2997
X4125Y2994
X4097Y3007
T02
X4656Y1122
X4862Y1102
X4784Y1234
X5108Y1246
Y1175
X5069Y1093
Y1014
Y935
Y856
Y778
X5325Y1093
X5285Y1175
Y1246
Y1320
X5108
X4045Y1348
Y1289
X3945Y1247
X3789
X3691Y1289
Y1348
X3343Y1327
Y1227
Y1177
X3238Y1127
Y1277
X3169Y1028
X2770
X2764Y856
X2804
X2883
X2764Y659
Y580
Y501
Y423
Y344
X3227Y580
X3394Y590
X3434
X3473
X3513
X3552
Y550
X3513
X3473
X3434
X3394
Y511
X3434
X3473
X3513
X3552
Y472
X3513
X3473
X3434
X3394
X3741Y787
X3870Y742
X2651Y1127
Y1177
Y1226
Y1277
X2667Y1329
X2346Y1213
X2274Y1220
X2313Y994
X2367Y967
X2367Y798
X2293Y797
X2392Y610
X1919Y797
X1880
X1841
Y837
X1880
X1919
Y876
X1880
X1841
X1801Y876
Y837
Y797
X1762
X1722
X1683
X1644
Y837
Y876
X1683
Y837
X1722
X1762
Y876
X1722
Y915
Y955
X1683
Y915
X1644
Y955
Y994
X1683
X1722
X1762
X1801
Y955
Y915
X1762
Y955
X1784Y516
X1580Y512
X899Y505
X569Y625
X453Y512
X456Y947
X457Y1165
Y1205
Y1244
Y1283
X497
Y1244
Y1205
Y1165
X536
Y1205
Y1244
Y1283
X575
X615
Y1244
X575
Y1205
Y1165
X615
Y1205
X654
Y1165
X694
Y1205
X733
Y1165
Y1244
X694
Y1283
X654
Y1244
X760Y1350
X804
X874Y1281
Y1242
X913
Y1281
X953
Y1242
X276Y994
X89Y1043
X187Y797
X581Y1417
X760Y1394
X804
X846Y1585
X413Y2136
X1988Y2461
X2274Y2470
Y2510
X2313
X2352
X2392
X2431
X2470
Y2470
X2431
X2392
Y2431
X2352
X2352Y2470
X2313
X2313Y2431
X2274
Y2392
X2313
X2352
X2392
Y2352
X2352
X2313
X2274
Y2313
X2313
X2352
X2392
Y2274
Y2234
X2431
Y2274
X2470
Y2234
Y2195
X2431
X2392
X2352
Y2234
Y2274
X2313
Y2234
X2274
Y2274
Y2195
X2313
X2306Y2699
X2402Y1594
Y1447
X2343Y1486
X2549Y1477
Y1427
Y1377
Y1527
Y1577
X2165Y1407
X2751Y1857
X2795Y1860
X3143Y1896
X3199Y1949
X3270Y1882
X3343Y1727
Y1677
Y1526
Y1426
Y1377
X3789Y1392
X3945
X4104Y1693
X4134Y1742
X3484Y2303
Y2362
X3415
Y2303
X3268Y2432
X3002Y2470
X2923Y2490
Y2530
X2884
Y2490
X2844
Y2530
X2805
Y2490
X2766
Y2530
X2726
Y2490
X2687
X2648
Y2530
Y2569
Y2608
Y2648
X2687
Y2608
Y2569
Y2530
X2726Y2569
Y2608
X2766
Y2569
X2805
Y2608
Y2648
X2844
X2884
Y2608
X2844
Y2569
X2884
X2923
Y2608
Y2648
X3126Y2895
X4212Y1576
X4429Y1437
X4635Y1471
X4763
X4967Y1576
X5108Y1465
Y1390
X5285
Y1465
X5108Y1925
Y2156
X4528Y1654
X3266Y3035
T03
X1742Y1102
X1939
X364Y2530
X167
X1580Y3095
Y3292
T04
X2751Y69
X2851
X2951
X3051
X3151
X3251
X2283Y1524
Y1624
Y1724
Y1824
Y1924
Y2024
T06
X4341Y482
X4441
X4541
X4641
X4741
X4841
X4941
X3172Y906
X3072
X2972
T07
X1122Y2925
X1240
X1315Y2819
X1240Y3051
X1122
Y3177
X1240
X1047Y3283
T08
X1037Y364
X1319
X1519
X1719
X1919
X837
X637
T09
X981Y1949
X1181
X1381
T10
X2402Y3161
T11
X2402Y2866
M30
