G04*
G04 #@! TF.GenerationSoftware,Altium Limited,Altium Designer,24.5.2 (23)*
G04*
G04 Layer_Color=8388736*
%FSLAX25Y25*%
%MOIN*%
G70*
G04*
G04 #@! TF.SameCoordinates,8FE26F7D-864F-485A-8D9F-B4AC665C6A70*
G04*
G04*
G04 #@! TF.FilePolarity,Negative*
G04*
G01*
G75*
%ADD67R,0.04934X0.03871*%
%ADD68R,0.04343X0.04461*%
%ADD69R,0.03556X0.13910*%
%ADD70R,0.03780X0.11417*%
%ADD71R,0.05288X0.08005*%
%ADD72R,0.03150X0.04724*%
%ADD73R,0.03556X0.05131*%
%ADD74R,0.05524X0.05918*%
%ADD75C,0.04737*%
%ADD76R,0.06706X0.06706*%
%ADD77R,0.01778X0.01975*%
G04:AMPARAMS|DCode=78|XSize=106.42mil|YSize=39.5mil|CornerRadius=19.75mil|HoleSize=0mil|Usage=FLASHONLY|Rotation=90.000|XOffset=0mil|YOffset=0mil|HoleType=Round|Shape=RoundedRectangle|*
%AMROUNDEDRECTD78*
21,1,0.10642,0.00000,0,0,90.0*
21,1,0.06693,0.03950,0,0,90.0*
1,1,0.03950,0.00000,0.03347*
1,1,0.03950,0.00000,-0.03347*
1,1,0.03950,0.00000,-0.03347*
1,1,0.03950,0.00000,0.03347*
%
%ADD78ROUNDEDRECTD78*%
%ADD79R,0.05131X0.05131*%
G04:AMPARAMS|DCode=80|XSize=106.42mil|YSize=39.5mil|CornerRadius=19.75mil|HoleSize=0mil|Usage=FLASHONLY|Rotation=180.000|XOffset=0mil|YOffset=0mil|HoleType=Round|Shape=RoundedRectangle|*
%AMROUNDEDRECTD80*
21,1,0.10642,0.00000,0,0,180.0*
21,1,0.06693,0.03950,0,0,180.0*
1,1,0.03950,-0.03347,0.00000*
1,1,0.03950,0.03347,0.00000*
1,1,0.03950,0.03347,0.00000*
1,1,0.03950,-0.03347,0.00000*
%
%ADD80ROUNDEDRECTD80*%
%ADD81R,0.12611X0.08674*%
%ADD82R,0.04816X0.04501*%
%ADD83R,0.04737X0.04343*%
%ADD84R,0.01975X0.01975*%
%ADD85R,0.05918X0.05524*%
%ADD86R,0.11036X0.14973*%
%ADD87R,0.04501X0.04816*%
%ADD88R,0.06312X0.09068*%
%ADD89R,0.06706X0.04343*%
%ADD90R,0.04343X0.06706*%
%ADD91R,0.04343X0.04343*%
%ADD92R,0.02368X0.03550*%
%ADD93R,0.09461X0.04934*%
%ADD94R,0.05131X0.04737*%
%ADD95R,0.06312X0.04737*%
%ADD96R,0.08477X0.04934*%
%ADD97R,0.05013X0.09304*%
%ADD98R,0.04900X0.16700*%
%ADD99R,0.09461X0.14580*%
%ADD100R,0.09461X0.05524*%
%ADD101R,0.10642X0.13792*%
%ADD102R,0.12217X0.22060*%
%ADD103R,0.06706X0.09461*%
%ADD104R,0.09461X0.06706*%
%ADD105R,0.08661X0.08661*%
%ADD106R,0.05118X0.01575*%
%ADD107R,0.01575X0.05118*%
%ADD108R,0.09461X0.17729*%
%ADD109R,0.09776X0.05524*%
%ADD110R,0.25997X0.23635*%
%ADD111R,0.09068X0.06706*%
G04:AMPARAMS|DCode=112|XSize=61.06mil|YSize=19.72mil|CornerRadius=2.97mil|HoleSize=0mil|Usage=FLASHONLY|Rotation=270.000|XOffset=0mil|YOffset=0mil|HoleType=Round|Shape=RoundedRectangle|*
%AMROUNDEDRECTD112*
21,1,0.06106,0.01378,0,0,270.0*
21,1,0.05512,0.01972,0,0,270.0*
1,1,0.00594,-0.00689,-0.02756*
1,1,0.00594,-0.00689,0.02756*
1,1,0.00594,0.00689,0.02756*
1,1,0.00594,0.00689,-0.02756*
%
%ADD112ROUNDEDRECTD112*%
%ADD113R,0.43100X0.33500*%
%ADD114R,0.22060X0.12217*%
%ADD115R,0.17729X0.09461*%
%ADD116C,0.07874*%
%ADD117R,0.03084X0.09068*%
%ADD118R,0.02795X0.04685*%
%ADD119R,0.03347X0.04842*%
%ADD120R,0.03189X0.04685*%
%ADD121C,0.07296*%
%ADD122R,0.07296X0.07296*%
%ADD123C,0.06706*%
%ADD124R,0.07296X0.07296*%
%ADD125R,0.06706X0.06706*%
%ADD126C,0.05918*%
%ADD127C,0.14580*%
%ADD128R,0.12611X0.12611*%
%ADD129C,0.12611*%
%ADD130R,0.20485X0.08674*%
%ADD131R,0.08674X0.20485*%
%ADD132C,0.08674*%
%ADD133R,0.08674X0.08674*%
G36*
X190753Y246153D02*
X190772Y246150D01*
X191095D01*
Y245827D01*
X191098Y245808D01*
X191102Y245756D01*
Y221747D01*
X194835D01*
X194887Y221744D01*
X194906Y221740D01*
X195228D01*
Y221417D01*
X195232Y221399D01*
X195236Y221346D01*
Y215559D01*
X195232Y215507D01*
X195228Y215488D01*
Y215165D01*
X194906D01*
X194887Y215162D01*
X194835Y215158D01*
X152315D01*
X152263Y215162D01*
X152244Y215165D01*
X151921D01*
Y215488D01*
X151918Y215507D01*
X151914Y215559D01*
Y221346D01*
X151918Y221399D01*
X151921Y221417D01*
Y221740D01*
X152244D01*
X152263Y221744D01*
X152315Y221747D01*
X156048D01*
Y245756D01*
X156051Y245808D01*
X156055Y245827D01*
Y246150D01*
X156378D01*
X156396Y246153D01*
X156449Y246157D01*
X190701D01*
X190753Y246153D01*
D02*
G37*
D67*
X398937Y117205D02*
D03*
D68*
X415728Y116909D02*
D03*
D69*
X373799Y112185D02*
D03*
X424823D02*
D03*
D70*
X374114Y69803D02*
D03*
D71*
X423957Y67894D02*
D03*
D72*
X378366Y67835D02*
D03*
D73*
X382697D02*
D03*
X387028D02*
D03*
X391358D02*
D03*
X395689D02*
D03*
X400020D02*
D03*
X404350D02*
D03*
X408681D02*
D03*
D74*
X421205Y163351D02*
D03*
X254134Y216507D02*
D03*
X261614D02*
D03*
X254012Y209578D02*
D03*
X261492D02*
D03*
X326969Y193898D02*
D03*
X334449D02*
D03*
X66227Y76021D02*
D03*
X58746D02*
D03*
X428937Y170276D02*
D03*
X421457D02*
D03*
X334329Y236221D02*
D03*
X326849D02*
D03*
X341732Y264370D02*
D03*
X349213D02*
D03*
X341732Y256496D02*
D03*
X349213D02*
D03*
X341732Y248622D02*
D03*
X349213D02*
D03*
X364961Y248622D02*
D03*
X357480D02*
D03*
X364961Y256496D02*
D03*
X357480D02*
D03*
X364961Y264370D02*
D03*
X357480D02*
D03*
X349213Y293307D02*
D03*
X341732D02*
D03*
X349213Y301181D02*
D03*
X341732D02*
D03*
X349213Y309055D02*
D03*
X341732D02*
D03*
X357480Y309055D02*
D03*
X364961D02*
D03*
X357480Y301181D02*
D03*
X364961D02*
D03*
X357480Y293307D02*
D03*
X364961D02*
D03*
X181962Y295205D02*
D03*
X174481D02*
D03*
X181890Y285433D02*
D03*
X174409D02*
D03*
X428686Y163351D02*
D03*
D75*
X421205Y152400D02*
D03*
X68898Y267717D02*
D03*
X238189Y213583D02*
D03*
X32480Y99410D02*
D03*
X316929Y255906D02*
D03*
X58071Y147638D02*
D03*
X142126Y288386D02*
D03*
X240158Y316122D02*
D03*
D76*
X526575Y109252D02*
D03*
Y101378D02*
D03*
X512795Y109252D02*
D03*
Y101378D02*
D03*
X526575Y93504D02*
D03*
X512795D02*
D03*
X526575Y85630D02*
D03*
X512795D02*
D03*
Y77756D02*
D03*
X526575D02*
D03*
X327165Y6890D02*
D03*
D77*
X434744Y332035D02*
D03*
X432185D02*
D03*
X340720Y18590D02*
D03*
X338160D02*
D03*
D78*
X425591Y308465D02*
D03*
X430709D02*
D03*
Y184449D02*
D03*
X425591D02*
D03*
X387795Y308465D02*
D03*
X392913D02*
D03*
X398031D02*
D03*
X403150D02*
D03*
X408268D02*
D03*
X413386D02*
D03*
X418504D02*
D03*
X435827D02*
D03*
X440945D02*
D03*
X446063D02*
D03*
X451181D02*
D03*
X456299D02*
D03*
X461417D02*
D03*
X466536D02*
D03*
X471654D02*
D03*
X476772D02*
D03*
X481890D02*
D03*
X487008D02*
D03*
Y184449D02*
D03*
X481890D02*
D03*
X476772D02*
D03*
X471654D02*
D03*
X466536D02*
D03*
X461417D02*
D03*
X456299D02*
D03*
X451181D02*
D03*
X446063D02*
D03*
X440945D02*
D03*
X435827D02*
D03*
X418504D02*
D03*
X413386D02*
D03*
X408268D02*
D03*
X403150D02*
D03*
X398031D02*
D03*
X392913D02*
D03*
X387795D02*
D03*
D79*
X480709Y195276D02*
D03*
X472835D02*
D03*
X464961D02*
D03*
X457087D02*
D03*
X449213D02*
D03*
X440945D02*
D03*
X433465D02*
D03*
X425591D02*
D03*
X417717D02*
D03*
X409842D02*
D03*
X401968D02*
D03*
X394094D02*
D03*
X480709Y203150D02*
D03*
X472835D02*
D03*
X464961D02*
D03*
X457087D02*
D03*
X449213D02*
D03*
X441339D02*
D03*
X433465D02*
D03*
X425591D02*
D03*
X417717D02*
D03*
X409842D02*
D03*
X401968D02*
D03*
X394094D02*
D03*
X443701Y237008D02*
D03*
X437402D02*
D03*
X431102D02*
D03*
X443701Y243307D02*
D03*
X437402D02*
D03*
X431102D02*
D03*
X443701Y249606D02*
D03*
X437402D02*
D03*
X431102D02*
D03*
X443701Y255906D02*
D03*
X437402D02*
D03*
X431102D02*
D03*
D80*
X493504Y198622D02*
D03*
Y203740D02*
D03*
X381299Y198622D02*
D03*
Y203740D02*
D03*
Y208858D02*
D03*
Y213976D02*
D03*
Y219094D02*
D03*
Y224213D02*
D03*
Y229331D02*
D03*
Y234449D02*
D03*
Y239567D02*
D03*
Y244685D02*
D03*
Y249803D02*
D03*
Y254921D02*
D03*
Y260039D02*
D03*
Y265158D02*
D03*
Y270276D02*
D03*
Y275394D02*
D03*
Y280512D02*
D03*
Y285630D02*
D03*
Y290748D02*
D03*
Y295866D02*
D03*
X493504D02*
D03*
Y290748D02*
D03*
Y285630D02*
D03*
Y280512D02*
D03*
Y275394D02*
D03*
Y270276D02*
D03*
Y265158D02*
D03*
Y260039D02*
D03*
Y254921D02*
D03*
Y249803D02*
D03*
Y244685D02*
D03*
Y239567D02*
D03*
Y234449D02*
D03*
Y229331D02*
D03*
Y224213D02*
D03*
Y219094D02*
D03*
Y213976D02*
D03*
Y208858D02*
D03*
D81*
X475197Y214173D02*
D03*
X456299D02*
D03*
X437402D02*
D03*
X418504D02*
D03*
X399606D02*
D03*
X475197Y226772D02*
D03*
X456299D02*
D03*
X437402D02*
D03*
X418504D02*
D03*
X399606D02*
D03*
X475197Y240158D02*
D03*
X456299D02*
D03*
X418504Y239567D02*
D03*
X399606Y240158D02*
D03*
X475197Y252756D02*
D03*
X456299D02*
D03*
X418504D02*
D03*
X399606D02*
D03*
X475197Y266142D02*
D03*
X456299D02*
D03*
X437402D02*
D03*
X418504D02*
D03*
X399606D02*
D03*
X475197Y278740D02*
D03*
X456299D02*
D03*
X437402D02*
D03*
X418504D02*
D03*
X399606D02*
D03*
D82*
X240158Y148465D02*
D03*
Y154685D02*
D03*
X14764Y99252D02*
D03*
Y105473D02*
D03*
X20669D02*
D03*
Y99252D02*
D03*
X229331Y71024D02*
D03*
Y64803D02*
D03*
X222441Y85276D02*
D03*
Y91496D02*
D03*
X229331Y85276D02*
D03*
Y91496D02*
D03*
X236653Y85276D02*
D03*
Y91496D02*
D03*
X220472Y128583D02*
D03*
Y134803D02*
D03*
X71850Y165512D02*
D03*
Y159291D02*
D03*
X274232Y270827D02*
D03*
Y264606D02*
D03*
X332677Y316102D02*
D03*
Y309882D02*
D03*
Y303465D02*
D03*
Y297244D02*
D03*
Y290354D02*
D03*
Y284134D02*
D03*
X198819Y264606D02*
D03*
Y270827D02*
D03*
Y250827D02*
D03*
Y257047D02*
D03*
X496673Y138035D02*
D03*
Y131814D02*
D03*
X483290Y138035D02*
D03*
Y131814D02*
D03*
X470351Y138035D02*
D03*
Y131814D02*
D03*
X450019Y138035D02*
D03*
Y131814D02*
D03*
X456931Y138035D02*
D03*
Y131814D02*
D03*
D83*
X463509Y138271D02*
D03*
Y131578D02*
D03*
X443291Y131578D02*
D03*
Y138271D02*
D03*
X476880Y138271D02*
D03*
Y131578D02*
D03*
X489822Y138271D02*
D03*
Y131578D02*
D03*
D84*
X437626Y332035D02*
D03*
Y329279D02*
D03*
X429134Y332087D02*
D03*
Y329331D02*
D03*
X335677Y18590D02*
D03*
Y15834D02*
D03*
X343377Y15834D02*
D03*
Y18590D02*
D03*
D85*
X114556Y141375D02*
D03*
Y133895D02*
D03*
X78740Y158661D02*
D03*
Y166142D02*
D03*
X114556Y152565D02*
D03*
Y160046D02*
D03*
X121446Y141375D02*
D03*
Y133895D02*
D03*
X121446Y152565D02*
D03*
Y160046D02*
D03*
X279528Y244685D02*
D03*
Y237205D02*
D03*
X349409Y90354D02*
D03*
Y82874D02*
D03*
X357283Y90354D02*
D03*
Y82874D02*
D03*
X222441Y71653D02*
D03*
Y64173D02*
D03*
X227362Y135433D02*
D03*
Y127953D02*
D03*
X234685Y135433D02*
D03*
Y127953D02*
D03*
X191929Y75787D02*
D03*
Y68307D02*
D03*
X183071Y75590D02*
D03*
Y68110D02*
D03*
X147638Y262992D02*
D03*
Y270472D02*
D03*
X173228Y68110D02*
D03*
Y75590D02*
D03*
X163386D02*
D03*
Y68110D02*
D03*
D86*
X240158Y270098D02*
D03*
Y332264D02*
D03*
D87*
X522795Y117508D02*
D03*
X516575D02*
D03*
X372716Y134769D02*
D03*
X378937D02*
D03*
X400693Y134769D02*
D03*
X394472D02*
D03*
X372716Y128937D02*
D03*
X378937D02*
D03*
X400693Y128937D02*
D03*
X394472D02*
D03*
X522795Y146465D02*
D03*
X516575D02*
D03*
X522795Y139020D02*
D03*
X516575D02*
D03*
Y124646D02*
D03*
X522795D02*
D03*
Y131972D02*
D03*
X516575D02*
D03*
X83673Y56102D02*
D03*
X89892D02*
D03*
X151813Y56102D02*
D03*
X158031D02*
D03*
X172087D02*
D03*
X178307D02*
D03*
X306298Y242059D02*
D03*
X300077D02*
D03*
X306298Y236221D02*
D03*
X300077D02*
D03*
X521128Y192547D02*
D03*
X514907D02*
D03*
X521128Y215598D02*
D03*
X514907D02*
D03*
X78392Y76021D02*
D03*
X72172D02*
D03*
X45305Y68262D02*
D03*
X51525D02*
D03*
X51525Y62441D02*
D03*
X45305D02*
D03*
X45305Y56619D02*
D03*
X51525D02*
D03*
D88*
X229331Y54331D02*
D03*
X211614D02*
D03*
Y18504D02*
D03*
X229331D02*
D03*
X239173D02*
D03*
X256890D02*
D03*
Y54331D02*
D03*
X239173D02*
D03*
D89*
X259842Y177677D02*
D03*
Y172677D02*
D03*
X259842Y167677D02*
D03*
X259842Y162677D02*
D03*
Y157677D02*
D03*
Y152677D02*
D03*
Y147677D02*
D03*
Y142677D02*
D03*
Y137677D02*
D03*
Y132677D02*
D03*
X259842Y127677D02*
D03*
X259842Y122677D02*
D03*
Y117677D02*
D03*
Y112677D02*
D03*
X328740D02*
D03*
Y117677D02*
D03*
Y122677D02*
D03*
X328740Y127677D02*
D03*
X328740Y132677D02*
D03*
Y137677D02*
D03*
Y142677D02*
D03*
Y147677D02*
D03*
Y152677D02*
D03*
Y157677D02*
D03*
Y162677D02*
D03*
X328740Y167677D02*
D03*
X328740Y172677D02*
D03*
Y177677D02*
D03*
D90*
X271811Y107756D02*
D03*
X276811Y107756D02*
D03*
X281811Y107756D02*
D03*
X286811D02*
D03*
X291811Y107756D02*
D03*
X296811Y107756D02*
D03*
X301811Y107756D02*
D03*
X306811Y107756D02*
D03*
X311811D02*
D03*
X316811Y107756D02*
D03*
D91*
X282874Y154291D02*
D03*
X288386D02*
D03*
X293898D02*
D03*
X282874Y148779D02*
D03*
X288386D02*
D03*
X293898Y148779D02*
D03*
X282874Y143268D02*
D03*
X288386D02*
D03*
X293898D02*
D03*
D92*
X224012Y107677D02*
D03*
X227555D02*
D03*
X231099D02*
D03*
X234642D02*
D03*
Y112401D02*
D03*
X231099D02*
D03*
X227555D02*
D03*
X224012D02*
D03*
D93*
X450198Y337841D02*
D03*
Y326227D02*
D03*
X354105Y24438D02*
D03*
Y12823D02*
D03*
D94*
X443702Y332034D02*
D03*
X347609Y18631D02*
D03*
D95*
X512402Y203740D02*
D03*
X521063Y207480D02*
D03*
Y200000D02*
D03*
X512402Y226916D02*
D03*
X521063Y230656D02*
D03*
Y223175D02*
D03*
D96*
X270936Y73749D02*
D03*
Y65875D02*
D03*
Y58001D02*
D03*
Y50127D02*
D03*
Y42253D02*
D03*
Y34379D02*
D03*
Y26505D02*
D03*
Y18631D02*
D03*
X329204D02*
D03*
Y26505D02*
D03*
Y34379D02*
D03*
Y42253D02*
D03*
Y50127D02*
D03*
Y58001D02*
D03*
Y65875D02*
D03*
Y73749D02*
D03*
D97*
X186961Y271346D02*
D03*
X180268D02*
D03*
X173575D02*
D03*
X166882D02*
D03*
X160189D02*
D03*
D98*
X292520Y278350D02*
D03*
X285827D02*
D03*
X299213D02*
D03*
X305906D02*
D03*
X312598D02*
D03*
D99*
X245669Y236221D02*
D03*
D100*
X270079Y245276D02*
D03*
Y236221D02*
D03*
Y227165D02*
D03*
D101*
X172638Y199803D02*
D03*
X199409D02*
D03*
D102*
X104264Y94874D02*
D03*
X143241D02*
D03*
D103*
X39835Y126428D02*
D03*
X28024D02*
D03*
X39835Y114618D02*
D03*
X28024D02*
D03*
D104*
X144685Y152559D02*
D03*
Y140748D02*
D03*
X133858Y152559D02*
D03*
Y140748D02*
D03*
D105*
X78209Y137185D02*
D03*
D106*
X70138Y133346D02*
D03*
Y135906D02*
D03*
Y138465D02*
D03*
Y141024D02*
D03*
X86279Y138465D02*
D03*
Y135906D02*
D03*
Y133346D02*
D03*
Y141024D02*
D03*
D107*
X74370Y145256D02*
D03*
X76929D02*
D03*
X79488D02*
D03*
X82047D02*
D03*
Y129114D02*
D03*
X79488D02*
D03*
X76929D02*
D03*
X74370D02*
D03*
D108*
X88583Y94488D02*
D03*
X61024D02*
D03*
D109*
X41417Y200590D02*
D03*
Y218701D02*
D03*
D110*
X66417Y209646D02*
D03*
D111*
X9646Y79646D02*
D03*
Y89646D02*
D03*
X45472D02*
D03*
Y79646D02*
D03*
D112*
X329323Y226522D02*
D03*
X326764D02*
D03*
X324205D02*
D03*
X321646D02*
D03*
X319087D02*
D03*
X316528D02*
D03*
X313969D02*
D03*
X311410D02*
D03*
X308851D02*
D03*
X306292D02*
D03*
Y203688D02*
D03*
X308851D02*
D03*
X311410D02*
D03*
X313969D02*
D03*
X316528D02*
D03*
X319087D02*
D03*
X321646D02*
D03*
X324205D02*
D03*
X326764D02*
D03*
X329323D02*
D03*
D113*
X299213Y319094D02*
D03*
D114*
X184055Y178937D02*
D03*
Y139961D02*
D03*
D115*
X94488Y226378D02*
D03*
Y253937D02*
D03*
X125000Y226378D02*
D03*
Y253937D02*
D03*
D116*
X47244Y11811D02*
D03*
X527559Y259842D02*
D03*
X11811Y220472D02*
D03*
D117*
X446850Y113218D02*
D03*
Y65974D02*
D03*
X498032D02*
D03*
Y113218D02*
D03*
D118*
X482205Y119065D02*
D03*
D119*
X458465D02*
D03*
X468465D02*
D03*
X453465D02*
D03*
X463465D02*
D03*
X473465D02*
D03*
D120*
X478465D02*
D03*
D121*
X297244Y90551D02*
D03*
X307244D02*
D03*
X434055Y48228D02*
D03*
X444055D02*
D03*
X454055D02*
D03*
X464055D02*
D03*
X474055D02*
D03*
X484055D02*
D03*
D122*
X317244Y90551D02*
D03*
D123*
X317165Y6890D02*
D03*
X307165D02*
D03*
X297165D02*
D03*
X287165D02*
D03*
X277165D02*
D03*
X228346Y202402D02*
D03*
Y192402D02*
D03*
Y182402D02*
D03*
Y172402D02*
D03*
Y162402D02*
D03*
X174213Y110236D02*
D03*
X193898D02*
D03*
X157980Y329224D02*
D03*
Y309539D02*
D03*
X16732Y252953D02*
D03*
X36417D02*
D03*
D124*
X494055Y48228D02*
D03*
D125*
X228346Y152402D02*
D03*
D126*
X240158Y286634D02*
D03*
D127*
X98110Y194882D02*
D03*
X118110D02*
D03*
X138110D02*
D03*
D128*
X191890Y36417D02*
D03*
X103661D02*
D03*
D129*
X171890D02*
D03*
X151890D02*
D03*
X131890D02*
D03*
X83661D02*
D03*
X63661D02*
D03*
D130*
X70866Y285433D02*
D03*
Y309842D02*
D03*
D131*
X52362Y298031D02*
D03*
D132*
X104724Y328346D02*
D03*
X131496Y281890D02*
D03*
X112205Y292520D02*
D03*
Y305118D02*
D03*
Y317717D02*
D03*
X124016Y292520D02*
D03*
Y305118D02*
D03*
D133*
Y317717D02*
D03*
M02*
