G04*
G04 #@! TF.GenerationSoftware,Altium Limited,Altium Designer,24.5.2 (23)*
G04*
G04 Layer_Physical_Order=4*
G04 Layer_Color=16711680*
%FSLAX25Y25*%
%MOIN*%
G70*
G04*
G04 #@! TF.SameCoordinates,98A8DC51-4EBF-44C9-86BF-D70121EF64E5*
G04*
G04*
G04 #@! TF.FilePolarity,Positive*
G04*
G01*
G75*
%ADD42C,0.03937*%
%ADD142C,0.01320*%
%ADD143C,0.01968*%
%ADD145C,0.03150*%
%ADD146C,0.03937*%
%ADD152R,0.11811X0.11811*%
%ADD153C,0.11811*%
%ADD154R,0.07874X0.07874*%
%ADD155C,0.07874*%
%ADD156C,0.05906*%
%ADD157R,0.05906X0.05906*%
%ADD158C,0.05118*%
%ADD159C,0.13780*%
%ADD160C,0.06496*%
%ADD161R,0.06496X0.06496*%
%ADD162R,0.19685X0.07874*%
%ADD163R,0.07874X0.19685*%
%ADD164C,0.02953*%
%ADD165C,0.02756*%
%ADD166C,0.02362*%
%ADD167C,0.03150*%
%ADD168C,0.04724*%
G36*
X39370Y340312D02*
X401540D01*
Y303150D01*
X401617Y302759D01*
X401838Y302429D01*
X402169Y302208D01*
X402559Y302130D01*
X408766D01*
X408864Y302002D01*
Y301173D01*
X409079Y300372D01*
X409493Y299654D01*
X410080Y299067D01*
X410798Y298653D01*
X411599Y298438D01*
X412429D01*
X413230Y298653D01*
X413935Y299060D01*
X414148Y298936D01*
X414949Y298722D01*
X415779D01*
X416580Y298936D01*
X417298Y299351D01*
X417884Y299937D01*
X418299Y300656D01*
X418514Y301457D01*
Y302130D01*
X424213D01*
X424603Y302208D01*
X424934Y302429D01*
X425155Y302759D01*
X425232Y303150D01*
Y340312D01*
X499300D01*
X499315Y340312D01*
X500000Y340312D01*
X500657Y340207D01*
X500672Y340204D01*
X501241Y339824D01*
X501622Y339254D01*
X501625Y339239D01*
X501729Y338583D01*
X501741Y338523D01*
X501741Y337883D01*
X501743Y308057D01*
X501756Y307988D01*
X501736Y307571D01*
X501920Y303834D01*
X502469Y300132D01*
X503378Y296502D01*
X504638Y292979D01*
X506238Y289597D01*
X508162Y286387D01*
X510391Y283381D01*
X512904Y280609D01*
X515677Y278096D01*
X518682Y275867D01*
X521892Y273943D01*
X525275Y272343D01*
X528798Y271082D01*
X532428Y270173D01*
X536129Y269624D01*
X537162Y269573D01*
Y181735D01*
X533465D01*
X533465Y181735D01*
Y181735D01*
X533380Y181719D01*
X531827Y181596D01*
X530231Y181213D01*
X528713Y180585D01*
X527313Y179727D01*
X526064Y178660D01*
X524998Y177411D01*
X524140Y176011D01*
X523511Y174494D01*
X523128Y172897D01*
X522999Y171260D01*
X523128Y169623D01*
X523511Y168026D01*
X524140Y166509D01*
X524998Y165109D01*
X526064Y163860D01*
X527313Y162793D01*
X528713Y161935D01*
X530231Y161307D01*
X531827Y160923D01*
X533380Y160801D01*
X533465Y160784D01*
X537162D01*
Y72948D01*
X536130Y72897D01*
X532429Y72348D01*
X528798Y71439D01*
X525275Y70178D01*
X521892Y68578D01*
X518682Y66654D01*
X515676Y64425D01*
X512903Y61912D01*
X510390Y59139D01*
X508161Y56133D01*
X506237Y52923D01*
X504637Y49540D01*
X503376Y46016D01*
X502467Y42386D01*
X501918Y38685D01*
X501734Y34947D01*
X501755Y34530D01*
X501741Y34461D01*
Y3996D01*
X501729Y3937D01*
X501729D01*
X501625Y3280D01*
X501622Y3265D01*
X501241Y2696D01*
X500672Y2315D01*
X500066Y2195D01*
X500000Y2208D01*
X362240D01*
Y33465D01*
X362162Y33855D01*
X361941Y34185D01*
X361611Y34407D01*
X361221Y34484D01*
X323819D01*
X323429Y34407D01*
X323098Y34185D01*
X322877Y33855D01*
X322799Y33465D01*
Y2208D01*
X39370D01*
X39304Y2195D01*
X38698Y2315D01*
X38129Y2696D01*
X37748Y3265D01*
X37745Y3280D01*
X37641Y3937D01*
X37641D01*
X37629Y3996D01*
Y34461D01*
X37615Y34530D01*
X37636Y34947D01*
X37452Y38685D01*
X36903Y42386D01*
X35994Y46016D01*
X34733Y49540D01*
X33133Y52923D01*
X31209Y56133D01*
X28980Y59139D01*
X26467Y61912D01*
X23694Y64425D01*
X20688Y66654D01*
X17478Y68578D01*
X14095Y70178D01*
X10572Y71439D01*
X6942Y72348D01*
X3240Y72897D01*
X2208Y72948D01*
Y160784D01*
X5906D01*
X5906Y160784D01*
Y160784D01*
X5990Y160801D01*
X7543Y160923D01*
X9139Y161307D01*
X10657Y161935D01*
X12057Y162793D01*
X13306Y163860D01*
X14372Y165109D01*
X15230Y166509D01*
X15859Y168026D01*
X16242Y169623D01*
X16371Y171260D01*
X16242Y172897D01*
X15859Y174494D01*
X15230Y176011D01*
X14372Y177411D01*
X13306Y178660D01*
X12057Y179727D01*
X10657Y180585D01*
X9139Y181213D01*
X7543Y181596D01*
X5990Y181719D01*
X5906Y181735D01*
X2196D01*
Y269571D01*
X3240Y269623D01*
X6942Y270172D01*
X10572Y271081D01*
X14095Y272342D01*
X17478Y273942D01*
X20688Y275866D01*
X23694Y278095D01*
X26467Y280608D01*
X28980Y283381D01*
X31209Y286387D01*
X33133Y289597D01*
X34733Y292980D01*
X35994Y296503D01*
X36903Y300133D01*
X37452Y303835D01*
X37636Y307573D01*
X37615Y307990D01*
X37629Y308059D01*
Y338523D01*
X37641Y338583D01*
X37641D01*
X37745Y339239D01*
X37748Y339254D01*
X38129Y339824D01*
X38698Y340205D01*
X39304Y340325D01*
X39370Y340312D01*
D02*
G37*
%LPC*%
G36*
X158501Y333177D02*
X158480D01*
Y329724D01*
X161933D01*
Y329745D01*
X161664Y330750D01*
X161143Y331651D01*
X160407Y332387D01*
X159506Y332908D01*
X158501Y333177D01*
D02*
G37*
G36*
X157480D02*
X157460D01*
X156455Y332908D01*
X155553Y332387D01*
X154817Y331651D01*
X154297Y330750D01*
X154028Y329745D01*
Y329724D01*
X157480D01*
Y333177D01*
D02*
G37*
G36*
X97500Y333283D02*
X97350D01*
Y328847D01*
X101787D01*
Y328996D01*
X101451Y330252D01*
X100801Y331378D01*
X99882Y332297D01*
X98756Y332947D01*
X97500Y333283D01*
D02*
G37*
G36*
X96350D02*
X96200D01*
X94945Y332947D01*
X93819Y332297D01*
X92900Y331378D01*
X92250Y330252D01*
X91913Y328996D01*
Y328847D01*
X96350D01*
Y333283D01*
D02*
G37*
G36*
X161933Y328724D02*
X158480D01*
Y325272D01*
X158501D01*
X159506Y325541D01*
X160407Y326061D01*
X161143Y326797D01*
X161664Y327699D01*
X161933Y328704D01*
Y328724D01*
D02*
G37*
G36*
X157480D02*
X154028D01*
Y328704D01*
X154297Y327699D01*
X154817Y326797D01*
X155553Y326061D01*
X156455Y325541D01*
X157460Y325272D01*
X157480D01*
Y328724D01*
D02*
G37*
G36*
X96350Y327847D02*
X91913D01*
Y327696D01*
X92250Y326441D01*
X92900Y325315D01*
X93819Y324396D01*
X94945Y323746D01*
X96200Y323409D01*
X96350D01*
Y327847D01*
D02*
G37*
G36*
X240548Y319091D02*
X239767D01*
X239012Y318888D01*
X238335Y318497D01*
X237782Y317945D01*
X237391Y317268D01*
X237189Y316513D01*
Y315731D01*
X237391Y314976D01*
X237782Y314299D01*
X238335Y313747D01*
X239012Y313356D01*
X239767Y313154D01*
X240548D01*
X241303Y313356D01*
X241980Y313747D01*
X242533Y314299D01*
X242924Y314976D01*
X243126Y315731D01*
Y316513D01*
X242924Y317268D01*
X242533Y317945D01*
X241980Y318497D01*
X241303Y318888D01*
X240548Y319091D01*
D02*
G37*
G36*
X81709Y314779D02*
X71366D01*
Y310343D01*
X81709D01*
Y314779D01*
D02*
G37*
G36*
Y309343D02*
X71366D01*
Y304906D01*
X81709D01*
Y309343D01*
D02*
G37*
G36*
X326611Y307038D02*
X326379Y307008D01*
X326145D01*
X325919Y306947D01*
X325687Y306917D01*
X325470Y306827D01*
X325244Y306766D01*
X325041Y306649D01*
X324825Y306560D01*
X324639Y306417D01*
X324436Y306300D01*
X324270Y306134D01*
X324084Y305992D01*
X310090Y291997D01*
X309947Y291811D01*
X309782Y291646D01*
X309664Y291443D01*
X309522Y291257D01*
X309432Y291040D01*
X309315Y290838D01*
X309254Y290611D01*
X309165Y290395D01*
X309134Y290163D01*
X309074Y289936D01*
Y289702D01*
X309043Y289470D01*
X309074Y289238D01*
Y289003D01*
X309134Y288777D01*
X309165Y288545D01*
X309254Y288329D01*
X309315Y288102D01*
X309432Y287899D01*
X309522Y287683D01*
X309664Y287497D01*
X309782Y287294D01*
X309947Y287129D01*
X310090Y286943D01*
X310276Y286800D01*
X310441Y286635D01*
X310644Y286518D01*
X310830Y286375D01*
X311046Y286285D01*
X311249Y286168D01*
X311475Y286107D01*
X311692Y286018D01*
X311924Y285987D01*
X312150Y285927D01*
X312385D01*
X312617Y285896D01*
X312849Y285927D01*
X313083D01*
X313310Y285987D01*
X313542Y286018D01*
X313758Y286107D01*
X313984Y286168D01*
X314187Y286285D01*
X314404Y286375D01*
X314590Y286518D01*
X314792Y286635D01*
X314958Y286800D01*
X315144Y286943D01*
X329139Y300937D01*
X329281Y301123D01*
X329447Y301289D01*
X329564Y301492D01*
X329707Y301678D01*
X329796Y301894D01*
X329913Y302097D01*
X329974Y302323D01*
X330064Y302540D01*
X330094Y302772D01*
X330155Y302998D01*
Y303232D01*
X330185Y303465D01*
X330155Y303697D01*
Y303931D01*
X330094Y304157D01*
X330064Y304390D01*
X329974Y304606D01*
X329913Y304832D01*
X329796Y305035D01*
X329707Y305252D01*
X329564Y305437D01*
X329447Y305640D01*
X329281Y305806D01*
X329139Y305992D01*
X328953Y306134D01*
X328787Y306300D01*
X328584Y306417D01*
X328398Y306560D01*
X328182Y306649D01*
X327979Y306766D01*
X327753Y306827D01*
X327537Y306917D01*
X327304Y306947D01*
X327078Y307008D01*
X326844D01*
X326611Y307038D01*
D02*
G37*
G36*
X240626Y290193D02*
X239689D01*
X238784Y289950D01*
X237972Y289482D01*
X237310Y288819D01*
X236841Y288008D01*
X236598Y287102D01*
Y286165D01*
X236841Y285260D01*
X237310Y284449D01*
X237972Y283786D01*
X238784Y283317D01*
X239689Y283075D01*
X240626D01*
X241531Y283317D01*
X242343Y283786D01*
X243005Y284449D01*
X243474Y285260D01*
X243717Y286165D01*
Y287102D01*
X243474Y288008D01*
X243005Y288819D01*
X242343Y289482D01*
X241531Y289950D01*
X240626Y290193D01*
D02*
G37*
G36*
X124272Y286827D02*
X124122D01*
Y282390D01*
X128559D01*
Y282540D01*
X128223Y283795D01*
X127573Y284921D01*
X126653Y285840D01*
X125528Y286490D01*
X124272Y286827D01*
D02*
G37*
G36*
X101787Y327847D02*
X97350D01*
Y323409D01*
X97500D01*
X98044Y323555D01*
X98406Y322927D01*
X98215Y322736D01*
X97353Y321446D01*
X96759Y320013D01*
X96457Y318492D01*
Y316941D01*
X96759Y315420D01*
X97353Y313987D01*
X98215Y312697D01*
X99026Y311886D01*
X99231Y311417D01*
X99026Y310949D01*
X98215Y310138D01*
X97353Y308848D01*
X96759Y307415D01*
X96457Y305894D01*
Y304343D01*
X96759Y302821D01*
X97353Y301388D01*
X98215Y300099D01*
X99026Y299287D01*
X99231Y298819D01*
X99026Y298351D01*
X98215Y297539D01*
X97353Y296249D01*
X96759Y294816D01*
X96457Y293295D01*
Y291744D01*
X96759Y290223D01*
X97353Y288790D01*
X98215Y287500D01*
X99311Y286403D01*
X100601Y285542D01*
X102034Y284948D01*
X103555Y284646D01*
X105106D01*
X106628Y284948D01*
X108061Y285542D01*
X109350Y286403D01*
X110236Y287290D01*
X111122Y286403D01*
X112412Y285542D01*
X113845Y284948D01*
X115366Y284646D01*
X116917D01*
X118438Y284948D01*
X119017Y285188D01*
X119505Y284632D01*
X119021Y283795D01*
X118685Y282540D01*
Y282390D01*
X123122D01*
Y286827D01*
X122972D01*
X122429Y286681D01*
X122066Y287309D01*
X122258Y287500D01*
X123120Y288790D01*
X123713Y290223D01*
X124016Y291744D01*
Y293295D01*
X123713Y294816D01*
X123370Y295644D01*
X123759Y296226D01*
X169291D01*
X170319Y296361D01*
X171277Y296758D01*
X172099Y297389D01*
X172730Y298211D01*
X173127Y299169D01*
X173262Y300197D01*
Y316929D01*
X173127Y317957D01*
X172730Y318915D01*
X172099Y319737D01*
X171277Y320368D01*
X170319Y320765D01*
X169291Y320900D01*
X138779D01*
X137752Y320765D01*
X136794Y320368D01*
X135972Y319737D01*
X130245Y314010D01*
X124016D01*
Y325590D01*
X108268D01*
Y325366D01*
X107568Y324899D01*
X106628Y325288D01*
X105106Y325590D01*
X103555D01*
X102034Y325288D01*
X101455Y325048D01*
X100968Y325604D01*
X101451Y326441D01*
X101787Y327696D01*
Y327847D01*
D02*
G37*
G36*
X70366Y314779D02*
X60024D01*
Y311811D01*
X44488D01*
Y284252D01*
X48391D01*
Y246920D01*
X29672Y228202D01*
X29041Y227379D01*
X28645Y226421D01*
X28509Y225394D01*
Y113189D01*
X28645Y112161D01*
X29041Y111204D01*
X29672Y110381D01*
X41607Y98447D01*
Y96501D01*
X41542Y96389D01*
X41247Y95288D01*
Y94147D01*
X41542Y93046D01*
X42112Y92058D01*
X42919Y91252D01*
X43906Y90682D01*
X45008Y90387D01*
X46148D01*
X47249Y90682D01*
X48237Y91252D01*
X49043Y92058D01*
X49613Y93046D01*
X49908Y94147D01*
Y95288D01*
X49613Y96389D01*
X49549Y96501D01*
Y100092D01*
X49413Y101119D01*
X49017Y102077D01*
X48386Y102899D01*
X36451Y114834D01*
Y223749D01*
X55170Y242468D01*
X55801Y243290D01*
X56198Y244248D01*
X56333Y245276D01*
Y284252D01*
X57087D01*
Y277559D01*
X84646D01*
Y293307D01*
X60236D01*
Y304906D01*
X70366D01*
Y309842D01*
Y314779D01*
D02*
G37*
G36*
X128559Y281390D02*
X124122D01*
Y276953D01*
X124272D01*
X125528Y277289D01*
X126653Y277939D01*
X127573Y278858D01*
X128223Y279984D01*
X128559Y281240D01*
Y281390D01*
D02*
G37*
G36*
X123122D02*
X118685D01*
Y281240D01*
X119021Y279984D01*
X119671Y278858D01*
X120591Y277939D01*
X121716Y277289D01*
X122972Y276953D01*
X123122D01*
Y281390D01*
D02*
G37*
G36*
X274733Y282892D02*
X273800D01*
X272899Y282650D01*
X272091Y282184D01*
X271431Y281524D01*
X270965Y280716D01*
X270723Y279815D01*
Y278882D01*
X270965Y277981D01*
X271431Y277173D01*
X272091Y276513D01*
X272899Y276046D01*
X273800Y275805D01*
X274733D01*
X275634Y276046D01*
X276442Y276513D01*
X277102Y277173D01*
X277568Y277981D01*
X277810Y278882D01*
Y279815D01*
X277568Y280716D01*
X277102Y281524D01*
X276442Y282184D01*
X275634Y282650D01*
X274733Y282892D01*
D02*
G37*
G36*
X528077Y263779D02*
X527041D01*
X526039Y263511D01*
X525142Y262993D01*
X524409Y262260D01*
X523890Y261362D01*
X523622Y260361D01*
Y259324D01*
X523890Y258323D01*
X524409Y257425D01*
X525142Y256692D01*
X526039Y256174D01*
X527041Y255906D01*
X528077D01*
X529079Y256174D01*
X529976Y256692D01*
X530709Y257425D01*
X531228Y258323D01*
X531496Y259324D01*
Y260361D01*
X531228Y261362D01*
X530709Y262260D01*
X529976Y262993D01*
X529079Y263511D01*
X528077Y263779D01*
D02*
G37*
G36*
X17253Y256906D02*
X17232D01*
Y253453D01*
X20685D01*
Y253473D01*
X20416Y254479D01*
X19895Y255380D01*
X19159Y256116D01*
X18258Y256636D01*
X17253Y256906D01*
D02*
G37*
G36*
X16232D02*
X16212D01*
X15207Y256636D01*
X14305Y256116D01*
X13569Y255380D01*
X13049Y254479D01*
X12779Y253473D01*
Y253453D01*
X16232D01*
Y256906D01*
D02*
G37*
G36*
X20685Y252453D02*
X17232D01*
Y249000D01*
X17253D01*
X18258Y249269D01*
X19159Y249790D01*
X19895Y250526D01*
X20416Y251427D01*
X20685Y252432D01*
Y252453D01*
D02*
G37*
G36*
X16232D02*
X12779D01*
Y252432D01*
X13049Y251427D01*
X13569Y250526D01*
X14305Y249790D01*
X15207Y249269D01*
X16212Y249000D01*
X16232D01*
Y252453D01*
D02*
G37*
G36*
X37096Y259842D02*
X35739D01*
X34408Y259578D01*
X33154Y259058D01*
X32025Y258304D01*
X31066Y257345D01*
X30312Y256216D01*
X29792Y254962D01*
X29528Y253631D01*
Y252274D01*
X29792Y250943D01*
X30312Y249689D01*
X31066Y248561D01*
X32025Y247601D01*
X33154Y246847D01*
X34408Y246328D01*
X35739Y246063D01*
X37096D01*
X38427Y246328D01*
X39681Y246847D01*
X40809Y247601D01*
X41769Y248561D01*
X42523Y249689D01*
X43042Y250943D01*
X43307Y252274D01*
Y253631D01*
X43042Y254962D01*
X42523Y256216D01*
X41769Y257345D01*
X40809Y258304D01*
X39681Y259058D01*
X38427Y259578D01*
X37096Y259842D01*
D02*
G37*
G36*
X294617Y270703D02*
X262189D01*
X261161Y270568D01*
X260204Y270171D01*
X259381Y269540D01*
X258750Y268718D01*
X258353Y267760D01*
X258218Y266732D01*
Y246441D01*
X258353Y245413D01*
X258750Y244456D01*
X259381Y243633D01*
X260204Y243002D01*
X261161Y242605D01*
X262189Y242470D01*
X294617D01*
X295644Y242605D01*
X296602Y243002D01*
X297425Y243633D01*
X297619Y243886D01*
X297779Y243897D01*
X298677Y243378D01*
X299678Y243110D01*
X300715D01*
X301716Y243378D01*
X302614Y243897D01*
X303347Y244630D01*
X303866Y245528D01*
X304134Y246529D01*
Y247566D01*
X303866Y248567D01*
X303347Y249465D01*
X302614Y250198D01*
X301716Y250716D01*
X300715Y250984D01*
X299678D01*
X299288Y250880D01*
X298588Y251417D01*
Y266732D01*
X298452Y267760D01*
X298056Y268718D01*
X297425Y269540D01*
X296602Y270171D01*
X295644Y270568D01*
X294617Y270703D01*
D02*
G37*
G36*
X327322Y247047D02*
X326286D01*
X325284Y246779D01*
X324387Y246261D01*
X323654Y245528D01*
X323135Y244630D01*
X322867Y243629D01*
Y242592D01*
X323135Y241591D01*
X323654Y240693D01*
X324387Y239960D01*
X325284Y239441D01*
X326286Y239173D01*
X327322D01*
X328324Y239441D01*
X329221Y239960D01*
X329954Y240693D01*
X330473Y241591D01*
X330741Y242592D01*
Y243629D01*
X330473Y244630D01*
X329954Y245528D01*
X329221Y246261D01*
X328324Y246779D01*
X327322Y247047D01*
D02*
G37*
G36*
X12329Y224409D02*
X11293D01*
X10291Y224141D01*
X9394Y223623D01*
X8661Y222890D01*
X8142Y221992D01*
X7874Y220991D01*
Y219954D01*
X8142Y218953D01*
X8661Y218055D01*
X9394Y217322D01*
X10291Y216804D01*
X11293Y216535D01*
X12329D01*
X13331Y216804D01*
X14228Y217322D01*
X14961Y218055D01*
X15480Y218953D01*
X15748Y219954D01*
Y220991D01*
X15480Y221992D01*
X14961Y222890D01*
X14228Y223623D01*
X13331Y224141D01*
X12329Y224409D01*
D02*
G37*
G36*
X118887Y202772D02*
X118610D01*
Y195382D01*
X126000D01*
Y195659D01*
X125697Y197183D01*
X125102Y198619D01*
X124239Y199911D01*
X123140Y201010D01*
X121847Y201874D01*
X120412Y202468D01*
X118887Y202772D01*
D02*
G37*
G36*
X117610D02*
X117333D01*
X115809Y202468D01*
X114373Y201874D01*
X113081Y201010D01*
X111982Y199911D01*
X111118Y198619D01*
X110524Y197183D01*
X110221Y195659D01*
Y195382D01*
X117610D01*
Y202772D01*
D02*
G37*
G36*
X327290Y199803D02*
X326253D01*
X325252Y199535D01*
X324354Y199016D01*
X323621Y198284D01*
X323103Y197386D01*
X322835Y196385D01*
Y195348D01*
X323103Y194346D01*
X323621Y193449D01*
X324354Y192716D01*
X325252Y192197D01*
X326253Y191929D01*
X327290D01*
X328291Y192197D01*
X329189Y192716D01*
X329922Y193449D01*
X330440Y194346D01*
X330709Y195348D01*
Y196385D01*
X330440Y197386D01*
X329922Y198284D01*
X329189Y199016D01*
X328291Y199535D01*
X327290Y199803D01*
D02*
G37*
G36*
X231299Y273656D02*
X231041Y273622D01*
X230781D01*
X230529Y273555D01*
X230272Y273521D01*
X230031Y273421D01*
X229780Y273354D01*
X229554Y273224D01*
X229314Y273124D01*
X229107Y272966D01*
X228882Y272835D01*
X228698Y272651D01*
X228491Y272493D01*
X213727Y257729D01*
X213096Y256907D01*
X212700Y255949D01*
X212564Y254921D01*
Y215551D01*
X212700Y214523D01*
X213096Y213566D01*
X213727Y212743D01*
X217486Y208985D01*
Y179919D01*
X216976Y179527D01*
X216095D01*
X215244Y179299D01*
X214481Y178859D01*
X213858Y178236D01*
X213417Y177473D01*
X213189Y176622D01*
Y175741D01*
X213417Y174889D01*
X213858Y174126D01*
X214481Y173503D01*
X215244Y173063D01*
X216095Y172835D01*
X216976D01*
X217486Y172443D01*
Y150591D01*
X217621Y149563D01*
X218018Y148605D01*
X218649Y147783D01*
X230666Y135765D01*
Y124915D01*
X230444Y124823D01*
X229966Y124689D01*
X229133Y125170D01*
X228132Y125438D01*
X227095D01*
X226094Y125170D01*
X225196Y124652D01*
X224463Y123919D01*
X223945Y123021D01*
X223676Y122020D01*
Y120983D01*
X223945Y119982D01*
X224463Y119084D01*
X225196Y118351D01*
X226094Y117833D01*
X227095Y117564D01*
X228132D01*
X229133Y117833D01*
X230031Y118351D01*
X230626Y118946D01*
X230962Y119017D01*
X231053Y119011D01*
X231469Y118906D01*
X231487Y118876D01*
X231671Y118692D01*
X231830Y118485D01*
X232036Y118326D01*
X232220Y118142D01*
X232445Y118012D01*
X232652Y117854D01*
X232892Y117754D01*
X233118Y117624D01*
X233369Y117557D01*
X233610Y117457D01*
X233868Y117423D01*
X234119Y117356D01*
X234201D01*
X234429Y116972D01*
X234468Y116674D01*
X233997Y116167D01*
X230315D01*
X230315Y116167D01*
X229544Y116066D01*
X228826Y115768D01*
X228209Y115295D01*
X228209Y115295D01*
X210492Y97578D01*
X210019Y96962D01*
X209722Y96243D01*
X209620Y95473D01*
Y71115D01*
X204475Y65970D01*
X122598D01*
X122361Y66670D01*
X122887Y67074D01*
X140918Y85106D01*
X141549Y85928D01*
X141946Y86886D01*
X142081Y87913D01*
Y184788D01*
X142266Y184848D01*
X143785Y185622D01*
X145163Y186624D01*
X146368Y187829D01*
X147370Y189207D01*
X148144Y190726D01*
X148670Y192347D01*
X148937Y194030D01*
Y195734D01*
X148670Y197417D01*
X148144Y199038D01*
X147370Y200556D01*
X146368Y201935D01*
X145163Y203140D01*
X143785Y204142D01*
X142266Y204915D01*
X140646Y205442D01*
X138962Y205709D01*
X137258D01*
X135575Y205442D01*
X133954Y204915D01*
X132436Y204142D01*
X131057Y203140D01*
X129852Y201935D01*
X128850Y200556D01*
X128077Y199038D01*
X127550Y197417D01*
X127284Y195734D01*
Y194030D01*
X127550Y192347D01*
X128077Y190726D01*
X128850Y189207D01*
X129852Y187829D01*
X131057Y186624D01*
X132436Y185622D01*
X133954Y184848D01*
X134139Y184788D01*
Y89558D01*
X118434Y73853D01*
X64280D01*
X63252Y73718D01*
X62294Y73321D01*
X61472Y72690D01*
X55398Y66616D01*
X55273Y66583D01*
X54286Y66013D01*
X53479Y65206D01*
X52909Y64219D01*
X52614Y63117D01*
Y61977D01*
X52909Y60875D01*
X53479Y59888D01*
X54286Y59082D01*
X54987Y58677D01*
X54800Y57977D01*
X50566D01*
X26712Y81830D01*
X26095Y82304D01*
X25377Y82601D01*
X24606Y82703D01*
X21847D01*
X21360Y83190D01*
X20372Y83760D01*
X19271Y84055D01*
X18131D01*
X17029Y83760D01*
X16042Y83190D01*
X15235Y82384D01*
X14665Y81396D01*
X14370Y80295D01*
Y79154D01*
X14665Y78053D01*
X15235Y77065D01*
X16042Y76259D01*
X17029Y75689D01*
X18131Y75394D01*
X19271D01*
X20372Y75689D01*
X21360Y76259D01*
X21847Y76746D01*
X23373D01*
X44116Y56003D01*
X43935Y55327D01*
X43633Y55246D01*
X42646Y54676D01*
X41840Y53870D01*
X41269Y52882D01*
X40974Y51781D01*
Y50640D01*
X41269Y49539D01*
X41840Y48551D01*
X42646Y47745D01*
X43633Y47175D01*
X44735Y46880D01*
X45875D01*
X46977Y47175D01*
X47964Y47745D01*
X48451Y48232D01*
X66958D01*
X67729Y48334D01*
X68448Y48631D01*
X69064Y49104D01*
X77021Y57061D01*
X103116D01*
X103384Y56414D01*
X98603Y51634D01*
X98129Y51017D01*
X97832Y50298D01*
X97730Y49528D01*
Y46260D01*
X95472D01*
Y46778D01*
X95204Y47780D01*
X94686Y48677D01*
X93953Y49410D01*
X93055Y49929D01*
X92054Y50197D01*
X91017D01*
X90016Y49929D01*
X89118Y49410D01*
X88385Y48677D01*
X87867Y47780D01*
X87598Y46778D01*
Y45742D01*
X87867Y44740D01*
X88385Y43843D01*
X89118Y43110D01*
X90016Y42591D01*
X90866Y42363D01*
Y39391D01*
X90173Y39288D01*
X89431Y41080D01*
X88354Y42692D01*
X86983Y44063D01*
X85371Y45140D01*
X83580Y45882D01*
X81678Y46260D01*
X79739D01*
X77838Y45882D01*
X76047Y45140D01*
X74434Y44063D01*
X73063Y42692D01*
X71986Y41080D01*
X71244Y39288D01*
X70866Y37387D01*
Y35448D01*
X71244Y33546D01*
X71986Y31755D01*
X73063Y30143D01*
X74434Y28772D01*
X76047Y27695D01*
X77838Y26953D01*
X79739Y26575D01*
X81678D01*
X83580Y26953D01*
X85371Y27695D01*
X86983Y28772D01*
X88354Y30143D01*
X89431Y31755D01*
X90173Y33546D01*
X90866Y33443D01*
Y26575D01*
X110551D01*
Y46260D01*
X103687D01*
Y48294D01*
X109501Y54108D01*
X150177D01*
X150364Y53408D01*
X149726Y53040D01*
X148993Y52307D01*
X148475Y51409D01*
X148207Y50408D01*
Y49371D01*
X148475Y48370D01*
X148993Y47472D01*
X149726Y46739D01*
X150370Y46368D01*
X150509Y45695D01*
X150485Y45549D01*
X150227Y45313D01*
X148855Y45882D01*
X146954Y46260D01*
X145015D01*
X143113Y45882D01*
X141322Y45140D01*
X139710Y44063D01*
X138339Y42692D01*
X137262Y41080D01*
X136520Y39288D01*
X136142Y37387D01*
Y35448D01*
X136520Y33546D01*
X137262Y31755D01*
X138339Y30143D01*
X139710Y28772D01*
X141322Y27695D01*
X143113Y26953D01*
X145015Y26575D01*
X146954D01*
X148855Y26953D01*
X150646Y27695D01*
X152259Y28772D01*
X153629Y30143D01*
X154707Y31755D01*
X155448Y33546D01*
X155627Y34446D01*
X156341D01*
X156520Y33546D01*
X157262Y31755D01*
X158339Y30143D01*
X159710Y28772D01*
X161322Y27695D01*
X163113Y26953D01*
X165015Y26575D01*
X166954D01*
X168855Y26953D01*
X170646Y27695D01*
X172258Y28772D01*
X173629Y30143D01*
X174707Y31755D01*
X175449Y33546D01*
X176142Y33443D01*
Y26575D01*
X195827D01*
Y46260D01*
X180953D01*
X180685Y46907D01*
X181982Y48203D01*
X209646D01*
X210417Y48304D01*
X211135Y48602D01*
X211752Y49075D01*
X226486Y63809D01*
X226486Y63809D01*
X226959Y64426D01*
X227256Y65144D01*
X227358Y65915D01*
X227358Y65915D01*
Y75588D01*
X228058Y75990D01*
X228812Y75787D01*
X229849D01*
X230850Y76056D01*
X231748Y76574D01*
X232481Y77307D01*
X232655Y77608D01*
X233463D01*
X233565Y77432D01*
X234298Y76699D01*
X235196Y76180D01*
X236197Y75912D01*
X237233D01*
X238235Y76180D01*
X239133Y76699D01*
X239866Y77432D01*
X240384Y78329D01*
X240652Y79331D01*
Y80367D01*
X240384Y81369D01*
X239866Y82266D01*
X239133Y82999D01*
X238235Y83518D01*
X237233Y83786D01*
X236197D01*
X235196Y83518D01*
X234298Y82999D01*
X233565Y82266D01*
X233391Y81966D01*
X232583D01*
X232481Y82142D01*
X231748Y82875D01*
X230850Y83393D01*
X229849Y83661D01*
X228812D01*
X228478Y83572D01*
X228116Y84199D01*
X236692Y92776D01*
X237172D01*
X238173Y93044D01*
X239071Y93562D01*
X239804Y94295D01*
X240322Y95193D01*
X240590Y96194D01*
Y97231D01*
X240322Y98232D01*
X239804Y99130D01*
X239071Y99863D01*
X238173Y100381D01*
X237172Y100650D01*
X236135D01*
X235792Y100558D01*
X234968Y100929D01*
X234450Y101827D01*
X233717Y102560D01*
X233606Y102624D01*
X233514Y103318D01*
X234501Y104305D01*
X239173D01*
X239944Y104407D01*
X240662Y104704D01*
X241279Y105177D01*
X249153Y113051D01*
X249626Y113668D01*
X249924Y114387D01*
X250026Y115157D01*
Y121856D01*
X250875Y122705D01*
X251575Y122415D01*
Y122237D01*
X251803Y121386D01*
X252243Y120622D01*
X252867Y119999D01*
X253630Y119559D01*
X254481Y119331D01*
X255362D01*
X256213Y119559D01*
X256456Y119699D01*
X312113D01*
X327618Y104193D01*
X327619Y104193D01*
X328777Y103034D01*
X328509Y102388D01*
X321115D01*
X320120Y103383D01*
X320047Y103654D01*
X319607Y104417D01*
X318984Y105040D01*
X318221Y105481D01*
X317370Y105709D01*
X316489D01*
X315637Y105481D01*
X314874Y105040D01*
X314251Y104417D01*
X313811Y103654D01*
X313583Y102803D01*
Y101922D01*
X313811Y101070D01*
X314251Y100307D01*
X314874Y99684D01*
X315637Y99244D01*
X315908Y99171D01*
X317776Y97303D01*
X318393Y96830D01*
X319111Y96533D01*
X319882Y96431D01*
X319882Y96431D01*
X489173D01*
X489944Y96533D01*
X490662Y96830D01*
X491279Y97303D01*
X502330Y108354D01*
X503111Y108145D01*
X503221Y107732D01*
X503739Y106835D01*
X504472Y106102D01*
X505163Y105703D01*
X505207Y105563D01*
Y105066D01*
X505163Y104927D01*
X504472Y104528D01*
X503739Y103795D01*
X503221Y102898D01*
X502953Y101896D01*
Y100860D01*
X503221Y99858D01*
X503739Y98961D01*
X504472Y98228D01*
X505163Y97829D01*
X505207Y97689D01*
Y97192D01*
X505163Y97053D01*
X504472Y96654D01*
X503739Y95921D01*
X503221Y95024D01*
X502953Y94022D01*
Y92986D01*
X503221Y91984D01*
X503739Y91087D01*
X504472Y90354D01*
X505163Y89955D01*
X505207Y89815D01*
Y89318D01*
X505163Y89179D01*
X504472Y88780D01*
X503739Y88047D01*
X503221Y87150D01*
X502953Y86148D01*
Y85112D01*
X503221Y84110D01*
X503739Y83213D01*
X504472Y82480D01*
X505163Y82081D01*
X505207Y81941D01*
Y81444D01*
X505163Y81305D01*
X504472Y80906D01*
X503739Y80173D01*
X503221Y79276D01*
X502953Y78274D01*
Y77238D01*
X503221Y76236D01*
X503739Y75339D01*
X504472Y74606D01*
X505370Y74087D01*
X506371Y73819D01*
X507408D01*
X508409Y74087D01*
X509307Y74606D01*
X509479Y74778D01*
X512837D01*
X513608Y74879D01*
X514326Y75177D01*
X514943Y75650D01*
X529649Y90356D01*
X529649Y90356D01*
X530123Y90973D01*
X530420Y91691D01*
X530521Y92462D01*
X530521Y92462D01*
Y104965D01*
X530978Y105315D01*
X532014D01*
X533016Y105583D01*
X533913Y106102D01*
X534646Y106835D01*
X535165Y107732D01*
X535433Y108734D01*
Y109770D01*
X535165Y110772D01*
X534646Y111669D01*
X533913Y112402D01*
X533016Y112921D01*
X532014Y113189D01*
X531522D01*
Y114918D01*
X531694Y115091D01*
X532212Y115988D01*
X532480Y116990D01*
Y118026D01*
X532212Y119027D01*
X531694Y119925D01*
X530961Y120658D01*
X530842Y120727D01*
Y121427D01*
X530961Y121495D01*
X531694Y122228D01*
X532212Y123126D01*
X532480Y124127D01*
Y125164D01*
X532212Y126165D01*
X531694Y127063D01*
X530961Y127796D01*
X530678Y127959D01*
Y128659D01*
X530961Y128822D01*
X531694Y129555D01*
X532212Y130453D01*
X532480Y131454D01*
Y132491D01*
X532212Y133492D01*
X531694Y134390D01*
X531000Y135084D01*
X530920Y135236D01*
Y135756D01*
X531000Y135908D01*
X531694Y136602D01*
X532212Y137500D01*
X532480Y138501D01*
Y139538D01*
X532212Y140539D01*
X531694Y141437D01*
X530961Y142170D01*
X530670Y142338D01*
Y143146D01*
X530961Y143314D01*
X531694Y144047D01*
X532212Y144945D01*
X532480Y145946D01*
Y146983D01*
X532212Y147984D01*
X531694Y148882D01*
X530961Y149615D01*
X530063Y150133D01*
X529062Y150402D01*
X528025D01*
X527024Y150133D01*
X526126Y149615D01*
X525393Y148882D01*
X524875Y147984D01*
X524606Y146983D01*
Y146739D01*
X515125Y137258D01*
X514539Y137662D01*
X514764Y138501D01*
Y139538D01*
X514496Y140539D01*
X513977Y141437D01*
X513244Y142170D01*
X512953Y142338D01*
Y143146D01*
X513244Y143314D01*
X513977Y144047D01*
X514496Y144945D01*
X514764Y145946D01*
Y146983D01*
X514496Y147984D01*
X513977Y148882D01*
X513805Y149054D01*
Y174213D01*
X513703Y174983D01*
X513406Y175702D01*
X512933Y176319D01*
X512933Y176319D01*
X501122Y188129D01*
X500505Y188603D01*
X499787Y188900D01*
X499016Y189002D01*
X428150D01*
X427379Y188900D01*
X426660Y188603D01*
X426044Y188129D01*
X426044Y188129D01*
X414121Y176207D01*
X414007D01*
X413835Y176379D01*
X412937Y176897D01*
X411936Y177165D01*
X410899D01*
X409898Y176897D01*
X409000Y176379D01*
X408406Y175785D01*
X407972Y175702D01*
X407539Y175785D01*
X406945Y176379D01*
X406047Y176897D01*
X405046Y177165D01*
X404009D01*
X403008Y176897D01*
X402110Y176379D01*
X401377Y175646D01*
X400859Y174748D01*
X400591Y173747D01*
Y172710D01*
X400859Y171709D01*
X401377Y170811D01*
X401584Y170604D01*
Y170241D01*
X401686Y169470D01*
X401983Y168752D01*
X402457Y168135D01*
X404390Y166201D01*
X405007Y165728D01*
X405725Y165430D01*
X406496Y165329D01*
X406496Y165329D01*
X415354D01*
X416125Y165430D01*
X416844Y165728D01*
X417460Y166201D01*
X430368Y179108D01*
X494829D01*
X502927Y171010D01*
Y143701D01*
X503029Y142930D01*
X503326Y142212D01*
X503800Y141595D01*
X506890Y138505D01*
Y138501D01*
X507158Y137500D01*
X507676Y136602D01*
X508370Y135908D01*
X508450Y135756D01*
Y135236D01*
X508370Y135084D01*
X507676Y134390D01*
X507158Y133492D01*
X506890Y132491D01*
Y131454D01*
X507158Y130453D01*
X507676Y129555D01*
X508409Y128822D01*
X508692Y128659D01*
Y127959D01*
X508409Y127796D01*
X508197Y127584D01*
X507733Y127522D01*
X507015Y127225D01*
X506398Y126752D01*
X506398Y126752D01*
X495926Y116279D01*
X495452Y115662D01*
X495155Y114944D01*
X495053Y114173D01*
X495155Y113402D01*
X495452Y112684D01*
X495926Y112067D01*
X496324Y111762D01*
X496490Y110938D01*
X490440Y104888D01*
X489616Y105054D01*
X489311Y105452D01*
X488694Y105926D01*
X487976Y106223D01*
X487205Y106325D01*
X333911D01*
X331830Y108405D01*
X331830Y108405D01*
X315452Y124783D01*
X314836Y125256D01*
X314117Y125554D01*
X313347Y125655D01*
X258318D01*
X257968Y126262D01*
X258040Y126385D01*
X258268Y127237D01*
Y128118D01*
X258040Y128969D01*
X257599Y129732D01*
X256976Y130355D01*
X256213Y130796D01*
X255362Y131024D01*
X254481D01*
X253630Y130796D01*
X253387Y130655D01*
X251635D01*
X251635Y130655D01*
X250864Y130554D01*
X250146Y130256D01*
X249529Y129783D01*
X247436Y127690D01*
X246789Y127958D01*
Y142886D01*
X248602Y144699D01*
X251524D01*
X251874Y144093D01*
X251803Y143969D01*
X251575Y143118D01*
Y142237D01*
X251803Y141385D01*
X252243Y140622D01*
X252689Y140177D01*
X252243Y139732D01*
X251803Y138969D01*
X251575Y138118D01*
Y137237D01*
X251803Y136386D01*
X252243Y135622D01*
X252867Y134999D01*
X253630Y134559D01*
X254481Y134331D01*
X255362D01*
X256213Y134559D01*
X256456Y134699D01*
X269567D01*
X270338Y134800D01*
X271056Y135098D01*
X271673Y135571D01*
X302477Y166376D01*
X303124Y166108D01*
Y140910D01*
X303226Y140139D01*
X303523Y139421D01*
X303996Y138804D01*
X325812Y116989D01*
X325812Y116989D01*
X326429Y116515D01*
X327147Y116218D01*
X327918Y116116D01*
X327918Y116116D01*
X331828D01*
X332114Y115622D01*
X332737Y114999D01*
X333500Y114559D01*
X334351Y114331D01*
X335232D01*
X336083Y114559D01*
X336846Y114999D01*
X337469Y115622D01*
X337910Y116385D01*
X338138Y117237D01*
Y118118D01*
X337910Y118969D01*
X337703Y119326D01*
X338108Y120026D01*
X388220D01*
Y120010D01*
X390202Y120166D01*
X392135Y120630D01*
X393971Y121390D01*
X395666Y122429D01*
X397177Y123720D01*
X397166Y123731D01*
X399419Y125984D01*
X400125D01*
X401126Y126253D01*
X402024Y126771D01*
X402757Y127504D01*
X403275Y128402D01*
X403543Y129403D01*
Y130440D01*
X403275Y131441D01*
X402757Y132339D01*
X402024Y133072D01*
X401126Y133590D01*
X400125Y133858D01*
X399088D01*
X398087Y133590D01*
X398004Y133542D01*
X397153Y133785D01*
X396851Y134307D01*
X396118Y135040D01*
X395220Y135558D01*
X394219Y135827D01*
X393182D01*
X392181Y135558D01*
X391283Y135040D01*
X390550Y134307D01*
X390032Y133409D01*
X389955Y133120D01*
X389225Y132723D01*
X388507Y132916D01*
X387470D01*
X386469Y132648D01*
X386428Y132624D01*
X386024Y133323D01*
X385291Y134056D01*
X384394Y134574D01*
X383392Y134843D01*
X382356D01*
X381354Y134574D01*
X380457Y134056D01*
X379724Y133323D01*
X379205Y132425D01*
X378937Y131424D01*
Y130387D01*
X379205Y129386D01*
X379724Y128488D01*
X379861Y128351D01*
X379571Y127651D01*
X355520D01*
X355485Y127647D01*
X354085Y127784D01*
X352705Y128203D01*
X351433Y128883D01*
X350345Y129775D01*
X350324Y129804D01*
X343340Y136787D01*
X343350Y136798D01*
X341906Y138031D01*
X340286Y139024D01*
X338532Y139751D01*
X337109Y140092D01*
X336846Y140355D01*
X336083Y140796D01*
X335232Y141024D01*
X334351D01*
X333500Y140796D01*
X332737Y140355D01*
X332114Y139732D01*
X331673Y138969D01*
X331445Y138118D01*
Y137237D01*
X331673Y136386D01*
X332114Y135622D01*
X332559Y135177D01*
X332114Y134732D01*
X331673Y133969D01*
X331650Y133884D01*
X323084D01*
X313018Y143950D01*
Y153508D01*
X331055D01*
X331445Y153000D01*
Y152119D01*
X331673Y151267D01*
X332114Y150504D01*
X332737Y149881D01*
X333500Y149441D01*
X334351Y149213D01*
X335232D01*
X336083Y149441D01*
X336846Y149881D01*
X337469Y150504D01*
X337910Y151267D01*
X338138Y152119D01*
Y153000D01*
X338188Y153065D01*
X338719Y153535D01*
X338973Y153586D01*
X339304Y153807D01*
X339525Y154137D01*
X339602Y154528D01*
Y183071D01*
X339525Y183461D01*
X339304Y183792D01*
X338973Y184013D01*
X338583Y184090D01*
X319138D01*
X318870Y184737D01*
X321237Y187104D01*
X321711Y187721D01*
X322008Y188439D01*
X322110Y189210D01*
Y208319D01*
X322566Y209110D01*
X322835Y210112D01*
Y211148D01*
X322566Y212150D01*
X322158Y212857D01*
X322446Y213557D01*
X358018D01*
X362067Y209508D01*
X362067Y209508D01*
X362684Y209035D01*
X363402Y208737D01*
X364173Y208636D01*
X505656D01*
X507849Y206444D01*
Y195137D01*
X507676Y194965D01*
X507158Y194067D01*
X506890Y193066D01*
Y192029D01*
X507158Y191028D01*
X507676Y190130D01*
X508409Y189397D01*
X509307Y188879D01*
X510308Y188610D01*
X511345D01*
X512346Y188879D01*
X513244Y189397D01*
X513977Y190130D01*
X514496Y191028D01*
X514764Y192029D01*
Y193066D01*
X514496Y194067D01*
X513977Y194965D01*
X513805Y195137D01*
Y207677D01*
X513805Y207677D01*
X513703Y208448D01*
X513406Y209166D01*
X512933Y209783D01*
X511687Y211028D01*
X511897Y211809D01*
X512346Y211930D01*
X513244Y212448D01*
X513977Y213181D01*
X514496Y214079D01*
X514764Y215080D01*
Y216117D01*
X514496Y217118D01*
X513977Y218016D01*
X513244Y218749D01*
X512346Y219267D01*
X511345Y219535D01*
X510308D01*
X509307Y219267D01*
X508409Y218749D01*
X508237Y218577D01*
X367328D01*
X364693Y221211D01*
X364698Y222170D01*
X364882Y222355D01*
X365323Y223118D01*
X365396Y223389D01*
X391870Y249863D01*
X391870Y249863D01*
X392343Y250479D01*
X392640Y251198D01*
X392742Y251969D01*
X392742Y251969D01*
Y261261D01*
X392882Y261504D01*
X393110Y262355D01*
Y263236D01*
X392882Y264087D01*
X392442Y264850D01*
X391819Y265473D01*
X391055Y265914D01*
X390204Y266142D01*
X389323D01*
X388472Y265914D01*
X387709Y265473D01*
X387086Y264850D01*
X386645Y264087D01*
X386417Y263236D01*
Y262355D01*
X386645Y261504D01*
X386786Y261261D01*
Y253202D01*
X361184Y227600D01*
X360913Y227528D01*
X360150Y227087D01*
X359527Y226464D01*
X359086Y225701D01*
X358858Y224850D01*
Y223969D01*
X358461Y223451D01*
X312008D01*
X311237Y223349D01*
X310519Y223052D01*
X309902Y222578D01*
X296406Y209082D01*
X295933Y208466D01*
X295635Y207747D01*
X295534Y206976D01*
Y173599D01*
X267590Y145655D01*
X258318D01*
X257968Y146262D01*
X258040Y146386D01*
X258268Y147237D01*
Y148118D01*
X258040Y148969D01*
X257599Y149732D01*
X257154Y150177D01*
X257599Y150622D01*
X258040Y151385D01*
X258268Y152237D01*
Y153118D01*
X258040Y153969D01*
X257599Y154732D01*
X257154Y155177D01*
X257599Y155622D01*
X258040Y156386D01*
X258268Y157237D01*
Y158118D01*
X258040Y158969D01*
X257599Y159732D01*
X257047Y160284D01*
X257386Y160622D01*
X257827Y161386D01*
X258055Y162237D01*
Y163118D01*
X257827Y163969D01*
X257386Y164732D01*
X256763Y165355D01*
X256000Y165796D01*
X255149Y166024D01*
X254268D01*
X253416Y165796D01*
X252653Y165355D01*
X252030Y164732D01*
X251590Y163969D01*
X251517Y163698D01*
X251231Y163411D01*
X242520D01*
Y164236D01*
X242292Y165087D01*
X241851Y165850D01*
X241228Y166473D01*
X240465Y166914D01*
X239614Y167142D01*
X238733D01*
X237882Y166914D01*
X237119Y166473D01*
X236495Y165850D01*
X236055Y165087D01*
X235884Y164449D01*
X235677Y163779D01*
X234796D01*
X233945Y163551D01*
X233181Y163111D01*
X232558Y162488D01*
X232418Y162244D01*
X231741D01*
X231473Y162891D01*
X231509Y162927D01*
X232030Y163829D01*
X232299Y164834D01*
Y164854D01*
X228346D01*
Y165854D01*
X232299D01*
Y165875D01*
X232030Y166880D01*
X231509Y167781D01*
X231037Y168254D01*
X231154Y169060D01*
X231610Y169249D01*
X232738Y170003D01*
X233698Y170962D01*
X234452Y172091D01*
X234971Y173345D01*
X235236Y174676D01*
Y176033D01*
X234971Y177364D01*
X234452Y178618D01*
X233698Y179746D01*
X233090Y180354D01*
X233698Y180962D01*
X234452Y182091D01*
X234971Y183345D01*
X235236Y184676D01*
Y186033D01*
X234971Y187364D01*
X234452Y188618D01*
X233698Y189746D01*
X233090Y190354D01*
X233698Y190962D01*
X234452Y192091D01*
X234971Y193345D01*
X235236Y194676D01*
Y194856D01*
X279278D01*
X282455Y191680D01*
Y187558D01*
X282315Y187315D01*
X282087Y186464D01*
Y185583D01*
X282315Y184732D01*
X282755Y183969D01*
X283378Y183346D01*
X284141Y182905D01*
X284993Y182677D01*
X285874D01*
X286725Y182905D01*
X287402Y183296D01*
X288078Y182905D01*
X288930Y182677D01*
X289811D01*
X290662Y182905D01*
X291425Y183346D01*
X292048Y183969D01*
X292489Y184732D01*
X292717Y185583D01*
Y186464D01*
X292489Y187315D01*
X292348Y187558D01*
Y194882D01*
X292348Y194882D01*
X292247Y195653D01*
X291949Y196371D01*
X291476Y196988D01*
X291476Y196988D01*
X283602Y204862D01*
X282985Y205335D01*
X282267Y205633D01*
X281496Y205734D01*
X235236D01*
Y206033D01*
X234971Y207364D01*
X234452Y208618D01*
X233698Y209746D01*
X232738Y210706D01*
X231610Y211460D01*
X230633Y211864D01*
X230773Y212564D01*
X250000D01*
X251028Y212700D01*
X251986Y213096D01*
X252808Y213727D01*
X253439Y214550D01*
X253836Y215508D01*
X253971Y216535D01*
Y253937D01*
X253836Y254965D01*
X253439Y255923D01*
X252808Y256745D01*
X251986Y257376D01*
X251028Y257773D01*
X250000Y257908D01*
X226053D01*
X225785Y258555D01*
X234107Y266877D01*
X234266Y267084D01*
X234450Y267268D01*
X234580Y267493D01*
X234738Y267700D01*
X234838Y267940D01*
X234968Y268165D01*
X235035Y268417D01*
X235135Y268657D01*
X235169Y268915D01*
X235236Y269167D01*
Y269427D01*
X235270Y269685D01*
X235236Y269943D01*
Y270203D01*
X235169Y270455D01*
X235135Y270713D01*
X235035Y270953D01*
X234968Y271205D01*
X234838Y271430D01*
X234738Y271671D01*
X234580Y271877D01*
X234450Y272102D01*
X234266Y272286D01*
X234107Y272493D01*
X233901Y272651D01*
X233717Y272835D01*
X233491Y272966D01*
X233285Y273124D01*
X233044Y273224D01*
X232819Y273354D01*
X232568Y273421D01*
X232327Y273521D01*
X232069Y273555D01*
X231818Y273622D01*
X231557D01*
X231299Y273656D01*
D02*
G37*
G36*
X126000Y194382D02*
X118610D01*
Y186992D01*
X118887D01*
X120412Y187295D01*
X121847Y187890D01*
X123140Y188753D01*
X124239Y189852D01*
X125102Y191145D01*
X125697Y192580D01*
X126000Y194105D01*
Y194382D01*
D02*
G37*
G36*
X117610D02*
X110221D01*
Y194105D01*
X110524Y192580D01*
X111118Y191145D01*
X111982Y189852D01*
X113081Y188753D01*
X114373Y187890D01*
X115809Y187295D01*
X117333Y186992D01*
X117610D01*
Y194382D01*
D02*
G37*
G36*
X98962Y205709D02*
X97258D01*
X95575Y205442D01*
X93954Y204915D01*
X92436Y204142D01*
X91057Y203140D01*
X89852Y201935D01*
X88850Y200556D01*
X88077Y199038D01*
X87888Y198456D01*
X86614D01*
X85689Y198334D01*
X84827Y197977D01*
X84087Y197409D01*
X62886Y176208D01*
X62318Y175468D01*
X61961Y174606D01*
X61839Y173681D01*
Y152648D01*
X61745Y152484D01*
X61476Y151483D01*
Y150446D01*
X61745Y149445D01*
X62263Y148547D01*
X62996Y147814D01*
X63894Y147296D01*
X64895Y147028D01*
X65932D01*
X66933Y147296D01*
X67831Y147814D01*
X68564Y148547D01*
X69082Y149445D01*
X69350Y150446D01*
Y151483D01*
X69082Y152484D01*
X68987Y152648D01*
Y172201D01*
X87434Y190648D01*
X88220Y190444D01*
X88850Y189207D01*
X89852Y187829D01*
X91057Y186624D01*
X92436Y185622D01*
X93954Y184848D01*
X95575Y184322D01*
X97258Y184055D01*
X98962D01*
X100645Y184322D01*
X102266Y184848D01*
X103785Y185622D01*
X105163Y186624D01*
X106368Y187829D01*
X107370Y189207D01*
X108144Y190726D01*
X108670Y192347D01*
X108937Y194030D01*
Y195734D01*
X108670Y197417D01*
X108144Y199038D01*
X107370Y200556D01*
X106368Y201935D01*
X105163Y203140D01*
X103785Y204142D01*
X102266Y204915D01*
X100645Y205442D01*
X98962Y205709D01*
D02*
G37*
G36*
X82211Y179134D02*
X81175D01*
X80173Y178866D01*
X79276Y178347D01*
X78543Y177614D01*
X78024Y176716D01*
X77756Y175715D01*
Y174679D01*
X78024Y173677D01*
X78543Y172780D01*
X79276Y172046D01*
X80173Y171528D01*
X81175Y171260D01*
X82211D01*
X83213Y171528D01*
X84110Y172046D01*
X84843Y172780D01*
X85362Y173677D01*
X85630Y174679D01*
Y175715D01*
X85362Y176716D01*
X84843Y177614D01*
X84110Y178347D01*
X83213Y178866D01*
X82211Y179134D01*
D02*
G37*
G36*
X418825Y164370D02*
X417789D01*
X416787Y164102D01*
X415890Y163583D01*
X415157Y162850D01*
X414638Y161953D01*
X414370Y160951D01*
Y159915D01*
X414638Y158913D01*
X415157Y158016D01*
X415890Y157283D01*
X416787Y156764D01*
X417789Y156496D01*
X418825D01*
X419827Y156764D01*
X420724Y157283D01*
X421457Y158016D01*
X421976Y158913D01*
X422244Y159915D01*
Y160951D01*
X421976Y161953D01*
X421457Y162850D01*
X420724Y163583D01*
X419827Y164102D01*
X418825Y164370D01*
D02*
G37*
G36*
X49444Y161791D02*
X48408D01*
X47406Y161523D01*
X46509Y161005D01*
X45776Y160272D01*
X45257Y159374D01*
X44989Y158373D01*
Y157336D01*
X45257Y156335D01*
X45776Y155437D01*
X46509Y154704D01*
X47406Y154186D01*
X48408Y153917D01*
X49444D01*
X50446Y154186D01*
X51343Y154704D01*
X52076Y155437D01*
X52595Y156335D01*
X52863Y157336D01*
Y158373D01*
X52595Y159374D01*
X52076Y160272D01*
X51343Y161005D01*
X50446Y161523D01*
X49444Y161791D01*
D02*
G37*
G36*
X74790Y160807D02*
X73753D01*
X72752Y160539D01*
X71854Y160020D01*
X71121Y159287D01*
X70603Y158390D01*
X70335Y157388D01*
Y156352D01*
X70603Y155350D01*
X71121Y154453D01*
X71854Y153720D01*
X72752Y153201D01*
X73753Y152933D01*
X74790D01*
X75791Y153201D01*
X76689Y153720D01*
X77422Y154453D01*
X77940Y155350D01*
X78209Y156352D01*
Y157388D01*
X77940Y158390D01*
X77422Y159287D01*
X76689Y160020D01*
X75791Y160539D01*
X74790Y160807D01*
D02*
G37*
G36*
X402093Y153543D02*
X401056D01*
X400055Y153275D01*
X399157Y152757D01*
X398564Y152163D01*
X398130Y152080D01*
X397696Y152163D01*
X397102Y152757D01*
X396205Y153275D01*
X395203Y153543D01*
X394167D01*
X393165Y153275D01*
X392268Y152757D01*
X391674Y152163D01*
X391240Y152080D01*
X390807Y152163D01*
X390213Y152757D01*
X389315Y153275D01*
X388314Y153543D01*
X387277D01*
X386276Y153275D01*
X385378Y152757D01*
X384784Y152163D01*
X384350Y152080D01*
X383917Y152163D01*
X383323Y152757D01*
X382425Y153275D01*
X381424Y153543D01*
X380387D01*
X379386Y153275D01*
X378488Y152757D01*
X377755Y152024D01*
X377237Y151126D01*
X376969Y150125D01*
Y149088D01*
X377237Y148087D01*
X377755Y147189D01*
X378488Y146456D01*
X379386Y145938D01*
X380387Y145669D01*
X381424D01*
X382425Y145938D01*
X383323Y146456D01*
X383917Y147050D01*
X384350Y147133D01*
X384784Y147050D01*
X385378Y146456D01*
X386276Y145938D01*
X387277Y145669D01*
X388314D01*
X389315Y145938D01*
X390213Y146456D01*
X390807Y147050D01*
X391240Y147133D01*
X391674Y147050D01*
X392268Y146456D01*
X393165Y145938D01*
X394167Y145669D01*
X395203D01*
X396205Y145938D01*
X397102Y146456D01*
X397696Y147050D01*
X398130Y147133D01*
X398564Y147050D01*
X399157Y146456D01*
X400055Y145938D01*
X401056Y145669D01*
X402093D01*
X403094Y145938D01*
X403992Y146456D01*
X404725Y147189D01*
X405243Y148087D01*
X405512Y149088D01*
Y150125D01*
X405243Y151126D01*
X404725Y152024D01*
X403992Y152757D01*
X403094Y153275D01*
X402093Y153543D01*
D02*
G37*
G36*
X480833Y159449D02*
X479797D01*
X478795Y159180D01*
X477898Y158662D01*
X477165Y157929D01*
X476646Y157031D01*
X476378Y156030D01*
Y154993D01*
X476646Y153992D01*
X477165Y153094D01*
X477898Y152361D01*
X478795Y151843D01*
X479797Y151575D01*
X480833D01*
X481835Y151843D01*
X482732Y152361D01*
X483465Y153094D01*
X483984Y153992D01*
X484252Y154993D01*
Y156030D01*
X483984Y157031D01*
X483465Y157929D01*
X482732Y158662D01*
X481835Y159180D01*
X480833Y159449D01*
D02*
G37*
G36*
X428106Y154565D02*
X427070D01*
X426068Y154296D01*
X425171Y153778D01*
X424438Y153045D01*
X423919Y152147D01*
X423651Y151146D01*
Y150109D01*
X423919Y149108D01*
X424438Y148210D01*
X425171Y147477D01*
X426068Y146959D01*
X427070Y146691D01*
X428106D01*
X429108Y146959D01*
X430005Y147477D01*
X430738Y148210D01*
X431257Y149108D01*
X431525Y150109D01*
Y151146D01*
X431257Y152147D01*
X430738Y153045D01*
X430005Y153778D01*
X429108Y154296D01*
X428106Y154565D01*
D02*
G37*
G36*
X49444Y148012D02*
X48408D01*
X47406Y147743D01*
X46509Y147225D01*
X45776Y146492D01*
X45257Y145595D01*
X44989Y144593D01*
Y143556D01*
X45257Y142555D01*
X45776Y141657D01*
X46509Y140925D01*
X47347Y140440D01*
X47474Y140260D01*
X47618Y139722D01*
X47499Y139602D01*
X46981Y138705D01*
X46713Y137703D01*
Y136667D01*
X46981Y135665D01*
X47499Y134768D01*
X48232Y134035D01*
X49130Y133516D01*
X50131Y133248D01*
X51168D01*
X52169Y133516D01*
X53067Y134035D01*
X53800Y134768D01*
X54318Y135665D01*
X54587Y136667D01*
Y137703D01*
X54318Y138705D01*
X53800Y139602D01*
X53067Y140335D01*
X52228Y140820D01*
X52101Y141000D01*
X51957Y141538D01*
X52076Y141657D01*
X52595Y142555D01*
X52863Y143556D01*
Y144593D01*
X52595Y145595D01*
X52076Y146492D01*
X51343Y147225D01*
X50446Y147743D01*
X49444Y148012D01*
D02*
G37*
G36*
X69817Y131870D02*
X68884D01*
X67983Y131629D01*
X67382Y131282D01*
X66781Y131629D01*
X65880Y131870D01*
X64947D01*
X64046Y131629D01*
X63445Y131282D01*
X62844Y131629D01*
X61943Y131870D01*
X61010D01*
X60109Y131629D01*
X59508Y131282D01*
X58907Y131629D01*
X58006Y131870D01*
X57073D01*
X56172Y131629D01*
X55571Y131282D01*
X54970Y131629D01*
X54069Y131870D01*
X53136D01*
X52235Y131629D01*
X51634Y131282D01*
X51033Y131629D01*
X50132Y131870D01*
X49199D01*
X48298Y131629D01*
X47697Y131282D01*
X47096Y131629D01*
X46195Y131870D01*
X45262D01*
X44361Y131629D01*
X43553Y131162D01*
X42893Y130502D01*
X42426Y129694D01*
X42185Y128793D01*
Y127860D01*
X42426Y126959D01*
X42773Y126358D01*
X42426Y125757D01*
X42185Y124856D01*
Y123923D01*
X42426Y123022D01*
X42773Y122421D01*
X42426Y121820D01*
X42185Y120919D01*
Y119986D01*
X42426Y119085D01*
X42773Y118484D01*
X42426Y117883D01*
X42185Y116982D01*
Y116049D01*
X42426Y115148D01*
X42893Y114340D01*
X43553Y113680D01*
X44361Y113214D01*
X45262Y112972D01*
X46195D01*
X47096Y113214D01*
X47697Y113561D01*
X48298Y113214D01*
X49199Y112972D01*
X50132D01*
X51033Y113214D01*
X51634Y113561D01*
X52235Y113214D01*
X53136Y112972D01*
X54069D01*
X54970Y113214D01*
X55571Y113561D01*
X56172Y113214D01*
X57073Y112972D01*
X58006D01*
X58907Y113214D01*
X59508Y113561D01*
X60109Y113214D01*
X61010Y112972D01*
X61943D01*
X62844Y113214D01*
X63445Y113561D01*
X64046Y113214D01*
X64947Y112972D01*
X65880D01*
X66781Y113214D01*
X67382Y113561D01*
X67983Y113214D01*
X68884Y112972D01*
X69817D01*
X70718Y113214D01*
X71319Y113561D01*
X71920Y113214D01*
X72821Y112972D01*
X73754D01*
X74655Y113214D01*
X75463Y113680D01*
X76123Y114340D01*
X76589Y115148D01*
X76831Y116049D01*
Y116982D01*
X76589Y117883D01*
X76242Y118484D01*
X76589Y119085D01*
X76831Y119986D01*
Y120919D01*
X76589Y121820D01*
X76242Y122421D01*
X76589Y123022D01*
X76831Y123923D01*
Y124856D01*
X76589Y125757D01*
X76123Y126565D01*
X75463Y127225D01*
X74655Y127692D01*
X73754Y127933D01*
X72894D01*
Y128793D01*
X72652Y129694D01*
X72186Y130502D01*
X71526Y131162D01*
X70718Y131629D01*
X69817Y131870D01*
D02*
G37*
G36*
X95734Y131677D02*
X94801D01*
X93900Y131436D01*
X93299Y131089D01*
X92698Y131436D01*
X91797Y131677D01*
X90864D01*
X89963Y131436D01*
X89362Y131089D01*
X88761Y131436D01*
X87860Y131677D01*
X86927D01*
X86026Y131436D01*
X85218Y130969D01*
X84558Y130309D01*
X84092Y129501D01*
X83850Y128600D01*
Y127667D01*
X84092Y126766D01*
X84439Y126165D01*
X84092Y125565D01*
X83850Y124663D01*
Y123730D01*
X84092Y122829D01*
X84558Y122021D01*
X85218Y121361D01*
X86026Y120895D01*
X86927Y120653D01*
X87860D01*
X88761Y120895D01*
X89362Y121242D01*
X89963Y120895D01*
X90864Y120653D01*
X91797D01*
X92698Y120895D01*
X93300Y121242D01*
X93900Y120896D01*
X94801Y120654D01*
X95734D01*
X96635Y120896D01*
X97443Y121362D01*
X98103Y122022D01*
X98570Y122830D01*
X98811Y123731D01*
Y124664D01*
X98570Y125565D01*
X98223Y126166D01*
X98570Y126766D01*
X98811Y127667D01*
Y128600D01*
X98570Y129501D01*
X98103Y130309D01*
X97443Y130969D01*
X96635Y131436D01*
X95734Y131677D01*
D02*
G37*
G36*
X450321Y123031D02*
X449285D01*
X448283Y122763D01*
X447386Y122245D01*
X446653Y121512D01*
X446135Y120614D01*
X445866Y119613D01*
Y118576D01*
X446135Y117575D01*
X446653Y116677D01*
X447386Y115944D01*
X448283Y115426D01*
X449285Y115157D01*
X450321D01*
X451323Y115426D01*
X452220Y115944D01*
X452953Y116677D01*
X453472Y117575D01*
X453740Y118576D01*
Y119613D01*
X453472Y120614D01*
X452953Y121512D01*
X452220Y122245D01*
X451323Y122763D01*
X450321Y123031D01*
D02*
G37*
G36*
X194418Y114189D02*
X194398D01*
Y110736D01*
X197850D01*
Y110757D01*
X197581Y111762D01*
X197061Y112663D01*
X196325Y113399D01*
X195423Y113920D01*
X194418Y114189D01*
D02*
G37*
G36*
X193398D02*
X193377D01*
X192372Y113920D01*
X191471Y113399D01*
X190735Y112663D01*
X190214Y111762D01*
X189945Y110757D01*
Y110736D01*
X193398D01*
Y114189D01*
D02*
G37*
G36*
X454026Y177970D02*
X452989D01*
X451988Y177702D01*
X451090Y177183D01*
X450357Y176450D01*
X449839Y175553D01*
X449571Y174551D01*
Y173515D01*
X449839Y172513D01*
X450357Y171616D01*
X451090Y170883D01*
X451988Y170364D01*
X452989Y170096D01*
X454026D01*
X455027Y170364D01*
X455192Y170459D01*
X462282D01*
X466899Y165842D01*
Y118810D01*
X466804Y118646D01*
X466535Y117644D01*
Y116608D01*
X466804Y115606D01*
X467322Y114709D01*
X468055Y113976D01*
X468953Y113457D01*
X469365Y113347D01*
X469575Y112566D01*
X469351Y112342D01*
X468878Y111725D01*
X468580Y111007D01*
X468478Y110236D01*
X468580Y109465D01*
X468878Y108747D01*
X469351Y108130D01*
X469968Y107657D01*
X470686Y107360D01*
X471457Y107258D01*
X472227Y107360D01*
X472946Y107657D01*
X473563Y108130D01*
X484389Y118957D01*
X484389Y118957D01*
X484863Y119574D01*
X485160Y120292D01*
X485262Y121063D01*
X485160Y121834D01*
X484863Y122552D01*
X484389Y123169D01*
X483773Y123642D01*
X483054Y123940D01*
X482283Y124041D01*
X481513Y123940D01*
X480794Y123642D01*
X480177Y123169D01*
X480177Y123169D01*
X475032Y118024D01*
X474252Y118233D01*
X474141Y118646D01*
X474046Y118810D01*
Y167323D01*
X473924Y168248D01*
X473567Y169110D01*
X472999Y169850D01*
X466289Y176560D01*
X465549Y177128D01*
X464687Y177485D01*
X463762Y177607D01*
X455192D01*
X455027Y177702D01*
X454026Y177970D01*
D02*
G37*
G36*
X197850Y109736D02*
X194398D01*
Y106283D01*
X194418D01*
X195423Y106553D01*
X196325Y107073D01*
X197061Y107809D01*
X197581Y108711D01*
X197850Y109716D01*
Y109736D01*
D02*
G37*
G36*
X193398D02*
X189945D01*
Y109716D01*
X190214Y108711D01*
X190735Y107809D01*
X191471Y107073D01*
X192372Y106553D01*
X193377Y106283D01*
X193398D01*
Y109736D01*
D02*
G37*
G36*
X28077Y103347D02*
X27041D01*
X26039Y103078D01*
X25142Y102560D01*
X24409Y101827D01*
X23890Y100929D01*
X23622Y99928D01*
Y98891D01*
X23890Y97890D01*
X24409Y96992D01*
X25142Y96259D01*
X26039Y95741D01*
X27041Y95473D01*
X28077D01*
X29079Y95741D01*
X29976Y96259D01*
X30709Y96992D01*
X31228Y97890D01*
X31496Y98891D01*
Y99928D01*
X31228Y100929D01*
X30709Y101827D01*
X29976Y102560D01*
X29079Y103078D01*
X28077Y103347D01*
D02*
G37*
G36*
X305559Y85039D02*
X304678D01*
X303826Y84811D01*
X303584Y84671D01*
X281062D01*
X280819Y84811D01*
X279968Y85039D01*
X279087D01*
X278236Y84811D01*
X277473Y84371D01*
X276850Y83748D01*
X276458Y83069D01*
X276083Y83023D01*
X275707Y83069D01*
X275316Y83748D01*
X274693Y84371D01*
X273930Y84811D01*
X273078Y85039D01*
X272197D01*
X271346Y84811D01*
X270583Y84371D01*
X270124Y83912D01*
X269685Y83811D01*
X269246Y83912D01*
X268787Y84371D01*
X268024Y84811D01*
X267173Y85039D01*
X266292D01*
X265441Y84811D01*
X264678Y84371D01*
X264054Y83748D01*
X263614Y82985D01*
X263386Y82134D01*
Y81252D01*
X263614Y80401D01*
X263754Y80159D01*
Y46260D01*
X263856Y45489D01*
X264153Y44771D01*
X264626Y44154D01*
X268563Y40217D01*
X268563Y40217D01*
X269180Y39744D01*
X269899Y39446D01*
X270669Y39345D01*
X270669Y39345D01*
X287402D01*
X288172Y39446D01*
X288891Y39744D01*
X289508Y40217D01*
X299462Y50171D01*
X319261D01*
X319433Y49999D01*
X320331Y49481D01*
X321332Y49213D01*
X322369D01*
X323370Y49481D01*
X324268Y49999D01*
X325001Y50732D01*
X325519Y51630D01*
X325787Y52631D01*
Y53668D01*
X325519Y54669D01*
X325001Y55567D01*
X324268Y56300D01*
X323370Y56818D01*
X322369Y57087D01*
X321332D01*
X320331Y56818D01*
X319433Y56300D01*
X319261Y56128D01*
X298228D01*
X298228Y56128D01*
X297458Y56026D01*
X296739Y55729D01*
X296122Y55256D01*
X286168Y45301D01*
X284060D01*
X283772Y46001D01*
X284180Y46709D01*
X284449Y47710D01*
Y48747D01*
X284180Y49748D01*
X283662Y50646D01*
X282929Y51379D01*
X282031Y51897D01*
X281030Y52165D01*
X280787D01*
X275616Y57336D01*
Y79884D01*
X275841Y80050D01*
X276713Y79876D01*
X276850Y79638D01*
X277473Y79015D01*
X278236Y78575D01*
X279087Y78347D01*
X279968D01*
X280819Y78575D01*
X281062Y78715D01*
X303584D01*
X303826Y78575D01*
X304678Y78347D01*
X305559D01*
X306410Y78575D01*
X307173Y79015D01*
X307796Y79638D01*
X308237Y80401D01*
X308465Y81252D01*
Y82134D01*
X308237Y82985D01*
X307796Y83748D01*
X307173Y84371D01*
X306410Y84811D01*
X305559Y85039D01*
D02*
G37*
G36*
X469942Y82215D02*
X469035D01*
X468158Y81980D01*
X467373Y81526D01*
X466732Y80885D01*
X466278Y80099D01*
X466043Y79223D01*
Y78316D01*
X466278Y77440D01*
X466732Y76654D01*
X467373Y76013D01*
X468158Y75560D01*
X469035Y75325D01*
X469942D01*
X470818Y75560D01*
X471603Y76013D01*
X472245Y76654D01*
X472698Y77440D01*
X472933Y78316D01*
Y79223D01*
X472698Y80099D01*
X472245Y80885D01*
X471603Y81526D01*
X470818Y81980D01*
X469942Y82215D01*
D02*
G37*
G36*
X436477D02*
X435570D01*
X434694Y81980D01*
X433908Y81526D01*
X433267Y80885D01*
X432814Y80099D01*
X432579Y79223D01*
Y78316D01*
X432814Y77440D01*
X433267Y76654D01*
X433908Y76013D01*
X434694Y75560D01*
X435570Y75325D01*
X436477D01*
X437353Y75560D01*
X438139Y76013D01*
X438780Y76654D01*
X439234Y77440D01*
X439468Y78316D01*
Y79223D01*
X439234Y80099D01*
X438780Y80885D01*
X438139Y81526D01*
X437353Y81980D01*
X436477Y82215D01*
D02*
G37*
G36*
X198819Y249637D02*
X198587Y249606D01*
X198352D01*
X198126Y249546D01*
X197894Y249515D01*
X197678Y249426D01*
X197451Y249365D01*
X197248Y249248D01*
X197032Y249158D01*
X196846Y249015D01*
X196643Y248898D01*
X196478Y248733D01*
X196292Y248590D01*
X196149Y248404D01*
X195984Y248239D01*
X195867Y248036D01*
X195724Y247850D01*
X195634Y247634D01*
X195517Y247431D01*
X195456Y247204D01*
X195367Y246988D01*
X195336Y246756D01*
X195276Y246530D01*
Y246295D01*
X195245Y246063D01*
Y150198D01*
X171022Y125975D01*
X170454Y125234D01*
X170097Y124372D01*
X169975Y123448D01*
Y120832D01*
X161417D01*
X160390Y120697D01*
X159432Y120300D01*
X158609Y119669D01*
X157978Y118847D01*
X157582Y117889D01*
X157446Y116861D01*
Y76772D01*
X157582Y75744D01*
X157978Y74786D01*
X158609Y73964D01*
X159432Y73333D01*
X160390Y72936D01*
X161417Y72801D01*
X194882D01*
X195910Y72936D01*
X196867Y73333D01*
X197690Y73964D01*
X198321Y74786D01*
X198718Y75744D01*
X198853Y76772D01*
Y89567D01*
X198718Y90595D01*
X198321Y91552D01*
X197690Y92375D01*
X196867Y93006D01*
X195910Y93403D01*
X194882Y93538D01*
X186664D01*
Y116861D01*
X186529Y117889D01*
X186132Y118847D01*
X185501Y119669D01*
X184678Y120300D01*
X183721Y120697D01*
X182693Y120832D01*
X177123D01*
Y121967D01*
X201346Y146191D01*
X201914Y146931D01*
X202271Y147793D01*
X202393Y148718D01*
Y246063D01*
X202362Y246295D01*
Y246530D01*
X202302Y246756D01*
X202271Y246988D01*
X202181Y247204D01*
X202121Y247431D01*
X202004Y247634D01*
X201914Y247850D01*
X201771Y248036D01*
X201654Y248239D01*
X201489Y248404D01*
X201346Y248590D01*
X201160Y248733D01*
X200994Y248898D01*
X200792Y249015D01*
X200606Y249158D01*
X200390Y249248D01*
X200187Y249365D01*
X199960Y249426D01*
X199744Y249515D01*
X199512Y249546D01*
X199285Y249606D01*
X199051D01*
X198819Y249637D01*
D02*
G37*
G36*
X474763Y55413D02*
X473348D01*
X471959Y55137D01*
X470652Y54596D01*
X469475Y53809D01*
X469055Y53390D01*
X468635Y53809D01*
X467458Y54596D01*
X466151Y55137D01*
X464763Y55413D01*
X463347D01*
X461959Y55137D01*
X460652Y54596D01*
X459475Y53809D01*
X459055Y53390D01*
X458635Y53809D01*
X457458Y54596D01*
X456151Y55137D01*
X454763Y55413D01*
X453347D01*
X451959Y55137D01*
X450652Y54596D01*
X449475Y53809D01*
X449055Y53390D01*
X448635Y53809D01*
X447459Y54596D01*
X446151Y55137D01*
X444763Y55413D01*
X443348D01*
X441959Y55137D01*
X440652Y54596D01*
X439475Y53809D01*
X439055Y53390D01*
X438635Y53809D01*
X437459Y54596D01*
X436151Y55137D01*
X434763Y55413D01*
X433348D01*
X431959Y55137D01*
X430652Y54596D01*
X429475Y53809D01*
X428474Y52809D01*
X427688Y51632D01*
X427146Y50324D01*
X426870Y48936D01*
Y47521D01*
X427146Y46132D01*
X427688Y44825D01*
X428474Y43648D01*
X429475Y42647D01*
X430652Y41861D01*
X431959Y41319D01*
X433348Y41043D01*
X434763D01*
X436151Y41319D01*
X437459Y41861D01*
X438635Y42647D01*
X439055Y43067D01*
X439475Y42647D01*
X440652Y41861D01*
X441959Y41319D01*
X443348Y41043D01*
X444763D01*
X446151Y41319D01*
X447459Y41861D01*
X448635Y42647D01*
X449055Y43067D01*
X449475Y42647D01*
X450652Y41861D01*
X451959Y41319D01*
X453347Y41043D01*
X454763D01*
X456151Y41319D01*
X457458Y41861D01*
X458635Y42647D01*
X459055Y43067D01*
X459475Y42647D01*
X460652Y41861D01*
X461959Y41319D01*
X463347Y41043D01*
X464763D01*
X466151Y41319D01*
X467458Y41861D01*
X468635Y42647D01*
X469055Y43067D01*
X469475Y42647D01*
X470652Y41861D01*
X471959Y41319D01*
X473348Y41043D01*
X474763D01*
X476151Y41319D01*
X477458Y41861D01*
X478635Y42647D01*
X479636Y43648D01*
X480422Y44825D01*
X480483Y44970D01*
X481169Y45107D01*
X481447Y44829D01*
X482415Y44270D01*
X483496Y43980D01*
X483555D01*
Y48228D01*
Y52476D01*
X483496D01*
X482415Y52187D01*
X481447Y51628D01*
X481169Y51350D01*
X480483Y51486D01*
X480422Y51632D01*
X479636Y52809D01*
X478635Y53809D01*
X477458Y54596D01*
X476151Y55137D01*
X474763Y55413D01*
D02*
G37*
G36*
X501240D02*
X486870D01*
Y52317D01*
X486170Y51912D01*
X485695Y52187D01*
X484614Y52476D01*
X484555D01*
Y48228D01*
Y43980D01*
X484614D01*
X485695Y44270D01*
X486170Y44544D01*
X486870Y44140D01*
Y41043D01*
X501240D01*
Y55413D01*
D02*
G37*
G36*
X126664Y43323D02*
X126484D01*
Y36917D01*
X132890D01*
Y37097D01*
X132624Y38432D01*
X132104Y39688D01*
X131348Y40819D01*
X130386Y41781D01*
X129255Y42537D01*
X127998Y43058D01*
X126664Y43323D01*
D02*
G37*
G36*
X61389D02*
X61209D01*
Y36917D01*
X67614D01*
Y37097D01*
X67349Y38432D01*
X66828Y39688D01*
X66072Y40819D01*
X65111Y41781D01*
X63980Y42537D01*
X62723Y43058D01*
X61389Y43323D01*
D02*
G37*
G36*
X60209D02*
X60028D01*
X58694Y43058D01*
X57438Y42537D01*
X56307Y41781D01*
X55345Y40819D01*
X54589Y39688D01*
X54068Y38432D01*
X53803Y37097D01*
Y36917D01*
X60209D01*
Y43323D01*
D02*
G37*
G36*
X125484D02*
X125304D01*
X123970Y43058D01*
X122713Y42537D01*
X121582Y41781D01*
X120620Y40819D01*
X119865Y39688D01*
X119344Y38432D01*
X119079Y37097D01*
Y36917D01*
X125484D01*
Y43323D01*
D02*
G37*
G36*
X359252Y61058D02*
X337598D01*
X336571Y60922D01*
X335613Y60526D01*
X334790Y59895D01*
X334159Y59072D01*
X333763Y58114D01*
X333627Y57087D01*
Y39370D01*
X333763Y38342D01*
X334159Y37385D01*
X334790Y36562D01*
X335613Y35931D01*
X336571Y35534D01*
X337598Y35399D01*
X359252D01*
X360280Y35534D01*
X361238Y35931D01*
X362060Y36562D01*
X362691Y37385D01*
X363088Y38342D01*
X363223Y39370D01*
Y57087D01*
X363088Y58114D01*
X362691Y59072D01*
X362060Y59895D01*
X361238Y60526D01*
X360280Y60922D01*
X359252Y61058D01*
D02*
G37*
G36*
X132890Y35917D02*
X126484D01*
Y29512D01*
X126664D01*
X127998Y29777D01*
X129255Y30298D01*
X130386Y31054D01*
X131348Y32015D01*
X132104Y33146D01*
X132624Y34403D01*
X132890Y35737D01*
Y35917D01*
D02*
G37*
G36*
X125484D02*
X119079D01*
Y35737D01*
X119344Y34403D01*
X119865Y33146D01*
X120620Y32015D01*
X121582Y31054D01*
X122713Y30298D01*
X123970Y29777D01*
X125304Y29512D01*
X125484D01*
Y35917D01*
D02*
G37*
G36*
X67614D02*
X61209D01*
Y29512D01*
X61389D01*
X62723Y29777D01*
X63980Y30298D01*
X65111Y31054D01*
X66072Y32015D01*
X66828Y33146D01*
X67349Y34403D01*
X67614Y35737D01*
Y35917D01*
D02*
G37*
G36*
X60209D02*
X53803D01*
Y35737D01*
X54068Y34403D01*
X54589Y33146D01*
X55345Y32015D01*
X56307Y31054D01*
X57438Y30298D01*
X58694Y29777D01*
X60028Y29512D01*
X60209D01*
Y35917D01*
D02*
G37*
G36*
X47762Y15748D02*
X46726D01*
X45724Y15480D01*
X44827Y14961D01*
X44094Y14228D01*
X43575Y13331D01*
X43307Y12329D01*
Y11293D01*
X43575Y10291D01*
X44094Y9394D01*
X44827Y8661D01*
X45724Y8142D01*
X46726Y7874D01*
X47762D01*
X48764Y8142D01*
X49661Y8661D01*
X50394Y9394D01*
X50913Y10291D01*
X51181Y11293D01*
Y12329D01*
X50913Y13331D01*
X50394Y14228D01*
X49661Y14961D01*
X48764Y15480D01*
X47762Y15748D01*
D02*
G37*
%LPD*%
G36*
X169291Y300197D02*
X118892D01*
X118704Y300897D01*
X119173Y301167D01*
X120092Y302087D01*
X120742Y303212D01*
X121079Y304468D01*
Y304618D01*
X116142D01*
X111205D01*
Y304468D01*
X111541Y303212D01*
X112191Y302087D01*
X113110Y301167D01*
X113579Y300897D01*
X113392Y300197D01*
X107081D01*
X106893Y300897D01*
X107362Y301167D01*
X108281Y302087D01*
X108931Y303212D01*
X109268Y304468D01*
Y304618D01*
X104331D01*
Y305618D01*
X109268D01*
Y305768D01*
X108931Y307024D01*
X108281Y308150D01*
X107362Y309069D01*
X106893Y309339D01*
X107081Y310039D01*
X108268D01*
Y309842D01*
X113051D01*
X113238Y309142D01*
X113110Y309069D01*
X112191Y308150D01*
X111541Y307024D01*
X111205Y305768D01*
Y305618D01*
X116142D01*
X121079D01*
Y305768D01*
X120742Y307024D01*
X120092Y308150D01*
X119173Y309069D01*
X119045Y309142D01*
X119233Y309842D01*
X124016D01*
Y310039D01*
X131890D01*
X138779Y316929D01*
X169291D01*
Y300197D01*
D02*
G37*
%LPC*%
G36*
X158501Y313492D02*
X158480D01*
Y310039D01*
X161933D01*
Y310060D01*
X161664Y311065D01*
X161143Y311966D01*
X160407Y312702D01*
X159506Y313223D01*
X158501Y313492D01*
D02*
G37*
G36*
X157480D02*
X157460D01*
X156455Y313223D01*
X155553Y312702D01*
X154817Y311966D01*
X154297Y311065D01*
X154028Y310060D01*
Y310039D01*
X157480D01*
Y313492D01*
D02*
G37*
G36*
X161933Y309039D02*
X158480D01*
Y305587D01*
X158501D01*
X159506Y305856D01*
X160407Y306376D01*
X161143Y307112D01*
X161664Y308014D01*
X161933Y309019D01*
Y309039D01*
D02*
G37*
G36*
X157480D02*
X154028D01*
Y309019D01*
X154297Y308014D01*
X154817Y307112D01*
X155553Y306376D01*
X156455Y305856D01*
X157460Y305587D01*
X157480D01*
Y309039D01*
D02*
G37*
%LPD*%
G36*
X294617Y246441D02*
X262189D01*
Y266732D01*
X294617D01*
Y246441D01*
D02*
G37*
G36*
X250000Y216535D02*
X224410D01*
Y253937D01*
X250000D01*
Y216535D01*
D02*
G37*
G36*
X182693Y89567D02*
X194882D01*
Y76772D01*
X161417D01*
Y116861D01*
X182693D01*
Y89567D01*
D02*
G37*
G36*
X359252Y39370D02*
X337598D01*
Y57087D01*
X359252D01*
Y39370D01*
D02*
G37*
D42*
X47244Y11811D02*
D03*
X527559Y259842D02*
D03*
X11811Y220472D02*
D03*
X240158Y316122D02*
D03*
X376438Y85336D02*
D03*
X389166Y69650D02*
D03*
X387989Y128979D02*
D03*
X480315Y155512D02*
D03*
X447775Y153964D02*
D03*
X453508Y174033D02*
D03*
X411417Y173228D02*
D03*
X510827Y131972D02*
D03*
X427588Y150628D02*
D03*
X418307Y160433D02*
D03*
X404528Y173228D02*
D03*
X81693Y175197D02*
D03*
X531496Y109252D02*
D03*
X172653Y49197D02*
D03*
X152144Y49890D02*
D03*
X315179Y195866D02*
D03*
X326772D02*
D03*
X326804Y243110D02*
D03*
X91535Y46260D02*
D03*
X348425Y230315D02*
D03*
X341535D02*
D03*
X348425Y236221D02*
D03*
X341535D02*
D03*
X231299Y99410D02*
D03*
X510827Y117508D02*
D03*
Y124646D02*
D03*
Y146465D02*
D03*
Y139020D02*
D03*
X506890Y109252D02*
D03*
Y101378D02*
D03*
Y93504D02*
D03*
Y85630D02*
D03*
Y77756D02*
D03*
X528543Y117508D02*
D03*
Y124646D02*
D03*
Y131972D02*
D03*
Y139020D02*
D03*
Y146465D02*
D03*
X27559Y99410D02*
D03*
X8858Y104331D02*
D03*
X236715Y79849D02*
D03*
X229331Y79724D02*
D03*
X318898Y210630D02*
D03*
X380906Y149606D02*
D03*
X387795D02*
D03*
X394685D02*
D03*
X401575D02*
D03*
X399606Y129921D02*
D03*
X393701Y131890D02*
D03*
X382874Y130905D02*
D03*
X321850Y53150D02*
D03*
X280512Y48228D02*
D03*
X236653Y96713D02*
D03*
X227613Y121502D02*
D03*
X234637Y121293D02*
D03*
X231299Y269685D02*
D03*
X340551Y54134D02*
D03*
X344488D02*
D03*
X348425D02*
D03*
X352362D02*
D03*
X356299D02*
D03*
X340551Y50197D02*
D03*
X344488D02*
D03*
X348425D02*
D03*
X352362D02*
D03*
X356299D02*
D03*
X340551Y46260D02*
D03*
X344488D02*
D03*
X348425D02*
D03*
X352362D02*
D03*
X356299D02*
D03*
Y42323D02*
D03*
X352362D02*
D03*
X348425D02*
D03*
X344488D02*
D03*
X340551D02*
D03*
X300197Y247047D02*
D03*
X510827Y192547D02*
D03*
Y215598D02*
D03*
X470472Y117126D02*
D03*
X460570Y153964D02*
D03*
X449803Y119095D02*
D03*
X74272Y156870D02*
D03*
X48926Y157854D02*
D03*
X50650Y137185D02*
D03*
X48926Y144075D02*
D03*
X65413Y150965D02*
D03*
D142*
X388220Y122677D02*
X389200Y122725D01*
X390171Y122869D01*
X391123Y123108D01*
X392047Y123438D01*
X392934Y123858D01*
X393776Y124363D01*
X394564Y124947D01*
X395291Y125606D01*
X348449Y127929D02*
X349176Y127270D01*
X349964Y126685D01*
X350806Y126181D01*
X351693Y125761D01*
X352617Y125431D01*
X353569Y125192D01*
X354540Y125048D01*
X355520Y125000D01*
X341465Y134913D02*
X340676Y135618D01*
X339813Y136231D01*
X338886Y136742D01*
X337909Y137147D01*
X336892Y137441D01*
X335848Y137618D01*
X334791Y137677D01*
X395291Y125606D02*
X399606Y129921D01*
X355520Y125000D02*
X384010D01*
X387989Y128979D01*
X334791Y122677D02*
X388220D01*
X341465Y134913D02*
X348449Y127929D01*
D143*
X499016Y186024D02*
X510827Y174213D01*
X428150Y186024D02*
X499016D01*
X510827Y146465D02*
Y174213D01*
X415354Y173228D02*
X428150Y186024D01*
X496063Y182087D02*
X505905Y172244D01*
X415354Y168307D02*
X429134Y182087D01*
X496063D01*
X411417Y173228D02*
X415354D01*
X406496Y168307D02*
X415354D01*
X404528Y173228D02*
X404563Y173193D01*
Y170241D02*
Y173193D01*
Y170241D02*
X406496Y168307D01*
X505905Y143701D02*
X510827Y138779D01*
X505905Y143701D02*
Y172244D01*
X289370Y186024D02*
Y194882D01*
X281496Y202756D02*
X289370Y194882D01*
X240354Y157677D02*
X254921D01*
X235236Y160433D02*
X252464D01*
X254708Y162677D01*
X512837Y77756D02*
X527543Y92462D01*
X528543Y111889D02*
Y117508D01*
X527543Y92462D02*
Y110889D01*
X528543Y111889D01*
X235236Y152559D02*
X240354Y157677D01*
X235236Y148622D02*
Y152559D01*
X233268Y107283D02*
X239173D01*
X247047Y115157D01*
Y123089D01*
X251635Y127677D01*
X221457Y66929D02*
Y89567D01*
X231299Y99410D01*
X212598Y95473D02*
X230315Y113189D01*
X212598Y69882D02*
Y95473D01*
X205709Y62992D02*
X212598Y69882D01*
X235236Y113189D02*
X240692Y118645D01*
X230315Y113189D02*
X235236D01*
X231674Y110236D02*
X237097D01*
X224410Y102971D02*
X231674Y110236D01*
X237097D02*
X243199Y116338D01*
X240692Y118645D02*
Y143166D01*
X243811Y116950D02*
Y144120D01*
X243199Y116338D02*
X243811Y116950D01*
X218504Y92520D02*
X233268Y107283D01*
X218504Y67751D02*
Y92520D01*
X215551Y68898D02*
Y94113D01*
X224410Y102971D01*
X180748Y51181D02*
X209646D01*
X224380Y65915D02*
Y84675D01*
X209646Y51181D02*
X224380Y65915D01*
X208661Y54134D02*
X221457Y66929D01*
X108268Y57087D02*
X207839D01*
X163701Y54134D02*
X208661D01*
X207839Y57087D02*
X218504Y67751D01*
X75787Y60039D02*
X206693D01*
X215551Y68898D01*
X73819Y62992D02*
X205709D01*
X145984Y36417D02*
X163701Y54134D01*
X165984Y36417D02*
X180748Y51181D01*
X65825Y54998D02*
X73819Y62992D01*
X66958Y51210D02*
X75787Y60039D01*
X100709Y49528D02*
X108268Y57087D01*
X100709Y36417D02*
Y49528D01*
X45305Y51210D02*
X66958D01*
X49332Y54998D02*
X65825D01*
X231468Y202756D02*
X281496D01*
X231468Y197835D02*
X280512D01*
X285433Y192913D01*
X228346Y195354D02*
X228988D01*
X231468Y197835D01*
X228870Y205354D02*
X231468Y202756D01*
X228346Y205354D02*
X228870D01*
X285433Y186024D02*
Y192913D01*
X235236Y148622D02*
X240692Y143166D01*
X306102Y187008D02*
X314961Y195866D01*
X315179D01*
X224380Y84675D02*
X236417Y96713D01*
X306102Y140910D02*
Y187008D01*
X251635Y127677D02*
X254921D01*
X243811Y144120D02*
X247369Y147677D01*
X254921D01*
X236417Y96713D02*
X236653D01*
X24606Y79724D02*
X49332Y54998D01*
X254921Y137677D02*
X269567D01*
X302165Y170276D02*
Y205709D01*
X269567Y137677D02*
X302165Y170276D01*
Y205709D02*
X312992Y216535D01*
X359252D02*
X364173Y211614D01*
X312992Y216535D02*
X359252D01*
X361221Y220472D02*
X366094Y215598D01*
X312008Y220472D02*
X361221D01*
X298512Y206976D02*
X312008Y220472D01*
X298512Y172365D02*
Y206976D01*
X254921Y142677D02*
X268824D01*
X298512Y172365D01*
X364173Y211614D02*
X506890D01*
X319131Y189210D02*
Y210396D01*
X318898Y210630D02*
X319131Y210396D01*
X310039Y180118D02*
X319131Y189210D01*
X319882Y99410D02*
X489173D01*
X316929Y102362D02*
X319882Y99410D01*
X471457Y110236D02*
X482283Y121063D01*
X332677Y103347D02*
X487205D01*
X329724Y106299D02*
X332677Y103347D01*
X254921Y122677D02*
X313347D01*
X329724Y106299D01*
X366094Y215598D02*
X510827D01*
X506890Y211614D02*
X510827Y207677D01*
X310039Y142717D02*
Y180118D01*
X321850Y130905D02*
X333020D01*
X310039Y142717D02*
X321850Y130905D01*
X327918Y119095D02*
X333374D01*
X334791Y117677D01*
X333020Y130905D02*
X334791Y132677D01*
X306102Y140910D02*
X327918Y119095D01*
X508504Y124646D02*
X510827D01*
X482283Y121063D02*
Y121063D01*
X498032Y114173D02*
X508504Y124646D01*
X507272Y117508D02*
X510827D01*
X489173Y99410D02*
X507272Y117508D01*
X279528Y81693D02*
X305118D01*
X515300Y113173D02*
Y133221D01*
X511379Y109252D02*
X515300Y113173D01*
X506890Y109252D02*
X511379D01*
X512421Y101378D02*
X518701Y107658D01*
Y129177D01*
X506890Y101378D02*
X512421D01*
X521654Y102658D02*
Y125083D01*
X512500Y93504D02*
X521654Y102658D01*
X506890Y93504D02*
X512500D01*
X506890Y85630D02*
X513421D01*
X524606Y96815D01*
Y115855D01*
X506890Y77756D02*
X512837D01*
X515300Y133221D02*
X528543Y146465D01*
X518701Y129177D02*
X528543Y139020D01*
X521654Y125083D02*
X528543Y131972D01*
X524590Y115871D02*
Y119145D01*
X524606Y119161D01*
Y120709D01*
X524590Y115871D02*
X524606Y115855D01*
Y120709D02*
X528543Y124646D01*
X266732Y46260D02*
Y81693D01*
X270669Y42323D02*
X287402D01*
X266732Y46260D02*
X270669Y42323D01*
X287402D02*
X298228Y53150D01*
X321850D01*
X272638Y56102D02*
Y81693D01*
Y56102D02*
X280512Y48228D01*
X510827Y192547D02*
Y207677D01*
X389764Y251969D02*
Y262795D01*
X362205Y224410D02*
X389764Y251969D01*
X18701Y79724D02*
X24606D01*
D145*
X470472Y117126D02*
Y167323D01*
X463762Y174033D02*
X470472Y167323D01*
X453508Y174033D02*
X463762D01*
X173549Y123448D02*
X198819Y148718D01*
Y246063D01*
X176181Y87598D02*
X180118D01*
Y91535D02*
Y95472D01*
X172244Y87598D02*
X176181D01*
X184055Y87598D02*
X187992D01*
X180118Y87598D02*
X184055D01*
X172244Y91535D02*
X176181D01*
X180118Y95472D02*
Y99410D01*
X168307Y87598D02*
X172244Y91535D01*
X174031Y105497D02*
X180118Y99410D01*
X168307Y87598D02*
X172244D01*
X187992Y87598D02*
X191929D01*
X176181Y91535D02*
X180118D01*
X184055Y87598D02*
X187992D01*
X174031Y105497D02*
Y109754D01*
X173549Y110236D02*
X174031Y109754D01*
X173549Y110236D02*
X173685Y110373D01*
Y112712D01*
X173549Y112849D02*
X173685Y112712D01*
X173549Y112849D02*
Y123448D01*
X65413Y173681D02*
X86614Y194882D01*
X98110D01*
X65413Y150965D02*
Y173681D01*
X312617Y289470D02*
X326611Y303465D01*
D146*
X221457Y150591D02*
X234637Y137410D01*
Y121293D02*
Y137410D01*
X56945Y62547D02*
X64280Y69882D01*
X120079D01*
X221457Y150591D02*
Y210630D01*
X216535Y254921D02*
X231299Y269685D01*
X216535Y215551D02*
Y254921D01*
Y215551D02*
X221457Y210630D01*
X120079Y69882D02*
X138110Y87913D01*
Y198556D01*
X32480Y113189D02*
Y225394D01*
X45578Y94717D02*
Y100092D01*
X32480Y113189D02*
X45578Y100092D01*
X52362Y245276D02*
Y298031D01*
X32480Y225394D02*
X52362Y245276D01*
D152*
X185984Y36417D02*
D03*
X100709D02*
D03*
D153*
X165984D02*
D03*
X145984D02*
D03*
X125984D02*
D03*
X80709D02*
D03*
X60709D02*
D03*
D154*
X116142Y317717D02*
D03*
D155*
Y305118D02*
D03*
Y292520D02*
D03*
X104331Y317717D02*
D03*
Y305118D02*
D03*
Y292520D02*
D03*
X123622Y281890D02*
D03*
X96850Y328346D02*
D03*
D156*
X228346Y205354D02*
D03*
Y195354D02*
D03*
Y185354D02*
D03*
Y175354D02*
D03*
Y165354D02*
D03*
X174213Y110236D02*
D03*
X193898D02*
D03*
X157980Y329224D02*
D03*
Y309539D02*
D03*
X16732Y252953D02*
D03*
X36417D02*
D03*
D157*
X228346Y155354D02*
D03*
D158*
X240158Y286634D02*
D03*
D159*
X98110Y194882D02*
D03*
X118110D02*
D03*
X138110D02*
D03*
D160*
X484055Y48228D02*
D03*
X474055D02*
D03*
X464055D02*
D03*
X454055D02*
D03*
X444055D02*
D03*
X434055D02*
D03*
D161*
X494055D02*
D03*
D162*
X70866Y285433D02*
D03*
Y309842D02*
D03*
D163*
X52362Y298031D02*
D03*
D164*
X436024Y78770D02*
D03*
X469488D02*
D03*
D165*
X289370Y186024D02*
D03*
X254921Y157677D02*
D03*
X254708Y162677D02*
D03*
X239173Y163795D02*
D03*
X285433Y186024D02*
D03*
X235236Y148622D02*
D03*
Y160433D02*
D03*
X216535Y150591D02*
D03*
Y176181D02*
D03*
X254921Y127677D02*
D03*
Y122677D02*
D03*
X316929Y102362D02*
D03*
X254921Y152677D02*
D03*
Y147677D02*
D03*
Y142677D02*
D03*
Y137677D02*
D03*
X305118Y81693D02*
D03*
X279528D02*
D03*
X334791Y122677D02*
D03*
Y137677D02*
D03*
Y172677D02*
D03*
Y167677D02*
D03*
Y152559D02*
D03*
Y117677D02*
D03*
Y132677D02*
D03*
X272638Y81693D02*
D03*
X266732D02*
D03*
X362205Y224410D02*
D03*
X389764Y262795D02*
D03*
X80374Y135020D02*
D03*
Y139350D02*
D03*
X76043D02*
D03*
Y135020D02*
D03*
D166*
X412014Y301588D02*
D03*
X415364Y301871D02*
D03*
D167*
X274267Y279348D02*
D03*
X184055Y79724D02*
D03*
X187992D02*
D03*
X191929D02*
D03*
X184055Y83661D02*
D03*
X187992D02*
D03*
X191929D02*
D03*
X184055Y87598D02*
D03*
X187992D02*
D03*
X191929D02*
D03*
X164370Y79724D02*
D03*
X168307D02*
D03*
X172244D02*
D03*
X176181D02*
D03*
X180118D02*
D03*
X164370Y83661D02*
D03*
X168307D02*
D03*
X172244D02*
D03*
X176181D02*
D03*
X180118D02*
D03*
X168307Y95472D02*
D03*
X180118D02*
D03*
Y91535D02*
D03*
X172244D02*
D03*
X168307Y99410D02*
D03*
X164370Y91535D02*
D03*
X172244Y99410D02*
D03*
Y95472D02*
D03*
X180118Y99410D02*
D03*
X164370Y95472D02*
D03*
X176181Y99410D02*
D03*
Y95472D02*
D03*
Y91535D02*
D03*
X168307D02*
D03*
X164370Y99410D02*
D03*
X198819Y246063D02*
D03*
X247047Y250984D02*
D03*
X243110D02*
D03*
X235236D02*
D03*
X231299D02*
D03*
X239173D02*
D03*
X227362D02*
D03*
X247047Y247047D02*
D03*
X243110D02*
D03*
X235236D02*
D03*
X231299D02*
D03*
X239173D02*
D03*
X227362D02*
D03*
X239173Y243110D02*
D03*
X235236D02*
D03*
X227362D02*
D03*
X231299D02*
D03*
X239173Y239173D02*
D03*
X235236D02*
D03*
X227362D02*
D03*
X231299D02*
D03*
X239173Y235236D02*
D03*
X235236D02*
D03*
X227362D02*
D03*
X231299D02*
D03*
X239173Y231299D02*
D03*
X235236D02*
D03*
X227362D02*
D03*
X231299D02*
D03*
X247047Y227362D02*
D03*
X243110D02*
D03*
X235236D02*
D03*
X231299D02*
D03*
X239173D02*
D03*
X227362D02*
D03*
X247047Y223425D02*
D03*
X243110D02*
D03*
X235236D02*
D03*
X231299D02*
D03*
X239173D02*
D03*
X227362D02*
D03*
Y219488D02*
D03*
X239173D02*
D03*
X231299D02*
D03*
X235236D02*
D03*
X243110D02*
D03*
X247047D02*
D03*
X264764Y264764D02*
D03*
Y260827D02*
D03*
Y256890D02*
D03*
Y252953D02*
D03*
Y249016D02*
D03*
X268701Y264764D02*
D03*
Y260827D02*
D03*
Y256890D02*
D03*
Y252953D02*
D03*
Y249016D02*
D03*
X292323D02*
D03*
X288386D02*
D03*
X284449D02*
D03*
X280512D02*
D03*
X276575D02*
D03*
X272638D02*
D03*
X462691Y130249D02*
D03*
X272638Y260827D02*
D03*
Y256890D02*
D03*
Y252953D02*
D03*
X276575Y260827D02*
D03*
Y256890D02*
D03*
Y252953D02*
D03*
X280512Y264764D02*
D03*
Y260827D02*
D03*
Y256890D02*
D03*
Y252953D02*
D03*
X284449Y264764D02*
D03*
Y260827D02*
D03*
Y256890D02*
D03*
Y252953D02*
D03*
X288386Y264764D02*
D03*
Y260827D02*
D03*
Y256890D02*
D03*
Y252953D02*
D03*
X292323D02*
D03*
Y256890D02*
D03*
Y260827D02*
D03*
Y264764D02*
D03*
X326611Y303465D02*
D03*
X312617Y289470D02*
D03*
X164370Y87598D02*
D03*
X168307D02*
D03*
X172244D02*
D03*
X176181D02*
D03*
X180118D02*
D03*
X26575Y212598D02*
D03*
X45728Y124390D02*
D03*
Y128327D02*
D03*
Y120453D02*
D03*
Y116516D02*
D03*
X49665Y124390D02*
D03*
Y128327D02*
D03*
Y120453D02*
D03*
Y116516D02*
D03*
X53602Y124390D02*
D03*
Y128327D02*
D03*
Y120453D02*
D03*
Y116516D02*
D03*
X57539Y124390D02*
D03*
Y128327D02*
D03*
Y120453D02*
D03*
Y116516D02*
D03*
X73287D02*
D03*
Y120453D02*
D03*
Y124390D02*
D03*
X69350Y116516D02*
D03*
X65413D02*
D03*
X61476D02*
D03*
Y120453D02*
D03*
X65413D02*
D03*
X69350D02*
D03*
X61476Y128327D02*
D03*
Y124390D02*
D03*
X69350D02*
D03*
Y128327D02*
D03*
X65413Y124390D02*
D03*
Y128327D02*
D03*
X95268Y128134D02*
D03*
X87394Y124197D02*
D03*
X91331D02*
D03*
X95268Y124198D02*
D03*
X91331Y128134D02*
D03*
X87394D02*
D03*
D168*
X56945Y62547D02*
D03*
X45305Y51210D02*
D03*
X18701Y79724D02*
D03*
X45578Y94717D02*
D03*
M02*
