G04*
G04 #@! TF.GenerationSoftware,Altium Limited,Altium Designer,24.5.2 (23)*
G04*
G04 Layer_Color=16711935*
%FSLAX25Y25*%
%MOIN*%
G70*
G04*
G04 #@! TF.SameCoordinates,98A8DC51-4EBF-44C9-86BF-D70121EF64E5*
G04*
G04*
G04 #@! TF.FilePolarity,Positive*
G04*
G01*
G75*
%ADD42C,0.03937*%
%ADD165C,0.02756*%
%ADD167C,0.03150*%
%ADD168C,0.04724*%
D42*
X65413Y150965D02*
D03*
X48926Y144075D02*
D03*
X50650Y137185D02*
D03*
X48926Y157854D02*
D03*
X74272Y156870D02*
D03*
X449803Y119095D02*
D03*
X460570Y153964D02*
D03*
X470472Y117126D02*
D03*
X510827Y215598D02*
D03*
Y192547D02*
D03*
X300197Y247047D02*
D03*
X340551Y42323D02*
D03*
X344488D02*
D03*
X348425D02*
D03*
X352362D02*
D03*
X356299D02*
D03*
Y46260D02*
D03*
X352362D02*
D03*
X348425D02*
D03*
X344488D02*
D03*
X340551D02*
D03*
X356299Y50197D02*
D03*
X352362D02*
D03*
X348425D02*
D03*
X344488D02*
D03*
X340551D02*
D03*
X356299Y54134D02*
D03*
X352362D02*
D03*
X348425D02*
D03*
X344488D02*
D03*
X340551D02*
D03*
X231299Y269685D02*
D03*
X234637Y121293D02*
D03*
X227613Y121502D02*
D03*
X236653Y96713D02*
D03*
X280512Y48228D02*
D03*
X321850Y53150D02*
D03*
X382874Y130905D02*
D03*
X393701Y131890D02*
D03*
X399606Y129921D02*
D03*
X401575Y149606D02*
D03*
X394685D02*
D03*
X387795D02*
D03*
X380906D02*
D03*
X318898Y210630D02*
D03*
X229331Y79724D02*
D03*
X236715Y79849D02*
D03*
X8858Y104331D02*
D03*
X27559Y99410D02*
D03*
X528543Y146465D02*
D03*
Y139020D02*
D03*
Y131972D02*
D03*
Y124646D02*
D03*
Y117508D02*
D03*
X506890Y77756D02*
D03*
Y85630D02*
D03*
Y93504D02*
D03*
Y101378D02*
D03*
Y109252D02*
D03*
X510827Y139020D02*
D03*
Y146465D02*
D03*
Y124646D02*
D03*
Y117508D02*
D03*
X231299Y99410D02*
D03*
X341535Y236221D02*
D03*
X348425D02*
D03*
X341535Y230315D02*
D03*
X348425D02*
D03*
X91535Y46260D02*
D03*
X326804Y243110D02*
D03*
X326772Y195866D02*
D03*
X315179D02*
D03*
X152144Y49890D02*
D03*
X172653Y49197D02*
D03*
X531496Y109252D02*
D03*
X81693Y175197D02*
D03*
X404528Y173228D02*
D03*
X418307Y160433D02*
D03*
X427588Y150628D02*
D03*
X510827Y131972D02*
D03*
X411417Y173228D02*
D03*
X453508Y174033D02*
D03*
X447775Y153964D02*
D03*
X480315Y155512D02*
D03*
X387989Y128979D02*
D03*
X389166Y69650D02*
D03*
X376438Y85336D02*
D03*
D165*
X76043Y135020D02*
D03*
Y139350D02*
D03*
X80374D02*
D03*
Y135020D02*
D03*
X389764Y262795D02*
D03*
X362205Y224410D02*
D03*
X266732Y81693D02*
D03*
X272638D02*
D03*
X334791Y132677D02*
D03*
Y117677D02*
D03*
Y152559D02*
D03*
Y167677D02*
D03*
Y172677D02*
D03*
Y137677D02*
D03*
Y122677D02*
D03*
X279528Y81693D02*
D03*
X305118D02*
D03*
X254921Y137677D02*
D03*
Y142677D02*
D03*
Y147677D02*
D03*
Y152677D02*
D03*
X316929Y102362D02*
D03*
X254921Y122677D02*
D03*
Y127677D02*
D03*
X216535Y176181D02*
D03*
Y150591D02*
D03*
X235236Y160433D02*
D03*
Y148622D02*
D03*
X285433Y186024D02*
D03*
X239173Y163795D02*
D03*
X254708Y162677D02*
D03*
X254921Y157677D02*
D03*
X289370Y186024D02*
D03*
D167*
X87394Y128134D02*
D03*
X91331D02*
D03*
X95268Y124198D02*
D03*
X91331Y124197D02*
D03*
X87394D02*
D03*
X95268Y128134D02*
D03*
X65413Y128327D02*
D03*
Y124390D02*
D03*
X69350Y128327D02*
D03*
Y124390D02*
D03*
X61476D02*
D03*
Y128327D02*
D03*
X69350Y120453D02*
D03*
X65413D02*
D03*
X61476D02*
D03*
Y116516D02*
D03*
X65413D02*
D03*
X69350D02*
D03*
X73287Y124390D02*
D03*
Y120453D02*
D03*
Y116516D02*
D03*
X57539D02*
D03*
Y120453D02*
D03*
Y128327D02*
D03*
Y124390D02*
D03*
X53602Y116516D02*
D03*
Y120453D02*
D03*
Y128327D02*
D03*
Y124390D02*
D03*
X49665Y116516D02*
D03*
Y120453D02*
D03*
Y128327D02*
D03*
Y124390D02*
D03*
X45728Y116516D02*
D03*
Y120453D02*
D03*
Y128327D02*
D03*
Y124390D02*
D03*
X26575Y212598D02*
D03*
X180118Y87598D02*
D03*
X176181D02*
D03*
X172244D02*
D03*
X168307D02*
D03*
X164370D02*
D03*
X312617Y289470D02*
D03*
X326611Y303465D02*
D03*
X292323Y264764D02*
D03*
Y260827D02*
D03*
Y256890D02*
D03*
Y252953D02*
D03*
X288386D02*
D03*
Y256890D02*
D03*
Y260827D02*
D03*
Y264764D02*
D03*
X284449Y252953D02*
D03*
Y256890D02*
D03*
Y260827D02*
D03*
Y264764D02*
D03*
X280512Y252953D02*
D03*
Y256890D02*
D03*
Y260827D02*
D03*
Y264764D02*
D03*
X276575Y252953D02*
D03*
Y256890D02*
D03*
Y260827D02*
D03*
X272638Y252953D02*
D03*
Y256890D02*
D03*
Y260827D02*
D03*
X462691Y130249D02*
D03*
X272638Y249016D02*
D03*
X276575D02*
D03*
X280512D02*
D03*
X284449D02*
D03*
X288386D02*
D03*
X292323D02*
D03*
X268701D02*
D03*
Y252953D02*
D03*
Y256890D02*
D03*
Y260827D02*
D03*
Y264764D02*
D03*
X264764Y249016D02*
D03*
Y252953D02*
D03*
Y256890D02*
D03*
Y260827D02*
D03*
Y264764D02*
D03*
X247047Y219488D02*
D03*
X243110D02*
D03*
X235236D02*
D03*
X231299D02*
D03*
X239173D02*
D03*
X227362D02*
D03*
Y223425D02*
D03*
X239173D02*
D03*
X231299D02*
D03*
X235236D02*
D03*
X243110D02*
D03*
X247047D02*
D03*
X227362Y227362D02*
D03*
X239173D02*
D03*
X231299D02*
D03*
X235236D02*
D03*
X243110D02*
D03*
X247047D02*
D03*
X231299Y231299D02*
D03*
X227362D02*
D03*
X235236D02*
D03*
X239173D02*
D03*
X231299Y235236D02*
D03*
X227362D02*
D03*
X235236D02*
D03*
X239173D02*
D03*
X231299Y239173D02*
D03*
X227362D02*
D03*
X235236D02*
D03*
X239173D02*
D03*
X231299Y243110D02*
D03*
X227362D02*
D03*
X235236D02*
D03*
X239173D02*
D03*
X227362Y247047D02*
D03*
X239173D02*
D03*
X231299D02*
D03*
X235236D02*
D03*
X243110D02*
D03*
X247047D02*
D03*
X227362Y250984D02*
D03*
X239173D02*
D03*
X231299D02*
D03*
X235236D02*
D03*
X243110D02*
D03*
X247047D02*
D03*
X198819Y246063D02*
D03*
X164370Y99410D02*
D03*
X168307Y91535D02*
D03*
X176181D02*
D03*
Y95472D02*
D03*
Y99410D02*
D03*
X164370Y95472D02*
D03*
X180118Y99410D02*
D03*
X172244Y95472D02*
D03*
Y99410D02*
D03*
X164370Y91535D02*
D03*
X168307Y99410D02*
D03*
X172244Y91535D02*
D03*
X180118D02*
D03*
Y95472D02*
D03*
X168307D02*
D03*
X180118Y83661D02*
D03*
X176181D02*
D03*
X172244D02*
D03*
X168307D02*
D03*
X164370D02*
D03*
X180118Y79724D02*
D03*
X176181D02*
D03*
X172244D02*
D03*
X168307D02*
D03*
X164370D02*
D03*
X191929Y87598D02*
D03*
X187992D02*
D03*
X184055D02*
D03*
X191929Y83661D02*
D03*
X187992D02*
D03*
X184055D02*
D03*
X191929Y79724D02*
D03*
X187992D02*
D03*
X184055D02*
D03*
X274267Y279348D02*
D03*
D168*
X45578Y94717D02*
D03*
X18701Y79724D02*
D03*
X45305Y51210D02*
D03*
X56945Y62547D02*
D03*
M02*
