G04*
G04 #@! TF.GenerationSoftware,Altium Limited,Altium Designer,24.5.2 (23)*
G04*
G04 Layer_Color=16711935*
%FSLAX25Y25*%
%MOIN*%
G70*
G04*
G04 #@! TF.SameCoordinates,98A8DC51-4EBF-44C9-86BF-D70121EF64E5*
G04*
G04*
G04 #@! TF.FilePolarity,Negative*
G04*
G01*
G75*
%ADD98C,0.04737*%
%ADD128C,0.07874*%
%ADD129R,0.12611X0.12611*%
%ADD130C,0.12611*%
%ADD131R,0.08674X0.08674*%
%ADD132C,0.08674*%
%ADD133C,0.06706*%
%ADD134R,0.06706X0.06706*%
%ADD135C,0.05918*%
%ADD136C,0.14580*%
%ADD137C,0.07296*%
%ADD138R,0.07296X0.07296*%
%ADD139R,0.20485X0.08674*%
%ADD140R,0.08674X0.20485*%
%ADD141C,0.03753*%
G36*
X124007Y132260D02*
X84626D01*
Y132264D01*
X74272D01*
Y150965D01*
X84626D01*
Y171630D01*
X124007D01*
Y132260D01*
D02*
G37*
D98*
X240158Y316122D02*
D03*
D128*
X47244Y11811D02*
D03*
X527559Y259842D02*
D03*
X11811Y220472D02*
D03*
D129*
X185984Y36417D02*
D03*
X100709D02*
D03*
D130*
X165984D02*
D03*
X145984D02*
D03*
X125984D02*
D03*
X80709D02*
D03*
X60709D02*
D03*
D131*
X116142Y317717D02*
D03*
D132*
Y305118D02*
D03*
Y292520D02*
D03*
X104331Y317717D02*
D03*
Y305118D02*
D03*
Y292520D02*
D03*
X123622Y281890D02*
D03*
X96850Y328346D02*
D03*
D133*
X228346Y205354D02*
D03*
Y195354D02*
D03*
Y185354D02*
D03*
Y175354D02*
D03*
Y165354D02*
D03*
X174213Y110236D02*
D03*
X193898D02*
D03*
X157980Y329224D02*
D03*
Y309539D02*
D03*
X16732Y252953D02*
D03*
X36417D02*
D03*
D134*
X228346Y155354D02*
D03*
D135*
X240158Y286634D02*
D03*
D136*
X98110Y194882D02*
D03*
X118110D02*
D03*
X138110D02*
D03*
D137*
X484055Y48228D02*
D03*
X474055D02*
D03*
X464055D02*
D03*
X454055D02*
D03*
X444055D02*
D03*
X434055D02*
D03*
D138*
X494055D02*
D03*
D139*
X70866Y285433D02*
D03*
Y309842D02*
D03*
D140*
X52362Y298031D02*
D03*
D141*
X436024Y78770D02*
D03*
X469488D02*
D03*
M02*
