G04*
G04 #@! TF.GenerationSoftware,Altium Limited,Altium Designer,24.5.2 (23)*
G04*
G04 Layer_Color=255*
%FSLAX25Y25*%
%MOIN*%
G70*
G04*
G04 #@! TF.SameCoordinates,98A8DC51-4EBF-44C9-86BF-D70121EF64E5*
G04*
G04*
G04 #@! TF.FilePolarity,Positive*
G04*
G01*
G75*
G04:AMPARAMS|DCode=17|XSize=98.43mil|YSize=31.5mil|CornerRadius=15.75mil|HoleSize=0mil|Usage=FLASHONLY|Rotation=90.000|XOffset=0mil|YOffset=0mil|HoleType=Round|Shape=RoundedRectangle|*
%AMROUNDEDRECTD17*
21,1,0.09843,0.00000,0,0,90.0*
21,1,0.06693,0.03150,0,0,90.0*
1,1,0.03150,0.00000,0.03347*
1,1,0.03150,0.00000,-0.03347*
1,1,0.03150,0.00000,-0.03347*
1,1,0.03150,0.00000,0.03347*
%
%ADD17ROUNDEDRECTD17*%
G04:AMPARAMS|DCode=18|XSize=98.43mil|YSize=31.5mil|CornerRadius=15.75mil|HoleSize=0mil|Usage=FLASHONLY|Rotation=180.000|XOffset=0mil|YOffset=0mil|HoleType=Round|Shape=RoundedRectangle|*
%AMROUNDEDRECTD18*
21,1,0.09843,0.00000,0,0,180.0*
21,1,0.06693,0.03150,0,0,180.0*
1,1,0.03150,-0.03347,0.00000*
1,1,0.03150,0.03347,0.00000*
1,1,0.03150,0.03347,0.00000*
1,1,0.03150,-0.03347,0.00000*
%
%ADD18ROUNDEDRECTD18*%
%ADD19R,0.04331X0.04331*%
%ADD20R,0.11811X0.07874*%
%ADD21R,0.03937X0.03543*%
%ADD22R,0.04724X0.05118*%
%ADD23R,0.02953X0.04449*%
%ADD24R,0.02284X0.08268*%
%ADD25R,0.02559X0.04449*%
%ADD26R,0.03543X0.03543*%
%ADD27R,0.05906X0.03543*%
%ADD28R,0.03543X0.05906*%
%ADD29R,0.04016X0.03701*%
%ADD30R,0.05906X0.05906*%
%ADD31R,0.03937X0.04331*%
%ADD32R,0.04134X0.08661*%
%ADD33R,0.01575X0.01575*%
%ADD34R,0.01575X0.01378*%
%ADD35R,0.02756X0.04331*%
%ADD36R,0.04488X0.07205*%
%ADD37R,0.03386X0.11024*%
%ADD38R,0.02756X0.13110*%
%ADD39R,0.03543X0.03661*%
%ADD40R,0.04134X0.03071*%
%ADD41R,0.05118X0.04724*%
%ADD42C,0.03937*%
%ADD43R,0.10236X0.14173*%
%ADD44R,0.03701X0.04016*%
%ADD45R,0.01378X0.01575*%
%ADD46R,0.01575X0.01575*%
%ADD47R,0.05512X0.08268*%
%ADD48R,0.01968X0.03150*%
%ADD49R,0.08661X0.04134*%
%ADD50R,0.04331X0.03937*%
%ADD51R,0.05512X0.03937*%
%ADD52R,0.07677X0.04134*%
%ADD53R,0.04213X0.08504*%
%ADD54R,0.04100X0.15900*%
%ADD55R,0.08661X0.13780*%
%ADD56R,0.08661X0.04724*%
%ADD57R,0.09843X0.12992*%
%ADD58R,0.11417X0.21260*%
%ADD59R,0.05906X0.08661*%
%ADD60R,0.08661X0.05906*%
%ADD61R,0.08268X0.08268*%
%ADD62R,0.04724X0.01181*%
%ADD63R,0.01181X0.04724*%
%ADD64R,0.08661X0.16929*%
%ADD65R,0.08976X0.04724*%
%ADD66R,0.25197X0.22835*%
%ADD67R,0.08268X0.05906*%
G04:AMPARAMS|DCode=68|XSize=59.06mil|YSize=17.72mil|CornerRadius=1.97mil|HoleSize=0mil|Usage=FLASHONLY|Rotation=270.000|XOffset=0mil|YOffset=0mil|HoleType=Round|Shape=RoundedRectangle|*
%AMROUNDEDRECTD68*
21,1,0.05906,0.01378,0,0,270.0*
21,1,0.05512,0.01772,0,0,270.0*
1,1,0.00394,-0.00689,-0.02756*
1,1,0.00394,-0.00689,0.02756*
1,1,0.00394,0.00689,0.02756*
1,1,0.00394,0.00689,-0.02756*
%
%ADD68ROUNDEDRECTD68*%
%ADD69R,0.42300X0.32700*%
%ADD70R,0.21260X0.11417*%
%ADD71R,0.16929X0.08661*%
%AMCUSTOMSHAPE144*
4,1,8,-0.21260,-0.15098,-0.21260,-0.09311,-0.17126,-0.09311,-0.17126,0.15098,0.17126,0.15098,0.17126,-0.09311,0.21260,-0.09311,0.21260,-0.15098,-0.21260,-0.15098,0.0*%
%ADD144CUSTOMSHAPE144*%

%ADD152R,0.11811X0.11811*%
%ADD153C,0.11811*%
%ADD154R,0.07874X0.07874*%
%ADD155C,0.07874*%
%ADD156C,0.05906*%
%ADD157R,0.05906X0.05906*%
%ADD158C,0.05118*%
%ADD159C,0.13780*%
%ADD160C,0.06496*%
%ADD161R,0.06496X0.06496*%
%ADD162R,0.19685X0.07874*%
%ADD163R,0.07874X0.19685*%
D17*
X387795Y184449D02*
D03*
X392913D02*
D03*
X398031D02*
D03*
X403150D02*
D03*
X408268D02*
D03*
X413386D02*
D03*
X418504D02*
D03*
X435827D02*
D03*
X440945D02*
D03*
X446063D02*
D03*
X451181D02*
D03*
X456299D02*
D03*
X461417D02*
D03*
X466536D02*
D03*
X471654D02*
D03*
X476772D02*
D03*
X481890D02*
D03*
X487008D02*
D03*
Y308465D02*
D03*
X481890D02*
D03*
X476772D02*
D03*
X471654D02*
D03*
X466536D02*
D03*
X461417D02*
D03*
X456299D02*
D03*
X451181D02*
D03*
X446063D02*
D03*
X440945D02*
D03*
X435827D02*
D03*
X418504D02*
D03*
X413386D02*
D03*
X408268D02*
D03*
X403150D02*
D03*
X398031D02*
D03*
X392913D02*
D03*
X387795D02*
D03*
X425591Y184449D02*
D03*
X430709D02*
D03*
Y308465D02*
D03*
X425591D02*
D03*
D18*
X493504Y208858D02*
D03*
Y213976D02*
D03*
Y219094D02*
D03*
Y224213D02*
D03*
Y229331D02*
D03*
Y234449D02*
D03*
Y239567D02*
D03*
Y244685D02*
D03*
Y249803D02*
D03*
Y254921D02*
D03*
Y260039D02*
D03*
Y265158D02*
D03*
Y270276D02*
D03*
Y275394D02*
D03*
Y280512D02*
D03*
Y285630D02*
D03*
Y290748D02*
D03*
Y295866D02*
D03*
X381299D02*
D03*
Y290748D02*
D03*
Y285630D02*
D03*
Y280512D02*
D03*
Y275394D02*
D03*
Y270276D02*
D03*
Y265158D02*
D03*
Y260039D02*
D03*
Y254921D02*
D03*
Y249803D02*
D03*
Y244685D02*
D03*
Y239567D02*
D03*
Y234449D02*
D03*
Y229331D02*
D03*
Y224213D02*
D03*
Y219094D02*
D03*
Y213976D02*
D03*
Y208858D02*
D03*
Y203740D02*
D03*
Y198622D02*
D03*
X493504Y203740D02*
D03*
Y198622D02*
D03*
D19*
X431102Y255906D02*
D03*
X437402D02*
D03*
X443701D02*
D03*
X431102Y249606D02*
D03*
X437402D02*
D03*
X443701D02*
D03*
X431102Y243307D02*
D03*
X437402D02*
D03*
X443701D02*
D03*
X431102Y237008D02*
D03*
X437402D02*
D03*
X443701D02*
D03*
X394094Y203150D02*
D03*
X401968D02*
D03*
X409842D02*
D03*
X417717D02*
D03*
X425591D02*
D03*
X433465D02*
D03*
X441339D02*
D03*
X449213D02*
D03*
X457087D02*
D03*
X464961D02*
D03*
X472835D02*
D03*
X480709D02*
D03*
X394094Y195276D02*
D03*
X401968D02*
D03*
X409842D02*
D03*
X417717D02*
D03*
X425591D02*
D03*
X433465D02*
D03*
X440945D02*
D03*
X449213D02*
D03*
X457087D02*
D03*
X464961D02*
D03*
X472835D02*
D03*
X480709D02*
D03*
D20*
X399606Y278740D02*
D03*
X418504D02*
D03*
X437402D02*
D03*
X456299D02*
D03*
X475197D02*
D03*
X399606Y266142D02*
D03*
X418504D02*
D03*
X437402D02*
D03*
X456299D02*
D03*
X475197D02*
D03*
X399606Y252756D02*
D03*
X418504D02*
D03*
X456299D02*
D03*
X475197D02*
D03*
X399606Y240158D02*
D03*
X418504Y239567D02*
D03*
X456299Y240158D02*
D03*
X475197D02*
D03*
X399606Y226772D02*
D03*
X418504D02*
D03*
X437402D02*
D03*
X456299D02*
D03*
X475197D02*
D03*
X399606Y214173D02*
D03*
X418504D02*
D03*
X437402D02*
D03*
X456299D02*
D03*
X475197D02*
D03*
D21*
X427543Y145161D02*
D03*
Y138469D02*
D03*
X447844Y145161D02*
D03*
Y138469D02*
D03*
X461031Y145161D02*
D03*
Y138469D02*
D03*
X473425Y145161D02*
D03*
Y138469D02*
D03*
D22*
X418504Y173228D02*
D03*
X425984D02*
D03*
X81486Y164717D02*
D03*
X88967D02*
D03*
X252165Y212598D02*
D03*
X259646D02*
D03*
X252165Y203665D02*
D03*
X259646D02*
D03*
X252165Y195272D02*
D03*
X259646D02*
D03*
X66227Y76021D02*
D03*
X58746D02*
D03*
X334329Y236221D02*
D03*
X326849D02*
D03*
X341732Y264370D02*
D03*
X349213D02*
D03*
X341732Y256496D02*
D03*
X349213D02*
D03*
X341732Y248622D02*
D03*
X349213D02*
D03*
X364961Y248622D02*
D03*
X357480D02*
D03*
X364961Y256496D02*
D03*
X357480D02*
D03*
X364961Y264370D02*
D03*
X357480D02*
D03*
X349213Y293307D02*
D03*
X341732D02*
D03*
X349213Y301181D02*
D03*
X341732D02*
D03*
X349213Y309055D02*
D03*
X341732D02*
D03*
X357480Y309055D02*
D03*
X364961D02*
D03*
X357480Y301181D02*
D03*
X364961D02*
D03*
X357480Y293307D02*
D03*
X364961D02*
D03*
X181962Y295205D02*
D03*
X174481D02*
D03*
X181890Y285433D02*
D03*
X174409D02*
D03*
X418504Y166339D02*
D03*
X425984D02*
D03*
D23*
X457717Y125955D02*
D03*
X447717D02*
D03*
X437717D02*
D03*
X462717D02*
D03*
X452717D02*
D03*
X442717D02*
D03*
D24*
X482283Y120108D02*
D03*
Y72864D02*
D03*
X431102D02*
D03*
Y120108D02*
D03*
D25*
X466457Y125955D02*
D03*
D26*
X293898Y143268D02*
D03*
X288386D02*
D03*
X282874D02*
D03*
X293898Y148779D02*
D03*
X288386Y148779D02*
D03*
X282874D02*
D03*
X293898Y154291D02*
D03*
X288386D02*
D03*
X282874D02*
D03*
D27*
X328740Y177677D02*
D03*
Y172677D02*
D03*
X328740Y167677D02*
D03*
X328740Y162677D02*
D03*
Y157677D02*
D03*
Y152677D02*
D03*
Y147677D02*
D03*
Y142677D02*
D03*
Y137677D02*
D03*
Y132677D02*
D03*
X328740Y127677D02*
D03*
X328740Y122677D02*
D03*
Y117677D02*
D03*
Y112677D02*
D03*
X259842D02*
D03*
Y117677D02*
D03*
Y122677D02*
D03*
X259842Y127677D02*
D03*
X259842Y132677D02*
D03*
Y137677D02*
D03*
Y142677D02*
D03*
Y147677D02*
D03*
Y152677D02*
D03*
Y157677D02*
D03*
Y162677D02*
D03*
X259842Y167677D02*
D03*
X259842Y172677D02*
D03*
Y177677D02*
D03*
D28*
X316811Y107756D02*
D03*
X311811Y107756D02*
D03*
X306811D02*
D03*
X301811Y107756D02*
D03*
X296811Y107756D02*
D03*
X291811Y107756D02*
D03*
X286811Y107756D02*
D03*
X281811D02*
D03*
X276811Y107756D02*
D03*
X271811Y107756D02*
D03*
D29*
X480299Y138705D02*
D03*
Y144925D02*
D03*
X239173Y148465D02*
D03*
Y154685D02*
D03*
X216535Y166181D02*
D03*
Y172402D02*
D03*
Y154370D02*
D03*
Y160591D02*
D03*
X387795Y143858D02*
D03*
Y137638D02*
D03*
X394685Y143858D02*
D03*
Y137638D02*
D03*
X380906Y143858D02*
D03*
Y137638D02*
D03*
X401575Y143858D02*
D03*
Y137638D02*
D03*
X14764Y99252D02*
D03*
Y105473D02*
D03*
X20669D02*
D03*
Y99252D02*
D03*
X229331Y71024D02*
D03*
Y64803D02*
D03*
X222441Y85276D02*
D03*
Y91496D02*
D03*
X229331Y85276D02*
D03*
Y91496D02*
D03*
X236653Y85276D02*
D03*
Y91496D02*
D03*
X220472Y128583D02*
D03*
Y134803D02*
D03*
X103690Y134677D02*
D03*
Y128457D02*
D03*
X31496Y212441D02*
D03*
Y218661D02*
D03*
X274232Y270827D02*
D03*
Y264606D02*
D03*
X332677Y316102D02*
D03*
Y309882D02*
D03*
Y303465D02*
D03*
Y297244D02*
D03*
Y290354D02*
D03*
Y284134D02*
D03*
X198819Y264606D02*
D03*
Y270827D02*
D03*
Y250827D02*
D03*
Y257047D02*
D03*
X467543Y144925D02*
D03*
Y138705D02*
D03*
X454602Y144925D02*
D03*
Y138705D02*
D03*
X434272Y144925D02*
D03*
Y138705D02*
D03*
X441181Y144925D02*
D03*
Y138705D02*
D03*
D30*
X512795Y109252D02*
D03*
X526575D02*
D03*
X526575Y93504D02*
D03*
X512795D02*
D03*
X526575Y85630D02*
D03*
X512795D02*
D03*
Y77756D02*
D03*
X526575D02*
D03*
X526575Y101378D02*
D03*
X512795D02*
D03*
D31*
X413424Y327828D02*
D03*
D32*
X419232Y334324D02*
D03*
X407617D02*
D03*
D33*
X413354Y315907D02*
D03*
X416110D02*
D03*
X413399Y323431D02*
D03*
X416155D02*
D03*
D34*
X413372Y318346D02*
D03*
Y320905D02*
D03*
D35*
X410945Y74724D02*
D03*
X406614D02*
D03*
X402283D02*
D03*
X397953D02*
D03*
X393622D02*
D03*
X389291D02*
D03*
X384961D02*
D03*
X380630D02*
D03*
D36*
X426221Y74783D02*
D03*
D37*
X376378Y76693D02*
D03*
D38*
X427087Y119075D02*
D03*
X376063D02*
D03*
D39*
X417992Y123799D02*
D03*
D40*
X401201Y124094D02*
D03*
D41*
X114556Y141375D02*
D03*
Y133895D02*
D03*
X114556Y152565D02*
D03*
Y160046D02*
D03*
X121446Y141375D02*
D03*
Y133895D02*
D03*
X121446Y152565D02*
D03*
Y160046D02*
D03*
X279528Y244685D02*
D03*
Y237205D02*
D03*
X349409Y90354D02*
D03*
Y82874D02*
D03*
X357283Y90354D02*
D03*
Y82874D02*
D03*
X222441Y71653D02*
D03*
Y64173D02*
D03*
X227362Y135433D02*
D03*
Y127953D02*
D03*
X234685Y135433D02*
D03*
Y127953D02*
D03*
X191929Y75787D02*
D03*
Y68307D02*
D03*
X183071Y75590D02*
D03*
Y68110D02*
D03*
X147638Y262992D02*
D03*
Y270472D02*
D03*
X173228Y68110D02*
D03*
Y75590D02*
D03*
X163386D02*
D03*
Y68110D02*
D03*
D42*
X68898Y267717D02*
D03*
X238189Y213583D02*
D03*
X32480Y99410D02*
D03*
X316929Y255906D02*
D03*
X418307Y155512D02*
D03*
X81404Y157463D02*
D03*
X31457Y224317D02*
D03*
X142126Y288386D02*
D03*
X47244Y11811D02*
D03*
X527559Y259842D02*
D03*
X11811Y220472D02*
D03*
X240158Y316122D02*
D03*
D43*
Y270098D02*
D03*
Y332264D02*
D03*
D44*
X522795Y117508D02*
D03*
X516575D02*
D03*
X522795Y146465D02*
D03*
X516575D02*
D03*
X522795Y139020D02*
D03*
X516575D02*
D03*
Y124646D02*
D03*
X522795D02*
D03*
Y131972D02*
D03*
X516575D02*
D03*
X100551Y56102D02*
D03*
X94333D02*
D03*
X145957Y56102D02*
D03*
X152173D02*
D03*
X166227D02*
D03*
X172449D02*
D03*
X306298Y242059D02*
D03*
X300077D02*
D03*
X306298Y236221D02*
D03*
X300077D02*
D03*
X521128Y192547D02*
D03*
X514907D02*
D03*
X521128Y215598D02*
D03*
X514907D02*
D03*
X54604Y164756D02*
D03*
X60824D02*
D03*
X60824Y157866D02*
D03*
X54604D02*
D03*
X74359Y164756D02*
D03*
X68138D02*
D03*
X60824Y150976D02*
D03*
X54604D02*
D03*
X78392Y76021D02*
D03*
X72172D02*
D03*
X60824Y144087D02*
D03*
X54604D02*
D03*
X45305Y68262D02*
D03*
X51525D02*
D03*
X51525Y62441D02*
D03*
X45305D02*
D03*
X45305Y56619D02*
D03*
X51525D02*
D03*
D45*
X341831Y13739D02*
D03*
X339272D02*
D03*
D46*
X336788Y13739D02*
D03*
Y10983D02*
D03*
X344488Y10983D02*
D03*
Y13739D02*
D03*
D47*
X229331Y54331D02*
D03*
X211614D02*
D03*
Y18504D02*
D03*
X229331D02*
D03*
X239173D02*
D03*
X256890D02*
D03*
Y54331D02*
D03*
X239173D02*
D03*
D48*
X224012Y107677D02*
D03*
X227555D02*
D03*
X231099D02*
D03*
X234642D02*
D03*
Y112401D02*
D03*
X231099D02*
D03*
X227555D02*
D03*
X224012D02*
D03*
D49*
X355217Y19587D02*
D03*
Y7972D02*
D03*
D50*
X348721Y13780D02*
D03*
D51*
X512402Y203740D02*
D03*
X521063Y207480D02*
D03*
Y200000D02*
D03*
X512402Y226916D02*
D03*
X521063Y230656D02*
D03*
Y223175D02*
D03*
D52*
X272047Y68898D02*
D03*
Y61024D02*
D03*
Y53150D02*
D03*
Y45276D02*
D03*
Y37402D02*
D03*
Y29528D02*
D03*
Y21654D02*
D03*
Y13780D02*
D03*
X330315D02*
D03*
Y21654D02*
D03*
Y29528D02*
D03*
Y37402D02*
D03*
Y45276D02*
D03*
Y53150D02*
D03*
Y61024D02*
D03*
Y68898D02*
D03*
D53*
X186961Y271346D02*
D03*
X180268D02*
D03*
X173575D02*
D03*
X166882D02*
D03*
X160189D02*
D03*
D54*
X292520Y278350D02*
D03*
X285827D02*
D03*
X299213D02*
D03*
X305906D02*
D03*
X312598D02*
D03*
D55*
X245669Y236221D02*
D03*
D56*
X270079Y245276D02*
D03*
Y236221D02*
D03*
Y227165D02*
D03*
D57*
X172638Y199803D02*
D03*
X199409D02*
D03*
D58*
X104264Y94874D02*
D03*
X143241D02*
D03*
D59*
X39835Y126428D02*
D03*
X28024D02*
D03*
X39835Y114618D02*
D03*
X28024D02*
D03*
D60*
X144685Y152559D02*
D03*
Y140748D02*
D03*
X133858Y152559D02*
D03*
Y140748D02*
D03*
D61*
X78209Y137185D02*
D03*
D62*
X70138Y133346D02*
D03*
Y135906D02*
D03*
Y138465D02*
D03*
Y141024D02*
D03*
X86279Y138465D02*
D03*
Y135906D02*
D03*
Y133346D02*
D03*
Y141024D02*
D03*
D63*
X74370Y145256D02*
D03*
X76929D02*
D03*
X79488D02*
D03*
X82047D02*
D03*
Y129114D02*
D03*
X79488D02*
D03*
X76929D02*
D03*
X74370D02*
D03*
D64*
X88583Y94488D02*
D03*
X61024D02*
D03*
D65*
X41417Y200590D02*
D03*
Y218701D02*
D03*
D66*
X66417Y209646D02*
D03*
D67*
X9646Y79646D02*
D03*
Y89646D02*
D03*
X45472D02*
D03*
Y79646D02*
D03*
D68*
X329323Y226522D02*
D03*
X326764D02*
D03*
X324205D02*
D03*
X321646D02*
D03*
X319087D02*
D03*
X316528D02*
D03*
X313969D02*
D03*
X311410D02*
D03*
X308851D02*
D03*
X306292D02*
D03*
Y203688D02*
D03*
X308851D02*
D03*
X311410D02*
D03*
X313969D02*
D03*
X316528D02*
D03*
X319087D02*
D03*
X321646D02*
D03*
X324205D02*
D03*
X326764D02*
D03*
X329323D02*
D03*
D69*
X299213Y319094D02*
D03*
D70*
X184055Y178937D02*
D03*
Y139961D02*
D03*
D71*
X93504Y228346D02*
D03*
Y255906D02*
D03*
X122047Y228346D02*
D03*
Y255906D02*
D03*
D144*
X173575Y230658D02*
D03*
D152*
X185984Y36417D02*
D03*
X100709D02*
D03*
D153*
X165984D02*
D03*
X145984D02*
D03*
X125984D02*
D03*
X80709D02*
D03*
X60709D02*
D03*
D154*
X116142Y317717D02*
D03*
D155*
Y305118D02*
D03*
Y292520D02*
D03*
X104331Y317717D02*
D03*
Y305118D02*
D03*
Y292520D02*
D03*
X123622Y281890D02*
D03*
X96850Y328346D02*
D03*
D156*
X228346Y205354D02*
D03*
Y195354D02*
D03*
Y185354D02*
D03*
Y175354D02*
D03*
Y165354D02*
D03*
X174213Y110236D02*
D03*
X193898D02*
D03*
X157980Y329224D02*
D03*
Y309539D02*
D03*
X16732Y252953D02*
D03*
X36417D02*
D03*
D157*
X228346Y155354D02*
D03*
D158*
X240158Y286634D02*
D03*
D159*
X98110Y194882D02*
D03*
X118110D02*
D03*
X138110D02*
D03*
D160*
X484055Y48228D02*
D03*
X474055D02*
D03*
X464055D02*
D03*
X454055D02*
D03*
X444055D02*
D03*
X434055D02*
D03*
D161*
X494055D02*
D03*
D162*
X70866Y285433D02*
D03*
Y309842D02*
D03*
D163*
X52362Y298031D02*
D03*
M02*
