G04*
G04 #@! TF.GenerationSoftware,Altium Limited,Altium Designer,24.5.2 (23)*
G04*
G04 Layer_Physical_Order=3*
G04 Layer_Color=16737945*
%FSLAX25Y25*%
%MOIN*%
G70*
G04*
G04 #@! TF.SameCoordinates,98A8DC51-4EBF-44C9-86BF-D70121EF64E5*
G04*
G04*
G04 #@! TF.FilePolarity,Positive*
G04*
G01*
G75*
%ADD42C,0.03937*%
%ADD142C,0.01320*%
%ADD143C,0.01968*%
%ADD145C,0.03150*%
%ADD146C,0.03937*%
%ADD152R,0.11811X0.11811*%
%ADD153C,0.11811*%
%ADD154R,0.07874X0.07874*%
%ADD155C,0.07874*%
%ADD156C,0.05906*%
%ADD157R,0.05906X0.05906*%
%ADD158C,0.05118*%
%ADD159C,0.13780*%
%ADD160C,0.06496*%
%ADD161R,0.06496X0.06496*%
%ADD162R,0.19685X0.07874*%
%ADD163R,0.07874X0.19685*%
%ADD164C,0.02953*%
%ADD165C,0.02756*%
%ADD166C,0.02362*%
%ADD167C,0.03150*%
%ADD168C,0.04724*%
%ADD169C,0.05906*%
G36*
X39370Y340312D02*
X401540D01*
Y303150D01*
X401617Y302759D01*
X401838Y302429D01*
X402169Y302208D01*
X402559Y302130D01*
X408766D01*
X408864Y302002D01*
Y301173D01*
X409079Y300372D01*
X409493Y299654D01*
X410080Y299067D01*
X410798Y298653D01*
X411599Y298438D01*
X412429D01*
X413230Y298653D01*
X413935Y299060D01*
X414148Y298936D01*
X414949Y298722D01*
X415779D01*
X416580Y298936D01*
X417298Y299351D01*
X417884Y299937D01*
X418299Y300656D01*
X418514Y301457D01*
Y302130D01*
X424213D01*
X424603Y302208D01*
X424934Y302429D01*
X425155Y302759D01*
X425232Y303150D01*
Y340312D01*
X499300D01*
X499315Y340312D01*
X500000Y340312D01*
X500657Y340207D01*
X500672Y340204D01*
X501241Y339824D01*
X501622Y339254D01*
X501625Y339239D01*
X501729Y338583D01*
X501741Y338523D01*
X501741Y337883D01*
X501743Y308057D01*
X501756Y307988D01*
X501736Y307571D01*
X501920Y303834D01*
X502469Y300132D01*
X503378Y296502D01*
X504638Y292979D01*
X506238Y289597D01*
X508162Y286387D01*
X510391Y283381D01*
X512904Y280609D01*
X515677Y278096D01*
X518682Y275867D01*
X521892Y273943D01*
X525275Y272343D01*
X528798Y271082D01*
X532428Y270173D01*
X536129Y269624D01*
X537162Y269573D01*
Y181735D01*
X533465D01*
X533465Y181735D01*
Y181735D01*
X533380Y181719D01*
X531827Y181596D01*
X530231Y181213D01*
X528713Y180585D01*
X527313Y179727D01*
X526064Y178660D01*
X524998Y177411D01*
X524140Y176011D01*
X523511Y174494D01*
X523128Y172897D01*
X522999Y171260D01*
X523128Y169623D01*
X523511Y168026D01*
X524140Y166509D01*
X524998Y165109D01*
X526064Y163860D01*
X527313Y162793D01*
X528713Y161935D01*
X530231Y161307D01*
X531827Y160923D01*
X533380Y160801D01*
X533465Y160784D01*
X537162D01*
Y72948D01*
X536130Y72897D01*
X532429Y72348D01*
X528798Y71439D01*
X525275Y70178D01*
X521892Y68578D01*
X518682Y66654D01*
X515676Y64425D01*
X512903Y61912D01*
X510390Y59139D01*
X508161Y56133D01*
X506237Y52923D01*
X504637Y49540D01*
X503376Y46016D01*
X502467Y42386D01*
X501918Y38685D01*
X501734Y34947D01*
X501755Y34530D01*
X501741Y34461D01*
Y3996D01*
X501729Y3937D01*
X501729D01*
X501625Y3280D01*
X501622Y3265D01*
X501241Y2696D01*
X500672Y2315D01*
X500066Y2195D01*
X500000Y2208D01*
X361256D01*
Y10793D01*
X434055D01*
X435083Y10928D01*
X436041Y11325D01*
X436863Y11956D01*
X437494Y12778D01*
X437891Y13736D01*
X438026Y14764D01*
Y24564D01*
X486221D01*
X487505Y24733D01*
X488702Y25229D01*
X489730Y26018D01*
X497604Y33892D01*
X498393Y34920D01*
X498889Y36117D01*
X498985Y36843D01*
X499058Y37402D01*
X499142Y37497D01*
X499425D01*
X499019Y38477D01*
Y41043D01*
X501240D01*
Y55413D01*
X486870D01*
Y55413D01*
X486340Y55059D01*
X486151Y55137D01*
X484763Y55413D01*
X483348D01*
X481959Y55137D01*
X480652Y54596D01*
X479475Y53809D01*
X479055Y53390D01*
X478635Y53809D01*
X477458Y54596D01*
X476151Y55137D01*
X474763Y55413D01*
X473348D01*
X471959Y55137D01*
X471534Y54961D01*
X464350Y62145D01*
X463733Y62619D01*
X463015Y62916D01*
X462244Y63018D01*
X438026D01*
Y75928D01*
X438024Y75947D01*
X438139Y76013D01*
X438780Y76654D01*
X439234Y77440D01*
X439468Y78316D01*
Y79223D01*
X439234Y80099D01*
X438780Y80885D01*
X438139Y81526D01*
X438024Y81593D01*
X438026Y81611D01*
Y115489D01*
X438726Y115834D01*
X438959Y115656D01*
X439917Y115259D01*
X440945Y115123D01*
X449803D01*
X450061Y115157D01*
X450321D01*
X450573Y115225D01*
X450831Y115259D01*
X451071Y115358D01*
X451323Y115426D01*
X451548Y115556D01*
X451789Y115656D01*
X451995Y115814D01*
X452220Y115944D01*
X452404Y116128D01*
X452611Y116287D01*
X452770Y116493D01*
X452953Y116677D01*
X453084Y116902D01*
X453242Y117109D01*
X453342Y117350D01*
X453472Y117575D01*
X453539Y117826D01*
X453639Y118067D01*
X453673Y118325D01*
X453740Y118576D01*
Y118836D01*
X453774Y119095D01*
X453740Y119352D01*
Y119613D01*
X453673Y119864D01*
X453639Y120122D01*
X453539Y120363D01*
X453472Y120614D01*
X453342Y120840D01*
X453242Y121080D01*
X453084Y121286D01*
X452953Y121512D01*
X452770Y121696D01*
X452611Y121902D01*
X452404Y122061D01*
X452220Y122245D01*
X451995Y122375D01*
X451789Y122533D01*
X451548Y122633D01*
X451323Y122763D01*
X451071Y122831D01*
X450831Y122930D01*
X450573Y122964D01*
X450321Y123031D01*
X450061D01*
X449803Y123065D01*
X442590D01*
X436751Y128904D01*
X436863Y129707D01*
X437021Y129913D01*
X437206Y130097D01*
X437336Y130323D01*
X437494Y130529D01*
X437594Y130770D01*
X437724Y130995D01*
X437791Y131246D01*
X437891Y131487D01*
X437925Y131745D01*
X437992Y131996D01*
Y132257D01*
X438026Y132515D01*
Y156462D01*
X443862D01*
X444266Y155762D01*
X444106Y155484D01*
X443837Y154483D01*
Y153446D01*
X444106Y152445D01*
X444624Y151547D01*
X445357Y150814D01*
X446255Y150296D01*
X447256Y150027D01*
X448293D01*
X449294Y150296D01*
X450192Y150814D01*
X450925Y151547D01*
X451443Y152445D01*
X451712Y153446D01*
Y154483D01*
X451443Y155484D01*
X451283Y155762D01*
X451687Y156462D01*
X456658D01*
X457062Y155762D01*
X456901Y155484D01*
X456633Y154483D01*
Y153446D01*
X456901Y152445D01*
X457419Y151547D01*
X458152Y150814D01*
X459050Y150296D01*
X460051Y150027D01*
X461088D01*
X462089Y150296D01*
X462987Y150814D01*
X463720Y151547D01*
X464239Y152445D01*
X464507Y153446D01*
Y154483D01*
X464239Y155484D01*
X464078Y155762D01*
X464482Y156462D01*
X473749D01*
X477507Y152704D01*
X477714Y152545D01*
X477898Y152361D01*
X478123Y152231D01*
X478330Y152073D01*
X478570Y151973D01*
X478795Y151843D01*
X479047Y151776D01*
X479287Y151676D01*
X479545Y151642D01*
X479797Y151575D01*
X480057D01*
X480315Y151541D01*
X514103D01*
X516698Y148946D01*
Y112205D01*
X516834Y111177D01*
X517230Y110219D01*
X517861Y109397D01*
X520814Y106444D01*
X521636Y105813D01*
X522594Y105416D01*
X523622Y105281D01*
X531496D01*
X531754Y105315D01*
X532014D01*
X532266Y105382D01*
X532524Y105416D01*
X532764Y105516D01*
X533016Y105583D01*
X533241Y105713D01*
X533482Y105813D01*
X533688Y105972D01*
X533913Y106102D01*
X534097Y106286D01*
X534304Y106444D01*
X534462Y106651D01*
X534646Y106835D01*
X534777Y107060D01*
X534935Y107266D01*
X535035Y107507D01*
X535165Y107732D01*
X535232Y107984D01*
X535332Y108224D01*
X535366Y108482D01*
X535433Y108734D01*
Y108994D01*
X535467Y109252D01*
X535433Y109510D01*
Y109770D01*
X535366Y110022D01*
X535332Y110280D01*
X535232Y110520D01*
X535165Y110772D01*
X535035Y110997D01*
X534935Y111237D01*
X534777Y111444D01*
X534646Y111669D01*
X534462Y111853D01*
X534304Y112060D01*
X534097Y112218D01*
X533913Y112402D01*
X533688Y112532D01*
X533482Y112691D01*
X533241Y112791D01*
X533016Y112921D01*
X532764Y112988D01*
X532524Y113088D01*
X532266Y113122D01*
X532014Y113189D01*
X531754D01*
X531496Y113223D01*
X530337D01*
X530208Y113923D01*
X530961Y114357D01*
X531694Y115091D01*
X532212Y115988D01*
X532480Y116990D01*
Y118026D01*
X532212Y119027D01*
X531694Y119925D01*
X530961Y120658D01*
X530842Y120727D01*
Y121427D01*
X530961Y121495D01*
X531694Y122228D01*
X532212Y123126D01*
X532480Y124127D01*
Y125164D01*
X532212Y126165D01*
X531694Y127063D01*
X530961Y127796D01*
X530678Y127959D01*
Y128659D01*
X530961Y128822D01*
X531694Y129555D01*
X532212Y130453D01*
X532480Y131454D01*
Y132491D01*
X532212Y133492D01*
X531694Y134390D01*
X531000Y135084D01*
X530920Y135236D01*
Y135756D01*
X531000Y135908D01*
X531694Y136602D01*
X532212Y137500D01*
X532480Y138501D01*
Y139538D01*
X532212Y140539D01*
X531694Y141437D01*
X530961Y142170D01*
X530670Y142338D01*
Y143146D01*
X530961Y143314D01*
X531694Y144047D01*
X532212Y144945D01*
X532480Y145946D01*
Y146983D01*
X532212Y147984D01*
X531694Y148882D01*
X530961Y149615D01*
X530063Y150133D01*
X529062Y150402D01*
X528025D01*
X527024Y150133D01*
X526126Y149615D01*
X525393Y148882D01*
X525340Y148791D01*
X524640Y148978D01*
Y150591D01*
X524505Y151618D01*
X524108Y152576D01*
X523477Y153399D01*
X518556Y158320D01*
X517733Y158951D01*
X516776Y159347D01*
X515748Y159483D01*
X481960D01*
X478202Y163241D01*
X477379Y163872D01*
X476421Y164269D01*
X475394Y164404D01*
X408141D01*
X403918Y168627D01*
X403920Y168642D01*
X404244Y169291D01*
X405046D01*
X406047Y169560D01*
X406945Y170078D01*
X407539Y170672D01*
X407972Y170755D01*
X408406Y170672D01*
X409000Y170078D01*
X409898Y169560D01*
X410899Y169291D01*
X411936D01*
X412937Y169560D01*
X413835Y170078D01*
X414568Y170811D01*
X415086Y171709D01*
X415354Y172710D01*
Y173747D01*
X415086Y174748D01*
X414568Y175646D01*
X413835Y176379D01*
X412937Y176897D01*
X411936Y177165D01*
X410899D01*
X409898Y176897D01*
X409000Y176379D01*
X408406Y175785D01*
X407972Y175702D01*
X407539Y175785D01*
X406945Y176379D01*
X406047Y176897D01*
X405046Y177165D01*
X404009D01*
X403008Y176897D01*
X402110Y176379D01*
X401377Y175646D01*
X400859Y174748D01*
X400591Y173747D01*
Y173445D01*
X399891Y173079D01*
X399640Y173253D01*
Y224410D01*
X399505Y225437D01*
X399108Y226395D01*
X398477Y227217D01*
X379776Y245918D01*
X378954Y246549D01*
X377996Y246946D01*
X376969Y247081D01*
X328449D01*
X325675Y249855D01*
X324852Y250486D01*
X323895Y250883D01*
X322867Y251018D01*
X300197D01*
X299939Y250984D01*
X299678D01*
X299427Y250917D01*
X299169Y250883D01*
X298929Y250783D01*
X298677Y250716D01*
X298452Y250586D01*
X298211Y250486D01*
X298005Y250328D01*
X297779Y250198D01*
X297596Y250014D01*
X297389Y249855D01*
X297231Y249649D01*
X297046Y249465D01*
X296916Y249239D01*
X296758Y249033D01*
X296658Y248792D01*
X296528Y248567D01*
X296461Y248315D01*
X296361Y248075D01*
X296327Y247817D01*
X296260Y247566D01*
Y247305D01*
X296230Y247081D01*
X253971D01*
Y253937D01*
X253836Y254965D01*
X253439Y255923D01*
X252808Y256745D01*
X251986Y257376D01*
X251028Y257773D01*
X250000Y257908D01*
X224410D01*
X223382Y257773D01*
X222424Y257376D01*
X221602Y256745D01*
X220971Y255923D01*
X220574Y254965D01*
X220439Y253937D01*
Y211752D01*
X220447Y211688D01*
X220441Y211623D01*
X220515Y211174D01*
X220574Y210725D01*
X220599Y210664D01*
X220609Y210600D01*
X220797Y210186D01*
X220971Y209767D01*
X221010Y209715D01*
X221037Y209655D01*
X221325Y209305D01*
X221602Y208945D01*
X221653Y208905D01*
X221695Y208854D01*
X222064Y208590D01*
X222189Y208493D01*
X221722Y207364D01*
X221457Y206033D01*
Y204676D01*
X221722Y203345D01*
X222241Y202091D01*
X222995Y200962D01*
X223603Y200354D01*
X222995Y199746D01*
X222241Y198618D01*
X221722Y197364D01*
X221457Y196033D01*
Y194676D01*
X221722Y193345D01*
X222241Y192091D01*
X222995Y190962D01*
X223603Y190354D01*
X222995Y189746D01*
X222241Y188618D01*
X221722Y187364D01*
X221457Y186033D01*
Y184676D01*
X221722Y183345D01*
X222241Y182091D01*
X222995Y180962D01*
X223603Y180354D01*
X222995Y179746D01*
X222241Y178618D01*
X221722Y177364D01*
X221457Y176033D01*
Y174676D01*
X221722Y173345D01*
X222241Y172091D01*
X222995Y170962D01*
X223603Y170354D01*
X222995Y169746D01*
X222241Y168618D01*
X221722Y167364D01*
X221457Y166033D01*
Y164676D01*
X221722Y163345D01*
X221936Y162826D01*
X221547Y162244D01*
X221457D01*
Y148465D01*
X231890D01*
Y148181D01*
X232118Y147330D01*
X232558Y146567D01*
X232731Y146395D01*
X232441Y145695D01*
X223425D01*
X223425Y145695D01*
X222654Y145593D01*
X221936Y145296D01*
X221319Y144823D01*
X209508Y133011D01*
X209035Y132395D01*
X208737Y131676D01*
X208636Y130905D01*
Y76037D01*
X199554Y66955D01*
X92769D01*
X58208Y101515D01*
X57591Y101989D01*
X57559Y102002D01*
X57698Y102702D01*
X97894D01*
X98922Y102838D01*
X99879Y103234D01*
X100702Y103865D01*
X101333Y104688D01*
X101729Y105646D01*
X101865Y106673D01*
Y131449D01*
X101729Y132477D01*
X101333Y133435D01*
X100702Y134257D01*
X99879Y134888D01*
X98922Y135285D01*
X97894Y135420D01*
X83720D01*
Y135460D01*
X83492Y136311D01*
X83052Y137074D01*
X82941Y137185D01*
X83052Y137296D01*
X83492Y138059D01*
X83720Y138910D01*
Y139791D01*
X83492Y140642D01*
X83052Y141405D01*
X82429Y142028D01*
X81666Y142469D01*
X80815Y142697D01*
X79934D01*
X79082Y142469D01*
X78784Y142297D01*
X78656Y142352D01*
X78499Y143184D01*
X85879Y150565D01*
X185039D01*
X185810Y150667D01*
X186529Y150964D01*
X187145Y151437D01*
X208911Y173203D01*
X215001D01*
X215244Y173063D01*
X216095Y172835D01*
X216976D01*
X217827Y173063D01*
X218590Y173503D01*
X219213Y174126D01*
X219654Y174889D01*
X219882Y175741D01*
Y176622D01*
X219654Y177473D01*
X219213Y178236D01*
X218590Y178859D01*
X217827Y179299D01*
X216976Y179527D01*
X216095D01*
X215244Y179299D01*
X215001Y179159D01*
X207677D01*
X207677Y179159D01*
X206906Y179058D01*
X206188Y178760D01*
X205571Y178287D01*
X183806Y156521D01*
X85685D01*
X85223Y157048D01*
X85267Y157380D01*
Y173513D01*
X85362Y173677D01*
X85630Y174679D01*
Y175715D01*
X85362Y176716D01*
X84843Y177614D01*
X84110Y178347D01*
X83213Y178866D01*
X82211Y179134D01*
X81175D01*
X80173Y178866D01*
X79276Y178347D01*
X78543Y177614D01*
X78024Y176716D01*
X77756Y175715D01*
Y174679D01*
X78024Y173677D01*
X78119Y173513D01*
Y159480D01*
X77433Y159291D01*
X77419Y159290D01*
X76689Y160020D01*
X75791Y160539D01*
X75512Y160614D01*
X75074Y160949D01*
X74212Y161307D01*
X73287Y161428D01*
X50610D01*
X50446Y161523D01*
X49444Y161791D01*
X48408D01*
X47406Y161523D01*
X46509Y161005D01*
X45776Y160272D01*
X45257Y159374D01*
X44989Y158373D01*
Y157336D01*
X45257Y156335D01*
X45776Y155437D01*
X46509Y154704D01*
X47406Y154186D01*
X48408Y153917D01*
X49444D01*
X50446Y154186D01*
X50610Y154280D01*
X62172D01*
X62462Y153580D01*
X62263Y153382D01*
X61745Y152484D01*
X61476Y151483D01*
Y150446D01*
X61745Y149445D01*
X62263Y148547D01*
X62462Y148349D01*
X62172Y147649D01*
X50610D01*
X50446Y147743D01*
X49444Y148012D01*
X48408D01*
X47406Y147743D01*
X46509Y147225D01*
X45776Y146492D01*
X45257Y145595D01*
X44989Y144593D01*
Y143556D01*
X45257Y142555D01*
X45776Y141657D01*
X46509Y140925D01*
X47347Y140440D01*
X47474Y140260D01*
X47618Y139722D01*
X47499Y139602D01*
X46981Y138705D01*
X46713Y137703D01*
Y136667D01*
X46859Y136120D01*
X46354Y135420D01*
X42776D01*
X41748Y135285D01*
X40790Y134888D01*
X39968Y134257D01*
X39337Y133435D01*
X38940Y132477D01*
X38805Y131449D01*
Y106673D01*
X38940Y105646D01*
X39337Y104688D01*
X39968Y103865D01*
X40790Y103234D01*
X41144Y103088D01*
X41005Y102388D01*
X30149D01*
X29976Y102560D01*
X29079Y103078D01*
X28077Y103347D01*
X27041D01*
X26039Y103078D01*
X25142Y102560D01*
X24409Y101827D01*
X23890Y100929D01*
X23622Y99928D01*
Y98891D01*
X23890Y97890D01*
X24409Y96992D01*
X25142Y96259D01*
X26039Y95741D01*
X27041Y95473D01*
X28077D01*
X29079Y95741D01*
X29976Y96259D01*
X30149Y96431D01*
X40829D01*
X41366Y95731D01*
X41247Y95288D01*
Y94147D01*
X41542Y93046D01*
X42112Y92058D01*
X42919Y91252D01*
X43906Y90682D01*
X45008Y90387D01*
X46148D01*
X47249Y90682D01*
X48237Y91252D01*
X49043Y92058D01*
X49613Y93046D01*
X49908Y94147D01*
Y95288D01*
X49790Y95731D01*
X50327Y96431D01*
X54869D01*
X89429Y61870D01*
X90046Y61397D01*
X90765Y61100D01*
X91535Y60998D01*
X91536Y60998D01*
X200787D01*
X201558Y61100D01*
X202276Y61397D01*
X202893Y61870D01*
X213720Y72697D01*
X213720Y72697D01*
X214193Y73314D01*
X214491Y74032D01*
X214592Y74803D01*
Y129672D01*
X219792Y134871D01*
X220439Y134603D01*
Y59089D01*
X60526D01*
X60258Y59736D01*
X60410Y59888D01*
X60980Y60875D01*
X61276Y61977D01*
Y63117D01*
X60980Y64219D01*
X60410Y65206D01*
X59604Y66013D01*
X58617Y66583D01*
X57515Y66878D01*
X56375D01*
X55273Y66583D01*
X54286Y66013D01*
X53479Y65206D01*
X52909Y64219D01*
X52614Y63117D01*
Y61977D01*
X52909Y60875D01*
X53479Y59888D01*
X53632Y59736D01*
X53364Y59089D01*
X52165D01*
X51138Y58954D01*
X50180Y58557D01*
X49357Y57926D01*
X48726Y57104D01*
X48330Y56146D01*
X48223Y55335D01*
X47751Y55010D01*
X47494Y54947D01*
X46977Y55246D01*
X45875Y55541D01*
X44735D01*
X43633Y55246D01*
X42646Y54676D01*
X41840Y53870D01*
X41269Y52882D01*
X40974Y51781D01*
Y50640D01*
X41269Y49539D01*
X41840Y48551D01*
X42646Y47745D01*
X43633Y47175D01*
X44735Y46880D01*
X45875D01*
X46977Y47175D01*
X47494Y47474D01*
X48194Y47070D01*
Y42553D01*
X48254Y42103D01*
X48298Y41651D01*
X48321Y41590D01*
X48330Y41525D01*
X48503Y41106D01*
X48663Y40681D01*
X48701Y40628D01*
X48726Y40568D01*
X49003Y40207D01*
X49267Y39839D01*
X49318Y39797D01*
X49357Y39745D01*
X49718Y39469D01*
X50068Y39181D01*
X50128Y39154D01*
X50180Y39114D01*
X50599Y38940D01*
X51013Y38753D01*
X51131Y38717D01*
X50866Y37387D01*
Y35448D01*
X51131Y34117D01*
X51013Y34082D01*
X50599Y33894D01*
X50180Y33720D01*
X50128Y33681D01*
X50068Y33654D01*
X49718Y33366D01*
X49357Y33089D01*
X49318Y33037D01*
X49267Y32996D01*
X49003Y32627D01*
X48726Y32267D01*
X48701Y32207D01*
X48663Y32153D01*
X48503Y31729D01*
X48330Y31309D01*
X48321Y31245D01*
X48298Y31183D01*
X48254Y30731D01*
X48194Y30281D01*
Y14764D01*
X48330Y13736D01*
X48726Y12778D01*
X49357Y11956D01*
X50180Y11325D01*
X51138Y10928D01*
X52165Y10793D01*
X321815D01*
Y2208D01*
X39370D01*
X39304Y2195D01*
X38698Y2315D01*
X38129Y2696D01*
X37748Y3265D01*
X37745Y3280D01*
X37641Y3937D01*
X37641D01*
X37629Y3996D01*
Y34461D01*
X37615Y34530D01*
X37636Y34947D01*
X37452Y38685D01*
X36903Y42386D01*
X35994Y46016D01*
X34733Y49540D01*
X33133Y52923D01*
X31209Y56133D01*
X28980Y59139D01*
X26467Y61912D01*
X23694Y64425D01*
X20688Y66654D01*
X17478Y68578D01*
X14095Y70178D01*
X10572Y71439D01*
X6942Y72348D01*
X3240Y72897D01*
X2208Y72948D01*
Y160784D01*
X5906D01*
X5906Y160784D01*
Y160784D01*
X5990Y160801D01*
X7543Y160923D01*
X9139Y161307D01*
X10657Y161935D01*
X12057Y162793D01*
X13306Y163860D01*
X14372Y165109D01*
X15230Y166509D01*
X15859Y168026D01*
X16242Y169623D01*
X16371Y171260D01*
X16242Y172897D01*
X15859Y174494D01*
X15230Y176011D01*
X14372Y177411D01*
X13306Y178660D01*
X12057Y179727D01*
X10657Y180585D01*
X9139Y181213D01*
X7543Y181596D01*
X5990Y181719D01*
X5906Y181735D01*
X2196D01*
Y269571D01*
X3240Y269623D01*
X6942Y270172D01*
X10572Y271081D01*
X14095Y272342D01*
X17478Y273942D01*
X20688Y275866D01*
X23694Y278095D01*
X26467Y280608D01*
X28980Y283381D01*
X31209Y286387D01*
X33133Y289597D01*
X34733Y292980D01*
X35994Y296503D01*
X36903Y300133D01*
X37452Y303835D01*
X37636Y307573D01*
X37615Y307990D01*
X37629Y308059D01*
Y338523D01*
X37641Y338583D01*
X37641D01*
X37745Y339239D01*
X37748Y339254D01*
X38129Y339824D01*
X38698Y340205D01*
X39304Y340325D01*
X39370Y340312D01*
D02*
G37*
G36*
X250000Y243110D02*
X299939D01*
X300197Y243076D01*
X321222D01*
X323996Y240302D01*
X324203Y240144D01*
X324387Y239960D01*
X324612Y239830D01*
X324819Y239671D01*
X325059Y239572D01*
X325284Y239441D01*
X325536Y239374D01*
X325776Y239275D01*
X326034Y239241D01*
X326286Y239173D01*
X326546D01*
X326804Y239139D01*
X337976D01*
X338270Y238439D01*
X337867Y237740D01*
X337598Y236739D01*
Y235702D01*
X337867Y234701D01*
X338385Y233803D01*
X338920Y233268D01*
X338385Y232732D01*
X337867Y231835D01*
X337598Y230833D01*
Y229797D01*
X337867Y228795D01*
X338385Y227898D01*
X339118Y227165D01*
X340016Y226646D01*
X341017Y226378D01*
X342054D01*
X343055Y226646D01*
X343953Y227165D01*
X344547Y227759D01*
X344980Y227841D01*
X345414Y227759D01*
X346008Y227165D01*
X346906Y226646D01*
X347907Y226378D01*
X348943D01*
X349945Y226646D01*
X350843Y227165D01*
X351576Y227898D01*
X352094Y228795D01*
X352362Y229797D01*
Y230833D01*
X352094Y231835D01*
X351576Y232732D01*
X351040Y233268D01*
X351576Y233803D01*
X352094Y234701D01*
X352362Y235702D01*
Y236739D01*
X352094Y237740D01*
X351690Y238439D01*
X351985Y239139D01*
X375324D01*
X391698Y222765D01*
Y171260D01*
X391834Y170232D01*
X392230Y169274D01*
X392861Y168452D01*
X403688Y157625D01*
X404511Y156994D01*
X405468Y156597D01*
X406496Y156462D01*
X434055D01*
Y132515D01*
X433408Y132247D01*
X431559Y134096D01*
Y150628D01*
X431525Y150886D01*
Y151146D01*
X431458Y151397D01*
X431424Y151655D01*
X431324Y151896D01*
X431257Y152147D01*
X431126Y152373D01*
X431027Y152613D01*
X430868Y152820D01*
X430738Y153045D01*
X430554Y153229D01*
X430396Y153435D01*
X430189Y153594D01*
X430005Y153778D01*
X429780Y153908D01*
X429573Y154067D01*
X429333Y154166D01*
X429108Y154296D01*
X428856Y154364D01*
X428616Y154463D01*
X428358Y154497D01*
X428106Y154565D01*
X427846D01*
X427588Y154598D01*
X427330Y154565D01*
X427070D01*
X426818Y154497D01*
X426560Y154463D01*
X426320Y154364D01*
X426068Y154296D01*
X425843Y154166D01*
X425602Y154067D01*
X425396Y153908D01*
X425171Y153778D01*
X424987Y153594D01*
X424780Y153435D01*
X424622Y153229D01*
X424438Y153045D01*
X424307Y152820D01*
X424149Y152613D01*
X424049Y152373D01*
X423919Y152147D01*
X423852Y151896D01*
X423752Y151655D01*
X423718Y151397D01*
X423651Y151146D01*
Y150886D01*
X423617Y150628D01*
Y132451D01*
X423752Y131424D01*
X424149Y130466D01*
X424780Y129643D01*
X434055Y120369D01*
Y81611D01*
X433908Y81526D01*
X433267Y80885D01*
X432814Y80099D01*
X432579Y79223D01*
Y78316D01*
X432814Y77440D01*
X433267Y76654D01*
X433908Y76013D01*
X434055Y75928D01*
Y63018D01*
X424462D01*
X360262Y127218D01*
Y139764D01*
X360262Y139764D01*
X360160Y140535D01*
X359863Y141253D01*
X359389Y141870D01*
X347466Y153793D01*
Y160433D01*
X347365Y161204D01*
X347067Y161922D01*
X346594Y162539D01*
X346594Y162539D01*
X339807Y169326D01*
X340097Y170026D01*
X340897D01*
X340932Y170031D01*
X342333Y169893D01*
X343713Y169474D01*
X344985Y168794D01*
X346072Y167902D01*
X346094Y167874D01*
X377086Y136881D01*
X377075Y136870D01*
X378586Y135579D01*
X380099Y134652D01*
X380154Y134559D01*
X380241Y134115D01*
X380212Y133811D01*
X379724Y133323D01*
X379205Y132425D01*
X378937Y131424D01*
Y130387D01*
X379205Y129386D01*
X379724Y128488D01*
X380457Y127755D01*
X381354Y127237D01*
X382356Y126969D01*
X383392D01*
X384394Y127237D01*
X384435Y127260D01*
X384838Y126561D01*
X385571Y125828D01*
X386469Y125310D01*
X387470Y125042D01*
X388507D01*
X389508Y125310D01*
X390406Y125828D01*
X391139Y126561D01*
X391657Y127459D01*
X391735Y127748D01*
X392559Y128120D01*
X393182Y127953D01*
X394219D01*
X395220Y128221D01*
X395303Y128269D01*
X396186Y127971D01*
X396456Y127504D01*
X397189Y126771D01*
X398087Y126253D01*
X399088Y125984D01*
X400125D01*
X401126Y126253D01*
X402024Y126771D01*
X402757Y127504D01*
X403275Y128402D01*
X403543Y129403D01*
Y130440D01*
X403275Y131441D01*
X402757Y132339D01*
X402024Y133072D01*
X401126Y133590D01*
X400125Y133858D01*
X399088D01*
X398087Y133590D01*
X398004Y133542D01*
X397153Y133785D01*
X396851Y134307D01*
X396118Y135040D01*
X395220Y135558D01*
X394219Y135827D01*
X393861D01*
X393271Y136092D01*
X392028Y137112D01*
X390610Y137870D01*
X389072Y138337D01*
X387472Y138495D01*
Y138478D01*
X386032D01*
X385997Y138473D01*
X384597Y138611D01*
X383217Y139030D01*
X381945Y139710D01*
X380857Y140602D01*
X380836Y140630D01*
X349843Y171623D01*
X349854Y171634D01*
X348343Y172925D01*
X346648Y173964D01*
X344812Y174725D01*
X342879Y175189D01*
X340897Y175345D01*
Y175328D01*
X339602D01*
Y183071D01*
X339525Y183461D01*
X339304Y183792D01*
X338973Y184013D01*
X338583Y184090D01*
X311024D01*
X310633Y184013D01*
X310303Y183792D01*
X310082Y183461D01*
X310004Y183071D01*
Y154528D01*
X310082Y154137D01*
X310303Y153807D01*
X310633Y153586D01*
X311024Y153508D01*
X315496D01*
X315764Y152861D01*
X268243Y105340D01*
X234252D01*
X234252Y105340D01*
X233481Y105239D01*
X232763Y104941D01*
X232146Y104468D01*
X231024Y103347D01*
X230781D01*
X229780Y103078D01*
X228882Y102560D01*
X228149Y101827D01*
X227630Y100929D01*
X227362Y99928D01*
Y98891D01*
X227630Y97890D01*
X228149Y96992D01*
X228882Y96259D01*
X229780Y95741D01*
X230781Y95473D01*
X231818D01*
X232160Y95564D01*
X232985Y95193D01*
X233503Y94295D01*
X234236Y93562D01*
X235134Y93044D01*
X236135Y92776D01*
X237172D01*
X238173Y93044D01*
X239071Y93562D01*
X239804Y94295D01*
X240322Y95193D01*
X240590Y96194D01*
Y96431D01*
X270669D01*
X271440Y96533D01*
X272158Y96830D01*
X272775Y97303D01*
X325016Y149544D01*
X333320D01*
X333500Y149441D01*
X334351Y149213D01*
X335232D01*
X336083Y149441D01*
X336326Y149581D01*
X339317D01*
X351353Y137546D01*
Y124016D01*
X351454Y123245D01*
X351751Y122527D01*
X352225Y121910D01*
X420138Y53996D01*
X420755Y53523D01*
X421473Y53226D01*
X422244Y53124D01*
X427843D01*
X428217Y52424D01*
X427688Y51632D01*
X427146Y50324D01*
X426870Y48936D01*
Y47521D01*
X427146Y46132D01*
X427688Y44825D01*
X428474Y43648D01*
X429475Y42647D01*
X430652Y41861D01*
X431959Y41319D01*
X433348Y41043D01*
X434055D01*
Y14764D01*
X361256D01*
Y33465D01*
X361178Y33855D01*
X360957Y34185D01*
X360626Y34407D01*
X360236Y34484D01*
X322835D01*
X322445Y34407D01*
X322114Y34185D01*
X321893Y33855D01*
X321815Y33465D01*
Y14764D01*
X52165D01*
Y30281D01*
X52835Y30485D01*
X53063Y30143D01*
X54434Y28772D01*
X56046Y27695D01*
X57838Y26953D01*
X59739Y26575D01*
X61678D01*
X63580Y26953D01*
X65371Y27695D01*
X66983Y28772D01*
X68354Y30143D01*
X69431Y31755D01*
X70173Y33546D01*
X70551Y35448D01*
Y37387D01*
X70173Y39288D01*
X69431Y41080D01*
X68354Y42692D01*
X66983Y44063D01*
X65371Y45140D01*
X63580Y45882D01*
X61678Y46260D01*
X59739D01*
X57838Y45882D01*
X56046Y45140D01*
X54434Y44063D01*
X53063Y42692D01*
X52835Y42350D01*
X52165Y42553D01*
Y55118D01*
X224410D01*
Y139489D01*
X224659Y139738D01*
X239173D01*
X239944Y139840D01*
X240662Y140137D01*
X241279Y140611D01*
X250367Y149699D01*
X251524D01*
X251874Y149093D01*
X251803Y148969D01*
X251575Y148118D01*
Y147237D01*
X251803Y146386D01*
X252243Y145622D01*
X252689Y145177D01*
X252243Y144732D01*
X251803Y143969D01*
X251575Y143118D01*
Y142237D01*
X251803Y141385D01*
X252243Y140622D01*
X252689Y140177D01*
X252243Y139732D01*
X251803Y138969D01*
X251575Y138118D01*
Y137237D01*
X251803Y136386D01*
X252243Y135622D01*
X252867Y134999D01*
X253630Y134559D01*
X254481Y134331D01*
X255362D01*
X256213Y134559D01*
X256976Y134999D01*
X257599Y135622D01*
X258040Y136386D01*
X258268Y137237D01*
Y138118D01*
X258040Y138969D01*
X257599Y139732D01*
X257154Y140177D01*
X257599Y140622D01*
X258040Y141385D01*
X258268Y142237D01*
Y143118D01*
X258040Y143969D01*
X257599Y144732D01*
X257154Y145177D01*
X257599Y145622D01*
X258040Y146386D01*
X258268Y147237D01*
Y148118D01*
X258040Y148969D01*
X257599Y149732D01*
X257154Y150177D01*
X257599Y150622D01*
X258040Y151385D01*
X258268Y152237D01*
Y153118D01*
X258040Y153969D01*
X257599Y154732D01*
X257154Y155177D01*
X257599Y155622D01*
X258040Y156386D01*
X258268Y157237D01*
Y158118D01*
X258040Y158969D01*
X257599Y159732D01*
X257047Y160284D01*
X257386Y160622D01*
X257827Y161386D01*
X258055Y162237D01*
Y163118D01*
X257827Y163969D01*
X257386Y164732D01*
X256763Y165355D01*
X256000Y165796D01*
X255149Y166024D01*
X254268D01*
X253416Y165796D01*
X252653Y165355D01*
X252030Y164732D01*
X251590Y163969D01*
X251362Y163118D01*
Y162237D01*
X251590Y161386D01*
X252030Y160622D01*
X252582Y160071D01*
X252243Y159732D01*
X251803Y158969D01*
X251575Y158118D01*
Y157237D01*
X251803Y156386D01*
X251874Y156262D01*
X251524Y155655D01*
X249134D01*
X249134Y155655D01*
X248363Y155554D01*
X247645Y155256D01*
X247028Y154783D01*
X238600Y146355D01*
X238040Y146785D01*
X238355Y147330D01*
X238583Y148181D01*
Y149063D01*
X238355Y149914D01*
X237914Y150677D01*
X237291Y151300D01*
X236528Y151741D01*
X235677Y151969D01*
X235236D01*
Y157087D01*
X235677D01*
X236528Y157315D01*
X237291Y157755D01*
X237914Y158378D01*
X238355Y159141D01*
X238583Y159993D01*
Y160874D01*
X238355Y161725D01*
X237914Y162488D01*
X237291Y163111D01*
X236528Y163551D01*
X235677Y163779D01*
X235610D01*
X235166Y164321D01*
X235236Y164676D01*
Y166033D01*
X234971Y167364D01*
X234452Y168618D01*
X233698Y169746D01*
X233090Y170354D01*
X233698Y170962D01*
X234452Y172091D01*
X234971Y173345D01*
X235236Y174676D01*
Y176033D01*
X234971Y177364D01*
X234452Y178618D01*
X233698Y179746D01*
X233090Y180354D01*
X233698Y180962D01*
X234452Y182091D01*
X234971Y183345D01*
X235236Y184676D01*
Y186033D01*
X234971Y187364D01*
X234452Y188618D01*
X233698Y189746D01*
X233090Y190354D01*
X233698Y190962D01*
X234452Y192091D01*
X234971Y193345D01*
X235236Y194676D01*
Y196033D01*
X234971Y197364D01*
X234452Y198618D01*
X233698Y199746D01*
X233090Y200354D01*
X233698Y200962D01*
X234452Y202091D01*
X234971Y203345D01*
X235236Y204676D01*
Y206033D01*
X234971Y207364D01*
X234452Y208618D01*
X233698Y209746D01*
X232738Y210706D01*
X231610Y211460D01*
X230356Y211979D01*
X229025Y212244D01*
X227668D01*
X226337Y211979D01*
X225083Y211460D01*
X225027Y211422D01*
X224410Y211752D01*
Y253937D01*
X250000D01*
Y243110D01*
D02*
G37*
G36*
X97894Y106673D02*
X42776D01*
Y131449D01*
X97894D01*
Y106673D01*
D02*
G37*
%LPC*%
G36*
X158659Y336114D02*
X157302D01*
X155971Y335849D01*
X154717Y335330D01*
X153588Y334576D01*
X152629Y333616D01*
X151875Y332488D01*
X151355Y331234D01*
X151091Y329903D01*
Y328546D01*
X151355Y327215D01*
X151875Y325961D01*
X152629Y324832D01*
X153588Y323873D01*
X154717Y323119D01*
X155971Y322599D01*
X157302Y322335D01*
X158659D01*
X159990Y322599D01*
X161244Y323119D01*
X162372Y323873D01*
X163332Y324832D01*
X164086Y325961D01*
X164605Y327215D01*
X164870Y328546D01*
Y329903D01*
X164605Y331234D01*
X164086Y332488D01*
X163332Y333616D01*
X162372Y334576D01*
X161244Y335330D01*
X159990Y335849D01*
X158659Y336114D01*
D02*
G37*
G36*
X240548Y319091D02*
X239767D01*
X239012Y318888D01*
X238335Y318497D01*
X237782Y317945D01*
X237391Y317268D01*
X237189Y316513D01*
Y315731D01*
X237391Y314976D01*
X237782Y314299D01*
X238335Y313747D01*
X239012Y313356D01*
X239767Y313154D01*
X240548D01*
X241303Y313356D01*
X241980Y313747D01*
X242533Y314299D01*
X242924Y314976D01*
X243126Y315731D01*
Y316513D01*
X242924Y317268D01*
X242533Y317945D01*
X241980Y318497D01*
X241303Y318888D01*
X240548Y319091D01*
D02*
G37*
G36*
X327078Y307008D02*
X326145D01*
X325244Y306766D01*
X324436Y306300D01*
X323776Y305640D01*
X323310Y304832D01*
X323068Y303931D01*
Y302998D01*
X323310Y302097D01*
X323776Y301289D01*
X324436Y300629D01*
X325244Y300163D01*
X326145Y299921D01*
X327078D01*
X327979Y300163D01*
X328787Y300629D01*
X329447Y301289D01*
X329913Y302097D01*
X330155Y302998D01*
Y303931D01*
X329913Y304832D01*
X329447Y305640D01*
X328787Y306300D01*
X327979Y306766D01*
X327078Y307008D01*
D02*
G37*
G36*
X313083Y293013D02*
X312150D01*
X311249Y292772D01*
X310441Y292305D01*
X309782Y291646D01*
X309315Y290838D01*
X309074Y289936D01*
Y289003D01*
X309315Y288102D01*
X309782Y287294D01*
X310441Y286635D01*
X311249Y286168D01*
X312150Y285927D01*
X313083D01*
X313984Y286168D01*
X314792Y286635D01*
X315452Y287294D01*
X315919Y288102D01*
X316160Y289003D01*
Y289936D01*
X315919Y290838D01*
X315452Y291646D01*
X314792Y292305D01*
X313984Y292772D01*
X313083Y293013D01*
D02*
G37*
G36*
X240626Y290193D02*
X239689D01*
X238784Y289950D01*
X237972Y289482D01*
X237310Y288819D01*
X236841Y288008D01*
X236598Y287102D01*
Y286165D01*
X236841Y285260D01*
X237310Y284449D01*
X237972Y283786D01*
X238784Y283317D01*
X239689Y283075D01*
X240626D01*
X241531Y283317D01*
X242343Y283786D01*
X243005Y284449D01*
X243474Y285260D01*
X243717Y286165D01*
Y287102D01*
X243474Y288008D01*
X243005Y288819D01*
X242343Y289482D01*
X241531Y289950D01*
X240626Y290193D01*
D02*
G37*
G36*
X84646Y317717D02*
X57087D01*
Y311811D01*
X44488D01*
Y284252D01*
X57087D01*
Y277559D01*
X84646D01*
Y293307D01*
X60236D01*
Y301969D01*
X84646D01*
Y317717D01*
D02*
G37*
G36*
X274733Y282892D02*
X273800D01*
X272899Y282650D01*
X272091Y282184D01*
X271431Y281524D01*
X270965Y280716D01*
X270723Y279815D01*
Y278882D01*
X270965Y277981D01*
X271431Y277173D01*
X272091Y276513D01*
X272899Y276046D01*
X273800Y275805D01*
X274733D01*
X275634Y276046D01*
X276442Y276513D01*
X277102Y277173D01*
X277568Y277981D01*
X277810Y278882D01*
Y279815D01*
X277568Y280716D01*
X277102Y281524D01*
X276442Y282184D01*
X275634Y282650D01*
X274733Y282892D01*
D02*
G37*
G36*
X97626Y336221D02*
X96075D01*
X94554Y335918D01*
X93121Y335324D01*
X91831Y334463D01*
X90734Y333366D01*
X89872Y332076D01*
X89279Y330643D01*
X88976Y329122D01*
Y327571D01*
X89279Y326050D01*
X89872Y324617D01*
X90734Y323327D01*
X91831Y322230D01*
X93121Y321369D01*
X94554Y320775D01*
X96075Y320472D01*
X96288D01*
X96711Y319772D01*
X96457Y318492D01*
Y316941D01*
X96759Y315420D01*
X97353Y313987D01*
X98215Y312697D01*
X99026Y311886D01*
X99231Y311417D01*
X99026Y310949D01*
X98215Y310138D01*
X97353Y308848D01*
X96759Y307415D01*
X96457Y305894D01*
Y304343D01*
X96759Y302821D01*
X97353Y301388D01*
X98215Y300099D01*
X99026Y299287D01*
X99231Y298819D01*
X99026Y298351D01*
X98215Y297539D01*
X97353Y296249D01*
X96759Y294816D01*
X96457Y293295D01*
Y291744D01*
X96759Y290223D01*
X97353Y288790D01*
X98215Y287500D01*
X99311Y286403D01*
X100601Y285542D01*
X102034Y284948D01*
X103555Y284646D01*
X105106D01*
X106628Y284948D01*
X108061Y285542D01*
X109350Y286403D01*
X110236Y287290D01*
X111122Y286403D01*
X112412Y285542D01*
X113845Y284948D01*
X115366Y284646D01*
X115580D01*
X116003Y283946D01*
X115748Y282665D01*
Y281114D01*
X116051Y279593D01*
X116644Y278160D01*
X117506Y276870D01*
X118603Y275774D01*
X119892Y274912D01*
X121325Y274318D01*
X122846Y274016D01*
X124398D01*
X125919Y274318D01*
X127352Y274912D01*
X128641Y275774D01*
X129738Y276870D01*
X130600Y278160D01*
X131193Y279593D01*
X131496Y281114D01*
Y282665D01*
X131193Y284187D01*
X130600Y285619D01*
X129738Y286909D01*
X128641Y288006D01*
X127352Y288868D01*
X125919Y289461D01*
X124398Y289764D01*
X124184D01*
X123761Y290464D01*
X124016Y291744D01*
Y293295D01*
X123713Y294816D01*
X123370Y295644D01*
X123759Y296226D01*
X169291D01*
X170319Y296361D01*
X171277Y296758D01*
X172099Y297389D01*
X172730Y298211D01*
X173127Y299169D01*
X173262Y300197D01*
Y316929D01*
X173127Y317957D01*
X172730Y318915D01*
X172099Y319737D01*
X171277Y320368D01*
X170319Y320765D01*
X169291Y320900D01*
X138779D01*
X137752Y320765D01*
X136794Y320368D01*
X135972Y319737D01*
X130245Y314010D01*
X124016D01*
Y325590D01*
X108268D01*
Y325366D01*
X107568Y324899D01*
X106628Y325288D01*
X105106Y325590D01*
X104893D01*
X104470Y326291D01*
X104724Y327571D01*
Y329122D01*
X104422Y330643D01*
X103828Y332076D01*
X102966Y333366D01*
X101870Y334463D01*
X100580Y335324D01*
X99147Y335918D01*
X97626Y336221D01*
D02*
G37*
G36*
X231818Y273622D02*
X230781D01*
X229780Y273354D01*
X228882Y272835D01*
X228149Y272102D01*
X227630Y271205D01*
X227362Y270203D01*
Y269167D01*
X227630Y268165D01*
X228149Y267268D01*
X228882Y266535D01*
X229780Y266016D01*
X230781Y265748D01*
X231818D01*
X232819Y266016D01*
X233717Y266535D01*
X234450Y267268D01*
X234968Y268165D01*
X235236Y269167D01*
Y270203D01*
X234968Y271205D01*
X234450Y272102D01*
X233717Y272835D01*
X232819Y273354D01*
X231818Y273622D01*
D02*
G37*
G36*
X390204Y266142D02*
X389323D01*
X388472Y265914D01*
X387709Y265473D01*
X387086Y264850D01*
X386645Y264087D01*
X386417Y263236D01*
Y262355D01*
X386645Y261504D01*
X387086Y260740D01*
X387709Y260118D01*
X388472Y259677D01*
X389323Y259449D01*
X390204D01*
X391055Y259677D01*
X391819Y260118D01*
X392442Y260740D01*
X392882Y261504D01*
X393110Y262355D01*
Y263236D01*
X392882Y264087D01*
X392442Y264850D01*
X391819Y265473D01*
X391055Y265914D01*
X390204Y266142D01*
D02*
G37*
G36*
X37096Y259842D02*
X35739D01*
X34408Y259578D01*
X33154Y259058D01*
X32025Y258304D01*
X31066Y257345D01*
X30312Y256216D01*
X29792Y254962D01*
X29528Y253631D01*
Y252274D01*
X29792Y250943D01*
X30312Y249689D01*
X31066Y248561D01*
X32025Y247601D01*
X33154Y246847D01*
X34408Y246328D01*
X35739Y246063D01*
X37096D01*
X38427Y246328D01*
X39681Y246847D01*
X40809Y247601D01*
X41769Y248561D01*
X42523Y249689D01*
X43042Y250943D01*
X43307Y252274D01*
Y253631D01*
X43042Y254962D01*
X42523Y256216D01*
X41769Y257345D01*
X40809Y258304D01*
X39681Y259058D01*
X38427Y259578D01*
X37096Y259842D01*
D02*
G37*
G36*
X17411D02*
X16054D01*
X14723Y259578D01*
X13469Y259058D01*
X12340Y258304D01*
X11381Y257345D01*
X10627Y256216D01*
X10107Y254962D01*
X9843Y253631D01*
Y252274D01*
X10107Y250943D01*
X10627Y249689D01*
X11381Y248561D01*
X12340Y247601D01*
X13469Y246847D01*
X14723Y246328D01*
X16054Y246063D01*
X17411D01*
X18742Y246328D01*
X19996Y246847D01*
X21124Y247601D01*
X22084Y248561D01*
X22838Y249689D01*
X23357Y250943D01*
X23622Y252274D01*
Y253631D01*
X23357Y254962D01*
X22838Y256216D01*
X22084Y257345D01*
X21124Y258304D01*
X19996Y259058D01*
X18742Y259578D01*
X17411Y259842D01*
D02*
G37*
G36*
X198819Y254478D02*
X197177Y254316D01*
X195599Y253837D01*
X194144Y253059D01*
X192869Y252013D01*
X191823Y250738D01*
X191045Y249283D01*
X190566Y247705D01*
X190404Y246063D01*
X190566Y244421D01*
X191045Y242843D01*
X191823Y241388D01*
X192869Y240113D01*
X194144Y239067D01*
X195599Y238289D01*
X197177Y237810D01*
X198819Y237649D01*
X200461Y237810D01*
X202039Y238289D01*
X203494Y239067D01*
X204769Y240113D01*
X205815Y241388D01*
X206593Y242843D01*
X207072Y244421D01*
X207233Y246063D01*
X207072Y247705D01*
X206593Y249283D01*
X205815Y250738D01*
X204769Y252013D01*
X203494Y253059D01*
X202039Y253837D01*
X200461Y254316D01*
X198819Y254478D01*
D02*
G37*
G36*
X511345Y219535D02*
X510308D01*
X509307Y219267D01*
X508409Y218749D01*
X507676Y218016D01*
X507158Y217118D01*
X506890Y216117D01*
Y215080D01*
X507158Y214079D01*
X507676Y213181D01*
X508409Y212448D01*
X509307Y211930D01*
X510308Y211661D01*
X511345D01*
X512346Y211930D01*
X513244Y212448D01*
X513977Y213181D01*
X514496Y214079D01*
X514764Y215080D01*
Y216117D01*
X514496Y217118D01*
X513977Y218016D01*
X513244Y218749D01*
X512346Y219267D01*
X511345Y219535D01*
D02*
G37*
G36*
X27041Y216142D02*
X26108D01*
X25207Y215900D01*
X24399Y215434D01*
X23740Y214774D01*
X23273Y213966D01*
X23031Y213065D01*
Y212132D01*
X23273Y211231D01*
X23740Y210423D01*
X24399Y209763D01*
X25207Y209297D01*
X26108Y209055D01*
X27041D01*
X27942Y209297D01*
X28750Y209763D01*
X29410Y210423D01*
X29877Y211231D01*
X30118Y212132D01*
Y213065D01*
X29877Y213966D01*
X29410Y214774D01*
X28750Y215434D01*
X27942Y215900D01*
X27041Y216142D01*
D02*
G37*
G36*
X138962Y205709D02*
X137258D01*
X135575Y205442D01*
X133954Y204915D01*
X132436Y204142D01*
X131057Y203140D01*
X129852Y201935D01*
X128850Y200556D01*
X128460Y199791D01*
X127760D01*
X127370Y200556D01*
X126368Y201935D01*
X125163Y203140D01*
X123785Y204142D01*
X122266Y204915D01*
X120645Y205442D01*
X118962Y205709D01*
X117258D01*
X115575Y205442D01*
X113954Y204915D01*
X112436Y204142D01*
X111057Y203140D01*
X109852Y201935D01*
X108850Y200556D01*
X108460Y199791D01*
X107760D01*
X107370Y200556D01*
X106368Y201935D01*
X105163Y203140D01*
X103785Y204142D01*
X102266Y204915D01*
X100645Y205442D01*
X98962Y205709D01*
X97258D01*
X95575Y205442D01*
X93954Y204915D01*
X92436Y204142D01*
X91057Y203140D01*
X89852Y201935D01*
X88850Y200556D01*
X88077Y199038D01*
X87550Y197417D01*
X87283Y195734D01*
Y194030D01*
X87550Y192347D01*
X88077Y190726D01*
X88850Y189207D01*
X89852Y187829D01*
X91057Y186624D01*
X92436Y185622D01*
X93954Y184848D01*
X95575Y184322D01*
X97258Y184055D01*
X98962D01*
X100645Y184322D01*
X102266Y184848D01*
X103785Y185622D01*
X105163Y186624D01*
X106368Y187829D01*
X107370Y189207D01*
X107760Y189973D01*
X108460D01*
X108850Y189207D01*
X109852Y187829D01*
X111057Y186624D01*
X112436Y185622D01*
X113954Y184848D01*
X115575Y184322D01*
X117258Y184055D01*
X118962D01*
X120645Y184322D01*
X122266Y184848D01*
X123785Y185622D01*
X125163Y186624D01*
X126368Y187829D01*
X127370Y189207D01*
X127760Y189973D01*
X128460D01*
X128850Y189207D01*
X129852Y187829D01*
X131057Y186624D01*
X132436Y185622D01*
X133954Y184848D01*
X135575Y184322D01*
X137258Y184055D01*
X138962D01*
X140646Y184322D01*
X142266Y184848D01*
X143785Y185622D01*
X145163Y186624D01*
X146368Y187829D01*
X147370Y189207D01*
X148144Y190726D01*
X148670Y192347D01*
X148937Y194030D01*
Y195734D01*
X148670Y197417D01*
X148144Y199038D01*
X147370Y200556D01*
X146368Y201935D01*
X145163Y203140D01*
X143785Y204142D01*
X142266Y204915D01*
X140646Y205442D01*
X138962Y205709D01*
D02*
G37*
G36*
X511345Y196484D02*
X510308D01*
X509307Y196216D01*
X508409Y195698D01*
X507676Y194965D01*
X507158Y194067D01*
X506890Y193066D01*
Y192029D01*
X507158Y191028D01*
X507676Y190130D01*
X508409Y189397D01*
X509307Y188879D01*
X510308Y188610D01*
X511345D01*
X512346Y188879D01*
X513244Y189397D01*
X513977Y190130D01*
X514496Y191028D01*
X514764Y192029D01*
Y193066D01*
X514496Y194067D01*
X513977Y194965D01*
X513244Y195698D01*
X512346Y196216D01*
X511345Y196484D01*
D02*
G37*
G36*
X454026Y177970D02*
X452989D01*
X451988Y177702D01*
X451090Y177183D01*
X450357Y176450D01*
X449839Y175553D01*
X449571Y174551D01*
Y173515D01*
X449839Y172513D01*
X450357Y171616D01*
X451090Y170883D01*
X451988Y170364D01*
X452989Y170096D01*
X454026D01*
X455027Y170364D01*
X455925Y170883D01*
X456658Y171616D01*
X457176Y172513D01*
X457445Y173515D01*
Y174551D01*
X457176Y175553D01*
X456658Y176450D01*
X455925Y177183D01*
X455027Y177702D01*
X454026Y177970D01*
D02*
G37*
G36*
X216976Y153937D02*
X216095D01*
X215244Y153709D01*
X214481Y153268D01*
X213858Y152645D01*
X213417Y151882D01*
X213189Y151031D01*
Y150150D01*
X213417Y149299D01*
X213858Y148536D01*
X214481Y147913D01*
X215244Y147472D01*
X216095Y147244D01*
X216976D01*
X217827Y147472D01*
X218590Y147913D01*
X219213Y148536D01*
X219654Y149299D01*
X219882Y150150D01*
Y151031D01*
X219654Y151882D01*
X219213Y152645D01*
X218590Y153268D01*
X217827Y153709D01*
X216976Y153937D01*
D02*
G37*
G36*
X511345Y150402D02*
X510308D01*
X509307Y150133D01*
X508409Y149615D01*
X507676Y148882D01*
X507158Y147984D01*
X506890Y146983D01*
Y145946D01*
X507158Y144945D01*
X507676Y144047D01*
X508409Y143314D01*
X508700Y143146D01*
Y142338D01*
X508409Y142170D01*
X507676Y141437D01*
X507158Y140539D01*
X506890Y139538D01*
Y138501D01*
X507158Y137500D01*
X507676Y136602D01*
X508409Y135869D01*
X509307Y135351D01*
X510308Y135083D01*
X511345D01*
X512346Y135351D01*
X513244Y135869D01*
X513977Y136602D01*
X514496Y137500D01*
X514764Y138501D01*
Y139538D01*
X514496Y140539D01*
X513977Y141437D01*
X513244Y142170D01*
X512953Y142338D01*
Y143146D01*
X513244Y143314D01*
X513977Y144047D01*
X514496Y144945D01*
X514764Y145946D01*
Y146983D01*
X514496Y147984D01*
X513977Y148882D01*
X513244Y149615D01*
X512346Y150133D01*
X511345Y150402D01*
D02*
G37*
G36*
X463158Y133792D02*
X462225D01*
X461324Y133550D01*
X460516Y133084D01*
X459856Y132424D01*
X459390Y131616D01*
X459148Y130715D01*
Y129782D01*
X459390Y128881D01*
X459856Y128073D01*
X460516Y127413D01*
X461324Y126947D01*
X462225Y126705D01*
X463158D01*
X464059Y126947D01*
X464867Y127413D01*
X465527Y128073D01*
X465993Y128881D01*
X466235Y129782D01*
Y130715D01*
X465993Y131616D01*
X465527Y132424D01*
X464867Y133084D01*
X464059Y133550D01*
X463158Y133792D01*
D02*
G37*
G36*
X511345Y128583D02*
X510308D01*
X509307Y128314D01*
X508409Y127796D01*
X507676Y127063D01*
X507158Y126165D01*
X506890Y125164D01*
Y124127D01*
X507158Y123126D01*
X507676Y122228D01*
X508409Y121495D01*
X508528Y121427D01*
Y120727D01*
X508409Y120658D01*
X507676Y119925D01*
X507158Y119027D01*
X506890Y118026D01*
Y116990D01*
X507158Y115988D01*
X507676Y115091D01*
X508409Y114357D01*
X509307Y113839D01*
X510308Y113571D01*
X511345D01*
X512346Y113839D01*
X513244Y114357D01*
X513977Y115091D01*
X514496Y115988D01*
X514764Y116990D01*
Y118026D01*
X514496Y119027D01*
X513977Y119925D01*
X513244Y120658D01*
X513126Y120727D01*
Y121427D01*
X513244Y121495D01*
X513977Y122228D01*
X514496Y123126D01*
X514764Y124127D01*
Y125164D01*
X514496Y126165D01*
X513977Y127063D01*
X513244Y127796D01*
X512346Y128314D01*
X511345Y128583D01*
D02*
G37*
G36*
X470991Y121063D02*
X469954D01*
X468953Y120795D01*
X468055Y120276D01*
X467322Y119543D01*
X466804Y118646D01*
X466535Y117644D01*
Y116608D01*
X466804Y115606D01*
X467322Y114709D01*
X468055Y113976D01*
X468953Y113457D01*
X469954Y113189D01*
X470991D01*
X471992Y113457D01*
X472890Y113976D01*
X473623Y114709D01*
X474141Y115606D01*
X474409Y116608D01*
Y117644D01*
X474141Y118646D01*
X473623Y119543D01*
X472890Y120276D01*
X471992Y120795D01*
X470991Y121063D01*
D02*
G37*
G36*
X194576Y117126D02*
X193219D01*
X191888Y116861D01*
X190634Y116342D01*
X189506Y115588D01*
X188546Y114628D01*
X187792Y113500D01*
X187273Y112246D01*
X187008Y110915D01*
Y109558D01*
X187273Y108227D01*
X187792Y106973D01*
X188546Y105844D01*
X189506Y104885D01*
X190634Y104131D01*
X191888Y103611D01*
X193219Y103347D01*
X194576D01*
X195907Y103611D01*
X197161Y104131D01*
X198290Y104885D01*
X199249Y105844D01*
X200003Y106973D01*
X200523Y108227D01*
X200787Y109558D01*
Y110915D01*
X200523Y112246D01*
X200003Y113500D01*
X199249Y114628D01*
X198290Y115588D01*
X197161Y116342D01*
X195907Y116861D01*
X194576Y117126D01*
D02*
G37*
G36*
X174213Y118651D02*
X172571Y118489D01*
X170993Y118010D01*
X169538Y117233D01*
X168263Y116186D01*
X167216Y114911D01*
X166439Y113456D01*
X165960Y111878D01*
X165798Y110236D01*
X165960Y108595D01*
X166439Y107016D01*
X167216Y105561D01*
X168263Y104286D01*
X169538Y103240D01*
X170993Y102462D01*
X172571Y101983D01*
X174213Y101822D01*
X175854Y101983D01*
X177433Y102462D01*
X178887Y103240D01*
X180163Y104286D01*
X181209Y105561D01*
X181987Y107016D01*
X182466Y108595D01*
X182627Y110236D01*
X182466Y111878D01*
X181987Y113456D01*
X181209Y114911D01*
X180163Y116186D01*
X178887Y117233D01*
X177433Y118010D01*
X175854Y118489D01*
X174213Y118651D01*
D02*
G37*
G36*
X9377Y108268D02*
X8340D01*
X7339Y107999D01*
X6441Y107481D01*
X5708Y106748D01*
X5190Y105850D01*
X4921Y104849D01*
Y103812D01*
X5190Y102811D01*
X5708Y101913D01*
X6441Y101180D01*
X7339Y100662D01*
X8340Y100394D01*
X9377D01*
X10378Y100662D01*
X11276Y101180D01*
X12009Y101913D01*
X12527Y102811D01*
X12795Y103812D01*
Y104849D01*
X12527Y105850D01*
X12009Y106748D01*
X11276Y107481D01*
X10378Y107999D01*
X9377Y108268D01*
D02*
G37*
G36*
X19271Y84055D02*
X18131D01*
X17029Y83760D01*
X16042Y83190D01*
X15235Y82384D01*
X14665Y81396D01*
X14370Y80295D01*
Y79154D01*
X14665Y78053D01*
X15235Y77065D01*
X16042Y76259D01*
X17029Y75689D01*
X18131Y75394D01*
X19271D01*
X20372Y75689D01*
X21360Y76259D01*
X22166Y77065D01*
X22736Y78053D01*
X23031Y79154D01*
Y80295D01*
X22736Y81396D01*
X22166Y82384D01*
X21360Y83190D01*
X20372Y83760D01*
X19271Y84055D01*
D02*
G37*
G36*
X469942Y82215D02*
X469035D01*
X468158Y81980D01*
X467373Y81526D01*
X466732Y80885D01*
X466278Y80099D01*
X466043Y79223D01*
Y78316D01*
X466278Y77440D01*
X466732Y76654D01*
X467373Y76013D01*
X468158Y75560D01*
X469035Y75325D01*
X469942D01*
X470818Y75560D01*
X471603Y76013D01*
X472245Y76654D01*
X472698Y77440D01*
X472933Y78316D01*
Y79223D01*
X472698Y80099D01*
X472245Y80885D01*
X471603Y81526D01*
X470818Y81980D01*
X469942Y82215D01*
D02*
G37*
G36*
X507408Y113189D02*
X506371D01*
X505370Y112921D01*
X504472Y112402D01*
X503739Y111669D01*
X503221Y110772D01*
X502953Y109770D01*
Y108734D01*
X503221Y107732D01*
X503739Y106835D01*
X504472Y106102D01*
X505163Y105703D01*
X505207Y105563D01*
Y105066D01*
X505163Y104927D01*
X504472Y104528D01*
X503739Y103795D01*
X503221Y102898D01*
X502953Y101896D01*
Y100860D01*
X503221Y99858D01*
X503739Y98961D01*
X504472Y98228D01*
X505163Y97829D01*
X505207Y97689D01*
Y97192D01*
X505163Y97053D01*
X504472Y96654D01*
X503739Y95921D01*
X503221Y95024D01*
X502953Y94022D01*
Y92986D01*
X503221Y91984D01*
X503739Y91087D01*
X504472Y90354D01*
X505163Y89955D01*
X505207Y89815D01*
Y89318D01*
X505163Y89179D01*
X504472Y88780D01*
X503739Y88047D01*
X503221Y87150D01*
X502953Y86148D01*
Y85112D01*
X503221Y84110D01*
X503739Y83213D01*
X504472Y82480D01*
X505163Y82081D01*
X505207Y81941D01*
Y81444D01*
X505163Y81305D01*
X504472Y80906D01*
X503739Y80173D01*
X503221Y79276D01*
X502953Y78274D01*
Y77238D01*
X503221Y76236D01*
X503739Y75339D01*
X504472Y74606D01*
X505370Y74087D01*
X506371Y73819D01*
X507408D01*
X508409Y74087D01*
X509307Y74606D01*
X510040Y75339D01*
X510559Y76236D01*
X510827Y77238D01*
Y78274D01*
X510559Y79276D01*
X510040Y80173D01*
X509307Y80906D01*
X508616Y81305D01*
X508572Y81444D01*
Y81941D01*
X508616Y82081D01*
X509307Y82480D01*
X510040Y83213D01*
X510559Y84110D01*
X510827Y85112D01*
Y86148D01*
X510559Y87150D01*
X510040Y88047D01*
X509307Y88780D01*
X508616Y89179D01*
X508572Y89318D01*
Y89815D01*
X508616Y89955D01*
X509307Y90354D01*
X510040Y91087D01*
X510559Y91984D01*
X510827Y92986D01*
Y94022D01*
X510559Y95024D01*
X510040Y95921D01*
X509307Y96654D01*
X508616Y97053D01*
X508572Y97192D01*
Y97689D01*
X508616Y97829D01*
X509307Y98228D01*
X510040Y98961D01*
X510559Y99858D01*
X510827Y100860D01*
Y101896D01*
X510559Y102898D01*
X510040Y103795D01*
X509307Y104528D01*
X508616Y104927D01*
X508572Y105066D01*
Y105563D01*
X508616Y105703D01*
X509307Y106102D01*
X510040Y106835D01*
X510559Y107732D01*
X510827Y108734D01*
Y109770D01*
X510559Y110772D01*
X510040Y111669D01*
X509307Y112402D01*
X508409Y112921D01*
X507408Y113189D01*
D02*
G37*
%LPD*%
G36*
X169291Y300197D02*
X118892D01*
X118704Y300897D01*
X119173Y301167D01*
X120092Y302087D01*
X120742Y303212D01*
X121079Y304468D01*
Y304618D01*
X116142D01*
X111205D01*
Y304468D01*
X111541Y303212D01*
X112191Y302087D01*
X113110Y301167D01*
X113579Y300897D01*
X113392Y300197D01*
X107081D01*
X106893Y300897D01*
X107362Y301167D01*
X108281Y302087D01*
X108931Y303212D01*
X109268Y304468D01*
Y304618D01*
X104331D01*
Y305618D01*
X109268D01*
Y305768D01*
X108931Y307024D01*
X108281Y308150D01*
X107362Y309069D01*
X106893Y309339D01*
X107081Y310039D01*
X108268D01*
Y309842D01*
X113051D01*
X113238Y309142D01*
X113110Y309069D01*
X112191Y308150D01*
X111541Y307024D01*
X111205Y305768D01*
Y305618D01*
X116142D01*
X121079D01*
Y305768D01*
X120742Y307024D01*
X120092Y308150D01*
X119173Y309069D01*
X119045Y309142D01*
X119233Y309842D01*
X124016D01*
Y310039D01*
X131890D01*
X138779Y316929D01*
X169291D01*
Y300197D01*
D02*
G37*
%LPC*%
G36*
X158501Y313492D02*
X158480D01*
Y310039D01*
X161933D01*
Y310060D01*
X161664Y311065D01*
X161143Y311966D01*
X160407Y312702D01*
X159506Y313223D01*
X158501Y313492D01*
D02*
G37*
G36*
X157480D02*
X157460D01*
X156455Y313223D01*
X155553Y312702D01*
X154817Y311966D01*
X154297Y311065D01*
X154028Y310060D01*
Y310039D01*
X157480D01*
Y313492D01*
D02*
G37*
G36*
X161933Y309039D02*
X158480D01*
Y305587D01*
X158501D01*
X159506Y305856D01*
X160407Y306376D01*
X161143Y307112D01*
X161664Y308014D01*
X161933Y309019D01*
Y309039D01*
D02*
G37*
G36*
X157480D02*
X154028D01*
Y309019D01*
X154297Y308014D01*
X154817Y307112D01*
X155553Y306376D01*
X156455Y305856D01*
X157460Y305587D01*
X157480D01*
Y309039D01*
D02*
G37*
%LPD*%
G36*
X199703Y249363D02*
X200527Y249022D01*
X201235Y248479D01*
X201777Y247771D01*
X202119Y246947D01*
X202235Y246063D01*
X202119Y245179D01*
X201777Y244355D01*
X201235Y243647D01*
X200527Y243104D01*
X199703Y242763D01*
X198819Y242647D01*
X197935Y242763D01*
X197111Y243104D01*
X196403Y243647D01*
X195860Y244355D01*
X195519Y245179D01*
X195403Y246063D01*
X195519Y246947D01*
X195860Y247771D01*
X196403Y248479D01*
X197111Y249022D01*
X197935Y249363D01*
X198819Y249479D01*
X199703Y249363D01*
D02*
G37*
%LPC*%
G36*
X362645Y227756D02*
X361764D01*
X360913Y227528D01*
X360150Y227087D01*
X359527Y226464D01*
X359086Y225701D01*
X358858Y224850D01*
Y223969D01*
X359086Y223118D01*
X359527Y222355D01*
X360150Y221732D01*
X360913Y221291D01*
X361764Y221063D01*
X362645D01*
X363496Y221291D01*
X364260Y221732D01*
X364882Y222355D01*
X365323Y223118D01*
X365551Y223969D01*
Y224850D01*
X365323Y225701D01*
X364882Y226464D01*
X364260Y227087D01*
X363496Y227528D01*
X362645Y227756D01*
D02*
G37*
G36*
X319416Y214567D02*
X318379D01*
X317378Y214299D01*
X316480Y213780D01*
X315747Y213047D01*
X315229Y212150D01*
X314961Y211148D01*
Y210112D01*
X315229Y209110D01*
X315747Y208213D01*
X316480Y207480D01*
X317378Y206961D01*
X318379Y206693D01*
X319416D01*
X320417Y206961D01*
X321315Y207480D01*
X322048Y208213D01*
X322566Y209110D01*
X322835Y210112D01*
Y211148D01*
X322566Y212150D01*
X322048Y213047D01*
X321315Y213780D01*
X320417Y214299D01*
X319416Y214567D01*
D02*
G37*
G36*
X315697Y199803D02*
X314660D01*
X313659Y199535D01*
X312761Y199016D01*
X312028Y198284D01*
X311510Y197386D01*
X311242Y196385D01*
Y195348D01*
X311510Y194346D01*
X312028Y193449D01*
X312761Y192716D01*
X313659Y192197D01*
X314660Y191929D01*
X315697D01*
X316698Y192197D01*
X317596Y192716D01*
X318329Y193449D01*
X318847Y194346D01*
X319116Y195348D01*
Y196385D01*
X318847Y197386D01*
X318329Y198284D01*
X317596Y199016D01*
X316698Y199535D01*
X315697Y199803D01*
D02*
G37*
G36*
X289811Y189370D02*
X288930D01*
X288078Y189142D01*
X287402Y188751D01*
X286725Y189142D01*
X285874Y189370D01*
X284993D01*
X284141Y189142D01*
X283378Y188701D01*
X282755Y188078D01*
X282315Y187315D01*
X282087Y186464D01*
Y185583D01*
X282315Y184732D01*
X282755Y183969D01*
X283378Y183346D01*
X284141Y182905D01*
X284993Y182677D01*
X285874D01*
X286725Y182905D01*
X287402Y183296D01*
X288078Y182905D01*
X288930Y182677D01*
X289811D01*
X290662Y182905D01*
X291425Y183346D01*
X292048Y183969D01*
X292489Y184732D01*
X292717Y185583D01*
Y186464D01*
X292489Y187315D01*
X292048Y188078D01*
X291425Y188701D01*
X290662Y189142D01*
X289811Y189370D01*
D02*
G37*
G36*
X335232Y141024D02*
X334351D01*
X333500Y140796D01*
X332737Y140355D01*
X332114Y139732D01*
X331673Y138969D01*
X331445Y138118D01*
Y137237D01*
X331673Y136386D01*
X332114Y135622D01*
X332559Y135177D01*
X332114Y134732D01*
X331673Y133969D01*
X331445Y133118D01*
Y132237D01*
X331673Y131386D01*
X332114Y130622D01*
X332737Y129999D01*
X333500Y129559D01*
X334351Y129331D01*
X335232D01*
X336083Y129559D01*
X336846Y129999D01*
X337469Y130622D01*
X337910Y131386D01*
X338138Y132237D01*
Y133118D01*
X337910Y133969D01*
X337469Y134732D01*
X337024Y135177D01*
X337469Y135622D01*
X337910Y136386D01*
X338138Y137237D01*
Y138118D01*
X337910Y138969D01*
X337469Y139732D01*
X336846Y140355D01*
X336083Y140796D01*
X335232Y141024D01*
D02*
G37*
G36*
X255362Y131024D02*
X254481D01*
X253630Y130796D01*
X252867Y130355D01*
X252243Y129732D01*
X251803Y128969D01*
X251575Y128118D01*
Y127237D01*
X251803Y126385D01*
X252243Y125622D01*
X252689Y125177D01*
X252243Y124732D01*
X251803Y123969D01*
X251575Y123118D01*
Y122237D01*
X251803Y121386D01*
X252243Y120622D01*
X252867Y119999D01*
X253630Y119559D01*
X254481Y119331D01*
X255362D01*
X256213Y119559D01*
X256976Y119999D01*
X257599Y120622D01*
X258040Y121386D01*
X258268Y122237D01*
Y123118D01*
X258040Y123969D01*
X257599Y124732D01*
X257154Y125177D01*
X257599Y125622D01*
X258040Y126385D01*
X258268Y127237D01*
Y128118D01*
X258040Y128969D01*
X257599Y129732D01*
X256976Y130355D01*
X256213Y130796D01*
X255362Y131024D01*
D02*
G37*
G36*
X235156Y125230D02*
X234119D01*
X233118Y124962D01*
X232220Y124443D01*
X231487Y123710D01*
X230969Y122812D01*
X230700Y121811D01*
Y120774D01*
X230969Y119773D01*
X231487Y118876D01*
X232220Y118142D01*
X233118Y117624D01*
X234119Y117356D01*
X235156D01*
X236157Y117624D01*
X237055Y118142D01*
X237788Y118876D01*
X238306Y119773D01*
X238574Y120774D01*
Y121811D01*
X238306Y122812D01*
X237788Y123710D01*
X237055Y124443D01*
X236157Y124962D01*
X235156Y125230D01*
D02*
G37*
G36*
X335232Y126024D02*
X334351D01*
X333500Y125796D01*
X332737Y125355D01*
X332114Y124732D01*
X331673Y123969D01*
X331445Y123118D01*
Y122237D01*
X331673Y121386D01*
X332114Y120622D01*
X332559Y120177D01*
X332114Y119732D01*
X331673Y118969D01*
X331445Y118118D01*
Y117237D01*
X331673Y116385D01*
X332114Y115622D01*
X332737Y114999D01*
X333500Y114559D01*
X334351Y114331D01*
X335232D01*
X336083Y114559D01*
X336846Y114999D01*
X337469Y115622D01*
X337910Y116385D01*
X338138Y117237D01*
Y118118D01*
X337910Y118969D01*
X337469Y119732D01*
X337024Y120177D01*
X337469Y120622D01*
X337910Y121386D01*
X338138Y122237D01*
Y123118D01*
X337910Y123969D01*
X337469Y124732D01*
X336846Y125355D01*
X336083Y125796D01*
X335232Y126024D01*
D02*
G37*
G36*
X317370Y105709D02*
X316489D01*
X315637Y105481D01*
X314874Y105040D01*
X314251Y104417D01*
X313811Y103654D01*
X313583Y102803D01*
Y101922D01*
X313811Y101070D01*
X314251Y100307D01*
X314874Y99684D01*
X315637Y99244D01*
X316489Y99016D01*
X317370D01*
X318221Y99244D01*
X318984Y99684D01*
X319607Y100307D01*
X320047Y101070D01*
X320276Y101922D01*
Y102803D01*
X320047Y103654D01*
X319607Y104417D01*
X318984Y105040D01*
X318221Y105481D01*
X317370Y105709D01*
D02*
G37*
G36*
X279968Y85039D02*
X279087D01*
X278236Y84811D01*
X277473Y84371D01*
X276850Y83748D01*
X276458Y83069D01*
X276083Y83023D01*
X275707Y83069D01*
X275316Y83748D01*
X274693Y84371D01*
X273930Y84811D01*
X273078Y85039D01*
X272197D01*
X271346Y84811D01*
X270583Y84371D01*
X270124Y83912D01*
X269685Y83811D01*
X269246Y83912D01*
X268787Y84371D01*
X268024Y84811D01*
X267173Y85039D01*
X266292D01*
X265441Y84811D01*
X264678Y84371D01*
X264054Y83748D01*
X263614Y82985D01*
X263386Y82134D01*
Y81252D01*
X263614Y80401D01*
X264054Y79638D01*
X264678Y79015D01*
X265441Y78575D01*
X266292Y78347D01*
X267173D01*
X268024Y78575D01*
X268787Y79015D01*
X269246Y79474D01*
X269685Y79575D01*
X270124Y79474D01*
X270583Y79015D01*
X271346Y78575D01*
X272197Y78347D01*
X273078D01*
X273930Y78575D01*
X274693Y79015D01*
X275316Y79638D01*
X275707Y80316D01*
X276083Y80363D01*
X276458Y80316D01*
X276850Y79638D01*
X277473Y79015D01*
X278236Y78575D01*
X279087Y78347D01*
X279968D01*
X280819Y78575D01*
X281582Y79015D01*
X282205Y79638D01*
X282646Y80401D01*
X282874Y81252D01*
Y82134D01*
X282646Y82985D01*
X282205Y83748D01*
X281582Y84371D01*
X280819Y84811D01*
X279968Y85039D01*
D02*
G37*
G36*
X376956Y89273D02*
X375920D01*
X374918Y89005D01*
X374021Y88486D01*
X373288Y87753D01*
X372769Y86856D01*
X372501Y85854D01*
Y84818D01*
X372769Y83816D01*
X373288Y82919D01*
X374021Y82186D01*
X374918Y81667D01*
X375920Y81399D01*
X376956D01*
X377958Y81667D01*
X378855Y82186D01*
X379588Y82919D01*
X380107Y83816D01*
X380375Y84818D01*
Y85854D01*
X380107Y86856D01*
X379588Y87753D01*
X378855Y88486D01*
X377958Y89005D01*
X376956Y89273D01*
D02*
G37*
G36*
X305559Y85039D02*
X304678D01*
X303826Y84811D01*
X303063Y84371D01*
X302440Y83748D01*
X302000Y82985D01*
X301772Y82134D01*
Y81252D01*
X302000Y80401D01*
X302440Y79638D01*
X303063Y79015D01*
X303826Y78575D01*
X304678Y78347D01*
X305559D01*
X306410Y78575D01*
X307173Y79015D01*
X307796Y79638D01*
X308237Y80401D01*
X308465Y81252D01*
Y82134D01*
X308237Y82985D01*
X307796Y83748D01*
X307173Y84371D01*
X306410Y84811D01*
X305559Y85039D01*
D02*
G37*
G36*
X389684Y73587D02*
X388647D01*
X387646Y73319D01*
X386748Y72800D01*
X386015Y72067D01*
X385497Y71170D01*
X385229Y70169D01*
Y69132D01*
X385497Y68130D01*
X386015Y67233D01*
X386748Y66500D01*
X387646Y65981D01*
X388647Y65713D01*
X389684D01*
X390685Y65981D01*
X391583Y66500D01*
X392316Y67233D01*
X392834Y68130D01*
X393103Y69132D01*
Y70169D01*
X392834Y71170D01*
X392316Y72067D01*
X391583Y72800D01*
X390685Y73319D01*
X389684Y73587D01*
D02*
G37*
G36*
X322369Y57087D02*
X321332D01*
X320331Y56818D01*
X319433Y56300D01*
X318700Y55567D01*
X318182Y54669D01*
X317913Y53668D01*
Y52631D01*
X318182Y51630D01*
X318700Y50732D01*
X319433Y49999D01*
X320331Y49481D01*
X321332Y49213D01*
X322369D01*
X323370Y49481D01*
X324268Y49999D01*
X325001Y50732D01*
X325519Y51630D01*
X325787Y52631D01*
Y53668D01*
X325519Y54669D01*
X325001Y55567D01*
X324268Y56300D01*
X323370Y56818D01*
X322369Y57087D01*
D02*
G37*
G36*
X281030Y52165D02*
X279994D01*
X278992Y51897D01*
X278094Y51379D01*
X277361Y50646D01*
X276843Y49748D01*
X276575Y48747D01*
Y47710D01*
X276843Y46709D01*
X277361Y45811D01*
X278094Y45078D01*
X278992Y44560D01*
X279994Y44291D01*
X281030D01*
X282031Y44560D01*
X282929Y45078D01*
X283662Y45811D01*
X284180Y46709D01*
X284449Y47710D01*
Y48747D01*
X284180Y49748D01*
X283662Y50646D01*
X282929Y51379D01*
X282031Y51897D01*
X281030Y52165D01*
D02*
G37*
G36*
X166954Y46260D02*
X165015D01*
X163113Y45882D01*
X161322Y45140D01*
X159710Y44063D01*
X158339Y42692D01*
X157262Y41080D01*
X156520Y39288D01*
X156341Y38389D01*
X155627D01*
X155448Y39288D01*
X154707Y41080D01*
X153629Y42692D01*
X152259Y44063D01*
X150646Y45140D01*
X148855Y45882D01*
X146954Y46260D01*
X145015D01*
X143113Y45882D01*
X141322Y45140D01*
X139710Y44063D01*
X138339Y42692D01*
X137262Y41080D01*
X136520Y39288D01*
X136341Y38389D01*
X135627D01*
X135449Y39288D01*
X134707Y41080D01*
X133629Y42692D01*
X132258Y44063D01*
X130646Y45140D01*
X128855Y45882D01*
X126954Y46260D01*
X125015D01*
X123113Y45882D01*
X121322Y45140D01*
X119710Y44063D01*
X118339Y42692D01*
X117262Y41080D01*
X116520Y39288D01*
X116142Y37387D01*
Y35448D01*
X116520Y33546D01*
X117262Y31755D01*
X118339Y30143D01*
X119710Y28772D01*
X121322Y27695D01*
X123113Y26953D01*
X125015Y26575D01*
X126954D01*
X128855Y26953D01*
X130646Y27695D01*
X132258Y28772D01*
X133629Y30143D01*
X134707Y31755D01*
X135449Y33546D01*
X135627Y34446D01*
X136341D01*
X136520Y33546D01*
X137262Y31755D01*
X138339Y30143D01*
X139710Y28772D01*
X141322Y27695D01*
X143113Y26953D01*
X145015Y26575D01*
X146954D01*
X148855Y26953D01*
X150646Y27695D01*
X152259Y28772D01*
X153629Y30143D01*
X154707Y31755D01*
X155448Y33546D01*
X155627Y34446D01*
X156341D01*
X156520Y33546D01*
X157262Y31755D01*
X158339Y30143D01*
X159710Y28772D01*
X161322Y27695D01*
X163113Y26953D01*
X165015Y26575D01*
X166954D01*
X168855Y26953D01*
X170646Y27695D01*
X172258Y28772D01*
X173629Y30143D01*
X174707Y31755D01*
X175449Y33546D01*
X175827Y35448D01*
Y37387D01*
X175449Y39288D01*
X174707Y41080D01*
X173629Y42692D01*
X172258Y44063D01*
X170646Y45140D01*
X168855Y45882D01*
X166954Y46260D01*
D02*
G37*
G36*
X192890Y43323D02*
X186484D01*
Y36917D01*
X192890D01*
Y43323D01*
D02*
G37*
G36*
X81389D02*
X81209D01*
Y36917D01*
X87614D01*
Y37097D01*
X87349Y38432D01*
X86828Y39688D01*
X86072Y40819D01*
X85111Y41781D01*
X83980Y42537D01*
X82723Y43058D01*
X81389Y43323D01*
D02*
G37*
G36*
X80209D02*
X80028D01*
X78694Y43058D01*
X77438Y42537D01*
X76307Y41781D01*
X75345Y40819D01*
X74589Y39688D01*
X74068Y38432D01*
X73803Y37097D01*
Y36917D01*
X80209D01*
Y43323D01*
D02*
G37*
G36*
X185484D02*
X179079D01*
Y36917D01*
X185484D01*
Y43323D01*
D02*
G37*
G36*
X192890Y35917D02*
X186484D01*
Y29512D01*
X192890D01*
Y35917D01*
D02*
G37*
G36*
X185484D02*
X179079D01*
Y29512D01*
X185484D01*
Y35917D01*
D02*
G37*
G36*
X87614D02*
X81209D01*
Y29512D01*
X81389D01*
X82723Y29777D01*
X83980Y30298D01*
X85111Y31054D01*
X86072Y32015D01*
X86828Y33146D01*
X87349Y34403D01*
X87614Y35737D01*
Y35917D01*
D02*
G37*
G36*
X80209D02*
X73803D01*
Y35737D01*
X74068Y34403D01*
X74589Y33146D01*
X75345Y32015D01*
X76307Y31054D01*
X77438Y30298D01*
X78694Y29777D01*
X80028Y29512D01*
X80209D01*
Y35917D01*
D02*
G37*
G36*
X110551Y46260D02*
X90866D01*
Y26575D01*
X110551D01*
Y46260D01*
D02*
G37*
%LPD*%
D42*
X240158Y316122D02*
D03*
X376438Y85336D02*
D03*
X389166Y69650D02*
D03*
X387989Y128979D02*
D03*
X480315Y155512D02*
D03*
X447775Y153964D02*
D03*
X453508Y174033D02*
D03*
X411417Y173228D02*
D03*
X510827Y131972D02*
D03*
X427588Y150628D02*
D03*
X418307Y160433D02*
D03*
X404528Y173228D02*
D03*
X81693Y175197D02*
D03*
X531496Y109252D02*
D03*
X172653Y49197D02*
D03*
X152144Y49890D02*
D03*
X315179Y195866D02*
D03*
X326772D02*
D03*
X326804Y243110D02*
D03*
X91535Y46260D02*
D03*
X348425Y230315D02*
D03*
X341535D02*
D03*
X348425Y236221D02*
D03*
X341535D02*
D03*
X231299Y99410D02*
D03*
X510827Y117508D02*
D03*
Y124646D02*
D03*
Y146465D02*
D03*
Y139020D02*
D03*
X506890Y109252D02*
D03*
Y101378D02*
D03*
Y93504D02*
D03*
Y85630D02*
D03*
Y77756D02*
D03*
X528543Y117508D02*
D03*
Y124646D02*
D03*
Y131972D02*
D03*
Y139020D02*
D03*
Y146465D02*
D03*
X27559Y99410D02*
D03*
X8858Y104331D02*
D03*
X236715Y79849D02*
D03*
X229331Y79724D02*
D03*
X318898Y210630D02*
D03*
X380906Y149606D02*
D03*
X387795D02*
D03*
X394685D02*
D03*
X401575D02*
D03*
X399606Y129921D02*
D03*
X393701Y131890D02*
D03*
X382874Y130905D02*
D03*
X321850Y53150D02*
D03*
X280512Y48228D02*
D03*
X236653Y96713D02*
D03*
X227613Y121502D02*
D03*
X234637Y121293D02*
D03*
X231299Y269685D02*
D03*
X340551Y54134D02*
D03*
X344488D02*
D03*
X348425D02*
D03*
X352362D02*
D03*
X356299D02*
D03*
X340551Y50197D02*
D03*
X344488D02*
D03*
X348425D02*
D03*
X352362D02*
D03*
X356299D02*
D03*
X340551Y46260D02*
D03*
X344488D02*
D03*
X348425D02*
D03*
X352362D02*
D03*
X356299D02*
D03*
Y42323D02*
D03*
X352362D02*
D03*
X348425D02*
D03*
X344488D02*
D03*
X340551D02*
D03*
X300197Y247047D02*
D03*
X510827Y192547D02*
D03*
Y215598D02*
D03*
X470472Y117126D02*
D03*
X460570Y153964D02*
D03*
X449803Y119095D02*
D03*
X74272Y156870D02*
D03*
X48926Y157854D02*
D03*
X50650Y137185D02*
D03*
X48926Y144075D02*
D03*
X65413Y150965D02*
D03*
D142*
X391385Y134206D02*
X390546Y134894D01*
X389589Y135406D01*
X388551Y135720D01*
X387472Y135827D01*
X378961Y138756D02*
X379688Y138097D01*
X380476Y137512D01*
X381318Y137008D01*
X382205Y136588D01*
X383129Y136257D01*
X384081Y136019D01*
X385052Y135875D01*
X386032Y135827D01*
X347968Y169748D02*
X347241Y170407D01*
X346453Y170992D01*
X345611Y171496D01*
X344724Y171916D01*
X343800Y172247D01*
X342848Y172485D01*
X341877Y172629D01*
X340897Y172677D01*
X391385Y134206D02*
X393701Y131890D01*
X386032Y135827D02*
X387472D01*
X334791Y172677D02*
X340897D01*
X347968Y169748D02*
X378961Y138756D01*
D143*
X239173Y142717D02*
X249134Y152677D01*
X211614Y130905D02*
X223425Y142717D01*
X239173D01*
X211614Y74803D02*
Y130905D01*
X91535Y63976D02*
X200787D01*
X211614Y74803D01*
X323782Y152522D02*
X334755D01*
X270669Y99410D02*
X323782Y152522D01*
X239350Y99410D02*
X270669D01*
X234252Y102362D02*
X269476D01*
X334791Y167677D01*
Y152559D02*
X340551D01*
X334755Y152522D02*
X334791Y152559D01*
X423228Y60039D02*
X462244D01*
X357283Y125984D02*
X423228Y60039D01*
X462244D02*
X474055Y48228D01*
X456181Y56102D02*
X464055Y48228D01*
X422244Y56102D02*
X456181D01*
X354331Y124016D02*
X422244Y56102D01*
X340551Y152559D02*
X354331Y138779D01*
Y124016D02*
Y138779D01*
X357283Y125984D02*
Y139764D01*
X344488Y152559D02*
X357283Y139764D01*
X337244Y167677D02*
X344488Y160433D01*
Y152559D02*
Y160433D01*
X334791Y167677D02*
X337244D01*
X236653Y96713D02*
X239350Y99410D01*
X207677Y176181D02*
X216535D01*
X185039Y153543D02*
X207677Y176181D01*
X84646Y153543D02*
X185039D01*
X68287Y137185D02*
X84646Y153543D01*
X50650Y137185D02*
X68287D01*
X249134Y152677D02*
X254921D01*
X56102Y99410D02*
X91535Y63976D01*
X231299Y99410D02*
X234252Y102362D01*
X27559Y99410D02*
X56102D01*
D145*
X48926Y144075D02*
X68388D01*
X81693Y157380D01*
Y175197D01*
X73287Y157854D02*
X74272Y156870D01*
X62461Y157854D02*
X73287D01*
X48926D02*
X62461D01*
D146*
X427588Y132451D02*
X440945Y119095D01*
X427588Y132451D02*
Y150628D01*
X440945Y119095D02*
X449803D01*
X480315Y155512D02*
X515748D01*
X520669Y150591D01*
X475394Y160433D02*
X480315Y155512D01*
X418307Y160433D02*
X475394D01*
X520669Y112205D02*
Y150591D01*
X406496Y160433D02*
X418307D01*
X395669Y171260D02*
X406496Y160433D01*
X523622Y109252D02*
X531496D01*
X520669Y112205D02*
X523622Y109252D01*
X326804Y243110D02*
X376969D01*
X395669Y171260D02*
Y224410D01*
X376969Y243110D02*
X395669Y224410D01*
X300197Y247047D02*
X322867D01*
X326804Y243110D01*
D152*
X185984Y36417D02*
D03*
X100709D02*
D03*
D153*
X165984D02*
D03*
X145984D02*
D03*
X125984D02*
D03*
X80709D02*
D03*
X60709D02*
D03*
D154*
X116142Y317717D02*
D03*
D155*
Y305118D02*
D03*
Y292520D02*
D03*
X104331Y317717D02*
D03*
Y305118D02*
D03*
Y292520D02*
D03*
X123622Y281890D02*
D03*
X96850Y328346D02*
D03*
D156*
X228346Y205354D02*
D03*
Y195354D02*
D03*
Y185354D02*
D03*
Y175354D02*
D03*
Y165354D02*
D03*
X174213Y110236D02*
D03*
X193898D02*
D03*
X157980Y329224D02*
D03*
Y309539D02*
D03*
X16732Y252953D02*
D03*
X36417D02*
D03*
D157*
X228346Y155354D02*
D03*
D158*
X240158Y286634D02*
D03*
D159*
X98110Y194882D02*
D03*
X118110D02*
D03*
X138110D02*
D03*
D160*
X484055Y48228D02*
D03*
X474055D02*
D03*
X464055D02*
D03*
X454055D02*
D03*
X444055D02*
D03*
X434055D02*
D03*
D161*
X494055D02*
D03*
D162*
X70866Y285433D02*
D03*
Y309842D02*
D03*
D163*
X52362Y298031D02*
D03*
D164*
X436024Y78770D02*
D03*
X469488D02*
D03*
D165*
X289370Y186024D02*
D03*
X254921Y157677D02*
D03*
X254708Y162677D02*
D03*
X239173Y163795D02*
D03*
X285433Y186024D02*
D03*
X235236Y148622D02*
D03*
Y160433D02*
D03*
X216535Y150591D02*
D03*
Y176181D02*
D03*
X254921Y127677D02*
D03*
Y122677D02*
D03*
X316929Y102362D02*
D03*
X254921Y152677D02*
D03*
Y147677D02*
D03*
Y142677D02*
D03*
Y137677D02*
D03*
X305118Y81693D02*
D03*
X279528D02*
D03*
X334791Y122677D02*
D03*
Y137677D02*
D03*
Y172677D02*
D03*
Y167677D02*
D03*
Y152559D02*
D03*
Y117677D02*
D03*
Y132677D02*
D03*
X272638Y81693D02*
D03*
X266732D02*
D03*
X362205Y224410D02*
D03*
X389764Y262795D02*
D03*
X80374Y135020D02*
D03*
Y139350D02*
D03*
X76043D02*
D03*
Y135020D02*
D03*
D166*
X412014Y301588D02*
D03*
X415364Y301871D02*
D03*
D167*
X274267Y279348D02*
D03*
X184055Y79724D02*
D03*
X187992D02*
D03*
X191929D02*
D03*
X184055Y83661D02*
D03*
X187992D02*
D03*
X191929D02*
D03*
X184055Y87598D02*
D03*
X187992D02*
D03*
X191929D02*
D03*
X164370Y79724D02*
D03*
X168307D02*
D03*
X172244D02*
D03*
X176181D02*
D03*
X180118D02*
D03*
X164370Y83661D02*
D03*
X168307D02*
D03*
X172244D02*
D03*
X176181D02*
D03*
X180118D02*
D03*
X168307Y95472D02*
D03*
X180118D02*
D03*
Y91535D02*
D03*
X172244D02*
D03*
X168307Y99410D02*
D03*
X164370Y91535D02*
D03*
X172244Y99410D02*
D03*
Y95472D02*
D03*
X180118Y99410D02*
D03*
X164370Y95472D02*
D03*
X176181Y99410D02*
D03*
Y95472D02*
D03*
Y91535D02*
D03*
X168307D02*
D03*
X164370Y99410D02*
D03*
X198819Y246063D02*
D03*
X247047Y250984D02*
D03*
X243110D02*
D03*
X235236D02*
D03*
X231299D02*
D03*
X239173D02*
D03*
X227362D02*
D03*
X247047Y247047D02*
D03*
X243110D02*
D03*
X235236D02*
D03*
X231299D02*
D03*
X239173D02*
D03*
X227362D02*
D03*
X239173Y243110D02*
D03*
X235236D02*
D03*
X227362D02*
D03*
X231299D02*
D03*
X239173Y239173D02*
D03*
X235236D02*
D03*
X227362D02*
D03*
X231299D02*
D03*
X239173Y235236D02*
D03*
X235236D02*
D03*
X227362D02*
D03*
X231299D02*
D03*
X239173Y231299D02*
D03*
X235236D02*
D03*
X227362D02*
D03*
X231299D02*
D03*
X247047Y227362D02*
D03*
X243110D02*
D03*
X235236D02*
D03*
X231299D02*
D03*
X239173D02*
D03*
X227362D02*
D03*
X247047Y223425D02*
D03*
X243110D02*
D03*
X235236D02*
D03*
X231299D02*
D03*
X239173D02*
D03*
X227362D02*
D03*
Y219488D02*
D03*
X239173D02*
D03*
X231299D02*
D03*
X235236D02*
D03*
X243110D02*
D03*
X247047D02*
D03*
X264764Y264764D02*
D03*
Y260827D02*
D03*
Y256890D02*
D03*
Y252953D02*
D03*
Y249016D02*
D03*
X268701Y264764D02*
D03*
Y260827D02*
D03*
Y256890D02*
D03*
Y252953D02*
D03*
Y249016D02*
D03*
X292323D02*
D03*
X288386D02*
D03*
X284449D02*
D03*
X280512D02*
D03*
X276575D02*
D03*
X272638D02*
D03*
X462691Y130249D02*
D03*
X272638Y260827D02*
D03*
Y256890D02*
D03*
Y252953D02*
D03*
X276575Y260827D02*
D03*
Y256890D02*
D03*
Y252953D02*
D03*
X280512Y264764D02*
D03*
Y260827D02*
D03*
Y256890D02*
D03*
Y252953D02*
D03*
X284449Y264764D02*
D03*
Y260827D02*
D03*
Y256890D02*
D03*
Y252953D02*
D03*
X288386Y264764D02*
D03*
Y260827D02*
D03*
Y256890D02*
D03*
Y252953D02*
D03*
X292323D02*
D03*
Y256890D02*
D03*
Y260827D02*
D03*
Y264764D02*
D03*
X326611Y303465D02*
D03*
X312617Y289470D02*
D03*
X164370Y87598D02*
D03*
X168307D02*
D03*
X172244D02*
D03*
X176181D02*
D03*
X180118D02*
D03*
X26575Y212598D02*
D03*
X45728Y124390D02*
D03*
Y128327D02*
D03*
Y120453D02*
D03*
Y116516D02*
D03*
X49665Y124390D02*
D03*
Y128327D02*
D03*
Y120453D02*
D03*
Y116516D02*
D03*
X53602Y124390D02*
D03*
Y128327D02*
D03*
Y120453D02*
D03*
Y116516D02*
D03*
X57539Y124390D02*
D03*
Y128327D02*
D03*
Y120453D02*
D03*
Y116516D02*
D03*
X73287D02*
D03*
Y120453D02*
D03*
Y124390D02*
D03*
X69350Y116516D02*
D03*
X65413D02*
D03*
X61476D02*
D03*
Y120453D02*
D03*
X65413D02*
D03*
X69350D02*
D03*
X61476Y128327D02*
D03*
Y124390D02*
D03*
X69350D02*
D03*
Y128327D02*
D03*
X65413Y124390D02*
D03*
Y128327D02*
D03*
X95268Y128134D02*
D03*
X87394Y124197D02*
D03*
X91331D02*
D03*
X95268Y124198D02*
D03*
X91331Y128134D02*
D03*
X87394D02*
D03*
D168*
X56945Y62547D02*
D03*
X45305Y51210D02*
D03*
X18701Y79724D02*
D03*
X45578Y94717D02*
D03*
D169*
X494055Y37497D02*
X494095Y37402D01*
X494055Y37497D02*
Y48228D01*
X486221Y29528D02*
X494095Y37402D01*
X431102Y29528D02*
X486221D01*
M02*
