M48
;Layer_Color=9474304
;FILE_FORMAT=2:3
INCH,TZ
;TYPE=PLATED
T01F00S00C0.012
T02F00S00C0.016
T03F00S00C0.020
T04F00S00C0.024
T05F00S00C0.030
T06F00S00C0.031
T07F00S00C0.032
T09F00S00C0.043
T10F00S00C0.051
T11F00S00C0.059
T12F00S00C0.079
;TYPE=NON_PLATED
T13F00S00C0.039
T14F00S00C0.051
%
T01
X760Y1350
X804
Y1394
X760
X3622Y2244
X3898Y2628
X4120Y3016
X4154Y3019
T02
X4498Y1191
X4705Y1171
X4627Y1302
X5108Y1320
Y1246
Y1175
X5069Y1093
Y1014
Y935
Y856
Y778
X5315Y1093
X5285Y1175
Y1246
Y1320
X3996Y1299
X3937Y1319
X3880Y1290
X3829Y1309
X3348Y1327
Y1227
Y1177
X3169Y1024
X3051Y817
X2795
X2726
X2667
X2805Y482
X3219Y531
X3406Y541
X3445
X3484
X3524
X3563
Y502
X3524
X3484
X3445
X3406
Y463
X3445
X3484
X3524
X3563
Y423
X3524
X3484
X3445
X3406
X3892Y697
X3764Y853
X2367Y798
X2293Y797
X2313Y994
X2367Y967
X2346Y1213
X2276Y1215
X2549Y1227
Y1277
X1919Y876
Y837
Y797
X1880
X1841
Y837
X1880
Y876
X1841
X1801Y876
Y837
Y797
X1762
X1722
X1683
X1644
Y837
Y876
X1683
Y837
X1722
X1762
Y876
X1722
Y915
Y955
X1683
Y915
X1644
Y955
Y994
X1683
X1722
X1762
X1801
Y955
Y915
X1762
Y955
X1727Y492
X1521Y499
X915Y463
X913Y1242
X874
Y1281
X913
X953
Y1242
X733Y1244
Y1205
Y1165
X694
Y1205
X654
Y1165
X615
X575
Y1205
X615
Y1244
X575
X536
X497
X457
Y1283
X497
X536
X575
X615
X654
X694
Y1244
X654
X536Y1205
Y1165
X497
Y1205
X457
Y1165
X276Y994
X89Y1043
X266Y2126
X1988Y2461
X2274Y2470
Y2510
X2313
X2352
X2392
X2431
X2470
Y2470
X2431
X2392
Y2431
X2352
X2352Y2470
X2313
X2313Y2431
X2274
Y2392
X2313
X2352
X2392
Y2352
X2352
X2313
X2274
Y2313
X2313
X2352
X2392
Y2274
Y2234
X2431
Y2274
X2470
Y2234
Y2195
X2431
X2392
X2352
Y2234
Y2274
X2313
Y2234
X2274
Y2274
Y2195
X2313
Y2697
X2165Y1762
Y1506
X2352Y1486
Y1604
X2392Y1638
X2547Y1627
X2549Y1577
Y1527
Y1477
Y1427
Y1377
X2854Y1860
X2894
X3152Y1959
X3268
X3189Y2106
X3268Y2431
X3415Y2362
Y2303
X3484
Y2362
X3002Y2470
X2923Y2490
Y2530
X2884
Y2490
X2844
Y2530
X2805
Y2490
X2766
Y2530
X2726
Y2490
X2687
X2648
Y2530
Y2569
Y2608
Y2648
X2687
Y2608
Y2569
Y2530
X2726Y2569
Y2608
X2766
Y2569
X2805
Y2608
Y2648
X2844
X2884
Y2608
X2844
Y2569
X2884
X2923
Y2608
Y2648
X2743Y2793
X3126Y2895
X3348Y1727
Y1677
Y1526
Y1377
X3809Y1496
X3878
X3947
X4016
X4045Y1732
X4114
X4183Y1604
X4276Y1506
X4478Y1540
X4606
X4803Y1555
X5108Y1465
Y1390
X5285
Y1465
X5108Y1925
Y2156
X4535Y1740
X3266Y3035
T03
X506Y1372
X489Y1441
Y1579
X654Y1510
X743Y1569
X817Y1752
T04
X453Y512
X569Y625
X456Y947
X187Y797
T05
X4360Y788
X4695
T06
X1742Y1102
X1939
X364Y2530
X167
X1580Y3095
Y3292
T07
X2283Y1554
Y1654
Y1754
Y1854
Y1954
Y2054
T09
X4341Y482
X4441
X4541
X4641
X4741
X4841
X4941
T10
X1043Y2925
X1161
X1236Y2819
X1161Y3051
X1043
Y3177
X1161
X969Y3283
T11
X1260Y364
X1460
X1660
X1860
X1007
X807
X607
T12
X981Y1949
X1181
X1381
T13
X2402Y3161
T14
X2402Y2866
M30
