G04*
G04 #@! TF.GenerationSoftware,Altium Limited,Altium Designer,24.5.2 (23)*
G04*
G04 Layer_Color=16711935*
%FSLAX25Y25*%
%MOIN*%
G70*
G04*
G04 #@! TF.SameCoordinates,382E097A-872E-4E2D-8261-3D61551C48C6*
G04*
G04*
G04 #@! TF.FilePolarity,Negative*
G04*
G01*
G75*
%ADD79C,0.04737*%
%ADD80R,0.06706X0.06706*%
%ADD116C,0.07874*%
%ADD121C,0.07296*%
%ADD122R,0.07296X0.07296*%
%ADD123C,0.06706*%
%ADD124R,0.07296X0.07296*%
%ADD125R,0.06706X0.06706*%
%ADD126C,0.05918*%
%ADD127C,0.14580*%
%ADD128R,0.12611X0.12611*%
%ADD129C,0.12611*%
%ADD130R,0.20485X0.08674*%
%ADD131R,0.08674X0.20485*%
%ADD132C,0.08674*%
%ADD133R,0.08674X0.08674*%
G36*
X127963Y131890D02*
X88583D01*
Y132264D01*
X74272D01*
Y150965D01*
X88583D01*
Y171260D01*
X127963D01*
Y131890D01*
D02*
G37*
D79*
X240158Y316122D02*
D03*
D80*
X325071Y6890D02*
D03*
D116*
X47244Y11811D02*
D03*
X527559Y259842D02*
D03*
X11811Y220472D02*
D03*
D121*
X297244Y90551D02*
D03*
X307244D02*
D03*
X434055Y48228D02*
D03*
X444055D02*
D03*
X454055D02*
D03*
X464055D02*
D03*
X474055D02*
D03*
X484055D02*
D03*
D122*
X317244Y90551D02*
D03*
D123*
X315071Y6890D02*
D03*
X305071D02*
D03*
X295071D02*
D03*
X285071D02*
D03*
X275071D02*
D03*
X228346Y202402D02*
D03*
Y192402D02*
D03*
Y182402D02*
D03*
Y172402D02*
D03*
Y162402D02*
D03*
X174213Y110236D02*
D03*
X193898D02*
D03*
X157980Y329224D02*
D03*
Y309539D02*
D03*
X16732Y252953D02*
D03*
X36417D02*
D03*
D124*
X494055Y48228D02*
D03*
D125*
X228346Y152402D02*
D03*
D126*
X240158Y286634D02*
D03*
D127*
X98110Y194882D02*
D03*
X118110D02*
D03*
X138110D02*
D03*
D128*
X191890Y36417D02*
D03*
X103661D02*
D03*
D129*
X171890D02*
D03*
X151890D02*
D03*
X131890D02*
D03*
X83661D02*
D03*
X63661D02*
D03*
D130*
X70866Y285433D02*
D03*
Y309842D02*
D03*
D131*
X52362Y298031D02*
D03*
D132*
X104724Y328346D02*
D03*
X131496Y281890D02*
D03*
X112205Y292520D02*
D03*
Y305118D02*
D03*
Y317717D02*
D03*
X124016Y292520D02*
D03*
Y305118D02*
D03*
D133*
Y317717D02*
D03*
M02*
