G04*
G04 #@! TF.GenerationSoftware,Altium Limited,Altium Designer,24.5.2 (23)*
G04*
G04 Layer_Color=16711935*
%FSLAX25Y25*%
%MOIN*%
G70*
G04*
G04 #@! TF.SameCoordinates,0B6ABAA2-CCE4-471A-9BB9-6C60CE704F84*
G04*
G04*
G04 #@! TF.FilePolarity,Positive*
G04*
G01*
G75*
%ADD158C,0.02756*%
D158*
X76043Y135020D02*
D03*
Y139350D02*
D03*
X80374D02*
D03*
Y135020D02*
D03*
X87394Y128134D02*
D03*
X91331D02*
D03*
X95268Y124198D02*
D03*
X91331Y124197D02*
D03*
X87394D02*
D03*
X95268Y128134D02*
D03*
X65413Y128327D02*
D03*
Y124390D02*
D03*
X69350Y128327D02*
D03*
Y124390D02*
D03*
X61476D02*
D03*
Y128327D02*
D03*
X69350Y120453D02*
D03*
X65413D02*
D03*
X61476D02*
D03*
Y116516D02*
D03*
X65413D02*
D03*
X69350D02*
D03*
X73287Y124390D02*
D03*
Y120453D02*
D03*
Y116516D02*
D03*
X57539D02*
D03*
Y120453D02*
D03*
Y128327D02*
D03*
Y124390D02*
D03*
X53602Y116516D02*
D03*
Y120453D02*
D03*
Y128327D02*
D03*
Y124390D02*
D03*
X49665Y116516D02*
D03*
Y120453D02*
D03*
Y128327D02*
D03*
Y124390D02*
D03*
X45728Y116516D02*
D03*
Y120453D02*
D03*
Y128327D02*
D03*
Y124390D02*
D03*
X180118Y87598D02*
D03*
X176181D02*
D03*
X172244D02*
D03*
X168307D02*
D03*
X164370D02*
D03*
X312617Y289470D02*
D03*
X326611Y303465D02*
D03*
X292323Y264764D02*
D03*
Y260827D02*
D03*
Y256890D02*
D03*
Y252953D02*
D03*
X288386D02*
D03*
Y256890D02*
D03*
Y260827D02*
D03*
Y264764D02*
D03*
X284449Y252953D02*
D03*
Y256890D02*
D03*
Y260827D02*
D03*
Y264764D02*
D03*
X280512Y252953D02*
D03*
Y256890D02*
D03*
Y260827D02*
D03*
Y264764D02*
D03*
X276575Y252953D02*
D03*
Y256890D02*
D03*
Y260827D02*
D03*
X272638Y252953D02*
D03*
Y256890D02*
D03*
Y260827D02*
D03*
X465551Y112205D02*
D03*
X442913Y143701D02*
D03*
X478440Y123359D02*
D03*
X463522Y147074D02*
D03*
X476318D02*
D03*
X452756Y165354D02*
D03*
X272638Y249016D02*
D03*
X276575D02*
D03*
X280512D02*
D03*
X284449D02*
D03*
X288386D02*
D03*
X292323D02*
D03*
X268701D02*
D03*
Y252953D02*
D03*
Y256890D02*
D03*
Y260827D02*
D03*
Y264764D02*
D03*
X264764Y249016D02*
D03*
Y252953D02*
D03*
Y256890D02*
D03*
Y260827D02*
D03*
Y264764D02*
D03*
X247047Y219488D02*
D03*
X243110D02*
D03*
X235236D02*
D03*
X231299D02*
D03*
X239173D02*
D03*
X227362D02*
D03*
Y223425D02*
D03*
X239173D02*
D03*
X231299D02*
D03*
X235236D02*
D03*
X243110D02*
D03*
X247047D02*
D03*
X227362Y227362D02*
D03*
X239173D02*
D03*
X231299D02*
D03*
X235236D02*
D03*
X243110D02*
D03*
X247047D02*
D03*
X231299Y231299D02*
D03*
X227362D02*
D03*
X235236D02*
D03*
X239173D02*
D03*
X231299Y235236D02*
D03*
X227362D02*
D03*
X235236D02*
D03*
X239173D02*
D03*
X231299Y239173D02*
D03*
X227362D02*
D03*
X235236D02*
D03*
X239173D02*
D03*
X231299Y243110D02*
D03*
X227362D02*
D03*
X235236D02*
D03*
X239173D02*
D03*
X227362Y247047D02*
D03*
X239173D02*
D03*
X231299D02*
D03*
X235236D02*
D03*
X243110D02*
D03*
X247047D02*
D03*
X227362Y250984D02*
D03*
X239173D02*
D03*
X231299D02*
D03*
X235236D02*
D03*
X243110D02*
D03*
X247047D02*
D03*
X198819Y246063D02*
D03*
X45578Y94717D02*
D03*
X18701Y79724D02*
D03*
X45305Y51210D02*
D03*
X56945Y62547D02*
D03*
X164370Y99410D02*
D03*
X168307Y91535D02*
D03*
X176181D02*
D03*
Y95472D02*
D03*
Y99410D02*
D03*
X164370Y95472D02*
D03*
X180118Y99410D02*
D03*
X172244Y95472D02*
D03*
Y99410D02*
D03*
X164370Y91535D02*
D03*
X168307Y99410D02*
D03*
X172244Y91535D02*
D03*
X180118D02*
D03*
Y95472D02*
D03*
X168307D02*
D03*
X180118Y83661D02*
D03*
X176181D02*
D03*
X172244D02*
D03*
X168307D02*
D03*
X164370D02*
D03*
X180118Y79724D02*
D03*
X176181D02*
D03*
X172244D02*
D03*
X168307D02*
D03*
X164370D02*
D03*
X191929Y87598D02*
D03*
X187992D02*
D03*
X184055D02*
D03*
X191929Y83661D02*
D03*
X187992D02*
D03*
X184055D02*
D03*
X191929Y79724D02*
D03*
X187992D02*
D03*
X184055D02*
D03*
X486221Y110236D02*
D03*
X510827Y215598D02*
D03*
Y192547D02*
D03*
X300197Y247047D02*
D03*
X339440Y47174D02*
D03*
X343377D02*
D03*
X347314D02*
D03*
X351251D02*
D03*
X355188D02*
D03*
Y51111D02*
D03*
X351251D02*
D03*
X347314D02*
D03*
X343377D02*
D03*
X339440D02*
D03*
X355188Y55048D02*
D03*
X351251D02*
D03*
X347314D02*
D03*
X343377D02*
D03*
X339440D02*
D03*
X355188Y58985D02*
D03*
X351251D02*
D03*
X347314D02*
D03*
X343377D02*
D03*
X339440D02*
D03*
X234637Y121293D02*
D03*
X236653Y96713D02*
D03*
X334791Y132677D02*
D03*
Y117677D02*
D03*
X387028Y74240D02*
D03*
X229331Y79724D02*
D03*
X236715Y79849D02*
D03*
X8858Y104331D02*
D03*
X27559Y99410D02*
D03*
X334791Y152559D02*
D03*
Y167677D02*
D03*
Y172677D02*
D03*
X528543Y131972D02*
D03*
Y124646D02*
D03*
Y117508D02*
D03*
X506890Y77756D02*
D03*
Y85630D02*
D03*
Y93504D02*
D03*
X413386Y174213D02*
D03*
X410433Y169291D02*
D03*
X510827Y139020D02*
D03*
Y146465D02*
D03*
Y131972D02*
D03*
Y124646D02*
D03*
Y117508D02*
D03*
X334791Y137677D02*
D03*
Y122677D02*
D03*
X254921Y137677D02*
D03*
Y142677D02*
D03*
Y147677D02*
D03*
Y152677D02*
D03*
Y157677D02*
D03*
X316929Y102752D02*
D03*
X254921Y127677D02*
D03*
X231299Y99410D02*
D03*
X341535Y236221D02*
D03*
X348425D02*
D03*
X341535Y230315D02*
D03*
X348425D02*
D03*
X158014Y51244D02*
D03*
X178356Y51552D02*
D03*
X374114Y78651D02*
D03*
X41339Y213583D02*
D03*
X58071Y141732D02*
D03*
X84646Y158465D02*
D03*
X326849Y243155D02*
D03*
X327023Y188156D02*
D03*
X314311Y189626D02*
D03*
X319882Y194882D02*
D03*
X240158Y144685D02*
D03*
X276811Y102752D02*
D03*
X265114Y122606D02*
D03*
Y112677D02*
D03*
Y117677D02*
D03*
X323819Y127677D02*
D03*
X267717Y129921D02*
D03*
X323819Y112677D02*
D03*
X239173Y61024D02*
D03*
X276448Y65875D02*
D03*
Y58001D02*
D03*
Y50127D02*
D03*
Y42253D02*
D03*
Y34379D02*
D03*
X230650Y269896D02*
D03*
X378937Y124736D02*
D03*
Y139165D02*
D03*
X394472D02*
D03*
Y124736D02*
D03*
X369094Y134843D02*
D03*
Y128937D02*
D03*
X404528D02*
D03*
Y134843D02*
D03*
X334742Y142642D02*
D03*
X506890Y101378D02*
D03*
X528543Y139020D02*
D03*
X506890Y109252D02*
D03*
X528543Y146465D02*
D03*
X532496Y109252D02*
D03*
X496686Y157556D02*
D03*
X89892Y50522D02*
D03*
X421205Y157557D02*
D03*
X279528Y186024D02*
D03*
X275086Y185711D02*
D03*
X276448Y85560D02*
D03*
X322708Y58001D02*
D03*
X280385Y85560D02*
D03*
X288259D02*
D03*
X234252Y148622D02*
D03*
X216535Y140748D02*
D03*
X227362Y122047D02*
D03*
X240158Y159449D02*
D03*
M02*
